%TF.GenerationSoftware,KiCad,Pcbnew,7.0.5*%
%TF.CreationDate,2023-11-26T00:40:17+09:00*%
%TF.ProjectId,Ultramarine-2_UnderCover,556c7472-616d-4617-9269-6e652d325f55,rev?*%
%TF.SameCoordinates,Original*%
%TF.FileFunction,Profile,NP*%
%FSLAX46Y46*%
G04 Gerber Fmt 4.6, Leading zero omitted, Abs format (unit mm)*
G04 Created by KiCad (PCBNEW 7.0.5) date 2023-11-26 00:40:17*
%MOMM*%
%LPD*%
G01*
G04 APERTURE LIST*
%TA.AperFunction,Profile*%
%ADD10C,0.200000*%
%TD*%
G04 APERTURE END LIST*
D10*
X77000000Y-107600001D02*
G75*
G03*
X77000001Y-106599999I0J500001D01*
G01*
X77000001Y-106599999D02*
X70500001Y-106599999D01*
X77000000Y-107600000D02*
X70500000Y-107600000D01*
X70000001Y-106099999D02*
G75*
G03*
X70500001Y-106599999I499999J-1D01*
G01*
X70500001Y-107600001D02*
G75*
G03*
X70000001Y-108100001I-1J-499999D01*
G01*
X70000000Y-116258330D02*
X70000001Y-108100001D01*
X73100000Y-78000000D02*
G75*
G03*
X73100000Y-78000000I-1100000J0D01*
G01*
X205000002Y-46301868D02*
G75*
G03*
X199078181Y-37844634I-8999902J68D01*
G01*
X70000000Y-42000000D02*
X70000001Y-106099999D01*
X159892528Y-30000000D02*
X115107472Y-30000000D01*
X202000000Y-134000000D02*
G75*
G03*
X205000000Y-131000000I0J3000000D01*
G01*
X187600000Y-115500000D02*
G75*
G03*
X187600000Y-115500000I-1100000J0D01*
G01*
X115107472Y-30000006D02*
G75*
G03*
X91528419Y-32819610I-72J-99999594D01*
G01*
X93696152Y-152000000D02*
X113270527Y-140698730D01*
X88000000Y-40000000D02*
G75*
G03*
X90000000Y-38000000I0J2000000D01*
G01*
X138270527Y-133999991D02*
G75*
G03*
X113270527Y-140698730I73J-50000209D01*
G01*
X73349365Y-128758330D02*
X85500000Y-149803848D01*
X70000009Y-116258330D02*
G75*
G03*
X73349366Y-128758330I24999791J-70D01*
G01*
X187600000Y-58500000D02*
G75*
G03*
X187600000Y-58500000I-1100000J0D01*
G01*
X91528415Y-32819593D02*
G75*
G03*
X90000000Y-34763218I471585J-1943607D01*
G01*
X85499999Y-149803849D02*
G75*
G03*
X93696152Y-151999999I5196151J2999999D01*
G01*
X111600000Y-54000000D02*
G75*
G03*
X111600000Y-54000000I-1100000J0D01*
G01*
X99100000Y-118000000D02*
G75*
G03*
X99100000Y-118000000I-1100000J0D01*
G01*
X149600000Y-87500000D02*
G75*
G03*
X149600000Y-87500000I-1100000J0D01*
G01*
X194094545Y-36030730D02*
G75*
G03*
X159892528Y-30000000I-34202045J-93969570D01*
G01*
X199078181Y-37844634D02*
X194094542Y-36030738D01*
X88000000Y-40000000D02*
X72000000Y-40000000D01*
X72000000Y-40000000D02*
G75*
G03*
X70000000Y-42000000I0J-2000000D01*
G01*
X90100000Y-78000000D02*
G75*
G03*
X90100000Y-78000000I-1100000J0D01*
G01*
X111600000Y-92200000D02*
G75*
G03*
X111600000Y-92200000I-1100000J0D01*
G01*
X138270527Y-134000000D02*
X202000000Y-134000000D01*
X90000000Y-34763218D02*
X90000000Y-38000000D01*
X205000000Y-131000000D02*
X205000000Y-46301868D01*
M02*
