  0
SECTION
  2
HEADER
  9
$ANGBASE
  50
0.0
  9
$ANGDIR
  70
1
  9
$MEASUREMENT
  70
1
  0
ENDSEC
  0
SECTION
  2
TABLES
  0
TABLE
  2
LTYPE
  70
4
  0
LTYPE
  5
40F
  2
CONTINUOUS
  70
0
  3
Solid line
  72
65
  73
0
  40
0.0
  0
LTYPE
  5
410
  2
DASHDOT
 70
0
  3
Dash Dot ____ _ ____ _
 72
65
 73
4
 40
2.0
 49
1.25
 49
-0.25
 49
0.25
 49
-0.25
  0
LTYPE
  5
411
  2
DASHED
 70
0
  3
Dashed __ __ __ __ __
 72
65
 73
2
 40
0.75
 49
0.5
 49
-0.25
  0
LTYPE
  5
43B
  2
DOTTED
 70
0
  3
Dotted .  .  .  .
 72
65
 73
2
 40
0.2
 49
0.0
 49
-0.2
  0
ENDTAB
  0
TABLE
  2
STYLE
  70
4
  0
STYLE
  2
KICAD
  70
0
  40
0
  41
1
  42
1
  50
0
  71
0
  3
isocp.shx
  0
STYLE
  2
KICADB
  70
0
  40
0
  41
1
  42
1
  50
0
  71
0
  3
isocp.shx
  0
STYLE
  2
KICADI
  70
0
  40
0
  41
1
  42
1
  50
15
  71
0
  3
isocp.shx
  0
STYLE
  2
KICADBI
  70
0
  40
0
  41
1
  42
1
  50
15
  71
0
  3
isocp.shx
  0
ENDTAB
  0
TABLE
  2
LAYER
  70
1
  0
LAYER
  2
BLACK
  70
0
  62
7
  6
CONTINUOUS
  0
ENDTAB
  0
ENDSEC
  0
SECTION
  2
ENTITIES
0
LINE
8
BLACK
6
CONTINUOUS
10
98.3284
20
-116.846
11
98.5349
21
-116.926
0
LINE
8
BLACK
6
CONTINUOUS
10
98.5349
20
-116.926
11
98.7232
21
-117.042
0
LINE
8
BLACK
6
CONTINUOUS
10
98.7232
20
-117.042
11
98.8868
21
-117.192
0
LINE
8
BLACK
6
CONTINUOUS
10
98.8868
20
-117.192
11
99.0203
21
-117.368
0
LINE
8
BLACK
6
CONTINUOUS
10
99.0203
20
-117.368
11
99.119
21
-117.567
0
LINE
8
BLACK
6
CONTINUOUS
10
99.119
20
-117.567
11
99.1796
21
-117.78
0
LINE
8
BLACK
6
CONTINUOUS
10
99.1796
20
-117.78
11
99.2
21
-118
0
LINE
8
BLACK
6
CONTINUOUS
10
99.2
20
-118
11
99.1796
21
-118.22
0
LINE
8
BLACK
6
CONTINUOUS
10
99.1796
20
-118.22
11
99.119
21
-118.433
0
LINE
8
BLACK
6
CONTINUOUS
10
99.119
20
-118.433
11
99.0203
21
-118.632
0
LINE
8
BLACK
6
CONTINUOUS
10
99.0203
20
-118.632
11
98.8868
21
-118.808
0
LINE
8
BLACK
6
CONTINUOUS
10
98.8868
20
-118.808
11
98.7232
21
-118.958
0
LINE
8
BLACK
6
CONTINUOUS
10
98.7232
20
-118.958
11
98.5349
21
-119.074
0
LINE
8
BLACK
6
CONTINUOUS
10
98.5349
20
-119.074
11
98.3284
21
-119.154
0
LINE
8
BLACK
6
CONTINUOUS
10
98.3284
20
-119.154
11
98.1107
21
-119.195
0
LINE
8
BLACK
6
CONTINUOUS
10
98.1107
20
-119.195
11
97.8893
21
-119.195
0
LINE
8
BLACK
6
CONTINUOUS
10
97.8893
20
-119.195
11
97.6716
21
-119.154
0
LINE
8
BLACK
6
CONTINUOUS
10
97.6716
20
-119.154
11
97.4651
21
-119.074
0
LINE
8
BLACK
6
CONTINUOUS
10
97.4651
20
-119.074
11
97.2768
21
-118.958
0
LINE
8
BLACK
6
CONTINUOUS
10
97.2768
20
-118.958
11
97.1132
21
-118.808
0
LINE
8
BLACK
6
CONTINUOUS
10
97.1132
20
-118.808
11
96.9797
21
-118.632
0
LINE
8
BLACK
6
CONTINUOUS
10
96.9797
20
-118.632
11
96.881
21
-118.433
0
LINE
8
BLACK
6
CONTINUOUS
10
96.881
20
-118.433
11
96.8204
21
-118.22
0
LINE
8
BLACK
6
CONTINUOUS
10
96.8204
20
-118.22
11
96.8
21
-118
0
LINE
8
BLACK
6
CONTINUOUS
10
96.8
20
-118
11
96.8204
21
-117.78
0
LINE
8
BLACK
6
CONTINUOUS
10
96.8204
20
-117.78
11
96.881
21
-117.567
0
LINE
8
BLACK
6
CONTINUOUS
10
96.881
20
-117.567
11
96.9797
21
-117.368
0
LINE
8
BLACK
6
CONTINUOUS
10
96.9797
20
-117.368
11
97.1132
21
-117.192
0
LINE
8
BLACK
6
CONTINUOUS
10
97.1132
20
-117.192
11
97.2768
21
-117.042
0
LINE
8
BLACK
6
CONTINUOUS
10
97.2768
20
-117.042
11
97.4651
21
-116.926
0
LINE
8
BLACK
6
CONTINUOUS
10
97.4651
20
-116.926
11
97.6716
21
-116.846
0
LINE
8
BLACK
6
CONTINUOUS
10
97.6716
20
-116.846
11
97.8893
21
-116.805
0
LINE
8
BLACK
6
CONTINUOUS
10
97.8893
20
-116.805
11
98.1107
21
-116.805
0
LINE
8
BLACK
6
CONTINUOUS
10
98.1107
20
-116.805
11
98.3284
21
-116.846
0
LINE
8
BLACK
6
CONTINUOUS
10
97.0145
20
-118.196
11
97.0716
21
-118.385
0
LINE
8
BLACK
6
CONTINUOUS
10
97.0716
20
-118.385
11
97.1645
21
-118.558
0
LINE
8
BLACK
6
CONTINUOUS
10
97.1645
20
-118.558
11
97.2895
21
-118.711
0
LINE
8
BLACK
6
CONTINUOUS
10
97.2895
20
-118.711
11
97.4417
21
-118.835
0
LINE
8
BLACK
6
CONTINUOUS
10
97.4417
20
-118.835
11
97.6155
21
-118.928
0
LINE
8
BLACK
6
CONTINUOUS
10
97.6155
20
-118.928
11
97.804
21
-118.986
0
LINE
8
BLACK
6
CONTINUOUS
10
97.804
20
-118.986
11
98
21
-119.005
0
LINE
8
BLACK
6
CONTINUOUS
10
98
20
-119.005
11
98.196
21
-118.986
0
LINE
8
BLACK
6
CONTINUOUS
10
98.196
20
-118.986
11
98.3845
21
-118.928
0
LINE
8
BLACK
6
CONTINUOUS
10
98.3845
20
-118.928
11
98.5583
21
-118.835
0
LINE
8
BLACK
6
CONTINUOUS
10
98.5583
20
-118.835
11
98.7105
21
-118.711
0
LINE
8
BLACK
6
CONTINUOUS
10
98.7105
20
-118.711
11
98.8355
21
-118.558
0
LINE
8
BLACK
6
CONTINUOUS
10
98.8355
20
-118.558
11
98.9283
21
-118.385
0
LINE
8
BLACK
6
CONTINUOUS
10
98.9283
20
-118.385
11
98.9855
21
-118.196
0
LINE
8
BLACK
6
CONTINUOUS
10
98.9855
20
-118.196
11
99.0048
21
-118
0
LINE
8
BLACK
6
CONTINUOUS
10
99.0048
20
-118
11
98.9855
21
-117.804
0
LINE
8
BLACK
6
CONTINUOUS
10
98.9855
20
-117.804
11
98.9283
21
-117.615
0
LINE
8
BLACK
6
CONTINUOUS
10
98.9283
20
-117.615
11
98.8355
21
-117.442
0
LINE
8
BLACK
6
CONTINUOUS
10
98.8355
20
-117.442
11
98.7105
21
-117.289
0
LINE
8
BLACK
6
CONTINUOUS
10
98.7105
20
-117.289
11
98.5583
21
-117.165
0
LINE
8
BLACK
6
CONTINUOUS
10
98.5583
20
-117.165
11
98.3845
21
-117.072
0
LINE
8
BLACK
6
CONTINUOUS
10
98.3845
20
-117.072
11
98.196
21
-117.014
0
LINE
8
BLACK
6
CONTINUOUS
10
98.196
20
-117.014
11
98
21
-116.995
0
LINE
8
BLACK
6
CONTINUOUS
10
98
20
-116.995
11
97.804
21
-117.014
0
LINE
8
BLACK
6
CONTINUOUS
10
97.804
20
-117.014
11
97.6155
21
-117.072
0
LINE
8
BLACK
6
CONTINUOUS
10
97.6155
20
-117.072
11
97.4417
21
-117.165
0
LINE
8
BLACK
6
CONTINUOUS
10
97.4417
20
-117.165
11
97.2895
21
-117.289
0
LINE
8
BLACK
6
CONTINUOUS
10
97.2895
20
-117.289
11
97.1645
21
-117.442
0
LINE
8
BLACK
6
CONTINUOUS
10
97.1645
20
-117.442
11
97.0716
21
-117.615
0
LINE
8
BLACK
6
CONTINUOUS
10
97.0716
20
-117.615
11
97.0145
21
-117.804
0
LINE
8
BLACK
6
CONTINUOUS
10
97.0145
20
-117.804
11
96.9952
21
-118
0
LINE
8
BLACK
6
CONTINUOUS
10
96.9952
20
-118
11
97.0145
21
-118.196
0
LINE
8
BLACK
6
CONTINUOUS
10
186.828
20
-114.346
11
187.035
21
-114.426
0
LINE
8
BLACK
6
CONTINUOUS
10
187.035
20
-114.426
11
187.223
21
-114.542
0
LINE
8
BLACK
6
CONTINUOUS
10
187.223
20
-114.542
11
187.387
21
-114.692
0
LINE
8
BLACK
6
CONTINUOUS
10
187.387
20
-114.692
11
187.52
21
-114.868
0
LINE
8
BLACK
6
CONTINUOUS
10
187.52
20
-114.868
11
187.619
21
-115.067
0
LINE
8
BLACK
6
CONTINUOUS
10
187.619
20
-115.067
11
187.68
21
-115.28
0
LINE
8
BLACK
6
CONTINUOUS
10
187.68
20
-115.28
11
187.7
21
-115.5
0
LINE
8
BLACK
6
CONTINUOUS
10
187.7
20
-115.5
11
187.68
21
-115.72
0
LINE
8
BLACK
6
CONTINUOUS
10
187.68
20
-115.72
11
187.619
21
-115.933
0
LINE
8
BLACK
6
CONTINUOUS
10
187.619
20
-115.933
11
187.52
21
-116.132
0
LINE
8
BLACK
6
CONTINUOUS
10
187.52
20
-116.132
11
187.387
21
-116.308
0
LINE
8
BLACK
6
CONTINUOUS
10
187.387
20
-116.308
11
187.223
21
-116.458
0
LINE
8
BLACK
6
CONTINUOUS
10
187.223
20
-116.458
11
187.035
21
-116.574
0
LINE
8
BLACK
6
CONTINUOUS
10
187.035
20
-116.574
11
186.828
21
-116.654
0
LINE
8
BLACK
6
CONTINUOUS
10
186.828
20
-116.654
11
186.611
21
-116.695
0
LINE
8
BLACK
6
CONTINUOUS
10
186.611
20
-116.695
11
186.389
21
-116.695
0
LINE
8
BLACK
6
CONTINUOUS
10
186.389
20
-116.695
11
186.172
21
-116.654
0
LINE
8
BLACK
6
CONTINUOUS
10
186.172
20
-116.654
11
185.965
21
-116.574
0
LINE
8
BLACK
6
CONTINUOUS
10
185.965
20
-116.574
11
185.777
21
-116.458
0
LINE
8
BLACK
6
CONTINUOUS
10
185.777
20
-116.458
11
185.613
21
-116.308
0
LINE
8
BLACK
6
CONTINUOUS
10
185.613
20
-116.308
11
185.48
21
-116.132
0
LINE
8
BLACK
6
CONTINUOUS
10
185.48
20
-116.132
11
185.381
21
-115.933
0
LINE
8
BLACK
6
CONTINUOUS
10
185.381
20
-115.933
11
185.32
21
-115.72
0
LINE
8
BLACK
6
CONTINUOUS
10
185.32
20
-115.72
11
185.3
21
-115.5
0
LINE
8
BLACK
6
CONTINUOUS
10
185.3
20
-115.5
11
185.32
21
-115.28
0
LINE
8
BLACK
6
CONTINUOUS
10
185.32
20
-115.28
11
185.381
21
-115.067
0
LINE
8
BLACK
6
CONTINUOUS
10
185.381
20
-115.067
11
185.48
21
-114.868
0
LINE
8
BLACK
6
CONTINUOUS
10
185.48
20
-114.868
11
185.613
21
-114.692
0
LINE
8
BLACK
6
CONTINUOUS
10
185.613
20
-114.692
11
185.777
21
-114.542
0
LINE
8
BLACK
6
CONTINUOUS
10
185.777
20
-114.542
11
185.965
21
-114.426
0
LINE
8
BLACK
6
CONTINUOUS
10
185.965
20
-114.426
11
186.172
21
-114.346
0
LINE
8
BLACK
6
CONTINUOUS
10
186.172
20
-114.346
11
186.389
21
-114.305
0
LINE
8
BLACK
6
CONTINUOUS
10
186.389
20
-114.305
11
186.611
21
-114.305
0
LINE
8
BLACK
6
CONTINUOUS
10
186.611
20
-114.305
11
186.828
21
-114.346
0
LINE
8
BLACK
6
CONTINUOUS
10
185.514
20
-115.696
11
185.572
21
-115.885
0
LINE
8
BLACK
6
CONTINUOUS
10
185.572
20
-115.885
11
185.665
21
-116.058
0
LINE
8
BLACK
6
CONTINUOUS
10
185.665
20
-116.058
11
185.789
21
-116.211
0
LINE
8
BLACK
6
CONTINUOUS
10
185.789
20
-116.211
11
185.942
21
-116.335
0
LINE
8
BLACK
6
CONTINUOUS
10
185.942
20
-116.335
11
186.115
21
-116.428
0
LINE
8
BLACK
6
CONTINUOUS
10
186.115
20
-116.428
11
186.304
21
-116.486
0
LINE
8
BLACK
6
CONTINUOUS
10
186.304
20
-116.486
11
186.5
21
-116.505
0
LINE
8
BLACK
6
CONTINUOUS
10
186.5
20
-116.505
11
186.696
21
-116.486
0
LINE
8
BLACK
6
CONTINUOUS
10
186.696
20
-116.486
11
186.885
21
-116.428
0
LINE
8
BLACK
6
CONTINUOUS
10
186.885
20
-116.428
11
187.058
21
-116.335
0
LINE
8
BLACK
6
CONTINUOUS
10
187.058
20
-116.335
11
187.211
21
-116.211
0
LINE
8
BLACK
6
CONTINUOUS
10
187.211
20
-116.211
11
187.335
21
-116.058
0
LINE
8
BLACK
6
CONTINUOUS
10
187.335
20
-116.058
11
187.428
21
-115.885
0
LINE
8
BLACK
6
CONTINUOUS
10
187.428
20
-115.885
11
187.486
21
-115.696
0
LINE
8
BLACK
6
CONTINUOUS
10
187.486
20
-115.696
11
187.505
21
-115.5
0
LINE
8
BLACK
6
CONTINUOUS
10
187.505
20
-115.5
11
187.486
21
-115.304
0
LINE
8
BLACK
6
CONTINUOUS
10
187.486
20
-115.304
11
187.428
21
-115.115
0
LINE
8
BLACK
6
CONTINUOUS
10
187.428
20
-115.115
11
187.335
21
-114.942
0
LINE
8
BLACK
6
CONTINUOUS
10
187.335
20
-114.942
11
187.211
21
-114.789
0
LINE
8
BLACK
6
CONTINUOUS
10
187.211
20
-114.789
11
187.058
21
-114.665
0
LINE
8
BLACK
6
CONTINUOUS
10
187.058
20
-114.665
11
186.885
21
-114.572
0
LINE
8
BLACK
6
CONTINUOUS
10
186.885
20
-114.572
11
186.696
21
-114.514
0
LINE
8
BLACK
6
CONTINUOUS
10
186.696
20
-114.514
11
186.5
21
-114.495
0
LINE
8
BLACK
6
CONTINUOUS
10
186.5
20
-114.495
11
186.304
21
-114.514
0
LINE
8
BLACK
6
CONTINUOUS
10
186.304
20
-114.514
11
186.115
21
-114.572
0
LINE
8
BLACK
6
CONTINUOUS
10
186.115
20
-114.572
11
185.942
21
-114.665
0
LINE
8
BLACK
6
CONTINUOUS
10
185.942
20
-114.665
11
185.789
21
-114.789
0
LINE
8
BLACK
6
CONTINUOUS
10
185.789
20
-114.789
11
185.665
21
-114.942
0
LINE
8
BLACK
6
CONTINUOUS
10
185.665
20
-114.942
11
185.572
21
-115.115
0
LINE
8
BLACK
6
CONTINUOUS
10
185.572
20
-115.115
11
185.514
21
-115.304
0
LINE
8
BLACK
6
CONTINUOUS
10
185.514
20
-115.304
11
185.495
21
-115.5
0
LINE
8
BLACK
6
CONTINUOUS
10
185.495
20
-115.5
11
185.514
21
-115.696
0
LINE
8
BLACK
6
CONTINUOUS
10
110.828
20
-91.0458
11
111.035
21
-91.1258
0
LINE
8
BLACK
6
CONTINUOUS
10
111.035
20
-91.1258
11
111.223
21
-91.2424
0
LINE
8
BLACK
6
CONTINUOUS
10
111.223
20
-91.2424
11
111.387
21
-91.3916
0
LINE
8
BLACK
6
CONTINUOUS
10
111.387
20
-91.3916
11
111.52
21
-91.5683
0
LINE
8
BLACK
6
CONTINUOUS
10
111.52
20
-91.5683
11
111.619
21
-91.7665
0
LINE
8
BLACK
6
CONTINUOUS
10
111.619
20
-91.7665
11
111.68
21
-91.9795
0
LINE
8
BLACK
6
CONTINUOUS
10
111.68
20
-91.9795
11
111.7
21
-92.2
0
LINE
8
BLACK
6
CONTINUOUS
10
111.7
20
-92.2
11
111.68
21
-92.4205
0
LINE
8
BLACK
6
CONTINUOUS
10
111.68
20
-92.4205
11
111.619
21
-92.6335
0
LINE
8
BLACK
6
CONTINUOUS
10
111.619
20
-92.6335
11
111.52
21
-92.8317
0
LINE
8
BLACK
6
CONTINUOUS
10
111.52
20
-92.8317
11
111.387
21
-93.0084
0
LINE
8
BLACK
6
CONTINUOUS
10
111.387
20
-93.0084
11
111.223
21
-93.1576
0
LINE
8
BLACK
6
CONTINUOUS
10
111.223
20
-93.1576
11
111.035
21
-93.2742
0
LINE
8
BLACK
6
CONTINUOUS
10
111.035
20
-93.2742
11
110.828
21
-93.3542
0
LINE
8
BLACK
6
CONTINUOUS
10
110.828
20
-93.3542
11
110.611
21
-93.3949
0
LINE
8
BLACK
6
CONTINUOUS
10
110.611
20
-93.3949
11
110.389
21
-93.3949
0
LINE
8
BLACK
6
CONTINUOUS
10
110.389
20
-93.3949
11
110.172
21
-93.3542
0
LINE
8
BLACK
6
CONTINUOUS
10
110.172
20
-93.3542
11
109.965
21
-93.2742
0
LINE
8
BLACK
6
CONTINUOUS
10
109.965
20
-93.2742
11
109.777
21
-93.1576
0
LINE
8
BLACK
6
CONTINUOUS
10
109.777
20
-93.1576
11
109.613
21
-93.0084
0
LINE
8
BLACK
6
CONTINUOUS
10
109.613
20
-93.0084
11
109.48
21
-92.8317
0
LINE
8
BLACK
6
CONTINUOUS
10
109.48
20
-92.8317
11
109.381
21
-92.6335
0
LINE
8
BLACK
6
CONTINUOUS
10
109.381
20
-92.6335
11
109.32
21
-92.4205
0
LINE
8
BLACK
6
CONTINUOUS
10
109.32
20
-92.4205
11
109.3
21
-92.2
0
LINE
8
BLACK
6
CONTINUOUS
10
109.3
20
-92.2
11
109.32
21
-91.9795
0
LINE
8
BLACK
6
CONTINUOUS
10
109.32
20
-91.9795
11
109.381
21
-91.7665
0
LINE
8
BLACK
6
CONTINUOUS
10
109.381
20
-91.7665
11
109.48
21
-91.5683
0
LINE
8
BLACK
6
CONTINUOUS
10
109.48
20
-91.5683
11
109.613
21
-91.3916
0
LINE
8
BLACK
6
CONTINUOUS
10
109.613
20
-91.3916
11
109.777
21
-91.2424
0
LINE
8
BLACK
6
CONTINUOUS
10
109.777
20
-91.2424
11
109.965
21
-91.1258
0
LINE
8
BLACK
6
CONTINUOUS
10
109.965
20
-91.1258
11
110.172
21
-91.0458
0
LINE
8
BLACK
6
CONTINUOUS
10
110.172
20
-91.0458
11
110.389
21
-91.0051
0
LINE
8
BLACK
6
CONTINUOUS
10
110.389
20
-91.0051
11
110.611
21
-91.0051
0
LINE
8
BLACK
6
CONTINUOUS
10
110.611
20
-91.0051
11
110.828
21
-91.0458
0
LINE
8
BLACK
6
CONTINUOUS
10
109.514
20
-92.396
11
109.572
21
-92.5845
0
LINE
8
BLACK
6
CONTINUOUS
10
109.572
20
-92.5845
11
109.665
21
-92.7583
0
LINE
8
BLACK
6
CONTINUOUS
10
109.665
20
-92.7583
11
109.789
21
-92.9105
0
LINE
8
BLACK
6
CONTINUOUS
10
109.789
20
-92.9105
11
109.942
21
-93.0355
0
LINE
8
BLACK
6
CONTINUOUS
10
109.942
20
-93.0355
11
110.115
21
-93.1283
0
LINE
8
BLACK
6
CONTINUOUS
10
110.115
20
-93.1283
11
110.304
21
-93.1855
0
LINE
8
BLACK
6
CONTINUOUS
10
110.304
20
-93.1855
11
110.5
21
-93.2048
0
LINE
8
BLACK
6
CONTINUOUS
10
110.5
20
-93.2048
11
110.696
21
-93.1855
0
LINE
8
BLACK
6
CONTINUOUS
10
110.696
20
-93.1855
11
110.885
21
-93.1283
0
LINE
8
BLACK
6
CONTINUOUS
10
110.885
20
-93.1283
11
111.058
21
-93.0355
0
LINE
8
BLACK
6
CONTINUOUS
10
111.058
20
-93.0355
11
111.211
21
-92.9105
0
LINE
8
BLACK
6
CONTINUOUS
10
111.211
20
-92.9105
11
111.335
21
-92.7583
0
LINE
8
BLACK
6
CONTINUOUS
10
111.335
20
-92.7583
11
111.428
21
-92.5845
0
LINE
8
BLACK
6
CONTINUOUS
10
111.428
20
-92.5845
11
111.486
21
-92.396
0
LINE
8
BLACK
6
CONTINUOUS
10
111.486
20
-92.396
11
111.505
21
-92.2
0
LINE
8
BLACK
6
CONTINUOUS
10
111.505
20
-92.2
11
111.486
21
-92.004
0
LINE
8
BLACK
6
CONTINUOUS
10
111.486
20
-92.004
11
111.428
21
-91.8155
0
LINE
8
BLACK
6
CONTINUOUS
10
111.428
20
-91.8155
11
111.335
21
-91.6417
0
LINE
8
BLACK
6
CONTINUOUS
10
111.335
20
-91.6417
11
111.211
21
-91.4895
0
LINE
8
BLACK
6
CONTINUOUS
10
111.211
20
-91.4895
11
111.058
21
-91.3645
0
LINE
8
BLACK
6
CONTINUOUS
10
111.058
20
-91.3645
11
110.885
21
-91.2716
0
LINE
8
BLACK
6
CONTINUOUS
10
110.885
20
-91.2716
11
110.696
21
-91.2145
0
LINE
8
BLACK
6
CONTINUOUS
10
110.696
20
-91.2145
11
110.5
21
-91.1952
0
LINE
8
BLACK
6
CONTINUOUS
10
110.5
20
-91.1952
11
110.304
21
-91.2145
0
LINE
8
BLACK
6
CONTINUOUS
10
110.304
20
-91.2145
11
110.115
21
-91.2716
0
LINE
8
BLACK
6
CONTINUOUS
10
110.115
20
-91.2716
11
109.942
21
-91.3645
0
LINE
8
BLACK
6
CONTINUOUS
10
109.942
20
-91.3645
11
109.789
21
-91.4895
0
LINE
8
BLACK
6
CONTINUOUS
10
109.789
20
-91.4895
11
109.665
21
-91.6417
0
LINE
8
BLACK
6
CONTINUOUS
10
109.665
20
-91.6417
11
109.572
21
-91.8155
0
LINE
8
BLACK
6
CONTINUOUS
10
109.572
20
-91.8155
11
109.514
21
-92.004
0
LINE
8
BLACK
6
CONTINUOUS
10
109.514
20
-92.004
11
109.495
21
-92.2
0
LINE
8
BLACK
6
CONTINUOUS
10
109.495
20
-92.2
11
109.514
21
-92.396
0
LINE
8
BLACK
6
CONTINUOUS
10
148.828
20
-86.3458
11
149.035
21
-86.4258
0
LINE
8
BLACK
6
CONTINUOUS
10
149.035
20
-86.4258
11
149.223
21
-86.5424
0
LINE
8
BLACK
6
CONTINUOUS
10
149.223
20
-86.5424
11
149.387
21
-86.6916
0
LINE
8
BLACK
6
CONTINUOUS
10
149.387
20
-86.6916
11
149.52
21
-86.8683
0
LINE
8
BLACK
6
CONTINUOUS
10
149.52
20
-86.8683
11
149.619
21
-87.0665
0
LINE
8
BLACK
6
CONTINUOUS
10
149.619
20
-87.0665
11
149.68
21
-87.2795
0
LINE
8
BLACK
6
CONTINUOUS
10
149.68
20
-87.2795
11
149.7
21
-87.5
0
LINE
8
BLACK
6
CONTINUOUS
10
149.7
20
-87.5
11
149.68
21
-87.7205
0
LINE
8
BLACK
6
CONTINUOUS
10
149.68
20
-87.7205
11
149.619
21
-87.9335
0
LINE
8
BLACK
6
CONTINUOUS
10
149.619
20
-87.9335
11
149.52
21
-88.1317
0
LINE
8
BLACK
6
CONTINUOUS
10
149.52
20
-88.1317
11
149.387
21
-88.3084
0
LINE
8
BLACK
6
CONTINUOUS
10
149.387
20
-88.3084
11
149.223
21
-88.4576
0
LINE
8
BLACK
6
CONTINUOUS
10
149.223
20
-88.4576
11
149.035
21
-88.5742
0
LINE
8
BLACK
6
CONTINUOUS
10
149.035
20
-88.5742
11
148.828
21
-88.6542
0
LINE
8
BLACK
6
CONTINUOUS
10
148.828
20
-88.6542
11
148.611
21
-88.6949
0
LINE
8
BLACK
6
CONTINUOUS
10
148.611
20
-88.6949
11
148.389
21
-88.6949
0
LINE
8
BLACK
6
CONTINUOUS
10
148.389
20
-88.6949
11
148.172
21
-88.6542
0
LINE
8
BLACK
6
CONTINUOUS
10
148.172
20
-88.6542
11
147.965
21
-88.5742
0
LINE
8
BLACK
6
CONTINUOUS
10
147.965
20
-88.5742
11
147.777
21
-88.4576
0
LINE
8
BLACK
6
CONTINUOUS
10
147.777
20
-88.4576
11
147.613
21
-88.3084
0
LINE
8
BLACK
6
CONTINUOUS
10
147.613
20
-88.3084
11
147.48
21
-88.1317
0
LINE
8
BLACK
6
CONTINUOUS
10
147.48
20
-88.1317
11
147.381
21
-87.9335
0
LINE
8
BLACK
6
CONTINUOUS
10
147.381
20
-87.9335
11
147.32
21
-87.7205
0
LINE
8
BLACK
6
CONTINUOUS
10
147.32
20
-87.7205
11
147.3
21
-87.5
0
LINE
8
BLACK
6
CONTINUOUS
10
147.3
20
-87.5
11
147.32
21
-87.2795
0
LINE
8
BLACK
6
CONTINUOUS
10
147.32
20
-87.2795
11
147.381
21
-87.0665
0
LINE
8
BLACK
6
CONTINUOUS
10
147.381
20
-87.0665
11
147.48
21
-86.8683
0
LINE
8
BLACK
6
CONTINUOUS
10
147.48
20
-86.8683
11
147.613
21
-86.6916
0
LINE
8
BLACK
6
CONTINUOUS
10
147.613
20
-86.6916
11
147.777
21
-86.5424
0
LINE
8
BLACK
6
CONTINUOUS
10
147.777
20
-86.5424
11
147.965
21
-86.4258
0
LINE
8
BLACK
6
CONTINUOUS
10
147.965
20
-86.4258
11
148.172
21
-86.3458
0
LINE
8
BLACK
6
CONTINUOUS
10
148.172
20
-86.3458
11
148.389
21
-86.3051
0
LINE
8
BLACK
6
CONTINUOUS
10
148.389
20
-86.3051
11
148.611
21
-86.3051
0
LINE
8
BLACK
6
CONTINUOUS
10
148.611
20
-86.3051
11
148.828
21
-86.3458
0
LINE
8
BLACK
6
CONTINUOUS
10
147.514
20
-87.696
11
147.572
21
-87.8845
0
LINE
8
BLACK
6
CONTINUOUS
10
147.572
20
-87.8845
11
147.665
21
-88.0583
0
LINE
8
BLACK
6
CONTINUOUS
10
147.665
20
-88.0583
11
147.789
21
-88.2105
0
LINE
8
BLACK
6
CONTINUOUS
10
147.789
20
-88.2105
11
147.942
21
-88.3355
0
LINE
8
BLACK
6
CONTINUOUS
10
147.942
20
-88.3355
11
148.115
21
-88.4283
0
LINE
8
BLACK
6
CONTINUOUS
10
148.115
20
-88.4283
11
148.304
21
-88.4855
0
LINE
8
BLACK
6
CONTINUOUS
10
148.304
20
-88.4855
11
148.5
21
-88.5048
0
LINE
8
BLACK
6
CONTINUOUS
10
148.5
20
-88.5048
11
148.696
21
-88.4855
0
LINE
8
BLACK
6
CONTINUOUS
10
148.696
20
-88.4855
11
148.885
21
-88.4283
0
LINE
8
BLACK
6
CONTINUOUS
10
148.885
20
-88.4283
11
149.058
21
-88.3355
0
LINE
8
BLACK
6
CONTINUOUS
10
149.058
20
-88.3355
11
149.211
21
-88.2105
0
LINE
8
BLACK
6
CONTINUOUS
10
149.211
20
-88.2105
11
149.335
21
-88.0583
0
LINE
8
BLACK
6
CONTINUOUS
10
149.335
20
-88.0583
11
149.428
21
-87.8845
0
LINE
8
BLACK
6
CONTINUOUS
10
149.428
20
-87.8845
11
149.486
21
-87.696
0
LINE
8
BLACK
6
CONTINUOUS
10
149.486
20
-87.696
11
149.505
21
-87.5
0
LINE
8
BLACK
6
CONTINUOUS
10
149.505
20
-87.5
11
149.486
21
-87.304
0
LINE
8
BLACK
6
CONTINUOUS
10
149.486
20
-87.304
11
149.428
21
-87.1155
0
LINE
8
BLACK
6
CONTINUOUS
10
149.428
20
-87.1155
11
149.335
21
-86.9417
0
LINE
8
BLACK
6
CONTINUOUS
10
149.335
20
-86.9417
11
149.211
21
-86.7895
0
LINE
8
BLACK
6
CONTINUOUS
10
149.211
20
-86.7895
11
149.058
21
-86.6645
0
LINE
8
BLACK
6
CONTINUOUS
10
149.058
20
-86.6645
11
148.885
21
-86.5716
0
LINE
8
BLACK
6
CONTINUOUS
10
148.885
20
-86.5716
11
148.696
21
-86.5145
0
LINE
8
BLACK
6
CONTINUOUS
10
148.696
20
-86.5145
11
148.5
21
-86.4952
0
LINE
8
BLACK
6
CONTINUOUS
10
148.5
20
-86.4952
11
148.304
21
-86.5145
0
LINE
8
BLACK
6
CONTINUOUS
10
148.304
20
-86.5145
11
148.115
21
-86.5716
0
LINE
8
BLACK
6
CONTINUOUS
10
148.115
20
-86.5716
11
147.942
21
-86.6645
0
LINE
8
BLACK
6
CONTINUOUS
10
147.942
20
-86.6645
11
147.789
21
-86.7895
0
LINE
8
BLACK
6
CONTINUOUS
10
147.789
20
-86.7895
11
147.665
21
-86.9417
0
LINE
8
BLACK
6
CONTINUOUS
10
147.665
20
-86.9417
11
147.572
21
-87.1155
0
LINE
8
BLACK
6
CONTINUOUS
10
147.572
20
-87.1155
11
147.514
21
-87.304
0
LINE
8
BLACK
6
CONTINUOUS
10
147.514
20
-87.304
11
147.495
21
-87.5
0
LINE
8
BLACK
6
CONTINUOUS
10
147.495
20
-87.5
11
147.514
21
-87.696
0
LINE
8
BLACK
6
CONTINUOUS
10
72.3284
20
-76.8458
11
72.5349
21
-76.9258
0
LINE
8
BLACK
6
CONTINUOUS
10
72.5349
20
-76.9258
11
72.7232
21
-77.0424
0
LINE
8
BLACK
6
CONTINUOUS
10
72.7232
20
-77.0424
11
72.8868
21
-77.1916
0
LINE
8
BLACK
6
CONTINUOUS
10
72.8868
20
-77.1916
11
73.0203
21
-77.3683
0
LINE
8
BLACK
6
CONTINUOUS
10
73.0203
20
-77.3683
11
73.119
21
-77.5665
0
LINE
8
BLACK
6
CONTINUOUS
10
73.119
20
-77.5665
11
73.1796
21
-77.7795
0
LINE
8
BLACK
6
CONTINUOUS
10
73.1796
20
-77.7795
11
73.2
21
-78
0
LINE
8
BLACK
6
CONTINUOUS
10
73.2
20
-78
11
73.1796
21
-78.2205
0
LINE
8
BLACK
6
CONTINUOUS
10
73.1796
20
-78.2205
11
73.119
21
-78.4335
0
LINE
8
BLACK
6
CONTINUOUS
10
73.119
20
-78.4335
11
73.0203
21
-78.6317
0
LINE
8
BLACK
6
CONTINUOUS
10
73.0203
20
-78.6317
11
72.8868
21
-78.8084
0
LINE
8
BLACK
6
CONTINUOUS
10
72.8868
20
-78.8084
11
72.7232
21
-78.9576
0
LINE
8
BLACK
6
CONTINUOUS
10
72.7232
20
-78.9576
11
72.5349
21
-79.0742
0
LINE
8
BLACK
6
CONTINUOUS
10
72.5349
20
-79.0742
11
72.3284
21
-79.1542
0
LINE
8
BLACK
6
CONTINUOUS
10
72.3284
20
-79.1542
11
72.1107
21
-79.1949
0
LINE
8
BLACK
6
CONTINUOUS
10
72.1107
20
-79.1949
11
71.8893
21
-79.1949
0
LINE
8
BLACK
6
CONTINUOUS
10
71.8893
20
-79.1949
11
71.6716
21
-79.1542
0
LINE
8
BLACK
6
CONTINUOUS
10
71.6716
20
-79.1542
11
71.4651
21
-79.0742
0
LINE
8
BLACK
6
CONTINUOUS
10
71.4651
20
-79.0742
11
71.2768
21
-78.9576
0
LINE
8
BLACK
6
CONTINUOUS
10
71.2768
20
-78.9576
11
71.1132
21
-78.8084
0
LINE
8
BLACK
6
CONTINUOUS
10
71.1132
20
-78.8084
11
70.9797
21
-78.6317
0
LINE
8
BLACK
6
CONTINUOUS
10
70.9797
20
-78.6317
11
70.881
21
-78.4335
0
LINE
8
BLACK
6
CONTINUOUS
10
70.881
20
-78.4335
11
70.8204
21
-78.2205
0
LINE
8
BLACK
6
CONTINUOUS
10
70.8204
20
-78.2205
11
70.8
21
-78
0
LINE
8
BLACK
6
CONTINUOUS
10
70.8
20
-78
11
70.8204
21
-77.7795
0
LINE
8
BLACK
6
CONTINUOUS
10
70.8204
20
-77.7795
11
70.881
21
-77.5665
0
LINE
8
BLACK
6
CONTINUOUS
10
70.881
20
-77.5665
11
70.9797
21
-77.3683
0
LINE
8
BLACK
6
CONTINUOUS
10
70.9797
20
-77.3683
11
71.1132
21
-77.1916
0
LINE
8
BLACK
6
CONTINUOUS
10
71.1132
20
-77.1916
11
71.2768
21
-77.0424
0
LINE
8
BLACK
6
CONTINUOUS
10
71.2768
20
-77.0424
11
71.4651
21
-76.9258
0
LINE
8
BLACK
6
CONTINUOUS
10
71.4651
20
-76.9258
11
71.6716
21
-76.8458
0
LINE
8
BLACK
6
CONTINUOUS
10
71.6716
20
-76.8458
11
71.8893
21
-76.8051
0
LINE
8
BLACK
6
CONTINUOUS
10
71.8893
20
-76.8051
11
72.1107
21
-76.8051
0
LINE
8
BLACK
6
CONTINUOUS
10
72.1107
20
-76.8051
11
72.3284
21
-76.8458
0
LINE
8
BLACK
6
CONTINUOUS
10
71.0145
20
-78.196
11
71.0716
21
-78.3845
0
LINE
8
BLACK
6
CONTINUOUS
10
71.0716
20
-78.3845
11
71.1645
21
-78.5583
0
LINE
8
BLACK
6
CONTINUOUS
10
71.1645
20
-78.5583
11
71.2895
21
-78.7105
0
LINE
8
BLACK
6
CONTINUOUS
10
71.2895
20
-78.7105
11
71.4417
21
-78.8355
0
LINE
8
BLACK
6
CONTINUOUS
10
71.4417
20
-78.8355
11
71.6155
21
-78.9283
0
LINE
8
BLACK
6
CONTINUOUS
10
71.6155
20
-78.9283
11
71.804
21
-78.9855
0
LINE
8
BLACK
6
CONTINUOUS
10
71.804
20
-78.9855
11
72
21
-79.0048
0
LINE
8
BLACK
6
CONTINUOUS
10
72
20
-79.0048
11
72.196
21
-78.9855
0
LINE
8
BLACK
6
CONTINUOUS
10
72.196
20
-78.9855
11
72.3845
21
-78.9283
0
LINE
8
BLACK
6
CONTINUOUS
10
72.3845
20
-78.9283
11
72.5583
21
-78.8355
0
LINE
8
BLACK
6
CONTINUOUS
10
72.5583
20
-78.8355
11
72.7105
21
-78.7105
0
LINE
8
BLACK
6
CONTINUOUS
10
72.7105
20
-78.7105
11
72.8355
21
-78.5583
0
LINE
8
BLACK
6
CONTINUOUS
10
72.8355
20
-78.5583
11
72.9283
21
-78.3845
0
LINE
8
BLACK
6
CONTINUOUS
10
72.9283
20
-78.3845
11
72.9855
21
-78.196
0
LINE
8
BLACK
6
CONTINUOUS
10
72.9855
20
-78.196
11
73.0048
21
-78
0
LINE
8
BLACK
6
CONTINUOUS
10
73.0048
20
-78
11
72.9855
21
-77.804
0
LINE
8
BLACK
6
CONTINUOUS
10
72.9855
20
-77.804
11
72.9283
21
-77.6155
0
LINE
8
BLACK
6
CONTINUOUS
10
72.9283
20
-77.6155
11
72.8355
21
-77.4417
0
LINE
8
BLACK
6
CONTINUOUS
10
72.8355
20
-77.4417
11
72.7105
21
-77.2895
0
LINE
8
BLACK
6
CONTINUOUS
10
72.7105
20
-77.2895
11
72.5583
21
-77.1645
0
LINE
8
BLACK
6
CONTINUOUS
10
72.5583
20
-77.1645
11
72.3845
21
-77.0716
0
LINE
8
BLACK
6
CONTINUOUS
10
72.3845
20
-77.0716
11
72.196
21
-77.0145
0
LINE
8
BLACK
6
CONTINUOUS
10
72.196
20
-77.0145
11
72
21
-76.9952
0
LINE
8
BLACK
6
CONTINUOUS
10
72
20
-76.9952
11
71.804
21
-77.0145
0
LINE
8
BLACK
6
CONTINUOUS
10
71.804
20
-77.0145
11
71.6155
21
-77.0716
0
LINE
8
BLACK
6
CONTINUOUS
10
71.6155
20
-77.0716
11
71.4417
21
-77.1645
0
LINE
8
BLACK
6
CONTINUOUS
10
71.4417
20
-77.1645
11
71.2895
21
-77.2895
0
LINE
8
BLACK
6
CONTINUOUS
10
71.2895
20
-77.2895
11
71.1645
21
-77.4417
0
LINE
8
BLACK
6
CONTINUOUS
10
71.1645
20
-77.4417
11
71.0716
21
-77.6155
0
LINE
8
BLACK
6
CONTINUOUS
10
71.0716
20
-77.6155
11
71.0145
21
-77.804
0
LINE
8
BLACK
6
CONTINUOUS
10
71.0145
20
-77.804
11
70.9952
21
-78
0
LINE
8
BLACK
6
CONTINUOUS
10
70.9952
20
-78
11
71.0145
21
-78.196
0
LINE
8
BLACK
6
CONTINUOUS
10
89.3284
20
-76.8458
11
89.5349
21
-76.9258
0
LINE
8
BLACK
6
CONTINUOUS
10
89.5349
20
-76.9258
11
89.7232
21
-77.0424
0
LINE
8
BLACK
6
CONTINUOUS
10
89.7232
20
-77.0424
11
89.8868
21
-77.1916
0
LINE
8
BLACK
6
CONTINUOUS
10
89.8868
20
-77.1916
11
90.0203
21
-77.3683
0
LINE
8
BLACK
6
CONTINUOUS
10
90.0203
20
-77.3683
11
90.119
21
-77.5665
0
LINE
8
BLACK
6
CONTINUOUS
10
90.119
20
-77.5665
11
90.1796
21
-77.7795
0
LINE
8
BLACK
6
CONTINUOUS
10
90.1796
20
-77.7795
11
90.2
21
-78
0
LINE
8
BLACK
6
CONTINUOUS
10
90.2
20
-78
11
90.1796
21
-78.2205
0
LINE
8
BLACK
6
CONTINUOUS
10
90.1796
20
-78.2205
11
90.119
21
-78.4335
0
LINE
8
BLACK
6
CONTINUOUS
10
90.119
20
-78.4335
11
90.0203
21
-78.6317
0
LINE
8
BLACK
6
CONTINUOUS
10
90.0203
20
-78.6317
11
89.8868
21
-78.8084
0
LINE
8
BLACK
6
CONTINUOUS
10
89.8868
20
-78.8084
11
89.7232
21
-78.9576
0
LINE
8
BLACK
6
CONTINUOUS
10
89.7232
20
-78.9576
11
89.5349
21
-79.0742
0
LINE
8
BLACK
6
CONTINUOUS
10
89.5349
20
-79.0742
11
89.3284
21
-79.1542
0
LINE
8
BLACK
6
CONTINUOUS
10
89.3284
20
-79.1542
11
89.1107
21
-79.1949
0
LINE
8
BLACK
6
CONTINUOUS
10
89.1107
20
-79.1949
11
88.8893
21
-79.1949
0
LINE
8
BLACK
6
CONTINUOUS
10
88.8893
20
-79.1949
11
88.6716
21
-79.1542
0
LINE
8
BLACK
6
CONTINUOUS
10
88.6716
20
-79.1542
11
88.4651
21
-79.0742
0
LINE
8
BLACK
6
CONTINUOUS
10
88.4651
20
-79.0742
11
88.2768
21
-78.9576
0
LINE
8
BLACK
6
CONTINUOUS
10
88.2768
20
-78.9576
11
88.1132
21
-78.8084
0
LINE
8
BLACK
6
CONTINUOUS
10
88.1132
20
-78.8084
11
87.9797
21
-78.6317
0
LINE
8
BLACK
6
CONTINUOUS
10
87.9797
20
-78.6317
11
87.881
21
-78.4335
0
LINE
8
BLACK
6
CONTINUOUS
10
87.881
20
-78.4335
11
87.8204
21
-78.2205
0
LINE
8
BLACK
6
CONTINUOUS
10
87.8204
20
-78.2205
11
87.8
21
-78
0
LINE
8
BLACK
6
CONTINUOUS
10
87.8
20
-78
11
87.8204
21
-77.7795
0
LINE
8
BLACK
6
CONTINUOUS
10
87.8204
20
-77.7795
11
87.881
21
-77.5665
0
LINE
8
BLACK
6
CONTINUOUS
10
87.881
20
-77.5665
11
87.9797
21
-77.3683
0
LINE
8
BLACK
6
CONTINUOUS
10
87.9797
20
-77.3683
11
88.1132
21
-77.1916
0
LINE
8
BLACK
6
CONTINUOUS
10
88.1132
20
-77.1916
11
88.2768
21
-77.0424
0
LINE
8
BLACK
6
CONTINUOUS
10
88.2768
20
-77.0424
11
88.4651
21
-76.9258
0
LINE
8
BLACK
6
CONTINUOUS
10
88.4651
20
-76.9258
11
88.6716
21
-76.8458
0
LINE
8
BLACK
6
CONTINUOUS
10
88.6716
20
-76.8458
11
88.8893
21
-76.8051
0
LINE
8
BLACK
6
CONTINUOUS
10
88.8893
20
-76.8051
11
89.1107
21
-76.8051
0
LINE
8
BLACK
6
CONTINUOUS
10
89.1107
20
-76.8051
11
89.3284
21
-76.8458
0
LINE
8
BLACK
6
CONTINUOUS
10
88.0145
20
-78.196
11
88.0716
21
-78.3845
0
LINE
8
BLACK
6
CONTINUOUS
10
88.0716
20
-78.3845
11
88.1645
21
-78.5583
0
LINE
8
BLACK
6
CONTINUOUS
10
88.1645
20
-78.5583
11
88.2895
21
-78.7105
0
LINE
8
BLACK
6
CONTINUOUS
10
88.2895
20
-78.7105
11
88.4417
21
-78.8355
0
LINE
8
BLACK
6
CONTINUOUS
10
88.4417
20
-78.8355
11
88.6155
21
-78.9283
0
LINE
8
BLACK
6
CONTINUOUS
10
88.6155
20
-78.9283
11
88.804
21
-78.9855
0
LINE
8
BLACK
6
CONTINUOUS
10
88.804
20
-78.9855
11
89
21
-79.0048
0
LINE
8
BLACK
6
CONTINUOUS
10
89
20
-79.0048
11
89.196
21
-78.9855
0
LINE
8
BLACK
6
CONTINUOUS
10
89.196
20
-78.9855
11
89.3845
21
-78.9283
0
LINE
8
BLACK
6
CONTINUOUS
10
89.3845
20
-78.9283
11
89.5583
21
-78.8355
0
LINE
8
BLACK
6
CONTINUOUS
10
89.5583
20
-78.8355
11
89.7105
21
-78.7105
0
LINE
8
BLACK
6
CONTINUOUS
10
89.7105
20
-78.7105
11
89.8355
21
-78.5583
0
LINE
8
BLACK
6
CONTINUOUS
10
89.8355
20
-78.5583
11
89.9283
21
-78.3845
0
LINE
8
BLACK
6
CONTINUOUS
10
89.9283
20
-78.3845
11
89.9855
21
-78.196
0
LINE
8
BLACK
6
CONTINUOUS
10
89.9855
20
-78.196
11
90.0048
21
-78
0
LINE
8
BLACK
6
CONTINUOUS
10
90.0048
20
-78
11
89.9855
21
-77.804
0
LINE
8
BLACK
6
CONTINUOUS
10
89.9855
20
-77.804
11
89.9283
21
-77.6155
0
LINE
8
BLACK
6
CONTINUOUS
10
89.9283
20
-77.6155
11
89.8355
21
-77.4417
0
LINE
8
BLACK
6
CONTINUOUS
10
89.8355
20
-77.4417
11
89.7105
21
-77.2895
0
LINE
8
BLACK
6
CONTINUOUS
10
89.7105
20
-77.2895
11
89.5583
21
-77.1645
0
LINE
8
BLACK
6
CONTINUOUS
10
89.5583
20
-77.1645
11
89.3845
21
-77.0716
0
LINE
8
BLACK
6
CONTINUOUS
10
89.3845
20
-77.0716
11
89.196
21
-77.0145
0
LINE
8
BLACK
6
CONTINUOUS
10
89.196
20
-77.0145
11
89
21
-76.9952
0
LINE
8
BLACK
6
CONTINUOUS
10
89
20
-76.9952
11
88.804
21
-77.0145
0
LINE
8
BLACK
6
CONTINUOUS
10
88.804
20
-77.0145
11
88.6155
21
-77.0716
0
LINE
8
BLACK
6
CONTINUOUS
10
88.6155
20
-77.0716
11
88.4417
21
-77.1645
0
LINE
8
BLACK
6
CONTINUOUS
10
88.4417
20
-77.1645
11
88.2895
21
-77.2895
0
LINE
8
BLACK
6
CONTINUOUS
10
88.2895
20
-77.2895
11
88.1645
21
-77.4417
0
LINE
8
BLACK
6
CONTINUOUS
10
88.1645
20
-77.4417
11
88.0716
21
-77.6155
0
LINE
8
BLACK
6
CONTINUOUS
10
88.0716
20
-77.6155
11
88.0145
21
-77.804
0
LINE
8
BLACK
6
CONTINUOUS
10
88.0145
20
-77.804
11
87.9952
21
-78
0
LINE
8
BLACK
6
CONTINUOUS
10
87.9952
20
-78
11
88.0145
21
-78.196
0
LINE
8
BLACK
6
CONTINUOUS
10
186.828
20
-57.3458
11
187.035
21
-57.4258
0
LINE
8
BLACK
6
CONTINUOUS
10
187.035
20
-57.4258
11
187.223
21
-57.5424
0
LINE
8
BLACK
6
CONTINUOUS
10
187.223
20
-57.5424
11
187.387
21
-57.6916
0
LINE
8
BLACK
6
CONTINUOUS
10
187.387
20
-57.6916
11
187.52
21
-57.8683
0
LINE
8
BLACK
6
CONTINUOUS
10
187.52
20
-57.8683
11
187.619
21
-58.0665
0
LINE
8
BLACK
6
CONTINUOUS
10
187.619
20
-58.0665
11
187.68
21
-58.2795
0
LINE
8
BLACK
6
CONTINUOUS
10
187.68
20
-58.2795
11
187.7
21
-58.5
0
LINE
8
BLACK
6
CONTINUOUS
10
187.7
20
-58.5
11
187.68
21
-58.7205
0
LINE
8
BLACK
6
CONTINUOUS
10
187.68
20
-58.7205
11
187.619
21
-58.9335
0
LINE
8
BLACK
6
CONTINUOUS
10
187.619
20
-58.9335
11
187.52
21
-59.1317
0
LINE
8
BLACK
6
CONTINUOUS
10
187.52
20
-59.1317
11
187.387
21
-59.3084
0
LINE
8
BLACK
6
CONTINUOUS
10
187.387
20
-59.3084
11
187.223
21
-59.4576
0
LINE
8
BLACK
6
CONTINUOUS
10
187.223
20
-59.4576
11
187.035
21
-59.5742
0
LINE
8
BLACK
6
CONTINUOUS
10
187.035
20
-59.5742
11
186.828
21
-59.6542
0
LINE
8
BLACK
6
CONTINUOUS
10
186.828
20
-59.6542
11
186.611
21
-59.6949
0
LINE
8
BLACK
6
CONTINUOUS
10
186.611
20
-59.6949
11
186.389
21
-59.6949
0
LINE
8
BLACK
6
CONTINUOUS
10
186.389
20
-59.6949
11
186.172
21
-59.6542
0
LINE
8
BLACK
6
CONTINUOUS
10
186.172
20
-59.6542
11
185.965
21
-59.5742
0
LINE
8
BLACK
6
CONTINUOUS
10
185.965
20
-59.5742
11
185.777
21
-59.4576
0
LINE
8
BLACK
6
CONTINUOUS
10
185.777
20
-59.4576
11
185.613
21
-59.3084
0
LINE
8
BLACK
6
CONTINUOUS
10
185.613
20
-59.3084
11
185.48
21
-59.1317
0
LINE
8
BLACK
6
CONTINUOUS
10
185.48
20
-59.1317
11
185.381
21
-58.9335
0
LINE
8
BLACK
6
CONTINUOUS
10
185.381
20
-58.9335
11
185.32
21
-58.7205
0
LINE
8
BLACK
6
CONTINUOUS
10
185.32
20
-58.7205
11
185.3
21
-58.5
0
LINE
8
BLACK
6
CONTINUOUS
10
185.3
20
-58.5
11
185.32
21
-58.2795
0
LINE
8
BLACK
6
CONTINUOUS
10
185.32
20
-58.2795
11
185.381
21
-58.0665
0
LINE
8
BLACK
6
CONTINUOUS
10
185.381
20
-58.0665
11
185.48
21
-57.8683
0
LINE
8
BLACK
6
CONTINUOUS
10
185.48
20
-57.8683
11
185.613
21
-57.6916
0
LINE
8
BLACK
6
CONTINUOUS
10
185.613
20
-57.6916
11
185.777
21
-57.5424
0
LINE
8
BLACK
6
CONTINUOUS
10
185.777
20
-57.5424
11
185.965
21
-57.4258
0
LINE
8
BLACK
6
CONTINUOUS
10
185.965
20
-57.4258
11
186.172
21
-57.3458
0
LINE
8
BLACK
6
CONTINUOUS
10
186.172
20
-57.3458
11
186.389
21
-57.3051
0
LINE
8
BLACK
6
CONTINUOUS
10
186.389
20
-57.3051
11
186.611
21
-57.3051
0
LINE
8
BLACK
6
CONTINUOUS
10
186.611
20
-57.3051
11
186.828
21
-57.3458
0
LINE
8
BLACK
6
CONTINUOUS
10
185.514
20
-58.696
11
185.572
21
-58.8845
0
LINE
8
BLACK
6
CONTINUOUS
10
185.572
20
-58.8845
11
185.665
21
-59.0583
0
LINE
8
BLACK
6
CONTINUOUS
10
185.665
20
-59.0583
11
185.789
21
-59.2105
0
LINE
8
BLACK
6
CONTINUOUS
10
185.789
20
-59.2105
11
185.942
21
-59.3355
0
LINE
8
BLACK
6
CONTINUOUS
10
185.942
20
-59.3355
11
186.115
21
-59.4283
0
LINE
8
BLACK
6
CONTINUOUS
10
186.115
20
-59.4283
11
186.304
21
-59.4855
0
LINE
8
BLACK
6
CONTINUOUS
10
186.304
20
-59.4855
11
186.5
21
-59.5048
0
LINE
8
BLACK
6
CONTINUOUS
10
186.5
20
-59.5048
11
186.696
21
-59.4855
0
LINE
8
BLACK
6
CONTINUOUS
10
186.696
20
-59.4855
11
186.885
21
-59.4283
0
LINE
8
BLACK
6
CONTINUOUS
10
186.885
20
-59.4283
11
187.058
21
-59.3355
0
LINE
8
BLACK
6
CONTINUOUS
10
187.058
20
-59.3355
11
187.211
21
-59.2105
0
LINE
8
BLACK
6
CONTINUOUS
10
187.211
20
-59.2105
11
187.335
21
-59.0583
0
LINE
8
BLACK
6
CONTINUOUS
10
187.335
20
-59.0583
11
187.428
21
-58.8845
0
LINE
8
BLACK
6
CONTINUOUS
10
187.428
20
-58.8845
11
187.486
21
-58.696
0
LINE
8
BLACK
6
CONTINUOUS
10
187.486
20
-58.696
11
187.505
21
-58.5
0
LINE
8
BLACK
6
CONTINUOUS
10
187.505
20
-58.5
11
187.486
21
-58.304
0
LINE
8
BLACK
6
CONTINUOUS
10
187.486
20
-58.304
11
187.428
21
-58.1155
0
LINE
8
BLACK
6
CONTINUOUS
10
187.428
20
-58.1155
11
187.335
21
-57.9417
0
LINE
8
BLACK
6
CONTINUOUS
10
187.335
20
-57.9417
11
187.211
21
-57.7895
0
LINE
8
BLACK
6
CONTINUOUS
10
187.211
20
-57.7895
11
187.058
21
-57.6645
0
LINE
8
BLACK
6
CONTINUOUS
10
187.058
20
-57.6645
11
186.885
21
-57.5716
0
LINE
8
BLACK
6
CONTINUOUS
10
186.885
20
-57.5716
11
186.696
21
-57.5145
0
LINE
8
BLACK
6
CONTINUOUS
10
186.696
20
-57.5145
11
186.5
21
-57.4952
0
LINE
8
BLACK
6
CONTINUOUS
10
186.5
20
-57.4952
11
186.304
21
-57.5145
0
LINE
8
BLACK
6
CONTINUOUS
10
186.304
20
-57.5145
11
186.115
21
-57.5716
0
LINE
8
BLACK
6
CONTINUOUS
10
186.115
20
-57.5716
11
185.942
21
-57.6645
0
LINE
8
BLACK
6
CONTINUOUS
10
185.942
20
-57.6645
11
185.789
21
-57.7895
0
LINE
8
BLACK
6
CONTINUOUS
10
185.789
20
-57.7895
11
185.665
21
-57.9417
0
LINE
8
BLACK
6
CONTINUOUS
10
185.665
20
-57.9417
11
185.572
21
-58.1155
0
LINE
8
BLACK
6
CONTINUOUS
10
185.572
20
-58.1155
11
185.514
21
-58.304
0
LINE
8
BLACK
6
CONTINUOUS
10
185.514
20
-58.304
11
185.495
21
-58.5
0
LINE
8
BLACK
6
CONTINUOUS
10
185.495
20
-58.5
11
185.514
21
-58.696
0
LINE
8
BLACK
6
CONTINUOUS
10
110.828
20
-52.8458
11
111.035
21
-52.9258
0
LINE
8
BLACK
6
CONTINUOUS
10
111.035
20
-52.9258
11
111.223
21
-53.0424
0
LINE
8
BLACK
6
CONTINUOUS
10
111.223
20
-53.0424
11
111.387
21
-53.1916
0
LINE
8
BLACK
6
CONTINUOUS
10
111.387
20
-53.1916
11
111.52
21
-53.3683
0
LINE
8
BLACK
6
CONTINUOUS
10
111.52
20
-53.3683
11
111.619
21
-53.5665
0
LINE
8
BLACK
6
CONTINUOUS
10
111.619
20
-53.5665
11
111.68
21
-53.7795
0
LINE
8
BLACK
6
CONTINUOUS
10
111.68
20
-53.7795
11
111.7
21
-54
0
LINE
8
BLACK
6
CONTINUOUS
10
111.7
20
-54
11
111.68
21
-54.2205
0
LINE
8
BLACK
6
CONTINUOUS
10
111.68
20
-54.2205
11
111.619
21
-54.4335
0
LINE
8
BLACK
6
CONTINUOUS
10
111.619
20
-54.4335
11
111.52
21
-54.6317
0
LINE
8
BLACK
6
CONTINUOUS
10
111.52
20
-54.6317
11
111.387
21
-54.8084
0
LINE
8
BLACK
6
CONTINUOUS
10
111.387
20
-54.8084
11
111.223
21
-54.9576
0
LINE
8
BLACK
6
CONTINUOUS
10
111.223
20
-54.9576
11
111.035
21
-55.0742
0
LINE
8
BLACK
6
CONTINUOUS
10
111.035
20
-55.0742
11
110.828
21
-55.1542
0
LINE
8
BLACK
6
CONTINUOUS
10
110.828
20
-55.1542
11
110.611
21
-55.1949
0
LINE
8
BLACK
6
CONTINUOUS
10
110.611
20
-55.1949
11
110.389
21
-55.1949
0
LINE
8
BLACK
6
CONTINUOUS
10
110.389
20
-55.1949
11
110.172
21
-55.1542
0
LINE
8
BLACK
6
CONTINUOUS
10
110.172
20
-55.1542
11
109.965
21
-55.0742
0
LINE
8
BLACK
6
CONTINUOUS
10
109.965
20
-55.0742
11
109.777
21
-54.9576
0
LINE
8
BLACK
6
CONTINUOUS
10
109.777
20
-54.9576
11
109.613
21
-54.8084
0
LINE
8
BLACK
6
CONTINUOUS
10
109.613
20
-54.8084
11
109.48
21
-54.6317
0
LINE
8
BLACK
6
CONTINUOUS
10
109.48
20
-54.6317
11
109.381
21
-54.4335
0
LINE
8
BLACK
6
CONTINUOUS
10
109.381
20
-54.4335
11
109.32
21
-54.2205
0
LINE
8
BLACK
6
CONTINUOUS
10
109.32
20
-54.2205
11
109.3
21
-54
0
LINE
8
BLACK
6
CONTINUOUS
10
109.3
20
-54
11
109.32
21
-53.7795
0
LINE
8
BLACK
6
CONTINUOUS
10
109.32
20
-53.7795
11
109.381
21
-53.5665
0
LINE
8
BLACK
6
CONTINUOUS
10
109.381
20
-53.5665
11
109.48
21
-53.3683
0
LINE
8
BLACK
6
CONTINUOUS
10
109.48
20
-53.3683
11
109.613
21
-53.1916
0
LINE
8
BLACK
6
CONTINUOUS
10
109.613
20
-53.1916
11
109.777
21
-53.0424
0
LINE
8
BLACK
6
CONTINUOUS
10
109.777
20
-53.0424
11
109.965
21
-52.9258
0
LINE
8
BLACK
6
CONTINUOUS
10
109.965
20
-52.9258
11
110.172
21
-52.8458
0
LINE
8
BLACK
6
CONTINUOUS
10
110.172
20
-52.8458
11
110.389
21
-52.8051
0
LINE
8
BLACK
6
CONTINUOUS
10
110.389
20
-52.8051
11
110.611
21
-52.8051
0
LINE
8
BLACK
6
CONTINUOUS
10
110.611
20
-52.8051
11
110.828
21
-52.8458
0
LINE
8
BLACK
6
CONTINUOUS
10
109.514
20
-54.196
11
109.572
21
-54.3845
0
LINE
8
BLACK
6
CONTINUOUS
10
109.572
20
-54.3845
11
109.665
21
-54.5583
0
LINE
8
BLACK
6
CONTINUOUS
10
109.665
20
-54.5583
11
109.789
21
-54.7105
0
LINE
8
BLACK
6
CONTINUOUS
10
109.789
20
-54.7105
11
109.942
21
-54.8355
0
LINE
8
BLACK
6
CONTINUOUS
10
109.942
20
-54.8355
11
110.115
21
-54.9283
0
LINE
8
BLACK
6
CONTINUOUS
10
110.115
20
-54.9283
11
110.304
21
-54.9855
0
LINE
8
BLACK
6
CONTINUOUS
10
110.304
20
-54.9855
11
110.5
21
-55.0048
0
LINE
8
BLACK
6
CONTINUOUS
10
110.5
20
-55.0048
11
110.696
21
-54.9855
0
LINE
8
BLACK
6
CONTINUOUS
10
110.696
20
-54.9855
11
110.885
21
-54.9283
0
LINE
8
BLACK
6
CONTINUOUS
10
110.885
20
-54.9283
11
111.058
21
-54.8355
0
LINE
8
BLACK
6
CONTINUOUS
10
111.058
20
-54.8355
11
111.211
21
-54.7105
0
LINE
8
BLACK
6
CONTINUOUS
10
111.211
20
-54.7105
11
111.335
21
-54.5583
0
LINE
8
BLACK
6
CONTINUOUS
10
111.335
20
-54.5583
11
111.428
21
-54.3845
0
LINE
8
BLACK
6
CONTINUOUS
10
111.428
20
-54.3845
11
111.486
21
-54.196
0
LINE
8
BLACK
6
CONTINUOUS
10
111.486
20
-54.196
11
111.505
21
-54
0
LINE
8
BLACK
6
CONTINUOUS
10
111.505
20
-54
11
111.486
21
-53.804
0
LINE
8
BLACK
6
CONTINUOUS
10
111.486
20
-53.804
11
111.428
21
-53.6155
0
LINE
8
BLACK
6
CONTINUOUS
10
111.428
20
-53.6155
11
111.335
21
-53.4417
0
LINE
8
BLACK
6
CONTINUOUS
10
111.335
20
-53.4417
11
111.211
21
-53.2895
0
LINE
8
BLACK
6
CONTINUOUS
10
111.211
20
-53.2895
11
111.058
21
-53.1645
0
LINE
8
BLACK
6
CONTINUOUS
10
111.058
20
-53.1645
11
110.885
21
-53.0716
0
LINE
8
BLACK
6
CONTINUOUS
10
110.885
20
-53.0716
11
110.696
21
-53.0145
0
LINE
8
BLACK
6
CONTINUOUS
10
110.696
20
-53.0145
11
110.5
21
-52.9952
0
LINE
8
BLACK
6
CONTINUOUS
10
110.5
20
-52.9952
11
110.304
21
-53.0145
0
LINE
8
BLACK
6
CONTINUOUS
10
110.304
20
-53.0145
11
110.115
21
-53.0716
0
LINE
8
BLACK
6
CONTINUOUS
10
110.115
20
-53.0716
11
109.942
21
-53.1645
0
LINE
8
BLACK
6
CONTINUOUS
10
109.942
20
-53.1645
11
109.789
21
-53.2895
0
LINE
8
BLACK
6
CONTINUOUS
10
109.789
20
-53.2895
11
109.665
21
-53.4417
0
LINE
8
BLACK
6
CONTINUOUS
10
109.665
20
-53.4417
11
109.572
21
-53.6155
0
LINE
8
BLACK
6
CONTINUOUS
10
109.572
20
-53.6155
11
109.514
21
-53.804
0
LINE
8
BLACK
6
CONTINUOUS
10
109.514
20
-53.804
11
109.495
21
-54
0
LINE
8
BLACK
6
CONTINUOUS
10
109.495
20
-54
11
109.514
21
-54.196
0
LINE
8
BLACK
6
CONTINUOUS
10
159.893
20
-29.9
11
161.834
21
-29.9188
0
LINE
8
BLACK
6
CONTINUOUS
10
161.834
20
-29.9188
11
163.774
21
-29.9753
0
LINE
8
BLACK
6
CONTINUOUS
10
163.774
20
-29.9753
11
165.713
21
-30.0694
0
LINE
8
BLACK
6
CONTINUOUS
10
165.713
20
-30.0694
11
167.65
21
-30.201
0
LINE
8
BLACK
6
CONTINUOUS
10
167.65
20
-30.201
11
169.583
21
-30.3702
0
LINE
8
BLACK
6
CONTINUOUS
10
169.583
20
-30.3702
11
171.513
21
-30.5768
0
LINE
8
BLACK
6
CONTINUOUS
10
171.513
20
-30.5768
11
173.439
21
-30.8209
0
LINE
8
BLACK
6
CONTINUOUS
10
173.439
20
-30.8209
11
175.36
21
-31.1022
0
LINE
8
BLACK
6
CONTINUOUS
10
175.36
20
-31.1022
11
177.275
21
-31.4207
0
LINE
8
BLACK
6
CONTINUOUS
10
177.275
20
-31.4207
11
179.183
21
-31.7763
0
LINE
8
BLACK
6
CONTINUOUS
10
179.183
20
-31.7763
11
181.084
21
-32.1689
0
LINE
8
BLACK
6
CONTINUOUS
10
181.084
20
-32.1689
11
182.977
21
-32.5982
0
LINE
8
BLACK
6
CONTINUOUS
10
182.977
20
-32.5982
11
184.862
21
-33.0642
0
LINE
8
BLACK
6
CONTINUOUS
10
184.862
20
-33.0642
11
186.737
21
-33.5666
0
LINE
8
BLACK
6
CONTINUOUS
10
186.737
20
-33.5666
11
188.602
21
-34.1052
0
LINE
8
BLACK
6
CONTINUOUS
10
188.602
20
-34.1052
11
190.456
21
-34.68
0
LINE
8
BLACK
6
CONTINUOUS
10
190.456
20
-34.68
11
192.298
21
-35.2906
0
LINE
8
BLACK
6
CONTINUOUS
10
192.298
20
-35.2906
11
194.129
21
-35.9368
0
LINE
8
BLACK
6
CONTINUOUS
10
194.129
20
-35.9368
11
194.129
21
-35.9368
0
LINE
8
BLACK
6
CONTINUOUS
10
194.129
20
-35.9368
11
199.112
21
-37.7507
0
LINE
8
BLACK
6
CONTINUOUS
10
199.112
20
-37.7507
11
199.112
21
-37.7507
0
LINE
8
BLACK
6
CONTINUOUS
10
199.112
20
-37.7507
11
199.112
21
-37.7507
0
LINE
8
BLACK
6
CONTINUOUS
10
199.112
20
-37.7507
11
199.112
21
-37.7507
0
LINE
8
BLACK
6
CONTINUOUS
10
199.112
20
-37.7507
11
199.655
21
-37.9683
0
LINE
8
BLACK
6
CONTINUOUS
10
199.655
20
-37.9683
11
200.183
21
-38.2204
0
LINE
8
BLACK
6
CONTINUOUS
10
200.183
20
-38.2204
11
200.694
21
-38.5059
0
LINE
8
BLACK
6
CONTINUOUS
10
200.694
20
-38.5059
11
201.185
21
-38.8237
0
LINE
8
BLACK
6
CONTINUOUS
10
201.185
20
-38.8237
11
201.655
21
-39.1723
0
LINE
8
BLACK
6
CONTINUOUS
10
201.655
20
-39.1723
11
202.102
21
-39.5504
0
LINE
8
BLACK
6
CONTINUOUS
10
202.102
20
-39.5504
11
202.523
21
-39.9565
0
LINE
8
BLACK
6
CONTINUOUS
10
202.523
20
-39.9565
11
202.917
21
-40.3887
0
LINE
8
BLACK
6
CONTINUOUS
10
202.917
20
-40.3887
11
203.283
21
-40.8454
0
LINE
8
BLACK
6
CONTINUOUS
10
203.283
20
-40.8454
11
203.618
21
-41.3246
0
LINE
8
BLACK
6
CONTINUOUS
10
203.618
20
-41.3246
11
203.922
21
-41.8244
0
LINE
8
BLACK
6
CONTINUOUS
10
203.922
20
-41.8244
11
204.194
21
-42.3428
0
LINE
8
BLACK
6
CONTINUOUS
10
204.194
20
-42.3428
11
204.431
21
-42.8774
0
LINE
8
BLACK
6
CONTINUOUS
10
204.431
20
-42.8774
11
204.634
21
-43.4263
0
LINE
8
BLACK
6
CONTINUOUS
10
204.634
20
-43.4263
11
204.801
21
-43.987
0
LINE
8
BLACK
6
CONTINUOUS
10
204.801
20
-43.987
11
204.931
21
-44.5573
0
LINE
8
BLACK
6
CONTINUOUS
10
204.931
20
-44.5573
11
205.025
21
-45.1348
0
LINE
8
BLACK
6
CONTINUOUS
10
205.025
20
-45.1348
11
205.081
21
-45.7171
0
LINE
8
BLACK
6
CONTINUOUS
10
205.081
20
-45.7171
11
205.1
21
-46.3019
0
LINE
8
BLACK
6
CONTINUOUS
10
205.1
20
-46.3019
11
205.1
21
-46.3019
0
LINE
8
BLACK
6
CONTINUOUS
10
205.1
20
-46.3019
11
205.1
21
-131
0
LINE
8
BLACK
6
CONTINUOUS
10
205.1
20
-131
11
205.1
21
-131
0
LINE
8
BLACK
6
CONTINUOUS
10
205.1
20
-131
11
205.083
21
-131.324
0
LINE
8
BLACK
6
CONTINUOUS
10
205.083
20
-131.324
11
205.032
21
-131.645
0
LINE
8
BLACK
6
CONTINUOUS
10
205.032
20
-131.645
11
204.948
21
-131.958
0
LINE
8
BLACK
6
CONTINUOUS
10
204.948
20
-131.958
11
204.832
21
-132.261
0
LINE
8
BLACK
6
CONTINUOUS
10
204.832
20
-132.261
11
204.685
21
-132.55
0
LINE
8
BLACK
6
CONTINUOUS
10
204.685
20
-132.55
11
204.508
21
-132.822
0
LINE
8
BLACK
6
CONTINUOUS
10
204.508
20
-132.822
11
204.304
21
-133.074
0
LINE
8
BLACK
6
CONTINUOUS
10
204.304
20
-133.074
11
204.074
21
-133.304
0
LINE
8
BLACK
6
CONTINUOUS
10
204.074
20
-133.304
11
203.822
21
-133.508
0
LINE
8
BLACK
6
CONTINUOUS
10
203.822
20
-133.508
11
203.55
21
-133.685
0
LINE
8
BLACK
6
CONTINUOUS
10
203.55
20
-133.685
11
203.261
21
-133.832
0
LINE
8
BLACK
6
CONTINUOUS
10
203.261
20
-133.832
11
202.958
21
-133.948
0
LINE
8
BLACK
6
CONTINUOUS
10
202.958
20
-133.948
11
202.645
21
-134.032
0
LINE
8
BLACK
6
CONTINUOUS
10
202.645
20
-134.032
11
202.324
21
-134.083
0
LINE
8
BLACK
6
CONTINUOUS
10
202.324
20
-134.083
11
202
21
-134.1
0
LINE
8
BLACK
6
CONTINUOUS
10
202
20
-134.1
11
138.271
21
-134.1
0
LINE
8
BLACK
6
CONTINUOUS
10
138.271
20
-134.1
11
138.27
21
-134.1
0
LINE
8
BLACK
6
CONTINUOUS
10
138.27
20
-134.1
11
137.583
21
-134.1
0
LINE
8
BLACK
6
CONTINUOUS
10
137.583
20
-134.1
11
136.208
21
-134.138
0
LINE
8
BLACK
6
CONTINUOUS
10
136.208
20
-134.138
11
134.835
21
-134.214
0
LINE
8
BLACK
6
CONTINUOUS
10
134.835
20
-134.214
11
133.465
21
-134.327
0
LINE
8
BLACK
6
CONTINUOUS
10
133.465
20
-134.327
11
132.098
21
-134.479
0
LINE
8
BLACK
6
CONTINUOUS
10
132.098
20
-134.479
11
130.735
21
-134.667
0
LINE
8
BLACK
6
CONTINUOUS
10
130.735
20
-134.667
11
129.379
21
-134.894
0
LINE
8
BLACK
6
CONTINUOUS
10
129.379
20
-134.894
11
128.029
21
-135.157
0
LINE
8
BLACK
6
CONTINUOUS
10
128.029
20
-135.157
11
126.687
21
-135.458
0
LINE
8
BLACK
6
CONTINUOUS
10
126.687
20
-135.458
11
125.354
21
-135.796
0
LINE
8
BLACK
6
CONTINUOUS
10
125.354
20
-135.796
11
124.031
21
-136.17
0
LINE
8
BLACK
6
CONTINUOUS
10
124.031
20
-136.17
11
122.718
21
-136.58
0
LINE
8
BLACK
6
CONTINUOUS
10
122.718
20
-136.58
11
121.418
21
-137.027
0
LINE
8
BLACK
6
CONTINUOUS
10
121.418
20
-137.027
11
120.13
21
-137.509
0
LINE
8
BLACK
6
CONTINUOUS
10
120.13
20
-137.509
11
118.856
21
-138.027
0
LINE
8
BLACK
6
CONTINUOUS
10
118.856
20
-138.027
11
117.596
21
-138.579
0
LINE
8
BLACK
6
CONTINUOUS
10
117.596
20
-138.579
11
116.353
21
-139.166
0
LINE
8
BLACK
6
CONTINUOUS
10
116.353
20
-139.166
11
115.125
21
-139.787
0
LINE
8
BLACK
6
CONTINUOUS
10
115.125
20
-139.787
11
113.916
21
-140.442
0
LINE
8
BLACK
6
CONTINUOUS
10
113.916
20
-140.442
11
113.321
21
-140.785
0
LINE
8
BLACK
6
CONTINUOUS
10
113.321
20
-140.785
11
93.7462
21
-152.087
0
LINE
8
BLACK
6
CONTINUOUS
10
93.7462
20
-152.087
11
93.7461
21
-152.087
0
LINE
8
BLACK
6
CONTINUOUS
10
93.7461
20
-152.087
11
93.3223
21
-152.31
0
LINE
8
BLACK
6
CONTINUOUS
10
93.3223
20
-152.31
11
92.8822
21
-152.499
0
LINE
8
BLACK
6
CONTINUOUS
10
92.8822
20
-152.499
11
92.4286
21
-152.653
0
LINE
8
BLACK
6
CONTINUOUS
10
92.4286
20
-152.653
11
91.9644
21
-152.771
0
LINE
8
BLACK
6
CONTINUOUS
10
91.9644
20
-152.771
11
91.4924
21
-152.852
0
LINE
8
BLACK
6
CONTINUOUS
10
91.4924
20
-152.852
11
91.0154
21
-152.895
0
LINE
8
BLACK
6
CONTINUOUS
10
91.0154
20
-152.895
11
90.5365
21
-152.902
0
LINE
8
BLACK
6
CONTINUOUS
10
90.5365
20
-152.902
11
90.0585
21
-152.87
0
LINE
8
BLACK
6
CONTINUOUS
10
90.0585
20
-152.87
11
89.5845
21
-152.802
0
LINE
8
BLACK
6
CONTINUOUS
10
89.5845
20
-152.802
11
89.1174
21
-152.696
0
LINE
8
BLACK
6
CONTINUOUS
10
89.1174
20
-152.696
11
88.6599
21
-152.554
0
LINE
8
BLACK
6
CONTINUOUS
10
88.6599
20
-152.554
11
88.2151
21
-152.376
0
LINE
8
BLACK
6
CONTINUOUS
10
88.2151
20
-152.376
11
87.7855
21
-152.165
0
LINE
8
BLACK
6
CONTINUOUS
10
87.7855
20
-152.165
11
87.3739
21
-151.92
0
LINE
8
BLACK
6
CONTINUOUS
10
87.3739
20
-151.92
11
86.9827
21
-151.643
0
LINE
8
BLACK
6
CONTINUOUS
10
86.9827
20
-151.643
11
86.6145
21
-151.337
0
LINE
8
BLACK
6
CONTINUOUS
10
86.6145
20
-151.337
11
86.2714
21
-151.003
0
LINE
8
BLACK
6
CONTINUOUS
10
86.2714
20
-151.003
11
85.9556
21
-150.643
0
LINE
8
BLACK
6
CONTINUOUS
10
85.9556
20
-150.643
11
85.669
21
-150.259
0
LINE
8
BLACK
6
CONTINUOUS
10
85.669
20
-150.259
11
85.4134
21
-149.854
0
LINE
8
BLACK
6
CONTINUOUS
10
85.4134
20
-149.854
11
85.4134
21
-149.854
0
LINE
8
BLACK
6
CONTINUOUS
10
85.4134
20
-149.854
11
85.4134
21
-149.854
0
LINE
8
BLACK
6
CONTINUOUS
10
85.4134
20
-149.854
11
73.2628
21
-128.808
0
LINE
8
BLACK
6
CONTINUOUS
10
73.2628
20
-128.808
11
73.2628
21
-128.808
0
LINE
8
BLACK
6
CONTINUOUS
10
73.2628
20
-128.808
11
72.8087
21
-127.987
0
LINE
8
BLACK
6
CONTINUOUS
10
72.8087
20
-127.987
11
72.3857
21
-127.149
0
LINE
8
BLACK
6
CONTINUOUS
10
72.3857
20
-127.149
11
71.9943
21
-126.296
0
LINE
8
BLACK
6
CONTINUOUS
10
71.9943
20
-126.296
11
71.6351
21
-125.428
0
LINE
8
BLACK
6
CONTINUOUS
10
71.6351
20
-125.428
11
71.3085
21
-124.548
0
LINE
8
BLACK
6
CONTINUOUS
10
71.3085
20
-124.548
11
71.0151
21
-123.657
0
LINE
8
BLACK
6
CONTINUOUS
10
71.0151
20
-123.657
11
70.7553
21
-122.755
0
LINE
8
BLACK
6
CONTINUOUS
10
70.7553
20
-122.755
11
70.5293
21
-121.844
0
LINE
8
BLACK
6
CONTINUOUS
10
70.5293
20
-121.844
11
70.3376
21
-120.925
0
LINE
8
BLACK
6
CONTINUOUS
10
70.3376
20
-120.925
11
70.1803
21
-119.999
0
LINE
8
BLACK
6
CONTINUOUS
10
70.1803
20
-119.999
11
70.0578
21
-119.069
0
LINE
8
BLACK
6
CONTINUOUS
10
70.0578
20
-119.069
11
69.9702
21
-118.134
0
LINE
8
BLACK
6
CONTINUOUS
10
69.9702
20
-118.134
11
69.9176
21
-117.197
0
LINE
8
BLACK
6
CONTINUOUS
10
69.9176
20
-117.197
11
69.9
21
-116.258
0
LINE
8
BLACK
6
CONTINUOUS
10
69.9
20
-116.258
11
69.9
21
-116.258
0
LINE
8
BLACK
6
CONTINUOUS
10
69.9
20
-116.258
11
69.9
21
-42
0
LINE
8
BLACK
6
CONTINUOUS
10
69.9
20
-42
11
69.918
21
-41.7259
0
LINE
8
BLACK
6
CONTINUOUS
10
69.918
20
-41.7259
11
69.9716
21
-41.4565
0
LINE
8
BLACK
6
CONTINUOUS
10
69.9716
20
-41.4565
11
70.0599
21
-41.1964
0
LINE
8
BLACK
6
CONTINUOUS
10
70.0599
20
-41.1964
11
70.1813
21
-40.95
0
LINE
8
BLACK
6
CONTINUOUS
10
70.1813
20
-40.95
11
70.334
21
-40.7216
0
LINE
8
BLACK
6
CONTINUOUS
10
70.334
20
-40.7216
11
70.5151
21
-40.5151
0
LINE
8
BLACK
6
CONTINUOUS
10
70.5151
20
-40.5151
11
70.7216
21
-40.334
0
LINE
8
BLACK
6
CONTINUOUS
10
70.7216
20
-40.334
11
70.95
21
-40.1813
0
LINE
8
BLACK
6
CONTINUOUS
10
70.95
20
-40.1813
11
71.1964
21
-40.0599
0
LINE
8
BLACK
6
CONTINUOUS
10
71.1964
20
-40.0599
11
71.4565
21
-39.9716
0
LINE
8
BLACK
6
CONTINUOUS
10
71.4565
20
-39.9716
11
71.7259
21
-39.918
0
LINE
8
BLACK
6
CONTINUOUS
10
71.7259
20
-39.918
11
72
21
-39.9
0
LINE
8
BLACK
6
CONTINUOUS
10
72
20
-39.9
11
88
21
-39.9
0
LINE
8
BLACK
6
CONTINUOUS
10
88
20
-39.9
11
88.1245
21
-39.9
0
LINE
8
BLACK
6
CONTINUOUS
10
88.1245
20
-39.9
11
88.3715
21
-39.8675
0
LINE
8
BLACK
6
CONTINUOUS
10
88.3715
20
-39.8675
11
88.612
21
-39.803
0
LINE
8
BLACK
6
CONTINUOUS
10
88.612
20
-39.803
11
88.8422
21
-39.7077
0
LINE
8
BLACK
6
CONTINUOUS
10
88.8422
20
-39.7077
11
89.0578
21
-39.5832
0
LINE
8
BLACK
6
CONTINUOUS
10
89.0578
20
-39.5832
11
89.2554
21
-39.4316
0
LINE
8
BLACK
6
CONTINUOUS
10
89.2554
20
-39.4316
11
89.4316
21
-39.2554
0
LINE
8
BLACK
6
CONTINUOUS
10
89.4316
20
-39.2554
11
89.5832
21
-39.0578
0
LINE
8
BLACK
6
CONTINUOUS
10
89.5832
20
-39.0578
11
89.7077
21
-38.8422
0
LINE
8
BLACK
6
CONTINUOUS
10
89.7077
20
-38.8422
11
89.803
21
-38.612
0
LINE
8
BLACK
6
CONTINUOUS
10
89.803
20
-38.612
11
89.8675
21
-38.3715
0
LINE
8
BLACK
6
CONTINUOUS
10
89.8675
20
-38.3715
11
89.9
21
-38.1245
0
LINE
8
BLACK
6
CONTINUOUS
10
89.9
20
-38.1245
11
89.9
21
-38
0
LINE
8
BLACK
6
CONTINUOUS
10
89.9
20
-38
11
89.9
21
-34.7632
0
LINE
8
BLACK
6
CONTINUOUS
10
89.9
20
-34.7632
11
89.9
21
-34.7632
0
LINE
8
BLACK
6
CONTINUOUS
10
89.9
20
-34.7632
11
89.9154
21
-34.5094
0
LINE
8
BLACK
6
CONTINUOUS
10
89.9154
20
-34.5094
11
89.9613
21
-34.2593
0
LINE
8
BLACK
6
CONTINUOUS
10
89.9613
20
-34.2593
11
90.0372
21
-34.0166
0
LINE
8
BLACK
6
CONTINUOUS
10
90.0372
20
-34.0166
11
90.1418
21
-33.7848
0
LINE
8
BLACK
6
CONTINUOUS
10
90.1418
20
-33.7848
11
90.2737
21
-33.5674
0
LINE
8
BLACK
6
CONTINUOUS
10
90.2737
20
-33.5674
11
90.4309
21
-33.3675
0
LINE
8
BLACK
6
CONTINUOUS
10
90.4309
20
-33.3675
11
90.6111
21
-33.1881
0
LINE
8
BLACK
6
CONTINUOUS
10
90.6111
20
-33.1881
11
90.8116
21
-33.0318
0
LINE
8
BLACK
6
CONTINUOUS
10
90.8116
20
-33.0318
11
91.0296
21
-32.9009
0
LINE
8
BLACK
6
CONTINUOUS
10
91.0296
20
-32.9009
11
91.2618
21
-32.7972
0
LINE
8
BLACK
6
CONTINUOUS
10
91.2618
20
-32.7972
11
91.5048
21
-32.7224
0
LINE
8
BLACK
6
CONTINUOUS
10
91.5048
20
-32.7224
11
91.5048
21
-32.7224
0
LINE
8
BLACK
6
CONTINUOUS
10
91.5048
20
-32.7224
11
93.2899
21
-32.3066
0
LINE
8
BLACK
6
CONTINUOUS
10
93.2899
20
-32.3066
11
95.0822
21
-31.9235
0
LINE
8
BLACK
6
CONTINUOUS
10
95.0822
20
-31.9235
11
96.8813
21
-31.5733
0
LINE
8
BLACK
6
CONTINUOUS
10
96.8813
20
-31.5733
11
98.6864
21
-31.2561
0
LINE
8
BLACK
6
CONTINUOUS
10
98.6864
20
-31.2561
11
100.497
21
-30.972
0
LINE
8
BLACK
6
CONTINUOUS
10
100.497
20
-30.972
11
102.313
21
-30.7211
0
LINE
8
BLACK
6
CONTINUOUS
10
102.313
20
-30.7211
11
104.133
21
-30.5035
0
LINE
8
BLACK
6
CONTINUOUS
10
104.133
20
-30.5035
11
105.956
21
-30.3192
0
LINE
8
BLACK
6
CONTINUOUS
10
105.956
20
-30.3192
11
107.783
21
-30.1684
0
LINE
8
BLACK
6
CONTINUOUS
10
107.783
20
-30.1684
11
109.612
21
-30.051
0
LINE
8
BLACK
6
CONTINUOUS
10
109.612
20
-30.051
11
111.443
21
-29.9671
0
LINE
8
BLACK
6
CONTINUOUS
10
111.443
20
-29.9671
11
113.275
21
-29.9168
0
LINE
8
BLACK
6
CONTINUOUS
10
113.275
20
-29.9168
11
115.107
21
-29.9
0
LINE
8
BLACK
6
CONTINUOUS
10
115.107
20
-29.9
11
115.107
21
-29.9
0
LINE
8
BLACK
6
CONTINUOUS
10
115.107
20
-29.9
11
159.893
21
-29.9
0
LINE
8
BLACK
6
CONTINUOUS
10
115.107
20
-30.1
11
115.107
21
-30.1
0
LINE
8
BLACK
6
CONTINUOUS
10
115.107
20
-30.1
11
114.193
21
-30.1
0
LINE
8
BLACK
6
CONTINUOUS
10
114.193
20
-30.1
11
112.364
21
-30.1335
0
LINE
8
BLACK
6
CONTINUOUS
10
112.364
20
-30.1335
11
110.536
21
-30.2005
0
LINE
8
BLACK
6
CONTINUOUS
10
110.536
20
-30.2005
11
108.709
21
-30.3009
0
LINE
8
BLACK
6
CONTINUOUS
10
108.709
20
-30.3009
11
106.885
21
-30.4347
0
LINE
8
BLACK
6
CONTINUOUS
10
106.885
20
-30.4347
11
105.064
21
-30.602
0
LINE
8
BLACK
6
CONTINUOUS
10
105.064
20
-30.602
11
103.245
21
-30.8025
0
LINE
8
BLACK
6
CONTINUOUS
10
103.245
20
-30.8025
11
101.431
21
-31.0363
0
LINE
8
BLACK
6
CONTINUOUS
10
101.431
20
-31.0363
11
99.6215
21
-31.3033
0
LINE
8
BLACK
6
CONTINUOUS
10
99.6215
20
-31.3033
11
97.817
21
-31.6034
0
LINE
8
BLACK
6
CONTINUOUS
10
97.817
20
-31.6034
11
96.0183
21
-31.9365
0
LINE
8
BLACK
6
CONTINUOUS
10
96.0183
20
-31.9365
11
94.2261
21
-32.3024
0
LINE
8
BLACK
6
CONTINUOUS
10
94.2261
20
-32.3024
11
92.4408
21
-32.7011
0
LINE
8
BLACK
6
CONTINUOUS
10
92.4408
20
-32.7011
11
91.552
21
-32.9168
0
LINE
8
BLACK
6
CONTINUOUS
10
91.552
20
-32.9168
11
91.5519
21
-32.9168
0
LINE
8
BLACK
6
CONTINUOUS
10
91.5519
20
-32.9168
11
91.4288
21
-32.9466
0
LINE
8
BLACK
6
CONTINUOUS
10
91.4288
20
-32.9466
11
91.1924
21
-33.0387
0
LINE
8
BLACK
6
CONTINUOUS
10
91.1924
20
-33.0387
11
90.9704
21
-33.1613
0
LINE
8
BLACK
6
CONTINUOUS
10
90.9704
20
-33.1613
11
90.7667
21
-33.3123
0
LINE
8
BLACK
6
CONTINUOUS
10
90.7667
20
-33.3123
11
90.5848
21
-33.489
0
LINE
8
BLACK
6
CONTINUOUS
10
90.5848
20
-33.489
11
90.4281
21
-33.6884
0
LINE
8
BLACK
6
CONTINUOUS
10
90.4281
20
-33.6884
11
90.2992
21
-33.9068
0
LINE
8
BLACK
6
CONTINUOUS
10
90.2992
20
-33.9068
11
90.2005
21
-34.1404
0
LINE
8
BLACK
6
CONTINUOUS
10
90.2005
20
-34.1404
11
90.1337
21
-34.3851
0
LINE
8
BLACK
6
CONTINUOUS
10
90.1337
20
-34.3851
11
90.1
21
-34.6364
0
LINE
8
BLACK
6
CONTINUOUS
10
90.1
20
-34.6364
11
90.1
21
-34.7632
0
LINE
8
BLACK
6
CONTINUOUS
10
90.1
20
-34.7632
11
90.1
21
-34.7632
0
LINE
8
BLACK
6
CONTINUOUS
10
90.1
20
-34.7632
11
90.1
21
-38
0
LINE
8
BLACK
6
CONTINUOUS
10
90.1
20
-38
11
90.082
21
-38.2741
0
LINE
8
BLACK
6
CONTINUOUS
10
90.082
20
-38.2741
11
90.0284
21
-38.5435
0
LINE
8
BLACK
6
CONTINUOUS
10
90.0284
20
-38.5435
11
89.9401
21
-38.8036
0
LINE
8
BLACK
6
CONTINUOUS
10
89.9401
20
-38.8036
11
89.8187
21
-39.05
0
LINE
8
BLACK
6
CONTINUOUS
10
89.8187
20
-39.05
11
89.666
21
-39.2784
0
LINE
8
BLACK
6
CONTINUOUS
10
89.666
20
-39.2784
11
89.4849
21
-39.4849
0
LINE
8
BLACK
6
CONTINUOUS
10
89.4849
20
-39.4849
11
89.2784
21
-39.666
0
LINE
8
BLACK
6
CONTINUOUS
10
89.2784
20
-39.666
11
89.05
21
-39.8187
0
LINE
8
BLACK
6
CONTINUOUS
10
89.05
20
-39.8187
11
88.8036
21
-39.9401
0
LINE
8
BLACK
6
CONTINUOUS
10
88.8036
20
-39.9401
11
88.5435
21
-40.0284
0
LINE
8
BLACK
6
CONTINUOUS
10
88.5435
20
-40.0284
11
88.2741
21
-40.082
0
LINE
8
BLACK
6
CONTINUOUS
10
88.2741
20
-40.082
11
88
21
-40.1
0
LINE
8
BLACK
6
CONTINUOUS
10
88
20
-40.1
11
72
21
-40.1
0
LINE
8
BLACK
6
CONTINUOUS
10
72
20
-40.1
11
71.8755
21
-40.1
0
LINE
8
BLACK
6
CONTINUOUS
10
71.8755
20
-40.1
11
71.6285
21
-40.1325
0
LINE
8
BLACK
6
CONTINUOUS
10
71.6285
20
-40.1325
11
71.388
21
-40.197
0
LINE
8
BLACK
6
CONTINUOUS
10
71.388
20
-40.197
11
71.1578
21
-40.2923
0
LINE
8
BLACK
6
CONTINUOUS
10
71.1578
20
-40.2923
11
70.9422
21
-40.4168
0
LINE
8
BLACK
6
CONTINUOUS
10
70.9422
20
-40.4168
11
70.7446
21
-40.5684
0
LINE
8
BLACK
6
CONTINUOUS
10
70.7446
20
-40.5684
11
70.5684
21
-40.7446
0
LINE
8
BLACK
6
CONTINUOUS
10
70.5684
20
-40.7446
11
70.4168
21
-40.9422
0
LINE
8
BLACK
6
CONTINUOUS
10
70.4168
20
-40.9422
11
70.2923
21
-41.1578
0
LINE
8
BLACK
6
CONTINUOUS
10
70.2923
20
-41.1578
11
70.197
21
-41.388
0
LINE
8
BLACK
6
CONTINUOUS
10
70.197
20
-41.388
11
70.1325
21
-41.6285
0
LINE
8
BLACK
6
CONTINUOUS
10
70.1325
20
-41.6285
11
70.1
21
-41.8755
0
LINE
8
BLACK
6
CONTINUOUS
10
70.1
20
-41.8755
11
70.1
21
-42
0
LINE
8
BLACK
6
CONTINUOUS
10
70.1
20
-42
11
70.1
21
-116.258
0
LINE
8
BLACK
6
CONTINUOUS
10
70.1
20
-116.258
11
70.1
21
-116.258
0
LINE
8
BLACK
6
CONTINUOUS
10
70.1
20
-116.258
11
70.1
21
-116.724
0
LINE
8
BLACK
6
CONTINUOUS
10
70.1
20
-116.724
11
70.1348
21
-117.655
0
LINE
8
BLACK
6
CONTINUOUS
10
70.1348
20
-117.655
11
70.2044
21
-118.583
0
LINE
8
BLACK
6
CONTINUOUS
10
70.2044
20
-118.583
11
70.3087
21
-119.509
0
LINE
8
BLACK
6
CONTINUOUS
10
70.3087
20
-119.509
11
70.4475
21
-120.43
0
LINE
8
BLACK
6
CONTINUOUS
10
70.4475
20
-120.43
11
70.6207
21
-121.345
0
LINE
8
BLACK
6
CONTINUOUS
10
70.6207
20
-121.345
11
70.8279
21
-122.253
0
LINE
8
BLACK
6
CONTINUOUS
10
70.8279
20
-122.253
11
71.069
21
-123.153
0
LINE
8
BLACK
6
CONTINUOUS
10
71.069
20
-123.153
11
71.3435
21
-124.043
0
LINE
8
BLACK
6
CONTINUOUS
10
71.3435
20
-124.043
11
71.6511
21
-124.922
0
LINE
8
BLACK
6
CONTINUOUS
10
71.6511
20
-124.922
11
71.9914
21
-125.789
0
LINE
8
BLACK
6
CONTINUOUS
10
71.9914
20
-125.789
11
72.3638
21
-126.642
0
LINE
8
BLACK
6
CONTINUOUS
10
72.3638
20
-126.642
11
72.7679
21
-127.482
0
LINE
8
BLACK
6
CONTINUOUS
10
72.7679
20
-127.482
11
73.2031
21
-128.305
0
LINE
8
BLACK
6
CONTINUOUS
10
73.2031
20
-128.305
11
73.436
21
-128.708
0
LINE
8
BLACK
6
CONTINUOUS
10
73.436
20
-128.708
11
85.5866
21
-149.754
0
LINE
8
BLACK
6
CONTINUOUS
10
85.5866
20
-149.754
11
85.5866
21
-149.754
0
LINE
8
BLACK
6
CONTINUOUS
10
85.5866
20
-149.754
11
85.7025
21
-149.955
0
LINE
8
BLACK
6
CONTINUOUS
10
85.7025
20
-149.955
11
85.9651
21
-150.337
0
LINE
8
BLACK
6
CONTINUOUS
10
85.9651
20
-150.337
11
86.2569
21
-150.697
0
LINE
8
BLACK
6
CONTINUOUS
10
86.2569
20
-150.697
11
86.576
21
-151.033
0
LINE
8
BLACK
6
CONTINUOUS
10
86.576
20
-151.033
11
86.9206
21
-151.344
0
LINE
8
BLACK
6
CONTINUOUS
10
86.9206
20
-151.344
11
87.2884
21
-151.626
0
LINE
8
BLACK
6
CONTINUOUS
10
87.2884
20
-151.626
11
87.6772
21
-151.878
0
LINE
8
BLACK
6
CONTINUOUS
10
87.6772
20
-151.878
11
88.0846
21
-152.099
0
LINE
8
BLACK
6
CONTINUOUS
10
88.0846
20
-152.099
11
88.5082
21
-152.288
0
LINE
8
BLACK
6
CONTINUOUS
10
88.5082
20
-152.288
11
88.9452
21
-152.443
0
LINE
8
BLACK
6
CONTINUOUS
10
88.9452
20
-152.443
11
89.393
21
-152.563
0
LINE
8
BLACK
6
CONTINUOUS
10
89.393
20
-152.563
11
89.8489
21
-152.647
0
LINE
8
BLACK
6
CONTINUOUS
10
89.8489
20
-152.647
11
90.31
21
-152.696
0
LINE
8
BLACK
6
CONTINUOUS
10
90.31
20
-152.696
11
90.7734
21
-152.708
0
LINE
8
BLACK
6
CONTINUOUS
10
90.7734
20
-152.708
11
91.2364
21
-152.684
0
LINE
8
BLACK
6
CONTINUOUS
10
91.2364
20
-152.684
11
91.6961
21
-152.623
0
LINE
8
BLACK
6
CONTINUOUS
10
91.6961
20
-152.623
11
92.1496
21
-152.527
0
LINE
8
BLACK
6
CONTINUOUS
10
92.1496
20
-152.527
11
92.5941
21
-152.395
0
LINE
8
BLACK
6
CONTINUOUS
10
92.5941
20
-152.395
11
93.0269
21
-152.229
0
LINE
8
BLACK
6
CONTINUOUS
10
93.0269
20
-152.229
11
93.4454
21
-152.029
0
LINE
8
BLACK
6
CONTINUOUS
10
93.4454
20
-152.029
11
93.6462
21
-151.913
0
LINE
8
BLACK
6
CONTINUOUS
10
93.6462
20
-151.913
11
93.6462
21
-151.913
0
LINE
8
BLACK
6
CONTINUOUS
10
93.6462
20
-151.913
11
113.221
21
-140.612
0
LINE
8
BLACK
6
CONTINUOUS
10
113.221
20
-140.612
11
113.221
21
-140.612
0
LINE
8
BLACK
6
CONTINUOUS
10
113.221
20
-140.612
11
114.365
21
-139.971
0
LINE
8
BLACK
6
CONTINUOUS
10
114.365
20
-139.971
11
115.526
21
-139.361
0
LINE
8
BLACK
6
CONTINUOUS
10
115.526
20
-139.361
11
116.702
21
-138.78
0
LINE
8
BLACK
6
CONTINUOUS
10
116.702
20
-138.78
11
117.893
21
-138.231
0
LINE
8
BLACK
6
CONTINUOUS
10
117.893
20
-138.231
11
119.098
21
-137.714
0
LINE
8
BLACK
6
CONTINUOUS
10
119.098
20
-137.714
11
120.316
21
-137.228
0
LINE
8
BLACK
6
CONTINUOUS
10
120.316
20
-137.228
11
121.547
21
-136.774
0
LINE
8
BLACK
6
CONTINUOUS
10
121.547
20
-136.774
11
122.789
21
-136.352
0
LINE
8
BLACK
6
CONTINUOUS
10
122.789
20
-136.352
11
124.041
21
-135.963
0
LINE
8
BLACK
6
CONTINUOUS
10
124.041
20
-135.963
11
125.304
21
-135.607
0
LINE
8
BLACK
6
CONTINUOUS
10
125.304
20
-135.607
11
126.575
21
-135.284
0
LINE
8
BLACK
6
CONTINUOUS
10
126.575
20
-135.284
11
127.854
21
-134.995
0
LINE
8
BLACK
6
CONTINUOUS
10
127.854
20
-134.995
11
129.141
21
-134.739
0
LINE
8
BLACK
6
CONTINUOUS
10
129.141
20
-134.739
11
130.433
21
-134.517
0
LINE
8
BLACK
6
CONTINUOUS
10
130.433
20
-134.517
11
131.731
21
-134.329
0
LINE
8
BLACK
6
CONTINUOUS
10
131.731
20
-134.329
11
133.034
21
-134.174
0
LINE
8
BLACK
6
CONTINUOUS
10
133.034
20
-134.174
11
134.34
21
-134.054
0
LINE
8
BLACK
6
CONTINUOUS
10
134.34
20
-134.054
11
135.648
21
-133.969
0
LINE
8
BLACK
6
CONTINUOUS
10
135.648
20
-133.969
11
136.959
21
-133.917
0
LINE
8
BLACK
6
CONTINUOUS
10
136.959
20
-133.917
11
138.271
21
-133.9
0
LINE
8
BLACK
6
CONTINUOUS
10
138.271
20
-133.9
11
138.271
21
-133.9
0
LINE
8
BLACK
6
CONTINUOUS
10
138.271
20
-133.9
11
202
21
-133.9
0
LINE
8
BLACK
6
CONTINUOUS
10
202
20
-133.9
11
202.163
21
-133.9
0
LINE
8
BLACK
6
CONTINUOUS
10
202.163
20
-133.9
11
202.487
21
-133.864
0
LINE
8
BLACK
6
CONTINUOUS
10
202.487
20
-133.864
11
202.804
21
-133.791
0
LINE
8
BLACK
6
CONTINUOUS
10
202.804
20
-133.791
11
203.112
21
-133.683
0
LINE
8
BLACK
6
CONTINUOUS
10
203.112
20
-133.683
11
203.405
21
-133.542
0
LINE
8
BLACK
6
CONTINUOUS
10
203.405
20
-133.542
11
203.681
21
-133.369
0
LINE
8
BLACK
6
CONTINUOUS
10
203.681
20
-133.369
11
203.935
21
-133.166
0
LINE
8
BLACK
6
CONTINUOUS
10
203.935
20
-133.166
11
204.166
21
-132.935
0
LINE
8
BLACK
6
CONTINUOUS
10
204.166
20
-132.935
11
204.369
21
-132.681
0
LINE
8
BLACK
6
CONTINUOUS
10
204.369
20
-132.681
11
204.542
21
-132.405
0
LINE
8
BLACK
6
CONTINUOUS
10
204.542
20
-132.405
11
204.683
21
-132.112
0
LINE
8
BLACK
6
CONTINUOUS
10
204.683
20
-132.112
11
204.791
21
-131.804
0
LINE
8
BLACK
6
CONTINUOUS
10
204.791
20
-131.804
11
204.864
21
-131.487
0
LINE
8
BLACK
6
CONTINUOUS
10
204.864
20
-131.487
11
204.9
21
-131.163
0
LINE
8
BLACK
6
CONTINUOUS
10
204.9
20
-131.163
11
204.9
21
-131
0
LINE
8
BLACK
6
CONTINUOUS
10
204.9
20
-131
11
204.9
21
-46.3019
0
LINE
8
BLACK
6
CONTINUOUS
10
204.9
20
-46.3019
11
204.9
21
-46.3019
0
LINE
8
BLACK
6
CONTINUOUS
10
204.9
20
-46.3019
11
204.9
21
-46.0156
0
LINE
8
BLACK
6
CONTINUOUS
10
204.9
20
-46.0156
11
204.863
21
-45.4443
0
LINE
8
BLACK
6
CONTINUOUS
10
204.863
20
-45.4443
11
204.79
21
-44.8766
0
LINE
8
BLACK
6
CONTINUOUS
10
204.79
20
-44.8766
11
204.68
21
-44.3147
0
LINE
8
BLACK
6
CONTINUOUS
10
204.68
20
-44.3147
11
204.534
21
-43.7611
0
LINE
8
BLACK
6
CONTINUOUS
10
204.534
20
-43.7611
11
204.354
21
-43.2179
0
LINE
8
BLACK
6
CONTINUOUS
10
204.354
20
-43.2179
11
204.138
21
-42.6875
0
LINE
8
BLACK
6
CONTINUOUS
10
204.138
20
-42.6875
11
203.889
21
-42.1721
0
LINE
8
BLACK
6
CONTINUOUS
10
203.889
20
-42.1721
11
203.607
21
-41.6737
0
LINE
8
BLACK
6
CONTINUOUS
10
203.607
20
-41.6737
11
203.294
21
-41.1944
0
LINE
8
BLACK
6
CONTINUOUS
10
203.294
20
-41.1944
11
202.951
21
-40.7362
0
LINE
8
BLACK
6
CONTINUOUS
10
202.951
20
-40.7362
11
202.579
21
-40.3011
0
LINE
8
BLACK
6
CONTINUOUS
10
202.579
20
-40.3011
11
202.18
21
-39.8908
0
LINE
8
BLACK
6
CONTINUOUS
10
202.18
20
-39.8908
11
201.755
21
-39.5069
0
LINE
8
BLACK
6
CONTINUOUS
10
201.755
20
-39.5069
11
201.307
21
-39.1512
0
LINE
8
BLACK
6
CONTINUOUS
10
201.307
20
-39.1512
11
200.836
21
-38.825
0
LINE
8
BLACK
6
CONTINUOUS
10
200.836
20
-38.825
11
200.346
21
-38.5297
0
LINE
8
BLACK
6
CONTINUOUS
10
200.346
20
-38.5297
11
199.837
21
-38.2665
0
LINE
8
BLACK
6
CONTINUOUS
10
199.837
20
-38.2665
11
199.313
21
-38.0365
0
LINE
8
BLACK
6
CONTINUOUS
10
199.313
20
-38.0365
11
199.044
21
-37.9386
0
LINE
8
BLACK
6
CONTINUOUS
10
199.044
20
-37.9386
11
199.044
21
-37.9386
0
LINE
8
BLACK
6
CONTINUOUS
10
199.044
20
-37.9386
11
194.06
21
-36.1247
0
LINE
8
BLACK
6
CONTINUOUS
10
194.06
20
-36.1247
11
194.06
21
-36.1247
0
LINE
8
BLACK
6
CONTINUOUS
10
194.06
20
-36.1247
11
193.15
21
-35.7934
0
LINE
8
BLACK
6
CONTINUOUS
10
193.15
20
-35.7934
11
191.317
21
-35.1662
0
LINE
8
BLACK
6
CONTINUOUS
10
191.317
20
-35.1662
11
189.472
21
-34.5747
0
LINE
8
BLACK
6
CONTINUOUS
10
189.472
20
-34.5747
11
187.616
21
-34.019
0
LINE
8
BLACK
6
CONTINUOUS
10
187.616
20
-34.019
11
185.75
21
-33.4995
0
LINE
8
BLACK
6
CONTINUOUS
10
185.75
20
-33.4995
11
183.874
21
-33.0162
0
LINE
8
BLACK
6
CONTINUOUS
10
183.874
20
-33.0162
11
181.988
21
-32.5694
0
LINE
8
BLACK
6
CONTINUOUS
10
181.988
20
-32.5694
11
180.095
21
-32.1593
0
LINE
8
BLACK
6
CONTINUOUS
10
180.095
20
-32.1593
11
178.194
21
-31.7859
0
LINE
8
BLACK
6
CONTINUOUS
10
178.194
20
-31.7859
11
176.286
21
-31.4495
0
LINE
8
BLACK
6
CONTINUOUS
10
176.286
20
-31.4495
11
174.372
21
-31.1501
0
LINE
8
BLACK
6
CONTINUOUS
10
174.372
20
-31.1501
11
172.452
21
-30.8879
0
LINE
8
BLACK
6
CONTINUOUS
10
172.452
20
-30.8879
11
170.528
21
-30.663
0
LINE
8
BLACK
6
CONTINUOUS
10
170.528
20
-30.663
11
168.6
21
-30.4755
0
LINE
8
BLACK
6
CONTINUOUS
10
168.6
20
-30.4755
11
166.668
21
-30.3253
0
LINE
8
BLACK
6
CONTINUOUS
10
166.668
20
-30.3253
11
164.734
21
-30.2127
0
LINE
8
BLACK
6
CONTINUOUS
10
164.734
20
-30.2127
11
162.798
21
-30.1376
0
LINE
8
BLACK
6
CONTINUOUS
10
162.798
20
-30.1376
11
160.861
21
-30.1
0
LINE
8
BLACK
6
CONTINUOUS
10
160.861
20
-30.1
11
159.893
21
-30.1
0
LINE
8
BLACK
6
CONTINUOUS
10
159.893
20
-30.1
11
115.107
21
-30.1
  0
ENDSEC
  0
EOF
