%TF.GenerationSoftware,KiCad,Pcbnew,7.0.5*%
%TF.CreationDate,2023-10-09T17:56:41+09:00*%
%TF.ProjectId,Ultramarine-2,556c7472-616d-4617-9269-6e652d322e6b,rev?*%
%TF.SameCoordinates,Original*%
%TF.FileFunction,Soldermask,Bot*%
%TF.FilePolarity,Negative*%
%FSLAX46Y46*%
G04 Gerber Fmt 4.6, Leading zero omitted, Abs format (unit mm)*
G04 Created by KiCad (PCBNEW 7.0.5) date 2023-10-09 17:56:41*
%MOMM*%
%LPD*%
G01*
G04 APERTURE LIST*
G04 Aperture macros list*
%AMRoundRect*
0 Rectangle with rounded corners*
0 $1 Rounding radius*
0 $2 $3 $4 $5 $6 $7 $8 $9 X,Y pos of 4 corners*
0 Add a 4 corners polygon primitive as box body*
4,1,4,$2,$3,$4,$5,$6,$7,$8,$9,$2,$3,0*
0 Add four circle primitives for the rounded corners*
1,1,$1+$1,$2,$3*
1,1,$1+$1,$4,$5*
1,1,$1+$1,$6,$7*
1,1,$1+$1,$8,$9*
0 Add four rect primitives between the rounded corners*
20,1,$1+$1,$2,$3,$4,$5,0*
20,1,$1+$1,$4,$5,$6,$7,0*
20,1,$1+$1,$6,$7,$8,$9,0*
20,1,$1+$1,$8,$9,$2,$3,0*%
%AMHorizOval*
0 Thick line with rounded ends*
0 $1 width*
0 $2 $3 position (X,Y) of the first rounded end (center of the circle)*
0 $4 $5 position (X,Y) of the second rounded end (center of the circle)*
0 Add line between two ends*
20,1,$1,$2,$3,$4,$5,0*
0 Add two circle primitives to create the rounded ends*
1,1,$1,$2,$3*
1,1,$1,$4,$5*%
%AMFreePoly0*
4,1,6,1.000000,0.000000,0.500000,-0.750000,-0.500000,-0.750000,-0.500000,0.750000,0.500000,0.750000,1.000000,0.000000,1.000000,0.000000,$1*%
G04 Aperture macros list end*
%ADD10C,1.750000*%
%ADD11C,3.050000*%
%ADD12C,4.000000*%
%ADD13RoundRect,0.625000X-0.650000X-0.625000X0.650000X-0.625000X0.650000X0.625000X-0.650000X0.625000X0*%
%ADD14C,0.750000*%
%ADD15RoundRect,0.262500X0.262500X-0.537500X0.262500X0.537500X-0.262500X0.537500X-0.262500X-0.537500X0*%
%ADD16C,1.500000*%
%ADD17C,2.200000*%
%ADD18RoundRect,0.625000X-0.250417X-0.866266X0.875417X-0.216266X0.250417X0.866266X-0.875417X0.216266X0*%
%ADD19RoundRect,0.325000X-0.550000X0.325000X-0.550000X-0.325000X0.550000X-0.325000X0.550000X0.325000X0*%
%ADD20O,1.750000X1.200000*%
%ADD21RoundRect,0.375000X-0.375000X-0.375000X0.375000X-0.375000X0.375000X0.375000X-0.375000X0.375000X0*%
%ADD22RoundRect,0.375000X-0.375000X0.375000X-0.375000X-0.375000X0.375000X-0.375000X0.375000X0.375000X0*%
%ADD23O,2.500000X3.000000*%
%ADD24RoundRect,0.300000X0.300000X-0.300000X0.300000X0.300000X-0.300000X0.300000X-0.300000X-0.300000X0*%
%ADD25RoundRect,0.250000X0.750000X0.250000X-0.750000X0.250000X-0.750000X-0.250000X0.750000X-0.250000X0*%
%ADD26RoundRect,0.300000X0.409808X-0.109808X0.109808X0.409808X-0.409808X0.109808X-0.109808X-0.409808X0*%
%ADD27RoundRect,0.250000X-0.750000X-0.250000X0.750000X-0.250000X0.750000X0.250000X-0.750000X0.250000X0*%
%ADD28RoundRect,0.625000X0.650000X0.625000X-0.650000X0.625000X-0.650000X-0.625000X0.650000X-0.625000X0*%
%ADD29RoundRect,0.300000X-0.300000X0.300000X-0.300000X-0.300000X0.300000X-0.300000X0.300000X0.300000X0*%
%ADD30HorizOval,0.700000X-0.318198X0.318198X0.318198X-0.318198X0*%
%ADD31RoundRect,0.250000X0.524519X0.591506X-0.774519X-0.158494X-0.524519X-0.591506X0.774519X0.158494X0*%
%ADD32RoundRect,0.625000X0.250417X0.866266X-0.875417X0.216266X-0.250417X-0.866266X0.875417X-0.216266X0*%
%ADD33RoundRect,0.200000X0.275000X-0.200000X0.275000X0.200000X-0.275000X0.200000X-0.275000X-0.200000X0*%
%ADD34R,3.000000X1.500000*%
%ADD35FreePoly0,0.000000*%
%ADD36FreePoly0,180.000000*%
%ADD37RoundRect,0.250000X0.591506X-0.524519X-0.158494X0.774519X-0.591506X0.524519X0.158494X-0.774519X0*%
%ADD38RoundRect,0.200000X-0.275000X0.200000X-0.275000X-0.200000X0.275000X-0.200000X0.275000X0.200000X0*%
%ADD39RoundRect,0.625000X0.866266X-0.250417X0.216266X0.875417X-0.866266X0.250417X-0.216266X-0.875417X0*%
%ADD40C,3.987800*%
%ADD41C,3.048000*%
%ADD42O,0.700000X1.600000*%
%ADD43RoundRect,0.300000X0.300000X0.300000X-0.300000X0.300000X-0.300000X-0.300000X0.300000X-0.300000X0*%
G04 APERTURE END LIST*
D10*
%TO.C,SW27*%
X170920000Y-121000000D03*
D11*
X172190000Y-118460000D03*
X173460000Y-115920000D03*
D12*
X176000000Y-121000000D03*
D11*
X178540000Y-115920000D03*
X179810000Y-118460000D03*
D10*
X181080000Y-121000000D03*
D13*
X168915000Y-118460000D03*
X182342000Y-115920000D03*
%TD*%
D10*
%TO.C,SW13*%
X208920000Y-88000000D03*
D11*
X210190000Y-85460000D03*
X211460000Y-82920000D03*
D12*
X214000000Y-88000000D03*
D11*
X216540000Y-82920000D03*
X217810000Y-85460000D03*
D10*
X219080000Y-88000000D03*
D13*
X206915000Y-85460000D03*
X220342000Y-82920000D03*
%TD*%
D12*
%TO.C,REF\u002A\u002A*%
X128500000Y-55000000D03*
%TD*%
D10*
%TO.C,SW1*%
X208920000Y-50000000D03*
D11*
X210190000Y-47460000D03*
X211460000Y-44920000D03*
D12*
X214000000Y-50000000D03*
D11*
X216540000Y-44920000D03*
X217810000Y-47460000D03*
D10*
X219080000Y-50000000D03*
D13*
X206915000Y-47460000D03*
X220342000Y-44920000D03*
%TD*%
D14*
%TO.C,SW32*%
X120000000Y-37400000D03*
X120000000Y-35600000D03*
D15*
X122225000Y-36500000D03*
X117775000Y-36500000D03*
%TD*%
D10*
%TO.C,SW21*%
X170920000Y-102000000D03*
D11*
X172190000Y-99460000D03*
X173460000Y-96920000D03*
D12*
X176000000Y-102000000D03*
D11*
X178540000Y-96920000D03*
X179810000Y-99460000D03*
D10*
X181080000Y-102000000D03*
D13*
X168915000Y-99460000D03*
X182342000Y-96920000D03*
%TD*%
D10*
%TO.C,SW7*%
X208920000Y-69000000D03*
D11*
X210190000Y-66460000D03*
X211460000Y-63920000D03*
D12*
X214000000Y-69000000D03*
D11*
X216540000Y-63920000D03*
X217810000Y-66460000D03*
D10*
X219080000Y-69000000D03*
D13*
X206915000Y-66460000D03*
X220342000Y-63920000D03*
%TD*%
D10*
%TO.C,SW5*%
X132920000Y-44500000D03*
D11*
X134190000Y-41960000D03*
X135460000Y-39420000D03*
D12*
X138000000Y-44500000D03*
D11*
X140540000Y-39420000D03*
X141810000Y-41960000D03*
D10*
X143080000Y-44500000D03*
D13*
X130915000Y-41960000D03*
X144342000Y-39420000D03*
%TD*%
D12*
%TO.C,REF\u002A\u002A*%
X204500000Y-59500000D03*
%TD*%
D16*
%TO.C,U1*%
X105485000Y-42760000D03*
X105485000Y-45300000D03*
X105485000Y-47840000D03*
X105485000Y-50380000D03*
X105485000Y-52920000D03*
X105485000Y-55460000D03*
X105485000Y-58000000D03*
X105485000Y-60540000D03*
X105485000Y-63080000D03*
X105485000Y-65620000D03*
X105485000Y-68160000D03*
X105485000Y-70700000D03*
X105485000Y-73240000D03*
X90245000Y-73240000D03*
X90245000Y-70700000D03*
X90245000Y-68160000D03*
X90245000Y-65620000D03*
X90245000Y-63080000D03*
X90245000Y-60540000D03*
X90245000Y-58000000D03*
X90245000Y-55460000D03*
X90245000Y-52920000D03*
X90245000Y-50380000D03*
X90245000Y-47840000D03*
X90245000Y-45300000D03*
X90245000Y-42760000D03*
%TD*%
D17*
%TO.C,REF\u002A\u002A*%
X107000000Y-79000000D03*
%TD*%
D10*
%TO.C,SW3*%
X170920000Y-45000000D03*
D11*
X172190000Y-42460000D03*
X173460000Y-39920000D03*
D12*
X176000000Y-45000000D03*
D11*
X178540000Y-39920000D03*
X179810000Y-42460000D03*
D10*
X181080000Y-45000000D03*
D13*
X168915000Y-42460000D03*
X182342000Y-39920000D03*
%TD*%
D12*
%TO.C,REF\u002A\u002A*%
X204500000Y-116500000D03*
%TD*%
D10*
%TO.C,SW25*%
X208920000Y-126000000D03*
D11*
X210190000Y-123460000D03*
X211460000Y-120920000D03*
D12*
X214000000Y-126000000D03*
D11*
X216540000Y-120920000D03*
X217810000Y-123460000D03*
D10*
X219080000Y-126000000D03*
D13*
X206915000Y-123460000D03*
X220342000Y-120920000D03*
%TD*%
D10*
%TO.C,SW23*%
X132920000Y-101500000D03*
D11*
X134190000Y-98960000D03*
X135460000Y-96420000D03*
D12*
X138000000Y-101500000D03*
D11*
X140540000Y-96420000D03*
X141810000Y-98960000D03*
D10*
X143080000Y-101500000D03*
D13*
X130915000Y-98960000D03*
X144342000Y-96420000D03*
%TD*%
D10*
%TO.C,SW29*%
X122931591Y-136121000D03*
D11*
X122761443Y-133286295D03*
X122591295Y-130451591D03*
D12*
X127331000Y-133581000D03*
D11*
X126990705Y-127911591D03*
X129360557Y-129476295D03*
D10*
X131730409Y-131041000D03*
D18*
X119925210Y-134923795D03*
X130283333Y-126010591D03*
%TD*%
D10*
%TO.C,SW19*%
X208920000Y-107000000D03*
D11*
X210190000Y-104460000D03*
X211460000Y-101920000D03*
D12*
X214000000Y-107000000D03*
D11*
X216540000Y-101920000D03*
X217810000Y-104460000D03*
D10*
X219080000Y-107000000D03*
D13*
X206915000Y-104460000D03*
X220342000Y-101920000D03*
%TD*%
D12*
%TO.C,REF\u002A\u002A*%
X116000000Y-119000000D03*
%TD*%
D19*
%TO.C,J3*%
X92424000Y-104250000D03*
D20*
X92404000Y-105750000D03*
X92424000Y-107250000D03*
X92404000Y-108750000D03*
X92424000Y-110250000D03*
X92404000Y-111750000D03*
%TD*%
D16*
%TO.C,J1*%
X94690000Y-79240000D03*
X97230000Y-79240000D03*
X99770000Y-79240000D03*
D21*
X102310000Y-79240000D03*
%TD*%
D10*
%TO.C,SW9*%
X170920000Y-64000000D03*
D11*
X172190000Y-61460000D03*
X173460000Y-58920000D03*
D12*
X176000000Y-64000000D03*
D11*
X178540000Y-58920000D03*
X179810000Y-61460000D03*
D10*
X181080000Y-64000000D03*
D13*
X168915000Y-61460000D03*
X182342000Y-58920000D03*
%TD*%
D22*
%TO.C,SW31*%
X99000000Y-87000000D03*
D16*
X94000000Y-87000000D03*
X96500000Y-87000000D03*
D23*
X102100000Y-94500000D03*
X90900000Y-94500000D03*
D16*
X99000000Y-101500000D03*
X94000000Y-101500000D03*
%TD*%
D10*
%TO.C,SW11*%
X132920000Y-63500000D03*
D11*
X134190000Y-60960000D03*
X135460000Y-58420000D03*
D12*
X138000000Y-63500000D03*
D11*
X140540000Y-58420000D03*
X141810000Y-60960000D03*
D10*
X143080000Y-63500000D03*
D13*
X130915000Y-60960000D03*
X144342000Y-58420000D03*
%TD*%
D10*
%TO.C,SW15*%
X170920000Y-83000000D03*
D11*
X172190000Y-80460000D03*
X173460000Y-77920000D03*
D12*
X176000000Y-83000000D03*
D11*
X178540000Y-77920000D03*
X179810000Y-80460000D03*
D10*
X181080000Y-83000000D03*
D13*
X168915000Y-80460000D03*
X182342000Y-77920000D03*
%TD*%
D12*
%TO.C,REF\u002A\u002A*%
X166500000Y-88500000D03*
%TD*%
D17*
%TO.C,REF\u002A\u002A*%
X90000000Y-79000000D03*
%TD*%
D10*
%TO.C,SW17*%
X132920000Y-82500000D03*
D11*
X134190000Y-79960000D03*
X135460000Y-77420000D03*
D12*
X138000000Y-82500000D03*
D11*
X140540000Y-77420000D03*
X141810000Y-79960000D03*
D10*
X143080000Y-82500000D03*
D13*
X130915000Y-79960000D03*
X144342000Y-77420000D03*
%TD*%
D12*
%TO.C,REF\u002A\u002A*%
X128500000Y-93200000D03*
%TD*%
D24*
%TO.C,D5*%
X128500000Y-50700000D03*
X128500000Y-47300000D03*
%TD*%
D25*
%TO.C,D56*%
X216500000Y-131850000D03*
X216500000Y-130150000D03*
X211500000Y-130150000D03*
X211500000Y-131850000D03*
%TD*%
D26*
%TO.C,D29*%
X138850000Y-134472243D03*
X137150000Y-131527757D03*
%TD*%
D25*
%TO.C,D45*%
X197500000Y-93850000D03*
X197500000Y-92150000D03*
X192500000Y-92150000D03*
X192500000Y-93850000D03*
%TD*%
%TO.C,D49*%
X121500000Y-91850000D03*
X121500000Y-90150000D03*
X116500000Y-90150000D03*
X116500000Y-91850000D03*
%TD*%
D27*
%TO.C,D53*%
X154500000Y-101150000D03*
X154500000Y-102850000D03*
X159500000Y-102850000D03*
X159500000Y-101150000D03*
%TD*%
D10*
%TO.C,SW2*%
X200080000Y-50000000D03*
D11*
X198810000Y-47460000D03*
X197540000Y-44920000D03*
D12*
X195000000Y-50000000D03*
D11*
X192460000Y-44920000D03*
X191190000Y-47460000D03*
D10*
X189920000Y-50000000D03*
D28*
X201342000Y-44920000D03*
X187915000Y-47460000D03*
%TD*%
D16*
%TO.C,U2*%
X91515000Y-44030000D03*
X91515000Y-46570000D03*
X91515000Y-49110000D03*
X91515000Y-51650000D03*
X91515000Y-54190000D03*
X91515000Y-56730000D03*
X91515000Y-59270000D03*
X91515000Y-61810000D03*
X91515000Y-64350000D03*
X91515000Y-66890000D03*
X91515000Y-69430000D03*
X91515000Y-71970000D03*
X91515000Y-74510000D03*
X106755000Y-74510000D03*
X106755000Y-71970000D03*
X106755000Y-69430000D03*
X106755000Y-66890000D03*
X106755000Y-64350000D03*
X106755000Y-61810000D03*
X106755000Y-59270000D03*
X106755000Y-56730000D03*
X106755000Y-54190000D03*
X106755000Y-51650000D03*
X106755000Y-49110000D03*
X106755000Y-46570000D03*
X106755000Y-44030000D03*
%TD*%
D10*
%TO.C,SW24*%
X124080000Y-105000000D03*
D11*
X122810000Y-102460000D03*
X121540000Y-99920000D03*
D12*
X119000000Y-105000000D03*
D11*
X116460000Y-99920000D03*
X115190000Y-102460000D03*
D10*
X113920000Y-105000000D03*
D28*
X125342000Y-99920000D03*
X111915000Y-102460000D03*
%TD*%
D24*
%TO.C,D28*%
X166500000Y-127200000D03*
X166500000Y-123800000D03*
%TD*%
D29*
%TO.C,D17*%
X128500000Y-73750000D03*
X128500000Y-77150000D03*
%TD*%
D30*
%TO.C,J4*%
X217500000Y-40900000D03*
%TD*%
D25*
%TO.C,D36*%
X140500000Y-50350000D03*
X140500000Y-48650000D03*
X135500000Y-48650000D03*
X135500000Y-50350000D03*
%TD*%
D27*
%TO.C,D39*%
X192500000Y-73150000D03*
X192500000Y-74850000D03*
X197500000Y-74850000D03*
X197500000Y-73150000D03*
%TD*%
D10*
%TO.C,SW20*%
X200080000Y-107000000D03*
D11*
X198810000Y-104460000D03*
X197540000Y-101920000D03*
D12*
X195000000Y-107000000D03*
D11*
X192460000Y-101920000D03*
X191190000Y-104460000D03*
D10*
X189920000Y-107000000D03*
D28*
X201342000Y-101920000D03*
X187915000Y-104460000D03*
%TD*%
D10*
%TO.C,SW12*%
X124080000Y-67000000D03*
D11*
X122810000Y-64460000D03*
X121540000Y-61920000D03*
D12*
X119000000Y-67000000D03*
D11*
X116460000Y-61920000D03*
X115190000Y-64460000D03*
D10*
X113920000Y-67000000D03*
D28*
X125342000Y-61920000D03*
X111915000Y-64460000D03*
%TD*%
D27*
%TO.C,D50*%
X211500000Y-111150000D03*
X211500000Y-112850000D03*
X216500000Y-112850000D03*
X216500000Y-111150000D03*
%TD*%
D31*
%TO.C,D59*%
X148876064Y-127897122D03*
X148026064Y-126424878D03*
X143695936Y-128924878D03*
X144545936Y-130397122D03*
%TD*%
D10*
%TO.C,SW14*%
X200080000Y-88000000D03*
D11*
X198810000Y-85460000D03*
X197540000Y-82920000D03*
D12*
X195000000Y-88000000D03*
D11*
X192460000Y-82920000D03*
X191190000Y-85460000D03*
D10*
X189920000Y-88000000D03*
D28*
X201342000Y-82920000D03*
X187915000Y-85460000D03*
%TD*%
D27*
%TO.C,D40*%
X173500000Y-68150000D03*
X173500000Y-69850000D03*
X178500000Y-69850000D03*
X178500000Y-68150000D03*
%TD*%
D29*
%TO.C,D13*%
X204500000Y-77800000D03*
X204500000Y-81200000D03*
%TD*%
D10*
%TO.C,SW28*%
X148185409Y-121541000D03*
D11*
X145815557Y-119976295D03*
X143445705Y-118411591D03*
D12*
X143786000Y-124081000D03*
D11*
X139046295Y-120951591D03*
X139216443Y-123786295D03*
D10*
X139386591Y-126621000D03*
D32*
X146738333Y-116510591D03*
X136380210Y-125423795D03*
%TD*%
D33*
%TO.C,R2*%
X109500000Y-59650000D03*
X109500000Y-58000000D03*
%TD*%
D24*
%TO.C,D27*%
X204500000Y-132700000D03*
X204500000Y-129300000D03*
%TD*%
D27*
%TO.C,D38*%
X211500000Y-73150000D03*
X211500000Y-74850000D03*
X216500000Y-74850000D03*
X216500000Y-73150000D03*
%TD*%
D10*
%TO.C,SW4*%
X162080000Y-40000000D03*
D11*
X160810000Y-37460000D03*
X159540000Y-34920000D03*
D12*
X157000000Y-40000000D03*
D11*
X154460000Y-34920000D03*
X153190000Y-37460000D03*
D10*
X151920000Y-40000000D03*
D28*
X163342000Y-34920000D03*
X149915000Y-37460000D03*
%TD*%
D25*
%TO.C,D35*%
X159500000Y-45850000D03*
X159500000Y-44150000D03*
X154500000Y-44150000D03*
X154500000Y-45850000D03*
%TD*%
D27*
%TO.C,D41*%
X154500000Y-63150000D03*
X154500000Y-64850000D03*
X159500000Y-64850000D03*
X159500000Y-63150000D03*
%TD*%
D25*
%TO.C,D46*%
X178500000Y-88850000D03*
X178500000Y-87150000D03*
X173500000Y-87150000D03*
X173500000Y-88850000D03*
%TD*%
D34*
%TO.C,JP4*%
X96500000Y-83550000D03*
D35*
X94500000Y-83550000D03*
D36*
X98500000Y-83550000D03*
%TD*%
D25*
%TO.C,D33*%
X197500000Y-55850000D03*
X197500000Y-54150000D03*
X192500000Y-54150000D03*
X192500000Y-55850000D03*
%TD*%
D24*
%TO.C,D10*%
X166500000Y-67700000D03*
X166500000Y-64300000D03*
%TD*%
%TO.C,D4*%
X166500000Y-49500000D03*
X166500000Y-46100000D03*
%TD*%
%TO.C,D2*%
X204500000Y-54700000D03*
X204500000Y-51300000D03*
%TD*%
D25*
%TO.C,D37*%
X121500000Y-53850000D03*
X121500000Y-52150000D03*
X116500000Y-52150000D03*
X116500000Y-53850000D03*
%TD*%
D10*
%TO.C,SW8*%
X200080000Y-69000000D03*
D11*
X198810000Y-66460000D03*
X197540000Y-63920000D03*
D12*
X195000000Y-69000000D03*
D11*
X192460000Y-63920000D03*
X191190000Y-66460000D03*
D10*
X189920000Y-69000000D03*
D28*
X201342000Y-63920000D03*
X187915000Y-66460000D03*
%TD*%
D27*
%TO.C,D42*%
X135500000Y-67650000D03*
X135500000Y-69350000D03*
X140500000Y-69350000D03*
X140500000Y-67650000D03*
%TD*%
D37*
%TO.C,D61*%
X102310878Y-139944064D03*
X103783122Y-139094064D03*
X101283122Y-134763936D03*
X99810878Y-135613936D03*
%TD*%
D38*
%TO.C,R1*%
X109500000Y-53850000D03*
X109500000Y-55500000D03*
%TD*%
D27*
%TO.C,D55*%
X116500000Y-109150000D03*
X116500000Y-110850000D03*
X121500000Y-110850000D03*
X121500000Y-109150000D03*
%TD*%
D10*
%TO.C,SW22*%
X162080000Y-97000000D03*
D11*
X160810000Y-94460000D03*
X159540000Y-91920000D03*
D12*
X157000000Y-97000000D03*
D11*
X154460000Y-91920000D03*
X153190000Y-94460000D03*
D10*
X151920000Y-97000000D03*
D28*
X163342000Y-91920000D03*
X149915000Y-94460000D03*
%TD*%
D27*
%TO.C,D54*%
X135500000Y-105650000D03*
X135500000Y-107350000D03*
X140500000Y-107350000D03*
X140500000Y-105650000D03*
%TD*%
D25*
%TO.C,D58*%
X178500000Y-126850000D03*
X178500000Y-125150000D03*
X173500000Y-125150000D03*
X173500000Y-126850000D03*
%TD*%
D29*
%TO.C,D16*%
X166500000Y-69750000D03*
X166500000Y-73150000D03*
%TD*%
D25*
%TO.C,D57*%
X197500000Y-131850000D03*
X197500000Y-130150000D03*
X192500000Y-130150000D03*
X192500000Y-131850000D03*
%TD*%
D34*
%TO.C,JP2*%
X96500000Y-76250000D03*
D35*
X94500000Y-76250000D03*
D36*
X98500000Y-76250000D03*
%TD*%
D10*
%TO.C,SW30*%
X108667000Y-139253409D03*
D11*
X110231705Y-136883557D03*
X111796409Y-134513705D03*
D12*
X106127000Y-134854000D03*
D11*
X109256409Y-130114295D03*
X106421705Y-130284443D03*
D10*
X103587000Y-130454591D03*
D39*
X113697409Y-137806333D03*
X104784205Y-127448210D03*
%TD*%
D40*
%TO.C,REF\u002A\u002A*%
X107281059Y-120402889D03*
D41*
X94108813Y-128007889D03*
D40*
X119219059Y-141080111D03*
D41*
X106046813Y-148685111D03*
%TD*%
D25*
%TO.C,D34*%
X178500000Y-50850000D03*
X178500000Y-49150000D03*
X173500000Y-49150000D03*
X173500000Y-50850000D03*
%TD*%
D10*
%TO.C,SW16*%
X162080000Y-78000000D03*
D11*
X160810000Y-75460000D03*
X159540000Y-72920000D03*
D12*
X157000000Y-78000000D03*
D11*
X154460000Y-72920000D03*
X153190000Y-75460000D03*
D10*
X151920000Y-78000000D03*
D28*
X163342000Y-72920000D03*
X149915000Y-75460000D03*
%TD*%
D26*
%TO.C,D31*%
X114350000Y-127472243D03*
X112650000Y-124527757D03*
%TD*%
D25*
%TO.C,D44*%
X216500000Y-93850000D03*
X216500000Y-92150000D03*
X211500000Y-92150000D03*
X211500000Y-93850000D03*
%TD*%
D42*
%TO.C,J2*%
X89500000Y-107200000D03*
%TD*%
D27*
%TO.C,D51*%
X192500000Y-111150000D03*
X192500000Y-112850000D03*
X197500000Y-112850000D03*
X197500000Y-111150000D03*
%TD*%
D10*
%TO.C,SW6*%
X124080000Y-48000000D03*
D11*
X122810000Y-45460000D03*
X121540000Y-42920000D03*
D12*
X119000000Y-48000000D03*
D11*
X116460000Y-42920000D03*
X115190000Y-45460000D03*
D10*
X113920000Y-48000000D03*
D28*
X125342000Y-42920000D03*
X111915000Y-45460000D03*
%TD*%
D31*
%TO.C,D60*%
X132421064Y-137397122D03*
X131571064Y-135924878D03*
X127240936Y-138424878D03*
X128090936Y-139897122D03*
%TD*%
D25*
%TO.C,D32*%
X216500000Y-55850000D03*
X216500000Y-54150000D03*
X211500000Y-54150000D03*
X211500000Y-55850000D03*
%TD*%
D34*
%TO.C,JP5*%
X100500000Y-76250000D03*
D35*
X98500000Y-76250000D03*
D36*
X102500000Y-76250000D03*
%TD*%
D10*
%TO.C,SW18*%
X124080000Y-86000000D03*
D11*
X122810000Y-83460000D03*
X121540000Y-80920000D03*
D12*
X119000000Y-86000000D03*
D11*
X116460000Y-80920000D03*
X115190000Y-83460000D03*
D10*
X113920000Y-86000000D03*
D28*
X125342000Y-80920000D03*
X111915000Y-83460000D03*
%TD*%
D25*
%TO.C,D47*%
X159500000Y-83850000D03*
X159500000Y-82150000D03*
X154500000Y-82150000D03*
X154500000Y-83850000D03*
%TD*%
D24*
%TO.C,D19*%
X204500000Y-111700000D03*
X204500000Y-108300000D03*
%TD*%
%TO.C,D11*%
X128500000Y-71500000D03*
X128500000Y-68100000D03*
%TD*%
D27*
%TO.C,D52*%
X173500000Y-106150000D03*
X173500000Y-107850000D03*
X178500000Y-107850000D03*
X178500000Y-106150000D03*
%TD*%
D24*
%TO.C,D23*%
X128500000Y-111700000D03*
X128500000Y-108300000D03*
%TD*%
D10*
%TO.C,SW10*%
X162080000Y-59000000D03*
D11*
X160810000Y-56460000D03*
X159540000Y-53920000D03*
D12*
X157000000Y-59000000D03*
D11*
X154460000Y-53920000D03*
X153190000Y-56460000D03*
D10*
X151920000Y-59000000D03*
D28*
X163342000Y-53920000D03*
X149915000Y-56460000D03*
%TD*%
D25*
%TO.C,D48*%
X140500000Y-88350000D03*
X140500000Y-86650000D03*
X135500000Y-86650000D03*
X135500000Y-88350000D03*
%TD*%
D24*
%TO.C,D8*%
X204500000Y-74700000D03*
X204500000Y-71300000D03*
%TD*%
D43*
%TO.C,D25*%
X108400000Y-97500000D03*
X105000000Y-97500000D03*
%TD*%
D10*
%TO.C,SW26*%
X200080000Y-126000000D03*
D11*
X198810000Y-123460000D03*
X197540000Y-120920000D03*
D12*
X195000000Y-126000000D03*
D11*
X192460000Y-120920000D03*
X191190000Y-123460000D03*
D10*
X189920000Y-126000000D03*
D28*
X201342000Y-120920000D03*
X187915000Y-123460000D03*
%TD*%
D27*
%TO.C,D43*%
X116500000Y-71150000D03*
X116500000Y-72850000D03*
X121500000Y-72850000D03*
X121500000Y-71150000D03*
%TD*%
D24*
%TO.C,D22*%
X166500000Y-108700000D03*
X166500000Y-105300000D03*
%TD*%
M02*
