M48
; DRILL file {KiCad 7.0.5} date Mon Oct  9 17:56:44 2023
; FORMAT={-:-/ absolute / metric / decimal}
; #@! TF.CreationDate,2023-10-09T17:56:44+09:00
; #@! TF.GenerationSoftware,Kicad,Pcbnew,7.0.5
; #@! TF.FileFunction,NonPlated,1,2,NPTH
FMAT,2
METRIC
; #@! TA.AperFunction,NonPlated,NPTH,ComponentDrill
T1C0.750
; #@! TA.AperFunction,NonPlated,NPTH,ComponentDrill
T2C1.750
; #@! TA.AperFunction,NonPlated,NPTH,ComponentDrill
T3C2.200
; #@! TA.AperFunction,NonPlated,NPTH,ComponentDrill
T4C3.048
; #@! TA.AperFunction,NonPlated,NPTH,ComponentDrill
T5C3.050
; #@! TA.AperFunction,NonPlated,NPTH,ComponentDrill
T6C3.988
; #@! TA.AperFunction,NonPlated,NPTH,ComponentDrill
T7C4.000
%
G90
G05
T1
X120.0Y-35.6
X120.0Y-37.4
T2
X103.587Y-130.455
X108.667Y-139.253
X113.92Y-48.0
X113.92Y-67.0
X113.92Y-86.0
X113.92Y-105.0
X122.932Y-136.121
X124.08Y-48.0
X124.08Y-67.0
X124.08Y-86.0
X124.08Y-105.0
X131.73Y-131.041
X132.92Y-44.5
X132.92Y-63.5
X132.92Y-82.5
X132.92Y-101.5
X139.387Y-126.621
X143.08Y-44.5
X143.08Y-63.5
X143.08Y-82.5
X143.08Y-101.5
X148.185Y-121.541
X151.92Y-40.0
X151.92Y-59.0
X151.92Y-78.0
X151.92Y-97.0
X162.08Y-40.0
X162.08Y-59.0
X162.08Y-78.0
X162.08Y-97.0
X170.92Y-45.0
X170.92Y-64.0
X170.92Y-83.0
X170.92Y-102.0
X170.92Y-121.0
X181.08Y-45.0
X181.08Y-64.0
X181.08Y-83.0
X181.08Y-102.0
X181.08Y-121.0
X189.92Y-50.0
X189.92Y-69.0
X189.92Y-88.0
X189.92Y-107.0
X189.92Y-126.0
X200.08Y-50.0
X200.08Y-69.0
X200.08Y-88.0
X200.08Y-107.0
X200.08Y-126.0
X208.92Y-50.0
X208.92Y-69.0
X208.92Y-88.0
X208.92Y-107.0
X208.92Y-126.0
X219.08Y-50.0
X219.08Y-69.0
X219.08Y-88.0
X219.08Y-107.0
X219.08Y-126.0
T3
X90.0Y-79.0
X107.0Y-79.0
T4
X94.109Y-128.008
X106.047Y-148.685
T5
X106.422Y-130.284
X109.256Y-130.114
X110.232Y-136.884
X111.796Y-134.514
X115.19Y-45.46
X115.19Y-64.46
X115.19Y-83.46
X115.19Y-102.46
X116.46Y-42.92
X116.46Y-61.92
X116.46Y-80.92
X116.46Y-99.92
X121.54Y-42.92
X121.54Y-61.92
X121.54Y-80.92
X121.54Y-99.92
X122.591Y-130.452
X122.761Y-133.286
X122.81Y-45.46
X122.81Y-64.46
X122.81Y-83.46
X122.81Y-102.46
X126.991Y-127.912
X129.361Y-129.476
X134.19Y-41.96
X134.19Y-60.96
X134.19Y-79.96
X134.19Y-98.96
X135.46Y-39.42
X135.46Y-58.42
X135.46Y-77.42
X135.46Y-96.42
X139.046Y-120.952
X139.216Y-123.786
X140.54Y-39.42
X140.54Y-58.42
X140.54Y-77.42
X140.54Y-96.42
X141.81Y-41.96
X141.81Y-60.96
X141.81Y-79.96
X141.81Y-98.96
X143.446Y-118.412
X145.816Y-119.976
X153.19Y-37.46
X153.19Y-56.46
X153.19Y-75.46
X153.19Y-94.46
X154.46Y-34.92
X154.46Y-53.92
X154.46Y-72.92
X154.46Y-91.92
X159.54Y-34.92
X159.54Y-53.92
X159.54Y-72.92
X159.54Y-91.92
X160.81Y-37.46
X160.81Y-56.46
X160.81Y-75.46
X160.81Y-94.46
X172.19Y-42.46
X172.19Y-61.46
X172.19Y-80.46
X172.19Y-99.46
X172.19Y-118.46
X173.46Y-39.92
X173.46Y-58.92
X173.46Y-77.92
X173.46Y-96.92
X173.46Y-115.92
X178.54Y-39.92
X178.54Y-58.92
X178.54Y-77.92
X178.54Y-96.92
X178.54Y-115.92
X179.81Y-42.46
X179.81Y-61.46
X179.81Y-80.46
X179.81Y-99.46
X179.81Y-118.46
X191.19Y-47.46
X191.19Y-66.46
X191.19Y-85.46
X191.19Y-104.46
X191.19Y-123.46
X192.46Y-44.92
X192.46Y-63.92
X192.46Y-82.92
X192.46Y-101.92
X192.46Y-120.92
X197.54Y-44.92
X197.54Y-63.92
X197.54Y-82.92
X197.54Y-101.92
X197.54Y-120.92
X198.81Y-47.46
X198.81Y-66.46
X198.81Y-85.46
X198.81Y-104.46
X198.81Y-123.46
X210.19Y-47.46
X210.19Y-66.46
X210.19Y-85.46
X210.19Y-104.46
X210.19Y-123.46
X211.46Y-44.92
X211.46Y-63.92
X211.46Y-82.92
X211.46Y-101.92
X211.46Y-120.92
X216.54Y-44.92
X216.54Y-63.92
X216.54Y-82.92
X216.54Y-101.92
X216.54Y-120.92
X217.81Y-47.46
X217.81Y-66.46
X217.81Y-85.46
X217.81Y-104.46
X217.81Y-123.46
T6
X107.281Y-120.403
X119.219Y-141.08
T7
X106.127Y-134.854
X116.0Y-119.0
X119.0Y-48.0
X119.0Y-67.0
X119.0Y-86.0
X119.0Y-105.0
X127.331Y-133.581
X128.5Y-55.0
X128.5Y-93.2
X138.0Y-44.5
X138.0Y-63.5
X138.0Y-82.5
X138.0Y-101.5
X143.786Y-124.081
X157.0Y-40.0
X157.0Y-59.0
X157.0Y-78.0
X157.0Y-97.0
X166.5Y-88.5
X176.0Y-45.0
X176.0Y-64.0
X176.0Y-83.0
X176.0Y-102.0
X176.0Y-121.0
X195.0Y-50.0
X195.0Y-69.0
X195.0Y-88.0
X195.0Y-107.0
X195.0Y-126.0
X204.5Y-59.5
X204.5Y-116.5
X214.0Y-50.0
X214.0Y-69.0
X214.0Y-88.0
X214.0Y-107.0
X214.0Y-126.0
T0
M30
