0
SECTION
2
HEADER
9
$INSUNITS
70
4
9
$ACADVER
1
AC1014
9
$HANDSEED
5
FFFF
0
ENDSEC
0
SECTION
2
TABLES
0
TABLE
2
VPORT
5
8
100
AcDbSymbolTable
0
ENDTAB
0
TABLE
2
LTYPE
5
5
100
AcDbSymbolTable
0
LTYPE
5
14
100
AcDbSymbolTableRecord
100
AcDbLinetypeTableRecord
2
BYBLOCK
70
0
0
LTYPE
5
15
100
AcDbSymbolTableRecord
100
AcDbLinetypeTableRecord
2
BYLAYER
70
0
0
ENDTAB
0
TABLE
2
LAYER
5
2
100
AcDbSymbolTable
70
2
0
LAYER
5
50
100
AcDbSymbolTableRecord
100
AcDbLayerTableRecord
2
0
70
0
6
CONTINUOUS
0
ENDTAB
0
TABLE
2
STYLE
5
3
100
AcDbSymbolTable
70
1
0
STYLE
5
11
100
AcDbSymbolTableRecord
100
AcDbTextStyleTableRecord
2
STANDARD
70
0
0
ENDTAB
0
TABLE
2
VIEW
5
6
100
AcDbSymbolTable
70
0
0
ENDTAB
0
TABLE
2
UCS
5
7
100
AcDbSymbolTable
70
0
0
ENDTAB
0
TABLE
2
APPID
5
9
100
AcDbSymbolTable
70
2
0
APPID
5
12
100
AcDbSymbolTableRecord
100
AcDbRegAppTableRecord
2
ACAD
70
0
0
ENDTAB
0
TABLE
2
DIMSTYLE
5
A
100
AcDbSymbolTable
70
1
0
ENDTAB
0
TABLE
2
BLOCK_RECORD
5
1
100
AcDbSymbolTable
70
1
0
BLOCK_RECORD
5
1F
100
AcDbSymbolTableRecord
100
AcDbBlockTableRecord
2
*MODEL_SPACE
0
BLOCK_RECORD
5
1B
100
AcDbSymbolTableRecord
100
AcDbBlockTableRecord
2
*PAPER_SPACE
0
ENDTAB
0
ENDSEC
0
SECTION
2
BLOCKS
0
BLOCK
5
20
100
AcDbEntity
100
AcDbBlockBegin
2
*MODEL_SPACE
0
ENDBLK
5
21
100
AcDbEntity
100
AcDbBlockEnd
0
BLOCK
5
1C
100
AcDbEntity
100
AcDbBlockBegin
2
*PAPER_SPACE
0
ENDBLK
5
1D
100
AcDbEntity
100
AcDbBlockEnd
0
ENDSEC
0
SECTION
2
ENTITIES
0
LWPOLYLINE
5
100
100
AcDbEntity
8
0
100
AcDbPolyline
90
36
70
1
43
0.0
10
-75
20
50.000000000000036
10
-75
20
-34.999999999999964
42
0.4142135623730937
10
-66.000000000000014
20
-43.999999999999986
10
-8.2705265805021693
20
-44.000000000000071
42
-0.13165249758739558
10
16.729473419497932
20
-50.698729810778261
10
36.303847577293318
20
-62.000000000000142
10
24.829010977149881
20
-55.375000000000611
10
43.32901097714921
20
-23.332060059975994
10
58.917468245269227
20
-32.332060059975774
10
40.417468245269262
20
-64.374999999999986
10
36.303847577293318
20
-62.000000000000142
42
0.41421356237309254
10
44.499999999999851
20
-59.803847577293503
10
56.650635094610877
20
-38.758330249197911
42
0.13165249758739581
10
59.999999999999972
20
-26.258330249197726
10
59.999999999999652
20
48.000000000000028
42
0.41421356237309631
10
57.999999999999645
20
50.000000000000007
10
56.499999999999979
20
50
42
0.41421356237309115
10
54.499999999999972
20
48.000000000000007
10
54.499999999999964
20
43
42
-0.41421356237309892
10
52.499999999999972
20
41
10
46.499999999999972
20
41.000000000000007
42
-0.41421356237309243
10
44.499999999999964
20
43.000000000000007
10
44.499999999999972
20
48.000000000000028
42
0.41421356237309764
10
42.499999999999986
20
50.000000000000014
10
42
20
50.000000000000014
42
-0.41421356237309115
10
40
20
52.000000000000014
10
40
20
55.236782418895807
42
0.34609426273616828
10
38.471581066640674
20
57.180390223363077
42
0.05957833236817401
10
14.892527734607036
20
60.000000000000014
10
-29.892527734607079
20
60
42
0.087488663525927074
10
-64.09454206717389
20
53.969262078590972
10
-69.078181289931024
20
52.155365743185833
42
0.31529878887898266
10
-75
20
43.698132156112656
10
-75
20
-43.999999999999972
10
-57
20
-43.999999999999972
10
-57
20
50.000000000000036
0
LWPOLYLINE
5
101
100
AcDbEntity
8
0
100
AcDbPolyline
90
4
70
1
43
0.0
10
-56
20
-44
10
-37.999999999999993
20
-44
10
-38
20
50
10
-56.000000000000007
20
50
0
LWPOLYLINE
5
102
100
AcDbEntity
8
0
100
AcDbPolyline
90
4
70
1
43
0.0
10
-36.999999999999993
20
-39.000000000000007
10
-18.999999999999993
20
-39.000000000000007
10
-18.999999999999993
20
55
10
-36.999999999999993
20
55
0
LWPOLYLINE
5
103
100
AcDbEntity
8
0
100
AcDbPolyline
90
4
70
1
43
0.0
10
-17.999999999999993
20
60.000000000000007
10
6.3703785219803086e-15
20
60.000000000000007
10
7.172783326459354e-15
20
-14.999999999999991
10
-17.999999999999993
20
-14.999999999999991
0
LWPOLYLINE
5
104
100
AcDbEntity
8
0
100
AcDbPolyline
90
4
70
1
43
0.0
10
1.0000000000000064
20
55
10
19.000000000000007
20
55
10
19.000000000000007
20
-19.999999999999996
10
1.0000000000000064
20
-20
0
LWPOLYLINE
5
105
100
AcDbEntity
8
0
100
AcDbPolyline
90
4
70
1
43
0.0
10
20.000000000000004
20
53
10
38.000000000000007
20
53
10
38.000000000000007
20
-22
10
20.000000000000004
20
-22
0
LINE
5
106
100
AcDbEntity
8
0
100
AcDbLine
10
17.374528305245761
20
-30.286542731880392
30
0
11
32.962985573365671
21
-39.286542731880367
31
0
0
LINE
5
107
100
AcDbEntity
8
0
100
AcDbLine
10
32.962985573365671
20
-39.286542731880367
30
0
11
23.962985573366005
21
-54.875000000000455
31
0
0
LINE
5
108
100
AcDbEntity
8
0
100
AcDbLine
10
8.374528305245974
20
-45.875000000000242
30
0
11
17.374528305245761
21
-30.286542731880392
31
0
0
CIRCLE
5
109
100
AcDbEntity
8
0
100
AcDbCircle
10
51.499999999999972
20
-4.2499999999999671
30
0
40
12.5
210
0
220
0
230
1
0
LINE
5
110
100
AcDbEntity
8
0
100
AcDbLine
10
40
20
57.279404685323946
30
0
11
49.094542067173911
21
53.969262078590845
31
0
0
LINE
5
111
100
AcDbEntity
8
0
100
AcDbLine
10
-66
20
50.000000000000036
30
0
11
-66
21
-43.999999999999972
31
0
0
LINE
5
112
100
AcDbEntity
8
0
100
AcDbLine
10
40
20
-14.999999999999982
30
0
11
59.999999999999922
21
-14.999999999999975
31
0
0
CIRCLE
5
113
100
AcDbEntity
8
0
100
AcDbCircle
10
41.793052165774924
20
-30.02241875960944
30
0
40
2
210
0
220
0
230
1
0
CIRCLE
5
114
100
AcDbEntity
8
0
100
AcDbCircle
10
29.855052165774882
20
-50.699641300366842
30
0
40
2
210
0
220
0
230
1
0
CIRCLE
5
115
100
AcDbEntity
8
0
100
AcDbCircle
10
54.965298557336197
20
-37.627418759609569
30
0
40
1.5249999999999999
210
0
220
0
230
1
0
CIRCLE
5
116
100
AcDbEntity
8
0
100
AcDbCircle
10
43.02729855733611
20
-58.30464130036701
30
0
40
1.5249999999999999
210
0
220
0
230
1
0
LINE
5
117
100
AcDbEntity
8
0
100
AcDbLine
10
29.855052165774882
20
-50.699641300366842
30
0
11
43.02729855733611
21
-58.30464130036701
31
0
0
LINE
5
118
100
AcDbEntity
8
0
100
AcDbLine
10
54.965298557336197
20
-37.627418759609569
30
0
11
41.793052165774924
21
-30.02241875960944
31
0
0
LINE
5
119
100
AcDbEntity
8
0
100
AcDbLine
10
32.623239611209307
20
-59.875000000000142
30
0
11
51.123239611209321
21
-27.832060059975944
31
0
0
LINE
5
120
100
AcDbEntity
8
0
100
AcDbLine
10
50.749999999999787
20
-48.978530029988214
30
0
11
41.873239611208966
21
-43.853530029988633
31
0
0
LWPOLYLINE
5
121
100
AcDbEntity
8
0
100
AcDbPolyline
90
4
70
1
43
0.0
10
16.508502901461437
20
-29.786542731880342
10
0.92004563334146194
20
-20.786542731880481
10
-8.0799543666585389
20
-36.375000000000377
10
7.5085029014615845
20
-45.375000000000327
0
LINE
5
122
100
AcDbEntity
8
0
100
AcDbLine
10
16.508502901461437
20
-29.786542731880342
30
0
11
-8.0799543666585389
21
-36.375000000000377
31
0
0
LINE
5
123
100
AcDbEntity
8
0
100
AcDbLine
10
-75
20
-34.999999999999972
30
0
11
-66
21
-34.999999999999964
31
0
0
LINE
5
124
100
AcDbEntity
8
0
100
AcDbLine
10
20.000000000000004
20
-13.000000000000004
30
0
11
38.000000000000007
21
-13.000000000000004
31
0
0
LINE
5
125
100
AcDbEntity
8
0
100
AcDbLine
10
29.000000000000004
20
-22
30
0
11
29.000000000000004
21
-13.000000000000004
31
0
0
LINE
5
126
100
AcDbEntity
8
0
100
AcDbLine
10
40
20
50.000000000000007
30
0
11
40
21
-14.999999999999982
31
0
0
LINE
5
127
100
AcDbEntity
8
0
100
AcDbLine
10
59.999999999999645
20
50.000000000000007
30
0
11
40
21
57.279404685323946
31
0
0
ARC
5
128
100
AcDbEntity
8
0
100
AcDbCircle
10
14.892527734607022
20
-39.999999999999844
30
0
40
99.999999999999858
210
0
220
-0
230
1
100
AcDbArc
50
69.999999999999957
51
75.458882158518193
0
LINE
5
129
100
AcDbEntity
8
0
100
AcDbLine
10
40.417468245269262
20
-64.374999999999986
30
0
11
41.499999999999886
21
-65
31
0
0
ENDSEC
0
SECTION
2
OBJECTS
0
DICTIONARY
5
C
100
AcDbDictionary
3
ACAD_GROUP
350
D
3
ACAD_MLINESTYLE
350
17
0
DICTIONARY
5
D
100
AcDbDictionary
0
DICTIONARY
5
1A
330
C
100
AcDbDictionary
0
DICTIONARY
5
17
100
AcDbDictionary
0
ENDSEC
0
EOF
