M48
; DRILL file {KiCad 7.0.5} date Mon Oct  9 17:56:44 2023
; FORMAT={-:-/ absolute / metric / decimal}
; #@! TF.CreationDate,2023-10-09T17:56:44+09:00
; #@! TF.GenerationSoftware,Kicad,Pcbnew,7.0.5
; #@! TF.FileFunction,Plated,1,2,PTH
FMAT,2
METRIC
; #@! TA.AperFunction,Plated,PTH,ViaDrill
T1C0.300
; #@! TA.AperFunction,Plated,PTH,ComponentDrill
T2C0.300
; #@! TA.AperFunction,Plated,PTH,ComponentDrill
T3C0.750
; #@! TA.AperFunction,Plated,PTH,ComponentDrill
T4C0.850
; #@! TA.AperFunction,Plated,PTH,ComponentDrill
T5C1.000
; #@! TA.AperFunction,Plated,PTH,ComponentDrill
T6C2.000
%
G90
G05
T1
X92.667Y-55.46
X92.667Y-58.0
X92.667Y-60.54
X92.667Y-63.08
X92.667Y-65.62
X92.667Y-67.5
X92.667Y-72.6
X92.675Y-70.15
X93.25Y-74.0
X93.5Y-46.55
X93.5Y-50.4
X93.518Y-45.3
X93.518Y-47.84
X93.75Y-42.76
X93.75Y-121.15
X94.5Y-82.1
X98.1Y-104.25
X98.5Y-82.1
X98.523Y-136.488
X99.7Y-131.5
X101.463Y-105.4
X102.9Y-132.85
X104.25Y-141.9
X105.695Y-141.005
X107.45Y-83.4
X108.25Y-53.85
X108.25Y-59.65
X108.6Y-42.55
X108.7Y-63.08
X108.85Y-73.3
X109.951Y-98.5
X110.0Y-45.3
X110.0Y-52.15
X110.7Y-124.528
X111.1Y-97.5
X111.1Y-112.5
X111.5Y-48.8
X111.5Y-52.85
X111.5Y-148.0
X111.915Y-66.6
X112.25Y-49.25
X112.25Y-59.25
X112.25Y-78.5
X112.25Y-96.75
X113.3Y-52.15
X114.05Y-78.9
X114.1Y-69.55
X114.1Y-109.15
X114.3Y-50.3
X114.35Y-124.5
X114.4Y-72.85
X114.85Y-95.75
X115.1Y-133.25
X115.15Y-106.75
X115.2Y-72.0
X115.2Y-91.0
X115.2Y-110.0
X115.5Y-36.5
X116.35Y-127.1
X122.8Y-53.0
X122.8Y-72.0
X122.8Y-91.0
X122.8Y-110.0
X123.45Y-138.8
X123.65Y-72.85
X123.95Y-110.85
X124.0Y-52.15
X124.75Y-91.0
X125.494Y-142.494
X126.6Y-50.7
X126.625Y-67.625
X126.65Y-78.0
X126.75Y-111.7
X126.8Y-71.5
X126.8Y-73.75
X126.95Y-58.75
X127.1Y-106.0
X128.5Y-45.5
X128.5Y-79.25
X130.0Y-102.5
X130.25Y-46.75
X130.45Y-67.9
X130.55Y-122.4
X130.915Y-65.685
X131.15Y-118.55
X131.457Y-68.893
X133.058Y-105.65
X133.85Y-124.05
X134.054Y-129.696
X134.1Y-135.0
X134.2Y-49.5
X134.2Y-68.5
X134.2Y-87.5
X134.2Y-106.5
X136.5Y-134.25
X137.0Y-137.25
X138.1Y-92.0
X141.05Y-34.85
X141.75Y-132.0
X141.8Y-49.5
X141.8Y-68.5
X141.8Y-87.5
X141.8Y-106.5
X142.5Y-134.472
X142.8Y-107.75
X142.85Y-69.4
X143.3Y-49.5
X143.5Y-87.5
X143.9Y-74.65
X145.3Y-52.5
X147.0Y-43.875
X147.0Y-54.0
X147.0Y-71.0
X147.0Y-91.0
X147.0Y-112.5
X147.75Y-63.15
X147.75Y-85.85
X147.8Y-47.6
X148.5Y-40.75
X148.5Y-60.0
X148.5Y-70.25
X148.5Y-89.262
X150.0Y-102.0
X150.25Y-69.75
X150.55Y-111.05
X151.05Y-126.3
X151.5Y-63.15
X151.95Y-42.55
X152.05Y-87.6
X152.586Y-126.336
X152.7Y-99.4
X152.7Y-130.6
X153.1Y-45.0
X153.2Y-64.0
X153.2Y-83.0
X153.2Y-102.0
X160.8Y-45.0
X160.8Y-64.0
X160.8Y-83.0
X160.8Y-102.0
X160.9Y-66.45
X161.55Y-103.8
X162.1Y-45.85
X162.5Y-83.85
X163.0Y-113.3
X164.0Y-107.5
X164.8Y-49.5
X164.8Y-67.7
X164.8Y-69.1
X165.0Y-62.8
X165.0Y-97.5
X166.5Y-41.25
X166.5Y-62.5
X166.5Y-75.5
X166.5Y-120.875
X168.0Y-57.2
X168.0Y-103.0
X168.05Y-74.7
X168.25Y-45.0
X170.05Y-107.0
X170.435Y-66.765
X171.05Y-92.5
X172.2Y-50.0
X172.2Y-69.0
X172.2Y-88.0
X172.2Y-107.0
X172.2Y-126.0
X172.45Y-47.15
X172.65Y-103.15
X178.15Y-133.15
X179.8Y-50.0
X179.8Y-69.0
X179.8Y-88.0
X179.8Y-107.0
X179.8Y-126.0
X180.95Y-70.7
X181.05Y-50.85
X181.4Y-126.85
X181.5Y-88.85
X181.9Y-108.9
X183.3Y-65.1
X185.0Y-51.0
X185.0Y-65.0
X185.0Y-75.8
X185.0Y-83.5
X185.0Y-102.5
X185.0Y-115.5
X186.0Y-51.0
X186.0Y-55.3
X186.0Y-61.262
X186.0Y-80.262
X186.0Y-97.5
X186.0Y-118.262
X188.1Y-78.85
X189.3Y-97.35
X189.5Y-73.15
X190.0Y-111.15
X191.2Y-55.0
X191.2Y-74.0
X191.2Y-93.0
X191.2Y-112.0
X191.2Y-131.0
X191.4Y-127.9
X191.65Y-108.85
X193.85Y-39.7
X198.8Y-55.0
X198.8Y-74.0
X198.8Y-93.0
X198.8Y-112.0
X198.8Y-131.0
X199.75Y-113.4
X200.25Y-74.3
X200.45Y-131.575
X200.5Y-93.85
X200.695Y-54.855
X202.5Y-50.75
X202.5Y-74.7
X202.5Y-77.8
X202.5Y-132.7
X202.75Y-54.7
X203.0Y-69.0
X203.0Y-107.5
X203.0Y-111.7
X203.0Y-127.0
X203.35Y-82.35
X205.65Y-82.35
X206.0Y-69.0
X206.0Y-107.5
X206.0Y-127.0
X206.25Y-50.75
X208.75Y-73.15
X209.0Y-111.15
X210.2Y-55.0
X210.2Y-74.0
X210.2Y-93.0
X210.2Y-112.0
X210.2Y-131.0
X210.65Y-61.25
X210.9Y-52.15
X211.0Y-108.8
X211.95Y-97.5
X214.9Y-133.75
X214.95Y-96.0
X217.8Y-55.0
X217.8Y-74.0
X217.8Y-93.0
X217.8Y-112.0
X217.992Y-131.007
X218.923Y-55.85
X219.0Y-78.0
X221.085Y-51.0
X221.085Y-59.5
X221.085Y-78.5
X221.085Y-97.5
X221.085Y-116.5
T3
X92.404Y-105.75
X92.404Y-108.75
X92.404Y-111.75
X92.424Y-104.25
X92.424Y-107.25
X92.424Y-110.25
T4
X90.245Y-42.76
X90.245Y-45.3
X90.245Y-47.84
X90.245Y-50.38
X90.245Y-52.92
X90.245Y-55.46
X90.245Y-58.0
X90.245Y-60.54
X90.245Y-63.08
X90.245Y-65.62
X90.245Y-68.16
X90.245Y-70.7
X90.245Y-73.24
X91.515Y-44.03
X91.515Y-46.57
X91.515Y-49.11
X91.515Y-51.65
X91.515Y-54.19
X91.515Y-56.73
X91.515Y-59.27
X91.515Y-61.81
X91.515Y-64.35
X91.515Y-66.89
X91.515Y-69.43
X91.515Y-71.97
X91.515Y-74.51
X105.485Y-42.76
X105.485Y-45.3
X105.485Y-47.84
X105.485Y-50.38
X105.485Y-52.92
X105.485Y-55.46
X105.485Y-58.0
X105.485Y-60.54
X105.485Y-63.08
X105.485Y-65.62
X105.485Y-68.16
X105.485Y-70.7
X105.485Y-73.24
X106.755Y-44.03
X106.755Y-46.57
X106.755Y-49.11
X106.755Y-51.65
X106.755Y-54.19
X106.755Y-56.73
X106.755Y-59.27
X106.755Y-61.81
X106.755Y-64.35
X106.755Y-66.89
X106.755Y-69.43
X106.755Y-71.97
X106.755Y-74.51
T5
X94.0Y-87.0
X94.0Y-101.5
X94.69Y-79.24
X96.5Y-87.0
X97.23Y-79.24
X99.0Y-87.0
X99.0Y-101.5
X99.77Y-79.24
X102.31Y-79.24
T2
G00X89.5Y-107.65
M15
G01X89.5Y-106.75
M16
G05
G00X217.182Y-40.582
M15
G01X217.818Y-41.218
M16
G05
T6
G00X90.9Y-94.25
M15
G01X90.9Y-94.75
M16
G05
G00X102.1Y-94.25
M15
G01X102.1Y-94.75
M16
G05
T0
M30
