%TF.GenerationSoftware,KiCad,Pcbnew,7.0.5*%
%TF.CreationDate,2023-11-26T00:23:34+09:00*%
%TF.ProjectId,Ultramarine-2,556c7472-616d-4617-9269-6e652d322e6b,rev?*%
%TF.SameCoordinates,Original*%
%TF.FileFunction,Paste,Top*%
%TF.FilePolarity,Positive*%
%FSLAX46Y46*%
G04 Gerber Fmt 4.6, Leading zero omitted, Abs format (unit mm)*
G04 Created by KiCad (PCBNEW 7.0.5) date 2023-11-26 00:23:34*
%MOMM*%
%LPD*%
G01*
G04 APERTURE LIST*
G04 Aperture macros list*
%AMRoundRect*
0 Rectangle with rounded corners*
0 $1 Rounding radius*
0 $2 $3 $4 $5 $6 $7 $8 $9 X,Y pos of 4 corners*
0 Add a 4 corners polygon primitive as box body*
4,1,4,$2,$3,$4,$5,$6,$7,$8,$9,$2,$3,0*
0 Add four circle primitives for the rounded corners*
1,1,$1+$1,$2,$3*
1,1,$1+$1,$4,$5*
1,1,$1+$1,$6,$7*
1,1,$1+$1,$8,$9*
0 Add four rect primitives between the rounded corners*
20,1,$1+$1,$2,$3,$4,$5,0*
20,1,$1+$1,$4,$5,$6,$7,0*
20,1,$1+$1,$6,$7,$8,$9,0*
20,1,$1+$1,$8,$9,$2,$3,0*%
G04 Aperture macros list end*
%ADD10RoundRect,0.625000X-0.650000X-0.625000X0.650000X-0.625000X0.650000X0.625000X-0.650000X0.625000X0*%
%ADD11RoundRect,0.300000X0.409808X-0.109808X0.109808X0.409808X-0.409808X0.109808X-0.109808X-0.409808X0*%
%ADD12RoundRect,0.300000X0.300000X-0.300000X0.300000X0.300000X-0.300000X0.300000X-0.300000X-0.300000X0*%
%ADD13RoundRect,0.262500X-0.262500X0.537500X-0.262500X-0.537500X0.262500X-0.537500X0.262500X0.537500X0*%
%ADD14RoundRect,0.625000X-0.250417X-0.866266X0.875417X-0.216266X0.250417X0.866266X-0.875417X0.216266X0*%
%ADD15RoundRect,0.300000X-0.300000X0.300000X-0.300000X-0.300000X0.300000X-0.300000X0.300000X0.300000X0*%
%ADD16RoundRect,0.250000X0.750000X0.250000X-0.750000X0.250000X-0.750000X-0.250000X0.750000X-0.250000X0*%
%ADD17RoundRect,0.250000X-0.750000X-0.250000X0.750000X-0.250000X0.750000X0.250000X-0.750000X0.250000X0*%
%ADD18RoundRect,0.625000X0.650000X0.625000X-0.650000X0.625000X-0.650000X-0.625000X0.650000X-0.625000X0*%
%ADD19RoundRect,0.250000X0.524519X0.591506X-0.774519X-0.158494X-0.524519X-0.591506X0.774519X0.158494X0*%
%ADD20RoundRect,0.625000X0.250417X0.866266X-0.875417X0.216266X-0.250417X-0.866266X0.875417X-0.216266X0*%
%ADD21RoundRect,0.250000X0.591506X-0.524519X-0.158494X0.774519X-0.591506X0.524519X0.158494X-0.774519X0*%
%ADD22RoundRect,0.625000X0.866266X-0.250417X0.216266X0.875417X-0.866266X0.250417X-0.216266X-0.875417X0*%
G04 APERTURE END LIST*
D10*
%TO.C,SW27*%
X169658000Y-115920000D03*
X183085000Y-118460000D03*
%TD*%
%TO.C,SW13*%
X207658000Y-82920000D03*
X221085000Y-85460000D03*
%TD*%
D11*
%TO.C,D30*%
X138850000Y-134472243D03*
X137150000Y-131527757D03*
%TD*%
D12*
%TO.C,D7*%
X204500000Y-74700000D03*
X204500000Y-71300000D03*
%TD*%
D10*
%TO.C,SW1*%
X207658000Y-44920000D03*
X221085000Y-47460000D03*
%TD*%
D13*
%TO.C,SW32*%
X122225000Y-36500000D03*
X117775000Y-36500000D03*
%TD*%
D10*
%TO.C,SW21*%
X169658000Y-96920000D03*
X183085000Y-99460000D03*
%TD*%
%TO.C,SW7*%
X207658000Y-63920000D03*
X221085000Y-66460000D03*
%TD*%
%TO.C,SW5*%
X131658000Y-39420000D03*
X145085000Y-41960000D03*
%TD*%
D12*
%TO.C,D6*%
X128500000Y-50700000D03*
X128500000Y-47300000D03*
%TD*%
D10*
%TO.C,SW3*%
X169658000Y-39920000D03*
X183085000Y-42460000D03*
%TD*%
D12*
%TO.C,D21*%
X166500000Y-108700000D03*
X166500000Y-105300000D03*
%TD*%
D10*
%TO.C,SW25*%
X207658000Y-120920000D03*
X221085000Y-123460000D03*
%TD*%
D12*
%TO.C,D3*%
X166500000Y-49500000D03*
X166500000Y-46100000D03*
%TD*%
D10*
%TO.C,SW23*%
X131658000Y-96420000D03*
X145085000Y-98960000D03*
%TD*%
D14*
%TO.C,SW29*%
X119298667Y-132352591D03*
X132196790Y-127838795D03*
%TD*%
D15*
%TO.C,D18*%
X128500000Y-73750000D03*
X128500000Y-77150000D03*
%TD*%
D10*
%TO.C,SW19*%
X207658000Y-101920000D03*
X221085000Y-104460000D03*
%TD*%
D12*
%TO.C,D24*%
X128500000Y-111700000D03*
X128500000Y-108300000D03*
%TD*%
D15*
%TO.C,D14*%
X204500000Y-77800000D03*
X204500000Y-81200000D03*
%TD*%
D10*
%TO.C,SW9*%
X169658000Y-58920000D03*
X183085000Y-61460000D03*
%TD*%
D15*
%TO.C,D15*%
X166500000Y-69750000D03*
X166500000Y-73150000D03*
%TD*%
D12*
%TO.C,D20*%
X204500000Y-111700000D03*
X204500000Y-108300000D03*
%TD*%
D10*
%TO.C,SW11*%
X131658000Y-58420000D03*
X145085000Y-60960000D03*
%TD*%
%TO.C,SW15*%
X169658000Y-77920000D03*
X183085000Y-80460000D03*
%TD*%
D12*
%TO.C,D12*%
X128500000Y-71500000D03*
X128500000Y-68100000D03*
%TD*%
%TO.C,D9*%
X166500000Y-67700000D03*
X166500000Y-64300000D03*
%TD*%
%TO.C,D1*%
X204500000Y-54700000D03*
X204500000Y-51300000D03*
%TD*%
%TO.C,D26*%
X204500000Y-132700000D03*
X204500000Y-129300000D03*
%TD*%
D10*
%TO.C,SW17*%
X131658000Y-77420000D03*
X145085000Y-79960000D03*
%TD*%
D16*
%TO.C,D56*%
X216500000Y-130150000D03*
X216500000Y-131850000D03*
X211500000Y-131850000D03*
X211500000Y-130150000D03*
%TD*%
%TO.C,D45*%
X197500000Y-92150000D03*
X197500000Y-93850000D03*
X192500000Y-93850000D03*
X192500000Y-92150000D03*
%TD*%
%TO.C,D49*%
X121500000Y-90150000D03*
X121500000Y-91850000D03*
X116500000Y-91850000D03*
X116500000Y-90150000D03*
%TD*%
D17*
%TO.C,D53*%
X154500000Y-102850000D03*
X154500000Y-101150000D03*
X159500000Y-101150000D03*
X159500000Y-102850000D03*
%TD*%
D18*
%TO.C,SW2*%
X202085000Y-47460000D03*
X188658000Y-44920000D03*
%TD*%
%TO.C,SW24*%
X126085000Y-102460000D03*
X112658000Y-99920000D03*
%TD*%
D16*
%TO.C,D36*%
X140500000Y-48650000D03*
X140500000Y-50350000D03*
X135500000Y-50350000D03*
X135500000Y-48650000D03*
%TD*%
D17*
%TO.C,D39*%
X192500000Y-74850000D03*
X192500000Y-73150000D03*
X197500000Y-73150000D03*
X197500000Y-74850000D03*
%TD*%
D18*
%TO.C,SW20*%
X202085000Y-104460000D03*
X188658000Y-101920000D03*
%TD*%
%TO.C,SW12*%
X126085000Y-64460000D03*
X112658000Y-61920000D03*
%TD*%
D17*
%TO.C,D50*%
X211500000Y-112850000D03*
X211500000Y-111150000D03*
X216500000Y-111150000D03*
X216500000Y-112850000D03*
%TD*%
D19*
%TO.C,D59*%
X148026064Y-126424878D03*
X148876064Y-127897122D03*
X144545936Y-130397122D03*
X143695936Y-128924878D03*
%TD*%
D18*
%TO.C,SW14*%
X202085000Y-85460000D03*
X188658000Y-82920000D03*
%TD*%
D17*
%TO.C,D40*%
X173500000Y-69850000D03*
X173500000Y-68150000D03*
X178500000Y-68150000D03*
X178500000Y-69850000D03*
%TD*%
D20*
%TO.C,SW28*%
X148651790Y-118338795D03*
X135753667Y-122852591D03*
%TD*%
D17*
%TO.C,D38*%
X211500000Y-74850000D03*
X211500000Y-73150000D03*
X216500000Y-73150000D03*
X216500000Y-74850000D03*
%TD*%
D18*
%TO.C,SW4*%
X164085000Y-37460000D03*
X150658000Y-34920000D03*
%TD*%
D16*
%TO.C,D35*%
X159500000Y-44150000D03*
X159500000Y-45850000D03*
X154500000Y-45850000D03*
X154500000Y-44150000D03*
%TD*%
D17*
%TO.C,D41*%
X154500000Y-64850000D03*
X154500000Y-63150000D03*
X159500000Y-63150000D03*
X159500000Y-64850000D03*
%TD*%
D16*
%TO.C,D46*%
X178500000Y-87150000D03*
X178500000Y-88850000D03*
X173500000Y-88850000D03*
X173500000Y-87150000D03*
%TD*%
%TO.C,D33*%
X197500000Y-54150000D03*
X197500000Y-55850000D03*
X192500000Y-55850000D03*
X192500000Y-54150000D03*
%TD*%
%TO.C,D37*%
X121500000Y-52150000D03*
X121500000Y-53850000D03*
X116500000Y-53850000D03*
X116500000Y-52150000D03*
%TD*%
D18*
%TO.C,SW8*%
X202085000Y-66460000D03*
X188658000Y-63920000D03*
%TD*%
D17*
%TO.C,D42*%
X135500000Y-69350000D03*
X135500000Y-67650000D03*
X140500000Y-67650000D03*
X140500000Y-69350000D03*
%TD*%
D21*
%TO.C,D61*%
X103783122Y-139094064D03*
X102310878Y-139944064D03*
X99810878Y-135613936D03*
X101283122Y-134763936D03*
%TD*%
D17*
%TO.C,D55*%
X116500000Y-110850000D03*
X116500000Y-109150000D03*
X121500000Y-109150000D03*
X121500000Y-110850000D03*
%TD*%
D18*
%TO.C,SW22*%
X164085000Y-94460000D03*
X150658000Y-91920000D03*
%TD*%
D17*
%TO.C,D54*%
X135500000Y-107350000D03*
X135500000Y-105650000D03*
X140500000Y-105650000D03*
X140500000Y-107350000D03*
%TD*%
D16*
%TO.C,D58*%
X178500000Y-125150000D03*
X178500000Y-126850000D03*
X173500000Y-126850000D03*
X173500000Y-125150000D03*
%TD*%
%TO.C,D57*%
X197500000Y-130150000D03*
X197500000Y-131850000D03*
X192500000Y-131850000D03*
X192500000Y-130150000D03*
%TD*%
D22*
%TO.C,SW30*%
X111869205Y-139719790D03*
X107355409Y-126821667D03*
%TD*%
D16*
%TO.C,D34*%
X178500000Y-49150000D03*
X178500000Y-50850000D03*
X173500000Y-50850000D03*
X173500000Y-49150000D03*
%TD*%
D18*
%TO.C,SW16*%
X164085000Y-75460000D03*
X150658000Y-72920000D03*
%TD*%
D16*
%TO.C,D44*%
X216500000Y-92150000D03*
X216500000Y-93850000D03*
X211500000Y-93850000D03*
X211500000Y-92150000D03*
%TD*%
D17*
%TO.C,D51*%
X192500000Y-112850000D03*
X192500000Y-111150000D03*
X197500000Y-111150000D03*
X197500000Y-112850000D03*
%TD*%
D18*
%TO.C,SW6*%
X126085000Y-45460000D03*
X112658000Y-42920000D03*
%TD*%
D19*
%TO.C,D60*%
X131571064Y-135924878D03*
X132421064Y-137397122D03*
X128090936Y-139897122D03*
X127240936Y-138424878D03*
%TD*%
D16*
%TO.C,D32*%
X216500000Y-54150000D03*
X216500000Y-55850000D03*
X211500000Y-55850000D03*
X211500000Y-54150000D03*
%TD*%
D18*
%TO.C,SW18*%
X126085000Y-83460000D03*
X112658000Y-80920000D03*
%TD*%
D16*
%TO.C,D47*%
X159500000Y-82150000D03*
X159500000Y-83850000D03*
X154500000Y-83850000D03*
X154500000Y-82150000D03*
%TD*%
D17*
%TO.C,D52*%
X173500000Y-107850000D03*
X173500000Y-106150000D03*
X178500000Y-106150000D03*
X178500000Y-107850000D03*
%TD*%
D18*
%TO.C,SW10*%
X164085000Y-56460000D03*
X150658000Y-53920000D03*
%TD*%
D16*
%TO.C,D48*%
X140500000Y-86650000D03*
X140500000Y-88350000D03*
X135500000Y-88350000D03*
X135500000Y-86650000D03*
%TD*%
D18*
%TO.C,SW26*%
X202085000Y-123460000D03*
X188658000Y-120920000D03*
%TD*%
D17*
%TO.C,D43*%
X116500000Y-72850000D03*
X116500000Y-71150000D03*
X121500000Y-71150000D03*
X121500000Y-72850000D03*
%TD*%
M02*
