M48
; DRILL file {KiCad 7.0.5} date Sun Nov 26 00:23:42 2023
; FORMAT={-:-/ absolute / inch / decimal}
; #@! TF.CreationDate,2023-11-26T00:23:42+09:00
; #@! TF.GenerationSoftware,Kicad,Pcbnew,7.0.5
; #@! TF.FileFunction,Plated,1,2,PTH
FMAT,2
INCH
; #@! TA.AperFunction,Plated,PTH,ViaDrill
T1C0.0118
; #@! TA.AperFunction,Plated,PTH,ComponentDrill
T2C0.0118
; #@! TA.AperFunction,Plated,PTH,ComponentDrill
T3C0.0295
; #@! TA.AperFunction,Plated,PTH,ComponentDrill
T4C0.0335
; #@! TA.AperFunction,Plated,PTH,ComponentDrill
T5C0.0394
; #@! TA.AperFunction,Plated,PTH,ComponentDrill
T6C0.0787
%
G90
G05
T1
X3.6483Y-2.1835
X3.6483Y-2.2835
X3.6483Y-2.3835
X3.6483Y-2.4835
X3.6483Y-2.5835
X3.6483Y-2.6575
X3.6483Y-2.8583
X3.6486Y-2.7618
X3.6713Y-2.9134
X3.6811Y-1.8327
X3.6811Y-1.9843
X3.6818Y-1.7835
X3.6818Y-1.8835
X3.6909Y-1.6835
X3.6909Y-4.7697
X3.7205Y-3.2323
X3.8622Y-4.1043
X3.878Y-3.2323
X3.8789Y-5.3736
X3.9252Y-5.1772
X3.9946Y-4.1496
X4.0512Y-5.2303
X4.1043Y-5.5866
X4.1612Y-5.5514
X4.2303Y-3.2835
X4.2618Y-2.1201
X4.2618Y-2.3484
X4.2756Y-1.6752
X4.2795Y-2.4835
X4.2854Y-2.8858
X4.3288Y-3.878
X4.3307Y-1.7835
X4.3307Y-2.0531
X4.3583Y-4.9027
X4.374Y-3.8386
X4.374Y-4.4291
X4.3898Y-1.9213
X4.3898Y-2.0807
X4.3898Y-5.8268
X4.4061Y-2.622
X4.4193Y-1.939
X4.4193Y-2.3327
X4.4193Y-3.0906
X4.4193Y-3.8091
X4.4606Y-2.0531
X4.4902Y-3.1063
X4.4921Y-2.7382
X4.4921Y-4.2972
X4.5Y-1.9803
X4.502Y-4.9016
X4.5039Y-2.8681
X4.5217Y-3.7697
X4.5315Y-5.2461
X4.5335Y-4.2028
X4.5354Y-2.8346
X4.5354Y-3.5827
X4.5354Y-4.3307
X4.5472Y-1.437
X4.5807Y-5.0039
X4.8346Y-2.0866
X4.8346Y-2.8346
X4.8346Y-3.5827
X4.8346Y-4.3307
X4.8602Y-5.4646
X4.8681Y-2.8681
X4.8799Y-4.3642
X4.8819Y-2.0531
X4.9114Y-3.5827
X4.9407Y-5.61
X4.9843Y-1.9961
X4.9852Y-2.6624
X4.9862Y-3.0709
X4.9902Y-4.3976
X4.9921Y-2.815
X4.9921Y-2.9035
X4.998Y-2.313
X5.0039Y-4.1732
X5.0591Y-1.7913
X5.0591Y-3.1201
X5.1181Y-4.0354
X5.128Y-1.8406
X5.1358Y-2.6732
X5.1398Y-4.8189
X5.1541Y-2.586
X5.1634Y-4.6673
X5.1755Y-2.7123
X5.2385Y-4.1594
X5.2697Y-4.8839
X5.2777Y-5.1061
X5.2795Y-5.315
X5.2835Y-1.9488
X5.2835Y-2.6969
X5.2835Y-3.4449
X5.2835Y-4.1929
X5.374Y-5.2854
X5.3937Y-5.4035
X5.437Y-3.622
X5.5531Y-1.372
X5.5807Y-5.1969
X5.5827Y-1.9488
X5.5827Y-2.6969
X5.5827Y-3.4449
X5.5827Y-4.1929
X5.6102Y-5.2942
X5.622Y-4.2421
X5.624Y-2.7323
X5.6417Y-1.9488
X5.6496Y-3.4449
X5.6654Y-2.939
X5.7205Y-2.0669
X5.7874Y-1.7274
X5.7874Y-2.126
X5.7874Y-2.7953
X5.7874Y-3.5827
X5.7874Y-4.4291
X5.8169Y-2.4862
X5.8169Y-3.3799
X5.8189Y-1.874
X5.8465Y-1.6043
X5.8465Y-2.3622
X5.8465Y-2.7657
X5.8465Y-3.5143
X5.9055Y-4.0157
X5.9154Y-2.7461
X5.9272Y-4.372
X5.9469Y-4.9724
X5.9646Y-2.4862
X5.9823Y-1.6752
X5.9862Y-3.4488
X6.0073Y-4.9738
X6.0118Y-3.9134
X6.0118Y-5.1417
X6.0276Y-1.7717
X6.0315Y-2.5197
X6.0315Y-3.2677
X6.0315Y-4.0157
X6.3307Y-1.7717
X6.3307Y-2.5197
X6.3307Y-3.2677
X6.3307Y-4.0157
X6.3346Y-2.6161
X6.3602Y-4.0866
X6.3819Y-1.8051
X6.3976Y-3.3012
X6.4173Y-4.4606
X6.4567Y-4.2323
X6.4882Y-1.9488
X6.4882Y-2.6654
X6.4882Y-2.7205
X6.4961Y-2.4724
X6.4961Y-3.8386
X6.5551Y-1.624
X6.5551Y-2.4606
X6.5551Y-2.9724
X6.5551Y-4.7589
X6.6142Y-2.252
X6.6142Y-4.0551
X6.6161Y-2.9409
X6.624Y-1.7717
X6.6949Y-4.2126
X6.71Y-2.6285
X6.7343Y-3.6417
X6.7795Y-1.9685
X6.7795Y-2.7165
X6.7795Y-3.4646
X6.7795Y-4.2126
X6.7795Y-4.9606
X6.7894Y-1.8563
X6.7972Y-4.061
X7.0138Y-5.2421
X7.0787Y-1.9685
X7.0787Y-2.7165
X7.0787Y-3.4646
X7.0787Y-4.2126
X7.0787Y-4.9606
X7.124Y-2.7835
X7.128Y-2.002
X7.1417Y-4.9941
X7.1457Y-3.498
X7.1614Y-4.2874
X7.2165Y-2.563
X7.2835Y-2.0079
X7.2835Y-2.5591
X7.2835Y-2.9843
X7.2835Y-3.2874
X7.2835Y-4.0354
X7.2835Y-4.5472
X7.3228Y-2.0079
X7.3228Y-2.1772
X7.3228Y-2.4119
X7.3228Y-3.1599
X7.3228Y-3.8386
X7.3228Y-4.656
X7.4055Y-3.1043
X7.4528Y-3.8327
X7.4606Y-2.8799
X7.4803Y-4.376
X7.5276Y-2.1654
X7.5276Y-2.9134
X7.5276Y-3.6614
X7.5276Y-4.4094
X7.5276Y-5.1575
X7.5354Y-5.0354
X7.5453Y-4.2854
X7.6319Y-1.563
X7.8268Y-2.1654
X7.8268Y-2.9134
X7.8268Y-3.6614
X7.8268Y-4.4094
X7.8268Y-5.1575
X7.8642Y-4.4646
X7.8839Y-2.9252
X7.8917Y-5.1801
X7.8937Y-3.6949
X7.9014Y-2.1597
X7.9724Y-1.998
X7.9724Y-2.9409
X7.9724Y-3.063
X7.9724Y-5.2244
X7.9823Y-2.1535
X7.9921Y-2.7165
X7.9921Y-4.2323
X7.9921Y-4.3976
X7.9921Y-5.0
X8.0059Y-3.2421
X8.0965Y-3.2421
X8.1102Y-2.7165
X8.1102Y-4.2323
X8.1102Y-5.0
X8.1201Y-1.998
X8.2185Y-2.8799
X8.2283Y-4.376
X8.2756Y-2.1654
X8.2756Y-2.9134
X8.2756Y-3.6614
X8.2756Y-4.4094
X8.2756Y-5.1575
X8.2933Y-2.4114
X8.3031Y-2.0531
X8.3071Y-4.2835
X8.3445Y-3.8386
X8.4606Y-5.2657
X8.4626Y-3.7795
X8.5748Y-2.1654
X8.5748Y-2.9134
X8.5748Y-3.6614
X8.5748Y-4.4094
X8.5824Y-5.1578
X8.619Y-2.1988
X8.622Y-3.0709
X8.7041Y-2.0079
X8.7041Y-2.3425
X8.7041Y-3.0906
X8.7041Y-3.8386
X8.7041Y-4.5866
T3
X3.638Y-4.1634
X3.638Y-4.2815
X3.638Y-4.3996
X3.6387Y-4.1043
X3.6387Y-4.2224
X3.6387Y-4.3406
T4
X3.553Y-1.6835
X3.553Y-1.7835
X3.553Y-1.8835
X3.553Y-1.9835
X3.553Y-2.0835
X3.553Y-2.1835
X3.553Y-2.2835
X3.553Y-2.3835
X3.553Y-2.4835
X3.553Y-2.5835
X3.553Y-2.6835
X3.553Y-2.7835
X3.553Y-2.8835
X3.603Y-1.7335
X3.603Y-1.8335
X3.603Y-1.9335
X3.603Y-2.0335
X3.603Y-2.1335
X3.603Y-2.2335
X3.603Y-2.3335
X3.603Y-2.4335
X3.603Y-2.5335
X3.603Y-2.6335
X3.603Y-2.7335
X3.603Y-2.8335
X3.603Y-2.9335
X4.153Y-1.6835
X4.153Y-1.7835
X4.153Y-1.8835
X4.153Y-1.9835
X4.153Y-2.0835
X4.153Y-2.1835
X4.153Y-2.2835
X4.153Y-2.3835
X4.153Y-2.4835
X4.153Y-2.5835
X4.153Y-2.6835
X4.153Y-2.7835
X4.153Y-2.8835
X4.203Y-1.7335
X4.203Y-1.8335
X4.203Y-1.9335
X4.203Y-2.0335
X4.203Y-2.1335
X4.203Y-2.2335
X4.203Y-2.3335
X4.203Y-2.4335
X4.203Y-2.5335
X4.203Y-2.6335
X4.203Y-2.7335
X4.203Y-2.8335
X4.203Y-2.9335
T5
X3.7008Y-3.4252
X3.7008Y-3.9961
X3.728Y-3.1197
X3.7992Y-3.4252
X3.828Y-3.1197
X3.8976Y-3.4252
X3.8976Y-3.9961
X3.928Y-3.1197
X4.028Y-3.1197
T2
G00X3.5236Y-4.2382
M15
G01X3.5236Y-4.2028
M16
G05
G00X8.5505Y-1.5977
M15
G01X8.5755Y-1.6228
M16
G05
T6
G00X3.5787Y-3.7106
M15
G01X3.5787Y-3.7303
M16
G05
G00X4.0197Y-3.7106
M15
G01X4.0197Y-3.7303
M16
G05
T0
M30
