M48
; DRILL file {KiCad 7.0.5} date Sun Nov 26 00:23:42 2023
; FORMAT={-:-/ absolute / inch / decimal}
; #@! TF.CreationDate,2023-11-26T00:23:42+09:00
; #@! TF.GenerationSoftware,Kicad,Pcbnew,7.0.5
; #@! TF.FileFunction,NonPlated,1,2,NPTH
FMAT,2
INCH
; #@! TA.AperFunction,NonPlated,NPTH,ComponentDrill
T1C0.0295
; #@! TA.AperFunction,NonPlated,NPTH,ComponentDrill
T2C0.0689
; #@! TA.AperFunction,NonPlated,NPTH,ComponentDrill
T3C0.0866
; #@! TA.AperFunction,NonPlated,NPTH,ComponentDrill
T4C0.1200
; #@! TA.AperFunction,NonPlated,NPTH,ComponentDrill
T5C0.1201
; #@! TA.AperFunction,NonPlated,NPTH,ComponentDrill
T6C0.1570
; #@! TA.AperFunction,NonPlated,NPTH,ComponentDrill
T7C0.1575
%
G90
G05
T1
X4.7244Y-1.4016
X4.7244Y-1.4724
T2
X4.0782Y-5.136
X4.2782Y-5.4824
X4.485Y-1.8898
X4.485Y-2.6378
X4.485Y-3.3858
X4.485Y-4.1339
X4.8398Y-5.3591
X4.885Y-1.8898
X4.885Y-2.6378
X4.885Y-3.3858
X4.885Y-4.1339
X5.1862Y-5.1591
X5.2331Y-1.752
X5.2331Y-2.5
X5.2331Y-3.248
X5.2331Y-3.9961
X5.4877Y-4.9851
X5.6331Y-1.752
X5.6331Y-2.5
X5.6331Y-3.248
X5.6331Y-3.9961
X5.8341Y-4.7851
X5.9811Y-1.5748
X5.9811Y-2.3228
X5.9811Y-3.0709
X5.9811Y-3.8189
X6.3811Y-1.5748
X6.3811Y-2.3228
X6.3811Y-3.0709
X6.3811Y-3.8189
X6.7291Y-1.7717
X6.7291Y-2.5197
X6.7291Y-3.2677
X6.7291Y-4.0157
X6.7291Y-4.7638
X7.1291Y-1.7717
X7.1291Y-2.5197
X7.1291Y-3.2677
X7.1291Y-4.0157
X7.1291Y-4.7638
X7.4772Y-1.9685
X7.4772Y-2.7165
X7.4772Y-3.4646
X7.4772Y-4.2126
X7.4772Y-4.9606
X7.8772Y-1.9685
X7.8772Y-2.7165
X7.8772Y-3.4646
X7.8772Y-4.2126
X7.8772Y-4.9606
X8.2252Y-1.9685
X8.2252Y-2.7165
X8.2252Y-3.4646
X8.2252Y-4.2126
X8.2252Y-4.9606
X8.6252Y-1.9685
X8.6252Y-2.7165
X8.6252Y-3.4646
X8.6252Y-4.2126
X8.6252Y-4.9606
T3
X3.5433Y-3.1102
X4.2126Y-3.1102
T4
X3.7051Y-5.0397
X4.1751Y-5.8537
T5
X4.1898Y-5.1293
X4.3014Y-5.1226
X4.3398Y-5.3891
X4.4014Y-5.2958
X4.535Y-1.7898
X4.535Y-2.5378
X4.535Y-3.2858
X4.535Y-4.0339
X4.585Y-1.6898
X4.585Y-2.4378
X4.585Y-3.1858
X4.585Y-3.9339
X4.785Y-1.6898
X4.785Y-2.4378
X4.785Y-3.1858
X4.785Y-3.9339
X4.8264Y-5.1359
X4.8331Y-5.2475
X4.835Y-1.7898
X4.835Y-2.5378
X4.835Y-3.2858
X4.835Y-4.0339
X4.9996Y-5.0359
X5.0929Y-5.0975
X5.2831Y-1.652
X5.2831Y-2.4
X5.2831Y-3.148
X5.2831Y-3.8961
X5.3331Y-1.552
X5.3331Y-2.3
X5.3331Y-3.048
X5.3331Y-3.7961
X5.4743Y-4.7619
X5.481Y-4.8735
X5.5331Y-1.552
X5.5331Y-2.3
X5.5331Y-3.048
X5.5331Y-3.7961
X5.5831Y-1.652
X5.5831Y-2.4
X5.5831Y-3.148
X5.5831Y-3.8961
X5.6475Y-4.6619
X5.7408Y-4.7235
X6.0311Y-1.4748
X6.0311Y-2.2228
X6.0311Y-2.9709
X6.0311Y-3.7189
X6.0811Y-1.3748
X6.0811Y-2.1228
X6.0811Y-2.8709
X6.0811Y-3.6189
X6.2811Y-1.3748
X6.2811Y-2.1228
X6.2811Y-2.8709
X6.2811Y-3.6189
X6.3311Y-1.4748
X6.3311Y-2.2228
X6.3311Y-2.9709
X6.3311Y-3.7189
X6.7791Y-1.6717
X6.7791Y-2.4197
X6.7791Y-3.1677
X6.7791Y-3.9157
X6.7791Y-4.6638
X6.8291Y-1.5717
X6.8291Y-2.3197
X6.8291Y-3.0677
X6.8291Y-3.8157
X6.8291Y-4.5638
X7.0291Y-1.5717
X7.0291Y-2.3197
X7.0291Y-3.0677
X7.0291Y-3.8157
X7.0291Y-4.5638
X7.0791Y-1.6717
X7.0791Y-2.4197
X7.0791Y-3.1677
X7.0791Y-3.9157
X7.0791Y-4.6638
X7.5272Y-1.8685
X7.5272Y-2.6165
X7.5272Y-3.3646
X7.5272Y-4.1126
X7.5272Y-4.8606
X7.5772Y-1.7685
X7.5772Y-2.5165
X7.5772Y-3.2646
X7.5772Y-4.0126
X7.5772Y-4.7606
X7.7772Y-1.7685
X7.7772Y-2.5165
X7.7772Y-3.2646
X7.7772Y-4.0126
X7.7772Y-4.7606
X7.8272Y-1.8685
X7.8272Y-2.6165
X7.8272Y-3.3646
X7.8272Y-4.1126
X7.8272Y-4.8606
X8.2752Y-1.8685
X8.2752Y-2.6165
X8.2752Y-3.3646
X8.2752Y-4.1126
X8.2752Y-4.8606
X8.3252Y-1.7685
X8.3252Y-2.5165
X8.3252Y-3.2646
X8.3252Y-4.0126
X8.3252Y-4.7606
X8.5252Y-1.7685
X8.5252Y-2.5165
X8.5252Y-3.2646
X8.5252Y-4.0126
X8.5252Y-4.7606
X8.5752Y-1.8685
X8.5752Y-2.6165
X8.5752Y-3.3646
X8.5752Y-4.1126
X8.5752Y-4.8606
T6
X4.2237Y-4.7403
X4.6937Y-5.5543
T7
X4.1782Y-5.3092
X4.5669Y-4.685
X4.685Y-1.8898
X4.685Y-2.6378
X4.685Y-3.3858
X4.685Y-4.1339
X5.013Y-5.2591
X5.0591Y-2.1654
X5.0591Y-3.6693
X5.4331Y-1.752
X5.4331Y-2.5
X5.4331Y-3.248
X5.4331Y-3.9961
X5.6609Y-4.8851
X6.1811Y-1.5748
X6.1811Y-2.3228
X6.1811Y-3.0709
X6.1811Y-3.8189
X6.5551Y-3.4843
X6.9291Y-1.7717
X6.9291Y-2.5197
X6.9291Y-3.2677
X6.9291Y-4.0157
X6.9291Y-4.7638
X7.6772Y-1.9685
X7.6772Y-2.7165
X7.6772Y-3.4646
X7.6772Y-4.2126
X7.6772Y-4.9606
X8.0512Y-2.3425
X8.0512Y-4.5866
X8.4252Y-1.9685
X8.4252Y-2.7165
X8.4252Y-3.4646
X8.4252Y-4.2126
X8.4252Y-4.9606
T0
M30
