%TF.GenerationSoftware,KiCad,Pcbnew,7.0.5*%
%TF.CreationDate,2023-11-27T01:09:10+09:00*%
%TF.ProjectId,Ultramarine-2_Control_Unit,556c7472-616d-4617-9269-6e652d325f43,rev?*%
%TF.SameCoordinates,Original*%
%TF.FileFunction,Profile,NP*%
%FSLAX46Y46*%
G04 Gerber Fmt 4.6, Leading zero omitted, Abs format (unit mm)*
G04 Created by KiCad (PCBNEW 7.0.5) date 2023-11-27 01:09:10*
%MOMM*%
%LPD*%
G01*
G04 APERTURE LIST*
%TA.AperFunction,Profile*%
%ADD10C,0.100000*%
%TD*%
%TA.AperFunction,Profile*%
%ADD11C,0.200000*%
%TD*%
G04 APERTURE END LIST*
D10*
X163500000Y-125000000D02*
G75*
G03*
X164250000Y-124250000I0J750000D01*
G01*
X164250000Y-50750000D02*
G75*
G03*
X166250000Y-50750000I1000000J0D01*
G01*
X167000000Y-50000000D02*
G75*
G03*
X166250000Y-50750000I0J-750000D01*
G01*
X125000000Y-122000000D02*
X125000000Y-53000000D01*
X128100000Y-55000000D02*
G75*
G03*
X128100000Y-55000000I-1100000J0D01*
G01*
X163500000Y-125000000D02*
X128000000Y-125000000D01*
X179100000Y-120500000D02*
G75*
G03*
X179100000Y-120500000I-1100000J0D01*
G01*
X128000000Y-50000000D02*
G75*
G03*
X125000000Y-53000000I0J-3000000D01*
G01*
X180000000Y-53000000D02*
X180000000Y-122000000D01*
X166850000Y-60650000D02*
G75*
G03*
X166850000Y-60650000I-1600000J0D01*
G01*
X166250000Y-124250000D02*
G75*
G03*
X164250000Y-124250000I-1000000J0D01*
G01*
X125000000Y-122000000D02*
G75*
G03*
X128000000Y-125000000I3000000J0D01*
G01*
X128000000Y-50000000D02*
X163500000Y-50000000D01*
X166250000Y-124250000D02*
G75*
G03*
X167000000Y-125000000I750000J0D01*
G01*
X177000000Y-125000000D02*
G75*
G03*
X180000000Y-122000000I0J3000000D01*
G01*
X177000000Y-50000000D02*
X167000000Y-50000000D01*
X179100000Y-55000000D02*
G75*
G03*
X179100000Y-55000000I-1100000J0D01*
G01*
D11*
X166850000Y-114350000D02*
G75*
G03*
X166850000Y-114350000I-1600000J0D01*
G01*
D10*
X128100000Y-120500000D02*
G75*
G03*
X128100000Y-120500000I-1100000J0D01*
G01*
X180000000Y-53000000D02*
G75*
G03*
X177000000Y-50000000I-3000000J0D01*
G01*
X164250000Y-50750000D02*
G75*
G03*
X163500000Y-50000000I-750000J0D01*
G01*
X177000000Y-125000000D02*
X167000000Y-125000000D01*
M02*
