%TF.GenerationSoftware,KiCad,Pcbnew,7.0.5*%
%TF.CreationDate,2023-11-27T01:09:10+09:00*%
%TF.ProjectId,Ultramarine-2_Control_Unit,556c7472-616d-4617-9269-6e652d325f43,rev?*%
%TF.SameCoordinates,Original*%
%TF.FileFunction,Soldermask,Top*%
%TF.FilePolarity,Negative*%
%FSLAX46Y46*%
G04 Gerber Fmt 4.6, Leading zero omitted, Abs format (unit mm)*
G04 Created by KiCad (PCBNEW 7.0.5) date 2023-11-27 01:09:10*
%MOMM*%
%LPD*%
G01*
G04 APERTURE LIST*
G04 Aperture macros list*
%AMRoundRect*
0 Rectangle with rounded corners*
0 $1 Rounding radius*
0 $2 $3 $4 $5 $6 $7 $8 $9 X,Y pos of 4 corners*
0 Add a 4 corners polygon primitive as box body*
4,1,4,$2,$3,$4,$5,$6,$7,$8,$9,$2,$3,0*
0 Add four circle primitives for the rounded corners*
1,1,$1+$1,$2,$3*
1,1,$1+$1,$4,$5*
1,1,$1+$1,$6,$7*
1,1,$1+$1,$8,$9*
0 Add four rect primitives between the rounded corners*
20,1,$1+$1,$2,$3,$4,$5,0*
20,1,$1+$1,$4,$5,$6,$7,0*
20,1,$1+$1,$6,$7,$8,$9,0*
20,1,$1+$1,$8,$9,$2,$3,0*%
%AMFreePoly0*
4,1,6,1.000000,0.000000,0.500000,-0.750000,-0.500000,-0.750000,-0.500000,0.750000,0.500000,0.750000,1.000000,0.000000,1.000000,0.000000,$1*%
G04 Aperture macros list end*
%ADD10RoundRect,0.300000X-0.300000X0.300000X-0.300000X-0.300000X0.300000X-0.300000X0.300000X0.300000X0*%
%ADD11RoundRect,0.200000X0.200000X0.200000X-0.200000X0.200000X-0.200000X-0.200000X0.200000X-0.200000X0*%
%ADD12C,1.524000*%
%ADD13RoundRect,0.300000X0.300000X-0.300000X0.300000X0.300000X-0.300000X0.300000X-0.300000X-0.300000X0*%
%ADD14RoundRect,0.250000X0.550000X-0.250000X0.550000X0.250000X-0.550000X0.250000X-0.550000X-0.250000X0*%
%ADD15R,1.500000X3.000000*%
%ADD16FreePoly0,90.000000*%
%ADD17FreePoly0,270.000000*%
%ADD18O,1.200000X1.700000*%
%ADD19RoundRect,0.225000X-0.225000X-2.025000X0.225000X-2.025000X0.225000X2.025000X-0.225000X2.025000X0*%
%ADD20RoundRect,0.300000X-0.300000X-0.550000X0.300000X-0.550000X0.300000X0.550000X-0.300000X0.550000X0*%
%ADD21RoundRect,0.300000X-0.300000X-0.300000X0.300000X-0.300000X0.300000X0.300000X-0.300000X0.300000X0*%
%ADD22C,1.200000*%
%ADD23RoundRect,0.150000X0.150000X-0.512500X0.150000X0.512500X-0.150000X0.512500X-0.150000X-0.512500X0*%
%ADD24RoundRect,0.150000X-0.150000X0.512500X-0.150000X-0.512500X0.150000X-0.512500X0.150000X0.512500X0*%
%ADD25C,1.400000*%
%ADD26O,1.000000X1.800000*%
%ADD27RoundRect,0.300000X-0.575000X0.300000X-0.575000X-0.300000X0.575000X-0.300000X0.575000X0.300000X0*%
%ADD28O,1.750000X1.200000*%
G04 APERTURE END LIST*
D10*
%TO.C,D2*%
X148500000Y-104850000D03*
X148500000Y-108250000D03*
%TD*%
D11*
%TO.C,D3*%
X143575000Y-122250000D03*
X141925000Y-122250000D03*
%TD*%
D12*
%TO.C,U1*%
X153000000Y-51320000D03*
X139000000Y-51320000D03*
X153000000Y-74180000D03*
X150000000Y-74180000D03*
X142000000Y-74180000D03*
X139000000Y-74180000D03*
%TD*%
D13*
%TO.C,D1*%
X138500000Y-115450000D03*
X138500000Y-112050000D03*
%TD*%
D14*
%TO.C,F1*%
X135300000Y-115250000D03*
X135300000Y-112250000D03*
%TD*%
D15*
%TO.C,JP1*%
X157000000Y-70400000D03*
D16*
X157000000Y-72400000D03*
D17*
X157000000Y-68400000D03*
%TD*%
D18*
%TO.C,BT2*%
X146200000Y-120750000D03*
X153300000Y-120750000D03*
D19*
X148450000Y-114850000D03*
X151050000Y-114850000D03*
%TD*%
D20*
%TO.C,SW1*%
X131100000Y-122500000D03*
X139500000Y-122500000D03*
D21*
X133300000Y-122500000D03*
D22*
X135300000Y-122500000D03*
X137300000Y-122500000D03*
%TD*%
D12*
%TO.C,RV1*%
X129960000Y-102500000D03*
X132500000Y-105040000D03*
X135040000Y-102500000D03*
%TD*%
D23*
%TO.C,Q2*%
X151050000Y-85137500D03*
X152950000Y-85137500D03*
X152000000Y-82862500D03*
%TD*%
D24*
%TO.C,Q1*%
X152950000Y-88725000D03*
X151050000Y-88725000D03*
X152000000Y-91000000D03*
%TD*%
D25*
%TO.C,J2*%
X132800000Y-51600000D03*
X132800000Y-58600000D03*
X134000000Y-51600000D03*
X134000000Y-58600000D03*
D26*
X131700000Y-61400000D03*
X135100000Y-61400000D03*
X130500000Y-60200000D03*
X136300000Y-60200000D03*
X130500000Y-56200000D03*
X136300000Y-56200000D03*
X130500000Y-53200000D03*
X136300000Y-53200000D03*
%TD*%
D15*
%TO.C,JP2*%
X156995000Y-53400000D03*
D17*
X156995000Y-51400000D03*
D16*
X156995000Y-55400000D03*
%TD*%
D21*
%TO.C,BT1*%
X145000000Y-78000000D03*
D22*
X147000000Y-78000000D03*
%TD*%
D27*
%TO.C,J1*%
X129800000Y-78250000D03*
D28*
X129780000Y-79750000D03*
X129800000Y-81250000D03*
X129780000Y-82750000D03*
X129800000Y-84250000D03*
X129780000Y-85750000D03*
%TD*%
D15*
%TO.C,JP5*%
X157000000Y-57400000D03*
D17*
X157000000Y-55400000D03*
D16*
X157000000Y-59400000D03*
%TD*%
D15*
%TO.C,JP3*%
X157000000Y-66400000D03*
D16*
X157000000Y-68400000D03*
D17*
X157000000Y-64400000D03*
%TD*%
D12*
%TO.C,RV2*%
X129960000Y-94750000D03*
X132500000Y-97290000D03*
X135040000Y-94750000D03*
%TD*%
%TO.C,U2*%
X139000000Y-51320000D03*
X153000000Y-51320000D03*
X139000000Y-74180000D03*
X142000000Y-74180000D03*
X150000000Y-74180000D03*
X153000000Y-74180000D03*
%TD*%
M02*
