M48
; DRILL file {KiCad 7.0.5} date Mon Nov 27 00:05:17 2023
; FORMAT={-:-/ absolute / inch / decimal}
; #@! TF.CreationDate,2023-11-27T00:05:17+09:00
; #@! TF.GenerationSoftware,Kicad,Pcbnew,7.0.5
; #@! TF.FileFunction,Plated,1,2,PTH
FMAT,2
INCH
; #@! TA.AperFunction,Plated,PTH,ViaDrill
T1C0.0118
; #@! TA.AperFunction,Plated,PTH,ViaDrill
T2C0.0157
; #@! TA.AperFunction,Plated,PTH,ComponentDrill
T3C0.0157
; #@! TA.AperFunction,Plated,PTH,ComponentDrill
T4C0.0236
; #@! TA.AperFunction,Plated,PTH,ComponentDrill
T5C0.0276
; #@! TA.AperFunction,Plated,PTH,ComponentDrill
T6C0.0295
; #@! TA.AperFunction,Plated,PTH,ComponentDrill
T7C0.0315
; #@! TA.AperFunction,Plated,PTH,ComponentDrill
T8C0.0394
%
G90
G05
T1
X5.0157Y-3.7874
X5.2756Y-2.5197
X5.2756Y-2.8346
X5.3602Y-3.1579
X5.4157Y-3.1579
X5.4173Y-3.2992
X5.4429Y-4.1732
X5.5118Y-4.2913
X5.563Y-4.2913
X5.5669Y-2.4567
X5.5876Y-4.0925
X5.6063Y-3.2315
X5.6063Y-3.31
X5.7087Y-4.128
X5.7677Y-4.2323
X5.9134Y-4.2913
X5.9528Y-4.2913
X5.9665Y-3.0472
X5.9843Y-3.122
X5.9843Y-3.1791
X6.0709Y-3.0472
X6.1732Y-2.4252
T2
X5.1831Y-4.3642
X5.4252Y-3.7165
X5.5876Y-4.748
X5.6063Y-3.8425
X5.7146Y-4.5413
X5.7303Y-3.5079
X5.8445Y-4.3366
X5.8484Y-3.8583
X6.2303Y-4.3524
X6.3287Y-4.7047
X6.3465Y-3.6614
X6.5807Y-3.0472
X6.6063Y-3.9587
X6.7835Y-3.6083
X6.8031Y-2.2441
X6.8583Y-4.7638
X6.9528Y-4.2028
T5
X5.248Y-4.8228
X5.3268Y-4.8228
X5.4055Y-4.8228
X5.7087Y-3.0709
X5.7874Y-3.0709
T6
X5.1094Y-3.1398
X5.1094Y-3.2579
X5.1094Y-3.376
X5.1102Y-3.0807
X5.1102Y-3.1988
X5.1102Y-3.3169
T7
X5.1165Y-3.7303
X5.1165Y-4.0354
X5.2165Y-3.8303
X5.2165Y-4.1354
X5.3165Y-3.7303
X5.3165Y-4.0354
T8
X5.4724Y-2.0205
X5.4724Y-2.0205
X5.4724Y-2.9205
X5.4724Y-2.9205
X5.5906Y-2.9205
X5.5906Y-2.9205
X5.9055Y-2.9205
X5.9055Y-2.9205
X6.0236Y-2.0205
X6.0236Y-2.0205
X6.0236Y-2.9205
X6.0236Y-2.9205
T3
G00X5.1378Y-2.0787
M15
G01X5.1378Y-2.1102
M16
G05
G00X5.1378Y-2.1969
M15
G01X5.1378Y-2.2283
M16
G05
G00X5.1378Y-2.3543
M15
G01X5.1378Y-2.3858
M16
G05
G00X5.185Y-2.4016
M15
G01X5.185Y-2.4331
M16
G05
G00X5.3189Y-2.4016
M15
G01X5.3189Y-2.4331
M16
G05
G00X5.3661Y-2.0787
M15
G01X5.3661Y-2.1102
M16
G05
G00X5.3661Y-2.1969
M15
G01X5.3661Y-2.2283
M16
G05
G00X5.3661Y-2.3543
M15
G01X5.3661Y-2.3858
M16
G05
T4
G00X5.7559Y-4.7441
M15
G01X5.7559Y-4.7638
M16
G05
G00X6.0354Y-4.7441
M15
G01X6.0354Y-4.7638
M16
G05
T5
G00X5.1614Y-4.813
M15
G01X5.1614Y-4.8327
M16
G05
G00X5.4921Y-4.813
M15
G01X5.4921Y-4.8327
M16
G05
T0
M30
