%TF.GenerationSoftware,KiCad,Pcbnew,7.0.5*%
%TF.CreationDate,2023-11-27T01:09:09+09:00*%
%TF.ProjectId,Ultramarine-2_Control_Unit,556c7472-616d-4617-9269-6e652d325f43,rev?*%
%TF.SameCoordinates,Original*%
%TF.FileFunction,Copper,L1,Top*%
%TF.FilePolarity,Positive*%
%FSLAX46Y46*%
G04 Gerber Fmt 4.6, Leading zero omitted, Abs format (unit mm)*
G04 Created by KiCad (PCBNEW 7.0.5) date 2023-11-27 01:09:09*
%MOMM*%
%LPD*%
G01*
G04 APERTURE LIST*
G04 Aperture macros list*
%AMRoundRect*
0 Rectangle with rounded corners*
0 $1 Rounding radius*
0 $2 $3 $4 $5 $6 $7 $8 $9 X,Y pos of 4 corners*
0 Add a 4 corners polygon primitive as box body*
4,1,4,$2,$3,$4,$5,$6,$7,$8,$9,$2,$3,0*
0 Add four circle primitives for the rounded corners*
1,1,$1+$1,$2,$3*
1,1,$1+$1,$4,$5*
1,1,$1+$1,$6,$7*
1,1,$1+$1,$8,$9*
0 Add four rect primitives between the rounded corners*
20,1,$1+$1,$2,$3,$4,$5,0*
20,1,$1+$1,$4,$5,$6,$7,0*
20,1,$1+$1,$6,$7,$8,$9,0*
20,1,$1+$1,$8,$9,$2,$3,0*%
%AMFreePoly0*
4,1,6,1.000000,0.000000,0.500000,-0.750000,-0.500000,-0.750000,-0.500000,0.750000,0.500000,0.750000,1.000000,0.000000,1.000000,0.000000,$1*%
%AMFreePoly1*
4,1,7,0.700000,0.000000,1.200000,-0.750000,-1.200000,-0.750000,-0.700000,0.000000,-1.200000,0.750000,1.200000,0.750000,0.700000,0.000000,0.700000,0.000000,$1*%
G04 Aperture macros list end*
%TA.AperFunction,SMDPad,CuDef*%
%ADD10RoundRect,0.300000X-0.300000X0.300000X-0.300000X-0.300000X0.300000X-0.300000X0.300000X0.300000X0*%
%TD*%
%TA.AperFunction,SMDPad,CuDef*%
%ADD11RoundRect,0.200000X0.200000X0.200000X-0.200000X0.200000X-0.200000X-0.200000X0.200000X-0.200000X0*%
%TD*%
%TA.AperFunction,ComponentPad*%
%ADD12C,1.524000*%
%TD*%
%TA.AperFunction,SMDPad,CuDef*%
%ADD13RoundRect,0.300000X0.300000X-0.300000X0.300000X0.300000X-0.300000X0.300000X-0.300000X-0.300000X0*%
%TD*%
%TA.AperFunction,SMDPad,CuDef*%
%ADD14RoundRect,0.250000X0.550000X-0.250000X0.550000X0.250000X-0.550000X0.250000X-0.550000X-0.250000X0*%
%TD*%
%TA.AperFunction,SMDPad,CuDef*%
%ADD15FreePoly0,90.000000*%
%TD*%
%TA.AperFunction,SMDPad,CuDef*%
%ADD16FreePoly1,90.000000*%
%TD*%
%TA.AperFunction,SMDPad,CuDef*%
%ADD17FreePoly0,270.000000*%
%TD*%
%TA.AperFunction,ComponentPad*%
%ADD18O,1.200000X1.700000*%
%TD*%
%TA.AperFunction,SMDPad,CuDef*%
%ADD19RoundRect,0.225000X-0.225000X-2.025000X0.225000X-2.025000X0.225000X2.025000X-0.225000X2.025000X0*%
%TD*%
%TA.AperFunction,ComponentPad*%
%ADD20RoundRect,0.300000X-0.300000X-0.550000X0.300000X-0.550000X0.300000X0.550000X-0.300000X0.550000X0*%
%TD*%
%TA.AperFunction,ComponentPad*%
%ADD21RoundRect,0.300000X-0.300000X-0.300000X0.300000X-0.300000X0.300000X0.300000X-0.300000X0.300000X0*%
%TD*%
%TA.AperFunction,ComponentPad*%
%ADD22C,1.200000*%
%TD*%
%TA.AperFunction,SMDPad,CuDef*%
%ADD23RoundRect,0.150000X0.150000X-0.512500X0.150000X0.512500X-0.150000X0.512500X-0.150000X-0.512500X0*%
%TD*%
%TA.AperFunction,SMDPad,CuDef*%
%ADD24RoundRect,0.150000X-0.150000X0.512500X-0.150000X-0.512500X0.150000X-0.512500X0.150000X0.512500X0*%
%TD*%
%TA.AperFunction,ComponentPad*%
%ADD25O,1.000000X1.800000*%
%TD*%
%TA.AperFunction,SMDPad,CuDef*%
%ADD26FreePoly1,270.000000*%
%TD*%
%TA.AperFunction,ComponentPad*%
%ADD27RoundRect,0.300000X-0.575000X0.300000X-0.575000X-0.300000X0.575000X-0.300000X0.575000X0.300000X0*%
%TD*%
%TA.AperFunction,ComponentPad*%
%ADD28O,1.750000X1.200000*%
%TD*%
%TA.AperFunction,ViaPad*%
%ADD29C,0.600000*%
%TD*%
%TA.AperFunction,ViaPad*%
%ADD30C,0.800000*%
%TD*%
%TA.AperFunction,Conductor*%
%ADD31C,0.500000*%
%TD*%
%TA.AperFunction,Conductor*%
%ADD32C,0.250000*%
%TD*%
%TA.AperFunction,Conductor*%
%ADD33C,0.150000*%
%TD*%
G04 APERTURE END LIST*
D10*
%TO.P,D2,1,K*%
%TO.N,+5V*%
X148500000Y-104850000D03*
%TO.P,D2,2,A*%
%TO.N,/Charging*%
X148500000Y-108250000D03*
%TD*%
D11*
%TO.P,D3,1,K*%
%TO.N,GND*%
X143575000Y-122250000D03*
%TO.P,D3,2,A*%
%TO.N,Net-(D3-A)*%
X141925000Y-122250000D03*
%TD*%
D12*
%TO.P,U1,1,+*%
%TO.N,Net-(JP2-C)*%
X153000000Y-51320000D03*
%TO.P,U1,2,-*%
%TO.N,Net-(JP5-C)*%
X139000000Y-51320000D03*
%TO.P,U1,3,Out+*%
%TO.N,Net-(JP6-C)*%
X153000000Y-74180000D03*
%TO.P,U1,4,B+*%
%TO.N,Net-(JP1-C)*%
X150000000Y-74180000D03*
%TO.P,U1,5,B-*%
%TO.N,Net-(JP3-C)*%
X142000000Y-74180000D03*
%TO.P,U1,6,Out-*%
%TO.N,Net-(JP4-C)*%
X139000000Y-74180000D03*
%TD*%
D13*
%TO.P,D1,1,K*%
%TO.N,Net-(D1-K)*%
X138500000Y-115450000D03*
%TO.P,D1,2,A*%
%TO.N,Net-(D1-A)*%
X138500000Y-112050000D03*
%TD*%
D14*
%TO.P,F1,1*%
%TO.N,Net-(SW1-B)*%
X135300000Y-115250000D03*
%TO.P,F1,2*%
%TO.N,/Bat+*%
X135300000Y-112250000D03*
%TD*%
D15*
%TO.P,JP1,1,A*%
%TO.N,/B-*%
X157000000Y-72400000D03*
D16*
%TO.P,JP1,2,C*%
%TO.N,Net-(JP1-C)*%
X157000000Y-70400000D03*
D17*
%TO.P,JP1,3,B*%
%TO.N,/B+*%
X157000000Y-68400000D03*
%TD*%
D18*
%TO.P,BT2,*%
%TO.N,*%
X146200000Y-120750000D03*
X153300000Y-120750000D03*
D19*
%TO.P,BT2,1,+*%
%TO.N,/Charging*%
X148450000Y-114850000D03*
%TO.P,BT2,2,-*%
%TO.N,GND*%
X151050000Y-114850000D03*
%TD*%
D20*
%TO.P,SW1,*%
%TO.N,*%
X131100000Y-122500000D03*
X139500000Y-122500000D03*
D21*
%TO.P,SW1,1,A*%
%TO.N,unconnected-(SW1-A-Pad1)*%
X133300000Y-122500000D03*
D22*
%TO.P,SW1,2,B*%
%TO.N,Net-(SW1-B)*%
X135300000Y-122500000D03*
%TO.P,SW1,3,C*%
%TO.N,Net-(D1-K)*%
X137300000Y-122500000D03*
%TD*%
D12*
%TO.P,RV1,1,1*%
%TO.N,unconnected-(RV1-Pad1)*%
X129960000Y-102500000D03*
%TO.P,RV1,2,2*%
%TO.N,+5V*%
X132500000Y-105040000D03*
%TO.P,RV1,3,3*%
%TO.N,Net-(D3-A)*%
X135040000Y-102500000D03*
%TD*%
D23*
%TO.P,Q2,1,D*%
%TO.N,/IN+*%
X151050000Y-85137500D03*
%TO.P,Q2,2,G*%
%TO.N,Net-(D1-A)*%
X152950000Y-85137500D03*
%TO.P,Q2,3,S*%
%TO.N,+5V*%
X152000000Y-82862500D03*
%TD*%
D24*
%TO.P,Q1,1,D*%
%TO.N,Net-(D1-A)*%
X152950000Y-88725000D03*
%TO.P,Q1,2,G*%
%TO.N,/IN+*%
X151050000Y-88725000D03*
%TO.P,Q1,3,S*%
%TO.N,/OUT+*%
X152000000Y-91000000D03*
%TD*%
D25*
%TO.P,J2,1,Pin_1*%
%TO.N,unconnected-(J2-Pin_1-Pad1)*%
X131700000Y-61400000D03*
X135100000Y-61400000D03*
%TO.P,J2,2,Pin_2*%
%TO.N,+5V*%
X130500000Y-60200000D03*
X136300000Y-60200000D03*
%TO.P,J2,3,Pin_3*%
%TO.N,GND*%
X130500000Y-56200000D03*
X136300000Y-56200000D03*
%TO.P,J2,4,Pin_4*%
%TO.N,/data*%
X130500000Y-53200000D03*
X136300000Y-53200000D03*
%TD*%
D17*
%TO.P,JP2,1,A*%
%TO.N,GND*%
X156995000Y-51400000D03*
D26*
%TO.P,JP2,2,C*%
%TO.N,Net-(JP2-C)*%
X156995000Y-53400000D03*
D15*
%TO.P,JP2,3,B*%
%TO.N,/IN+*%
X156995000Y-55400000D03*
%TD*%
D21*
%TO.P,BT1,1,+*%
%TO.N,/B+*%
X145000000Y-78000000D03*
D22*
%TO.P,BT1,2,-*%
%TO.N,/B-*%
X147000000Y-78000000D03*
%TD*%
D27*
%TO.P,J1,1,Pin_1*%
%TO.N,+5V*%
X129800000Y-78250000D03*
D28*
%TO.P,J1,2,Pin_2*%
%TO.N,/Bat+*%
X129780000Y-79750000D03*
%TO.P,J1,3,Pin_3*%
%TO.N,/FlexLED*%
X129800000Y-81250000D03*
%TO.P,J1,4,Pin_4*%
%TO.N,/data*%
X129780000Y-82750000D03*
%TO.P,J1,5,Pin_5*%
%TO.N,GND*%
X129800000Y-84250000D03*
%TO.P,J1,6,Pin_6*%
%TO.N,unconnected-(J1-Pin_6-Pad6)*%
X129780000Y-85750000D03*
%TD*%
D17*
%TO.P,JP5,1,A*%
%TO.N,/IN+*%
X157000000Y-55400000D03*
D26*
%TO.P,JP5,2,C*%
%TO.N,Net-(JP5-C)*%
X157000000Y-57400000D03*
D15*
%TO.P,JP5,3,B*%
%TO.N,GND*%
X157000000Y-59400000D03*
%TD*%
%TO.P,JP3,1,A*%
%TO.N,/B+*%
X157000000Y-68400000D03*
D16*
%TO.P,JP3,2,C*%
%TO.N,Net-(JP3-C)*%
X157000000Y-66400000D03*
D17*
%TO.P,JP3,3,B*%
%TO.N,/B-*%
X157000000Y-64400000D03*
%TD*%
D12*
%TO.P,RV2,1,1*%
%TO.N,unconnected-(RV2-Pad1)*%
X129960000Y-94750000D03*
%TO.P,RV2,2,2*%
%TO.N,/Charging*%
X132500000Y-97290000D03*
%TO.P,RV2,3,3*%
%TO.N,/FlexLED*%
X135040000Y-94750000D03*
%TD*%
%TO.P,U2,1,+*%
%TO.N,Net-(JP5-C)*%
X139000000Y-51320000D03*
%TO.P,U2,2,-*%
%TO.N,Net-(JP2-C)*%
X153000000Y-51320000D03*
%TO.P,U2,3,Out+*%
%TO.N,Net-(JP4-C)*%
X139000000Y-74180000D03*
%TO.P,U2,4,B+*%
%TO.N,Net-(JP3-C)*%
X142000000Y-74180000D03*
%TO.P,U2,5,B-*%
%TO.N,Net-(JP1-C)*%
X150000000Y-74180000D03*
%TO.P,U2,6,Out-*%
%TO.N,Net-(JP6-C)*%
X153000000Y-74180000D03*
%TD*%
D29*
%TO.N,/Charging*%
X146500000Y-107500000D03*
D30*
X148450000Y-110150000D03*
D29*
X138250000Y-106000000D03*
D30*
%TO.N,GND*%
X148550000Y-98000000D03*
X174200000Y-121000000D03*
X176600000Y-106750000D03*
D29*
X134000000Y-72000000D03*
D30*
X167800000Y-100550000D03*
D29*
X156800000Y-61600000D03*
D30*
X131650000Y-110850000D03*
D29*
X134000000Y-64000000D03*
D30*
X167150000Y-77400000D03*
X158250000Y-110550000D03*
X160750000Y-119500000D03*
X145150000Y-115350000D03*
X137800000Y-94400000D03*
D29*
X141400000Y-62400000D03*
D30*
X145550000Y-89100000D03*
X172800000Y-57000000D03*
X161200000Y-93000000D03*
D29*
X127400000Y-96200000D03*
D30*
X172300000Y-91650000D03*
D29*
X137600000Y-83800000D03*
%TO.N,+5V*%
X152000000Y-80750000D03*
X142400000Y-84073963D03*
D30*
X142400000Y-97600000D03*
D29*
X145000000Y-104850000D03*
X152000000Y-79300000D03*
X142399987Y-82080317D03*
%TO.N,Net-(D3-A)*%
X141925000Y-103950000D03*
D30*
X141925000Y-120600000D03*
D29*
%TO.N,/Bat+*%
X135750000Y-79750000D03*
X137100000Y-79750000D03*
%TO.N,/OUT+*%
X154200000Y-77400000D03*
X151550000Y-77400000D03*
%TO.N,Net-(D1-A)*%
X151200000Y-109000000D03*
X150200000Y-109000000D03*
X140000000Y-109000000D03*
X141300500Y-109000000D03*
%TD*%
D31*
%TO.N,/Bat+*%
X140450000Y-83100000D02*
G75*
G03*
X137100000Y-79750000I-3350000J0D01*
G01*
X140450000Y-104989851D02*
X140450000Y-83100000D01*
X137675000Y-107400000D02*
X138039851Y-107400000D01*
X138039851Y-107400000D02*
G75*
G03*
X140450000Y-104989851I49J2410100D01*
G01*
X137675000Y-107400000D02*
G75*
G03*
X135300000Y-109775000I0J-2375000D01*
G01*
X137100000Y-79750000D02*
X135750000Y-79750000D01*
X135300000Y-112250000D02*
X135300000Y-109775000D01*
%TO.N,/Charging*%
X138250000Y-106000000D02*
X138250000Y-100635929D01*
X134904070Y-97290000D02*
X132500000Y-97290000D01*
X146500000Y-107500000D02*
X146689340Y-107500000D01*
X148450000Y-108335355D02*
X148450000Y-114850000D01*
X138249987Y-100635929D02*
G75*
G03*
X137269999Y-98270001I-3345887J29D01*
G01*
X148499988Y-108250012D02*
G75*
G03*
X146689340Y-107500000I-1810688J-1810688D01*
G01*
X148474924Y-108274924D02*
G75*
G03*
X148464644Y-108250000I-10324J10324D01*
G01*
X137270009Y-98269991D02*
G75*
G03*
X134904070Y-97290000I-2365909J-2365909D01*
G01*
X148475013Y-108275013D02*
G75*
G03*
X148450000Y-108335355I60387J-60387D01*
G01*
%TO.N,+5V*%
X134900000Y-66100000D02*
X131700000Y-66100000D01*
X130500000Y-67300000D02*
X130500000Y-76560051D01*
X130500000Y-64600000D02*
X130500000Y-66100000D01*
X142400000Y-84073963D02*
X142400000Y-82080330D01*
X142400000Y-84073963D02*
X142400000Y-97600000D01*
X152000000Y-80750000D02*
X152000000Y-82862500D01*
X142400000Y-97600000D02*
X142400000Y-100411522D01*
X145000000Y-104850000D02*
X148500000Y-104850000D01*
X130500000Y-66100000D02*
X130500000Y-67300000D01*
X131700000Y-66100000D02*
X130500000Y-66100000D01*
X145000000Y-104850000D02*
X143700000Y-103550000D01*
X136300000Y-60200000D02*
X136300000Y-64700000D01*
X152000000Y-79300000D02*
X152000000Y-80750000D01*
X130500000Y-64900000D02*
X130500000Y-64600000D01*
X130500000Y-60200000D02*
X130500000Y-64600000D01*
X134900000Y-66100000D02*
G75*
G03*
X136300000Y-64700000I0J1400000D01*
G01*
X130500000Y-64900000D02*
G75*
G03*
X131700000Y-66100000I1200000J0D01*
G01*
X142399991Y-100411522D02*
G75*
G03*
X143700000Y-103550000I4438509J22D01*
G01*
X142399982Y-82080324D02*
G75*
G03*
X142400000Y-82080330I18J24D01*
G01*
X131700000Y-66100000D02*
G75*
G03*
X130500000Y-67300000I0J-1200000D01*
G01*
X129800014Y-78250014D02*
G75*
G03*
X130500000Y-76560051I-1689914J1689914D01*
G01*
D32*
%TO.N,Net-(D3-A)*%
X141925000Y-122250000D02*
X141925000Y-120600000D01*
X141925000Y-120600000D02*
X141925000Y-103950000D01*
D31*
%TO.N,Net-(SW1-B)*%
X135300000Y-122500000D02*
X135300000Y-115250000D01*
D33*
%TO.N,/data*%
X129500000Y-55614213D02*
X129500000Y-61101628D01*
X126500000Y-67200000D02*
X126500000Y-80737729D01*
X128512271Y-82750000D02*
X129780000Y-82750000D01*
X128300000Y-63800000D02*
X127631371Y-64468629D01*
X130500000Y-53200000D02*
X136300000Y-53200000D01*
X129500000Y-61101628D02*
X129497530Y-61104098D01*
X126500000Y-80737729D02*
G75*
G03*
X128512271Y-82750000I2012300J29D01*
G01*
X128299985Y-63799985D02*
G75*
G03*
X129497529Y-61104098I-2912485J2907685D01*
G01*
X127631380Y-64468638D02*
G75*
G03*
X126500000Y-67200000I2731320J-2731362D01*
G01*
X130499996Y-53199996D02*
G75*
G03*
X129500000Y-55614213I2414204J-2414204D01*
G01*
D31*
%TO.N,/B+*%
X145000000Y-78000000D02*
X145000000Y-71600000D01*
X148200000Y-68400000D02*
X157000000Y-68400000D01*
X148200000Y-68400000D02*
G75*
G03*
X145000000Y-71600000I0J-3200000D01*
G01*
%TO.N,/B-*%
X157629929Y-72636131D02*
X156866060Y-73400000D01*
X159800000Y-70800000D02*
X159800000Y-65800000D01*
X158400000Y-64400000D02*
X157000000Y-64400000D01*
X157000000Y-72400000D02*
X158200000Y-72400000D01*
X148800000Y-76200000D02*
X153200000Y-76200000D01*
X158200000Y-72400000D02*
G75*
G03*
X159800000Y-70800000I0J1600000D01*
G01*
X148800000Y-76200000D02*
G75*
G03*
X147000000Y-78000000I0J-1800000D01*
G01*
X159800000Y-65800000D02*
G75*
G03*
X158400000Y-64400000I-1400000J0D01*
G01*
X158200000Y-72400000D02*
G75*
G03*
X157629930Y-72636132I0J-806200D01*
G01*
X153200000Y-76200000D02*
G75*
G03*
X157000000Y-72400000I0J3800000D01*
G01*
%TO.N,/OUT+*%
X154200000Y-77400000D02*
X151550000Y-77400000D01*
X152000000Y-91000000D02*
X151030330Y-91000000D01*
X149750000Y-89719669D02*
X149750000Y-79200000D01*
X151550000Y-77400000D02*
G75*
G03*
X149750000Y-79200000I0J-1800000D01*
G01*
X150124991Y-90625009D02*
G75*
G03*
X151030330Y-91000000I905309J905309D01*
G01*
X149750042Y-89719669D02*
G75*
G03*
X150125000Y-90625000I1280358J-31D01*
G01*
%TO.N,/IN+*%
X151050000Y-85137500D02*
X151050000Y-79189339D01*
X152059009Y-78180330D02*
X158097730Y-78180330D01*
X158800000Y-55400000D02*
X157000000Y-55400000D01*
X160600000Y-75678060D02*
X160600000Y-57200000D01*
X151050000Y-85137500D02*
X151050000Y-88725000D01*
X158097730Y-78180400D02*
G75*
G03*
X160600000Y-75678060I-30J2502300D01*
G01*
X152059009Y-78180300D02*
G75*
G03*
X151050000Y-79189339I-9J-1009000D01*
G01*
X160600000Y-57200000D02*
G75*
G03*
X158800000Y-55400000I-1800000J0D01*
G01*
%TO.N,Net-(JP1-C)*%
X157000000Y-70400000D02*
X151800000Y-70400000D01*
X150000000Y-72200000D02*
X150000000Y-74180000D01*
X151800000Y-70400000D02*
G75*
G03*
X150000000Y-72200000I0J-1800000D01*
G01*
%TO.N,Net-(JP2-C)*%
X156995000Y-53400000D02*
X155080000Y-53400000D01*
X153000000Y-51320000D02*
G75*
G03*
X155080000Y-53400000I2080000J0D01*
G01*
%TO.N,Net-(JP3-C)*%
X147142788Y-66400000D02*
X157000000Y-66400000D01*
X142000000Y-74180000D02*
X142000000Y-71542788D01*
X147142788Y-66400000D02*
G75*
G03*
X142000000Y-71542788I12J-5142800D01*
G01*
%TO.N,Net-(JP6-C)*%
X153000000Y-74470025D02*
X153000000Y-74180000D01*
X152794913Y-74965120D02*
G75*
G03*
X153000000Y-74470025I-495113J495120D01*
G01*
%TO.N,Net-(D1-K)*%
X138500000Y-117151471D02*
X138500000Y-115450000D01*
X137300000Y-120048528D02*
X137300000Y-122500000D01*
X137899992Y-118599992D02*
G75*
G03*
X137300000Y-120048528I1448508J-1448508D01*
G01*
X137900008Y-118600008D02*
G75*
G03*
X138500000Y-117151471I-1448508J1448508D01*
G01*
%TO.N,Net-(D1-A)*%
X152950000Y-88689644D02*
X152950000Y-85137500D01*
X138500000Y-110500000D02*
X138500000Y-112050000D01*
X151200000Y-109000000D02*
X150200000Y-109000000D01*
X153000000Y-107200000D02*
X153000000Y-88810355D01*
X152949982Y-88689644D02*
G75*
G03*
X152975000Y-88750000I85418J44D01*
G01*
X151200000Y-109000000D02*
G75*
G03*
X153000000Y-107200000I0J1800000D01*
G01*
X152999977Y-88810355D02*
G75*
G03*
X152975000Y-88750000I-85277J55D01*
G01*
X140000000Y-109000000D02*
G75*
G03*
X138500000Y-110500000I0J-1500000D01*
G01*
%TO.N,Net-(JP5-C)*%
X139000000Y-51320000D02*
X139000000Y-53413445D01*
X157000000Y-57400000D02*
X142986555Y-57400000D01*
X139000000Y-53413445D02*
G75*
G03*
X142986555Y-57400000I3986600J45D01*
G01*
%TD*%
%TA.AperFunction,Conductor*%
%TO.N,GND*%
G36*
X137693561Y-50519454D02*
G01*
X137774343Y-50573430D01*
X137828319Y-50654212D01*
X137847273Y-50749500D01*
X137828319Y-50844788D01*
X137823958Y-50854698D01*
X137817713Y-50868092D01*
X137809105Y-50886551D01*
X137794313Y-50941757D01*
X137751930Y-51099932D01*
X137732677Y-51320000D01*
X137751930Y-51540068D01*
X137755023Y-51551610D01*
X137809106Y-51753452D01*
X137833115Y-51804941D01*
X137838984Y-51820008D01*
X137846025Y-51842259D01*
X137846028Y-51842267D01*
X137986699Y-52134052D01*
X137990021Y-52140569D01*
X137991806Y-52144071D01*
X137997388Y-52154443D01*
X138003006Y-52164343D01*
X138123028Y-52365262D01*
X138125832Y-52370209D01*
X138179759Y-52470635D01*
X138199433Y-52518736D01*
X138219129Y-52586287D01*
X138228445Y-52638179D01*
X138245011Y-52869248D01*
X138248784Y-52904295D01*
X138249500Y-52917631D01*
X138249500Y-53327912D01*
X138249499Y-53327932D01*
X138249500Y-53413453D01*
X138249501Y-53620277D01*
X138249502Y-53620285D01*
X138285555Y-54032328D01*
X138285557Y-54032342D01*
X138285558Y-54032349D01*
X138352741Y-54413342D01*
X138357391Y-54439709D01*
X138357395Y-54439726D01*
X138464449Y-54839251D01*
X138464452Y-54839259D01*
X138605928Y-55227955D01*
X138771673Y-55583390D01*
X138780748Y-55602852D01*
X138981175Y-55950000D01*
X138987580Y-55961092D01*
X139224819Y-56299902D01*
X139224828Y-56299914D01*
X139224831Y-56299918D01*
X139228434Y-56304212D01*
X139481201Y-56605449D01*
X139490718Y-56616790D01*
X139783210Y-56909282D01*
X139783216Y-56909287D01*
X139783218Y-56909289D01*
X139887019Y-56996388D01*
X140100082Y-57175169D01*
X140100089Y-57175174D01*
X140100097Y-57175180D01*
X140438907Y-57412419D01*
X140438913Y-57412422D01*
X140438921Y-57412428D01*
X140797148Y-57619252D01*
X141172039Y-57794069D01*
X141172042Y-57794070D01*
X141172044Y-57794071D01*
X141205700Y-57806321D01*
X141560738Y-57935547D01*
X141560745Y-57935548D01*
X141560748Y-57935550D01*
X141684664Y-57968753D01*
X141960289Y-58042609D01*
X142367651Y-58114442D01*
X142367666Y-58114443D01*
X142367671Y-58114444D01*
X142554967Y-58130832D01*
X142779718Y-58150497D01*
X142779721Y-58150498D01*
X142779723Y-58150498D01*
X142883563Y-58150498D01*
X142883575Y-58150500D01*
X142986547Y-58150500D01*
X143065427Y-58150501D01*
X143065432Y-58150500D01*
X155495353Y-58150500D01*
X155590641Y-58169454D01*
X155671423Y-58223430D01*
X155725399Y-58304212D01*
X155744353Y-58399500D01*
X155744353Y-58600011D01*
X155750778Y-58680350D01*
X155750779Y-58680357D01*
X155793642Y-58817753D01*
X155793643Y-58817754D01*
X155873473Y-58937501D01*
X155873478Y-58937506D01*
X155983811Y-59029910D01*
X155983812Y-59029910D01*
X155983813Y-59029911D01*
X156115715Y-59087490D01*
X156258496Y-59105576D01*
X156400589Y-59082703D01*
X156530482Y-59020724D01*
X156861883Y-58799789D01*
X156951676Y-58762706D01*
X157048831Y-58762807D01*
X157138117Y-58799790D01*
X157469518Y-59020724D01*
X157469524Y-59020727D01*
X157469524Y-59020728D01*
X157539941Y-59059950D01*
X157539943Y-59059951D01*
X157539947Y-59059953D01*
X157678039Y-59100500D01*
X157821961Y-59100500D01*
X157960053Y-59059953D01*
X158081128Y-58982143D01*
X158175377Y-58873373D01*
X158235165Y-58742457D01*
X158255647Y-58600000D01*
X158255647Y-56399499D01*
X158274601Y-56304212D01*
X158328577Y-56223430D01*
X158409359Y-56169454D01*
X158504647Y-56150500D01*
X158721119Y-56150500D01*
X158794556Y-56150500D01*
X158805411Y-56150974D01*
X158895166Y-56158825D01*
X158960547Y-56164545D01*
X159003286Y-56172082D01*
X159137911Y-56208155D01*
X159178688Y-56222996D01*
X159305008Y-56281900D01*
X159342593Y-56303600D01*
X159437020Y-56369718D01*
X159456757Y-56383538D01*
X159490007Y-56411437D01*
X159588562Y-56509992D01*
X159616461Y-56543242D01*
X159696398Y-56657404D01*
X159718100Y-56694993D01*
X159777001Y-56821308D01*
X159791845Y-56862092D01*
X159827916Y-56996708D01*
X159835453Y-57039453D01*
X159849026Y-57194587D01*
X159849500Y-57205443D01*
X159849500Y-63720167D01*
X159830546Y-63815455D01*
X159776570Y-63896237D01*
X159695788Y-63950213D01*
X159600500Y-63969167D01*
X159505212Y-63950213D01*
X159484785Y-63940646D01*
X159407339Y-63900000D01*
X159284206Y-63835375D01*
X159284201Y-63835373D01*
X159040951Y-63743120D01*
X158910930Y-63711073D01*
X158788347Y-63680859D01*
X158788345Y-63680858D01*
X158788343Y-63680858D01*
X158690978Y-63669036D01*
X158530081Y-63649500D01*
X158530074Y-63649500D01*
X158315722Y-63649500D01*
X158220434Y-63630546D01*
X158139652Y-63576570D01*
X158133913Y-63570405D01*
X158023372Y-63474622D01*
X157892460Y-63414836D01*
X157892457Y-63414835D01*
X157750000Y-63394353D01*
X156250000Y-63394353D01*
X156249995Y-63394353D01*
X156249976Y-63394354D01*
X156178040Y-63399499D01*
X156178037Y-63399500D01*
X156039950Y-63440045D01*
X156039945Y-63440047D01*
X155918871Y-63517857D01*
X155824622Y-63626627D01*
X155764836Y-63757539D01*
X155764835Y-63757542D01*
X155744353Y-63900003D01*
X155744353Y-64900001D01*
X155748360Y-64963536D01*
X155748362Y-64963550D01*
X155754261Y-64984963D01*
X155761293Y-65081864D01*
X155760668Y-65086523D01*
X155760406Y-65088347D01*
X155746084Y-65187964D01*
X155744353Y-65200002D01*
X155744353Y-65400500D01*
X155725399Y-65495788D01*
X155671423Y-65576570D01*
X155590641Y-65630546D01*
X155495353Y-65649500D01*
X146911241Y-65649500D01*
X146911229Y-65649501D01*
X146449599Y-65685833D01*
X146449553Y-65685838D01*
X145992184Y-65758278D01*
X145541867Y-65866391D01*
X145101449Y-66009493D01*
X144673614Y-66186707D01*
X144673610Y-66186709D01*
X144260984Y-66396952D01*
X143866134Y-66638917D01*
X143491482Y-66911117D01*
X143139340Y-67211876D01*
X142811876Y-67539340D01*
X142511117Y-67891482D01*
X142238917Y-68266134D01*
X141996952Y-68660984D01*
X141786709Y-69073610D01*
X141786707Y-69073614D01*
X141609493Y-69501449D01*
X141466391Y-69941867D01*
X141358278Y-70392184D01*
X141285838Y-70849553D01*
X141285833Y-70849599D01*
X141249501Y-71311229D01*
X141249500Y-71311241D01*
X141249500Y-72583321D01*
X141245363Y-72621782D01*
X141246281Y-72621915D01*
X141245014Y-72630716D01*
X141228445Y-72861818D01*
X141219129Y-72913712D01*
X141199433Y-72981261D01*
X141179760Y-73029359D01*
X141125824Y-73129801D01*
X141123020Y-73134749D01*
X141003018Y-73335635D01*
X140997486Y-73345378D01*
X140991901Y-73355744D01*
X140986718Y-73365904D01*
X140844522Y-73660856D01*
X140841539Y-73667267D01*
X140839858Y-73671018D01*
X140824516Y-73712510D01*
X140820577Y-73721950D01*
X140809107Y-73746546D01*
X140751930Y-73959933D01*
X140751930Y-73959934D01*
X140748053Y-74004252D01*
X140720866Y-74097526D01*
X140660054Y-74173296D01*
X140645648Y-74181199D01*
X140690745Y-74217393D01*
X140737475Y-74302572D01*
X140748052Y-74355742D01*
X140751930Y-74400068D01*
X140809106Y-74613450D01*
X140902466Y-74813662D01*
X141029174Y-74994620D01*
X141185380Y-75150826D01*
X141366338Y-75277534D01*
X141566550Y-75370894D01*
X141779932Y-75428070D01*
X142000000Y-75447323D01*
X142220068Y-75428070D01*
X142433450Y-75370894D01*
X142633662Y-75277534D01*
X142814620Y-75150826D01*
X142970826Y-74994620D01*
X143097534Y-74813662D01*
X143190894Y-74613450D01*
X143248070Y-74400068D01*
X143267323Y-74180000D01*
X143248070Y-73959932D01*
X143190894Y-73746550D01*
X143166872Y-73695037D01*
X143161007Y-73679976D01*
X143153970Y-73657731D01*
X143013255Y-73365855D01*
X143008058Y-73355672D01*
X143002458Y-73345284D01*
X142996964Y-73335609D01*
X142876960Y-73134721D01*
X142874169Y-73129796D01*
X142820233Y-73029354D01*
X142800561Y-72981258D01*
X142780865Y-72913707D01*
X142771551Y-72861825D01*
X142754985Y-72630719D01*
X142751216Y-72595704D01*
X142750500Y-72582370D01*
X142750500Y-71545657D01*
X142750633Y-71539906D01*
X142751651Y-71517893D01*
X142768972Y-71143252D01*
X142770031Y-71131831D01*
X142824493Y-70741410D01*
X142826607Y-70730104D01*
X142827920Y-70724523D01*
X142916860Y-70346374D01*
X142920001Y-70335335D01*
X143045278Y-69961560D01*
X143049428Y-69950850D01*
X143128464Y-69771851D01*
X143208653Y-69590240D01*
X143213780Y-69579945D01*
X143257503Y-69501449D01*
X143405594Y-69235572D01*
X143411634Y-69225816D01*
X143634425Y-68900583D01*
X143641338Y-68891427D01*
X143893181Y-68588146D01*
X143900920Y-68579658D01*
X144179658Y-68300920D01*
X144188146Y-68293181D01*
X144491427Y-68041338D01*
X144500583Y-68034425D01*
X144825816Y-67811634D01*
X144835574Y-67805594D01*
X144911996Y-67763027D01*
X145179953Y-67613775D01*
X145190240Y-67608653D01*
X145550850Y-67449428D01*
X145561560Y-67445278D01*
X145935335Y-67320001D01*
X145946374Y-67316860D01*
X146330110Y-67226605D01*
X146341410Y-67224493D01*
X146731829Y-67170031D01*
X146743254Y-67168972D01*
X147139916Y-67150632D01*
X147145661Y-67150500D01*
X147221670Y-67150500D01*
X155495353Y-67150500D01*
X155590641Y-67169454D01*
X155671423Y-67223430D01*
X155725399Y-67304212D01*
X155744353Y-67399500D01*
X155744353Y-67400500D01*
X155725399Y-67495788D01*
X155671423Y-67576570D01*
X155590641Y-67630546D01*
X155495353Y-67649500D01*
X148017350Y-67649500D01*
X147653628Y-67683204D01*
X147294568Y-67750324D01*
X147249922Y-67763027D01*
X146943224Y-67850290D01*
X146943222Y-67850290D01*
X146943207Y-67850295D01*
X146602623Y-67982238D01*
X146602604Y-67982247D01*
X146275605Y-68145073D01*
X145965054Y-68337358D01*
X145965047Y-68337363D01*
X145673544Y-68557496D01*
X145673526Y-68557511D01*
X145403604Y-68803577D01*
X145403577Y-68803604D01*
X145157511Y-69073526D01*
X145157496Y-69073544D01*
X144937363Y-69365047D01*
X144937358Y-69365054D01*
X144745073Y-69675605D01*
X144582247Y-70002604D01*
X144582238Y-70002623D01*
X144450295Y-70343207D01*
X144450290Y-70343222D01*
X144450290Y-70343224D01*
X144436362Y-70392177D01*
X144350324Y-70694568D01*
X144283204Y-71053628D01*
X144249500Y-71417350D01*
X144249500Y-76663949D01*
X144237046Y-76741712D01*
X144227686Y-76770184D01*
X144209579Y-76825266D01*
X144207756Y-76830810D01*
X144206340Y-76834876D01*
X144149293Y-76990099D01*
X144147357Y-76995038D01*
X144093567Y-77124133D01*
X144090840Y-77130214D01*
X144042123Y-77231499D01*
X144038146Y-77239087D01*
X143988641Y-77326126D01*
X143988598Y-77326204D01*
X143985760Y-77331517D01*
X143981374Y-77339075D01*
X143974215Y-77350468D01*
X143974210Y-77350479D01*
X143914632Y-77520743D01*
X143914630Y-77520754D01*
X143899500Y-77655031D01*
X143899500Y-78344968D01*
X143914630Y-78479245D01*
X143914631Y-78479251D01*
X143914632Y-78479255D01*
X143974211Y-78649522D01*
X143974212Y-78649523D01*
X143974214Y-78649529D01*
X144070180Y-78802257D01*
X144070182Y-78802259D01*
X144070184Y-78802262D01*
X144197738Y-78929816D01*
X144197740Y-78929817D01*
X144197742Y-78929819D01*
X144350470Y-79025785D01*
X144350473Y-79025786D01*
X144350478Y-79025789D01*
X144520745Y-79085368D01*
X144520754Y-79085369D01*
X144655031Y-79100499D01*
X144655046Y-79100500D01*
X145344954Y-79100500D01*
X145344968Y-79100499D01*
X145455079Y-79088091D01*
X145479255Y-79085368D01*
X145649522Y-79025789D01*
X145649527Y-79025785D01*
X145649529Y-79025785D01*
X145768941Y-78950753D01*
X145802262Y-78929816D01*
X145912727Y-78819350D01*
X145993505Y-78765376D01*
X146088793Y-78746422D01*
X146184081Y-78765376D01*
X146256544Y-78811409D01*
X146333957Y-78881980D01*
X146333959Y-78881981D01*
X146507363Y-78989348D01*
X146697544Y-79063024D01*
X146817075Y-79085368D01*
X146898022Y-79100500D01*
X146898024Y-79100500D01*
X147101977Y-79100500D01*
X147135389Y-79094254D01*
X147302456Y-79063024D01*
X147492637Y-78989348D01*
X147666041Y-78881981D01*
X147793951Y-78765376D01*
X147816760Y-78744583D01*
X147816760Y-78744581D01*
X147816764Y-78744579D01*
X147939673Y-78581821D01*
X148030582Y-78399250D01*
X148086397Y-78203083D01*
X148105215Y-78000000D01*
X148097919Y-77921278D01*
X148097398Y-77911262D01*
X148097368Y-77908672D01*
X148096442Y-77902738D01*
X148095493Y-77895096D01*
X148086397Y-77796917D01*
X148074232Y-77754164D01*
X148070965Y-77739269D01*
X148064084Y-77695112D01*
X148056705Y-77662289D01*
X148046264Y-77627002D01*
X148034557Y-77595361D01*
X148009247Y-77538853D01*
X147987596Y-77444148D01*
X148003835Y-77348360D01*
X148055494Y-77266077D01*
X148060390Y-77261039D01*
X148109998Y-77211431D01*
X148143236Y-77183542D01*
X148257411Y-77103596D01*
X148294985Y-77081903D01*
X148421315Y-77022995D01*
X148462084Y-77008156D01*
X148596715Y-76972081D01*
X148639450Y-76964546D01*
X148711738Y-76958221D01*
X148794589Y-76950974D01*
X148805444Y-76950500D01*
X148878881Y-76950500D01*
X149591408Y-76950500D01*
X149686696Y-76969454D01*
X149767478Y-77023430D01*
X149821454Y-77104212D01*
X149840408Y-77199500D01*
X149821454Y-77294788D01*
X149767478Y-77375570D01*
X149645247Y-77497800D01*
X149645240Y-77497808D01*
X149466639Y-77721766D01*
X149466634Y-77721773D01*
X149333518Y-77933627D01*
X149314225Y-77964331D01*
X149314220Y-77964340D01*
X149314218Y-77964345D01*
X149297048Y-78000000D01*
X149189932Y-78222428D01*
X149100068Y-78479245D01*
X149095315Y-78492827D01*
X149095314Y-78492828D01*
X149031574Y-78772098D01*
X148999500Y-79056754D01*
X148999500Y-89766310D01*
X148999539Y-89767707D01*
X148999539Y-89833704D01*
X149025071Y-90060355D01*
X149075816Y-90282720D01*
X149075820Y-90282734D01*
X149151145Y-90498027D01*
X149250100Y-90703533D01*
X149250101Y-90703534D01*
X149371445Y-90896670D01*
X149513649Y-91075007D01*
X149521386Y-91082745D01*
X149521437Y-91082821D01*
X149674940Y-91236325D01*
X149674948Y-91236332D01*
X149674954Y-91236338D01*
X149853291Y-91378557D01*
X150046431Y-91499913D01*
X150165309Y-91557160D01*
X150251933Y-91598875D01*
X150251937Y-91598876D01*
X150251944Y-91598880D01*
X150251953Y-91598883D01*
X150251960Y-91598886D01*
X150442672Y-91665615D01*
X150467246Y-91674214D01*
X150689629Y-91724968D01*
X150916297Y-91750503D01*
X151030340Y-91750500D01*
X151030352Y-91750500D01*
X151092983Y-91750500D01*
X151188271Y-91769454D01*
X151269053Y-91823430D01*
X151307305Y-91872746D01*
X151331919Y-91914365D01*
X151448135Y-92030581D01*
X151589602Y-92114244D01*
X151747431Y-92160098D01*
X151784306Y-92163000D01*
X151784308Y-92163000D01*
X152000500Y-92163000D01*
X152095788Y-92181954D01*
X152176570Y-92235930D01*
X152230546Y-92316712D01*
X152249500Y-92412000D01*
X152249500Y-107194556D01*
X152249026Y-107205412D01*
X152235453Y-107360545D01*
X152227916Y-107403290D01*
X152191845Y-107537907D01*
X152177001Y-107578691D01*
X152118100Y-107705006D01*
X152096398Y-107742595D01*
X152016461Y-107856757D01*
X151988562Y-107890007D01*
X151890007Y-107988562D01*
X151856757Y-108016461D01*
X151742595Y-108096398D01*
X151705006Y-108118100D01*
X151578695Y-108176999D01*
X151537910Y-108191843D01*
X151492663Y-108203967D01*
X151395717Y-108210322D01*
X151386076Y-108208860D01*
X151370714Y-108206222D01*
X151370668Y-108206214D01*
X151370653Y-108206212D01*
X151363546Y-108205193D01*
X151356770Y-108204222D01*
X151342394Y-108202567D01*
X151342374Y-108202565D01*
X151328759Y-108201370D01*
X151273228Y-108198008D01*
X151239186Y-108195947D01*
X151231767Y-108195607D01*
X151227413Y-108195471D01*
X151227408Y-108195471D01*
X151227403Y-108195471D01*
X151216769Y-108195499D01*
X151202498Y-108194716D01*
X151200004Y-108194435D01*
X151188474Y-108194435D01*
X151179195Y-108194785D01*
X151179200Y-108194917D01*
X151028223Y-108200183D01*
X151017686Y-108200771D01*
X151006937Y-108201596D01*
X151006881Y-108201601D01*
X150996791Y-108202580D01*
X150996718Y-108202587D01*
X150996708Y-108202589D01*
X150996689Y-108202591D01*
X150996682Y-108202592D01*
X150882015Y-108216075D01*
X150874002Y-108217164D01*
X150867406Y-108218149D01*
X150787115Y-108231222D01*
X150781645Y-108231989D01*
X150729076Y-108238170D01*
X150670921Y-108238170D01*
X150618346Y-108231989D01*
X150612875Y-108231222D01*
X150532797Y-108218182D01*
X150526734Y-108217271D01*
X150518478Y-108216134D01*
X150403199Y-108202577D01*
X150392876Y-108201579D01*
X150392872Y-108201578D01*
X150392865Y-108201578D01*
X150389746Y-108201340D01*
X150382027Y-108200753D01*
X150371772Y-108200184D01*
X150371697Y-108200180D01*
X150250324Y-108195947D01*
X150224837Y-108195058D01*
X150219721Y-108194977D01*
X150219717Y-108194977D01*
X150219644Y-108194976D01*
X150214266Y-108195049D01*
X150201786Y-108194435D01*
X150199993Y-108194435D01*
X150183707Y-108196269D01*
X150175247Y-108196931D01*
X150159365Y-108197629D01*
X150159342Y-108197632D01*
X150157500Y-108198096D01*
X150141070Y-108201073D01*
X150020742Y-108214632D01*
X150020741Y-108214632D01*
X149931738Y-108245776D01*
X149835537Y-108259357D01*
X149741462Y-108235090D01*
X149663834Y-108176668D01*
X149614473Y-108092987D01*
X149600500Y-108010749D01*
X149600500Y-107905046D01*
X149600499Y-107905031D01*
X149585369Y-107770754D01*
X149585368Y-107770745D01*
X149525789Y-107600478D01*
X149525786Y-107600473D01*
X149525785Y-107600470D01*
X149429819Y-107447742D01*
X149429817Y-107447740D01*
X149429816Y-107447738D01*
X149302262Y-107320184D01*
X149302259Y-107320182D01*
X149302257Y-107320180D01*
X149149529Y-107224214D01*
X149149524Y-107224212D01*
X149149522Y-107224211D01*
X148979255Y-107164632D01*
X148979251Y-107164631D01*
X148979245Y-107164630D01*
X148844968Y-107149500D01*
X148844954Y-107149500D01*
X148728584Y-107149500D01*
X148681270Y-107144963D01*
X148678267Y-107144382D01*
X148678262Y-107144381D01*
X148678265Y-107144381D01*
X148498383Y-107135671D01*
X148486864Y-107134575D01*
X148320356Y-107110887D01*
X148309284Y-107108797D01*
X148139923Y-107068811D01*
X148129543Y-107065879D01*
X148067819Y-107045513D01*
X148046418Y-107038452D01*
X148037781Y-107035243D01*
X147806193Y-106939313D01*
X147806189Y-106939312D01*
X147760544Y-106925465D01*
X147751996Y-106922529D01*
X147741791Y-106918604D01*
X147741767Y-106918596D01*
X147675360Y-106898178D01*
X147668270Y-106896796D01*
X147655949Y-106893734D01*
X147494867Y-106844869D01*
X147171328Y-106780509D01*
X147162129Y-106778510D01*
X147162124Y-106778509D01*
X147162120Y-106778508D01*
X147092524Y-106768518D01*
X147042695Y-106761365D01*
X147035407Y-106760096D01*
X146992797Y-106751367D01*
X146949304Y-106742456D01*
X146854519Y-106722721D01*
X146845015Y-106720931D01*
X146834749Y-106719200D01*
X146828789Y-106718320D01*
X146824551Y-106717694D01*
X146824535Y-106717692D01*
X146824515Y-106717689D01*
X146708167Y-106702919D01*
X146708134Y-106702915D01*
X146696400Y-106701705D01*
X146696316Y-106701697D01*
X146684235Y-106700736D01*
X146672781Y-106700086D01*
X146568574Y-106696540D01*
X146525145Y-106695063D01*
X146524073Y-106695043D01*
X146520703Y-106694983D01*
X146514212Y-106695064D01*
X146501616Y-106694435D01*
X146499993Y-106694435D01*
X146483605Y-106696281D01*
X146475019Y-106696949D01*
X146459312Y-106697624D01*
X146459310Y-106697625D01*
X146457412Y-106698103D01*
X146440953Y-106701087D01*
X146402111Y-106705464D01*
X146320753Y-106714630D01*
X146320746Y-106714631D01*
X146320745Y-106714632D01*
X146150478Y-106774211D01*
X146150476Y-106774211D01*
X146150476Y-106774212D01*
X146150470Y-106774214D01*
X145997742Y-106870180D01*
X145870180Y-106997742D01*
X145774214Y-107150470D01*
X145774211Y-107150476D01*
X145774211Y-107150478D01*
X145714829Y-107320184D01*
X145714632Y-107320746D01*
X145714630Y-107320754D01*
X145694435Y-107499996D01*
X145694435Y-107500003D01*
X145714630Y-107679245D01*
X145714631Y-107679251D01*
X145714632Y-107679255D01*
X145774211Y-107849522D01*
X145774212Y-107849523D01*
X145774214Y-107849527D01*
X145870180Y-108002257D01*
X145870182Y-108002259D01*
X145870184Y-108002262D01*
X145997738Y-108129816D01*
X145997740Y-108129817D01*
X145997742Y-108129819D01*
X146150470Y-108225785D01*
X146150473Y-108225786D01*
X146150478Y-108225789D01*
X146320745Y-108285368D01*
X146320754Y-108285369D01*
X146499996Y-108305565D01*
X146500000Y-108305565D01*
X146508101Y-108305565D01*
X146531507Y-108304630D01*
X146531820Y-108304639D01*
X146531832Y-108304641D01*
X146660104Y-108299634D01*
X146670295Y-108299030D01*
X146680799Y-108298194D01*
X146690685Y-108297212D01*
X146795279Y-108284737D01*
X146853912Y-108276898D01*
X146864991Y-108275920D01*
X146897173Y-108274528D01*
X146911187Y-108274712D01*
X146974127Y-108279097D01*
X146992958Y-108280409D01*
X147008608Y-108282502D01*
X147019845Y-108284737D01*
X147028997Y-108286557D01*
X147118756Y-108323734D01*
X147171807Y-108371484D01*
X147190482Y-108393921D01*
X147196146Y-108401267D01*
X147276031Y-108513253D01*
X147280262Y-108519589D01*
X147366206Y-108657290D01*
X147369448Y-108662795D01*
X147404071Y-108725206D01*
X147418548Y-108751301D01*
X147435836Y-108789854D01*
X147468723Y-108883842D01*
X147469914Y-108887417D01*
X147471702Y-108893072D01*
X147472895Y-108896079D01*
X147474070Y-108899228D01*
X147474209Y-108899517D01*
X147474211Y-108899522D01*
X147474213Y-108899526D01*
X147475143Y-108901456D01*
X147479814Y-108909907D01*
X147514386Y-108981653D01*
X147517525Y-108988720D01*
X147559914Y-109092749D01*
X147562018Y-109098287D01*
X147608522Y-109230026D01*
X147609994Y-109234458D01*
X147659091Y-109392149D01*
X147660155Y-109395758D01*
X147690371Y-109504250D01*
X147699500Y-109571055D01*
X147699500Y-109582184D01*
X147680546Y-109677472D01*
X147666141Y-109706682D01*
X147622823Y-109781711D01*
X147622821Y-109781714D01*
X147622821Y-109781716D01*
X147611846Y-109815494D01*
X147564325Y-109961744D01*
X147544540Y-110150000D01*
X147564325Y-110338255D01*
X147577300Y-110378186D01*
X147622821Y-110518284D01*
X147622822Y-110518286D01*
X147622823Y-110518288D01*
X147622824Y-110518290D01*
X147666140Y-110593315D01*
X147697370Y-110685314D01*
X147699500Y-110717815D01*
X147699500Y-112034863D01*
X147691606Y-112097065D01*
X147675703Y-112158706D01*
X147674983Y-112161376D01*
X147642561Y-112276420D01*
X147641628Y-112279571D01*
X147610479Y-112379881D01*
X147609244Y-112383646D01*
X147579971Y-112468304D01*
X147578298Y-112472853D01*
X147547431Y-112552005D01*
X147547430Y-112552004D01*
X147547195Y-112552606D01*
X147547190Y-112552623D01*
X147539711Y-112584890D01*
X147536606Y-112595944D01*
X147509651Y-112677289D01*
X147499500Y-112776652D01*
X147499500Y-116923342D01*
X147499501Y-116923347D01*
X147509641Y-117022612D01*
X147509652Y-117022713D01*
X147562995Y-117183693D01*
X147562996Y-117183695D01*
X147562997Y-117183697D01*
X147652032Y-117328044D01*
X147771956Y-117447968D01*
X147916303Y-117537003D01*
X148077292Y-117590349D01*
X148176655Y-117600500D01*
X148723344Y-117600499D01*
X148822708Y-117590349D01*
X148983697Y-117537003D01*
X149128044Y-117447968D01*
X149247968Y-117328044D01*
X149337003Y-117183697D01*
X149390349Y-117022708D01*
X149400500Y-116923345D01*
X149400499Y-115100000D01*
X150100001Y-115100000D01*
X150100001Y-116923320D01*
X150110144Y-117022609D01*
X150110145Y-117022612D01*
X150163451Y-117183480D01*
X150252425Y-117327729D01*
X150372270Y-117447574D01*
X150516516Y-117536546D01*
X150677396Y-117589855D01*
X150776687Y-117599999D01*
X150776688Y-117599999D01*
X150800000Y-117599998D01*
X151300000Y-117599998D01*
X151300001Y-117599999D01*
X151323304Y-117599999D01*
X151323320Y-117599998D01*
X151422609Y-117589855D01*
X151422612Y-117589854D01*
X151583480Y-117536548D01*
X151727729Y-117447574D01*
X151847574Y-117327729D01*
X151936546Y-117183483D01*
X151989855Y-117022603D01*
X151999999Y-116923317D01*
X152000000Y-116923307D01*
X152000000Y-115100001D01*
X151999999Y-115100000D01*
X151300001Y-115100000D01*
X151300000Y-115100001D01*
X151300000Y-117599998D01*
X150800000Y-117599998D01*
X150800000Y-115100001D01*
X150799999Y-115100000D01*
X150100001Y-115100000D01*
X149400499Y-115100000D01*
X149400499Y-114599998D01*
X150100000Y-114599998D01*
X150100001Y-114600000D01*
X150799999Y-114600000D01*
X150800000Y-114599998D01*
X151300000Y-114599998D01*
X151300001Y-114600000D01*
X151999998Y-114600000D01*
X151999999Y-114599998D01*
X151999999Y-114350000D01*
X163144592Y-114350000D01*
X163164202Y-114636689D01*
X163164203Y-114636692D01*
X163187164Y-114747185D01*
X163222666Y-114918032D01*
X163284042Y-115090728D01*
X163318897Y-115188800D01*
X163318898Y-115188802D01*
X163432233Y-115407527D01*
X163451099Y-115443936D01*
X163616811Y-115678698D01*
X163812947Y-115888708D01*
X163911213Y-115968653D01*
X164035853Y-116070055D01*
X164279975Y-116218510D01*
X164281375Y-116219361D01*
X164544942Y-116333844D01*
X164821642Y-116411371D01*
X164821646Y-116411371D01*
X164821648Y-116411372D01*
X164901429Y-116422337D01*
X165106322Y-116450500D01*
X165106330Y-116450500D01*
X165393670Y-116450500D01*
X165393678Y-116450500D01*
X165678358Y-116411371D01*
X165955058Y-116333844D01*
X166218625Y-116219361D01*
X166464147Y-116070055D01*
X166687053Y-115888708D01*
X166883189Y-115678698D01*
X167048901Y-115443936D01*
X167181104Y-115188797D01*
X167277334Y-114918032D01*
X167335798Y-114636686D01*
X167355408Y-114350000D01*
X167335798Y-114063314D01*
X167277334Y-113781968D01*
X167181104Y-113511203D01*
X167048901Y-113256064D01*
X166883189Y-113021302D01*
X166687053Y-112811292D01*
X166492236Y-112652797D01*
X166464146Y-112629944D01*
X166218626Y-112480639D01*
X165955057Y-112366155D01*
X165678351Y-112288627D01*
X165393681Y-112249500D01*
X165393678Y-112249500D01*
X165106322Y-112249500D01*
X165106318Y-112249500D01*
X164821648Y-112288627D01*
X164544942Y-112366155D01*
X164281373Y-112480639D01*
X164035853Y-112629944D01*
X163812949Y-112811290D01*
X163616810Y-113021303D01*
X163616809Y-113021304D01*
X163451098Y-113256065D01*
X163318898Y-113511197D01*
X163318897Y-113511199D01*
X163222666Y-113781968D01*
X163164203Y-114063307D01*
X163164202Y-114063310D01*
X163144592Y-114350000D01*
X151999999Y-114350000D01*
X151999999Y-112776696D01*
X151999998Y-112776679D01*
X151989855Y-112677390D01*
X151989854Y-112677387D01*
X151936548Y-112516519D01*
X151847574Y-112372270D01*
X151727729Y-112252425D01*
X151583483Y-112163453D01*
X151422603Y-112110144D01*
X151323317Y-112100000D01*
X151300001Y-112100000D01*
X151300000Y-112100001D01*
X151300000Y-114599998D01*
X150800000Y-114599998D01*
X150800000Y-112100000D01*
X150799999Y-112099999D01*
X150776688Y-112100000D01*
X150677389Y-112110144D01*
X150677387Y-112110145D01*
X150516519Y-112163451D01*
X150372270Y-112252425D01*
X150252425Y-112372270D01*
X150163453Y-112516516D01*
X150110144Y-112677396D01*
X150100000Y-112776682D01*
X150100000Y-114599998D01*
X149400499Y-114599998D01*
X149400499Y-112776656D01*
X149390349Y-112677292D01*
X149374660Y-112629944D01*
X149363214Y-112595402D01*
X149360147Y-112584513D01*
X149352567Y-112552004D01*
X149352566Y-112551999D01*
X149343695Y-112529255D01*
X149321698Y-112472853D01*
X149320064Y-112468408D01*
X149290722Y-112383554D01*
X149289502Y-112379832D01*
X149258371Y-112279580D01*
X149257439Y-112276431D01*
X149257436Y-112276420D01*
X149225000Y-112161329D01*
X149224327Y-112158835D01*
X149211767Y-112110144D01*
X149208392Y-112097060D01*
X149200500Y-112034866D01*
X149200500Y-110717815D01*
X149219454Y-110622527D01*
X149233860Y-110593315D01*
X149242994Y-110577493D01*
X149277179Y-110518284D01*
X149335674Y-110338256D01*
X149355460Y-110150000D01*
X149335674Y-109961744D01*
X149319502Y-109911974D01*
X149308083Y-109815494D01*
X149334455Y-109721987D01*
X149394602Y-109645689D01*
X149479369Y-109598216D01*
X149575851Y-109586796D01*
X149669358Y-109613168D01*
X149688792Y-109624195D01*
X149850471Y-109725785D01*
X149850472Y-109725785D01*
X149850478Y-109725789D01*
X150020745Y-109785368D01*
X150020754Y-109785369D01*
X150199999Y-109805565D01*
X150200000Y-109805565D01*
X150211624Y-109805565D01*
X150220798Y-109805217D01*
X150220794Y-109805082D01*
X150229685Y-109804771D01*
X150229687Y-109804772D01*
X150371792Y-109799816D01*
X150382409Y-109799221D01*
X150393244Y-109798386D01*
X150403337Y-109797404D01*
X150516229Y-109784130D01*
X150521775Y-109783415D01*
X150527583Y-109782602D01*
X150533139Y-109781760D01*
X150533182Y-109781752D01*
X150533215Y-109781748D01*
X150583218Y-109773605D01*
X150612909Y-109768771D01*
X150618350Y-109768009D01*
X150670926Y-109761827D01*
X150729069Y-109761827D01*
X150781654Y-109768010D01*
X150787061Y-109768767D01*
X150866859Y-109781761D01*
X150866869Y-109781762D01*
X150866915Y-109781770D01*
X150872340Y-109782591D01*
X150872357Y-109782593D01*
X150872414Y-109782602D01*
X150878222Y-109783415D01*
X150883768Y-109784130D01*
X150996661Y-109797404D01*
X151006754Y-109798386D01*
X151017589Y-109799221D01*
X151028206Y-109799816D01*
X151174327Y-109804912D01*
X151174356Y-109804912D01*
X151174369Y-109804913D01*
X151177161Y-109804965D01*
X151178713Y-109804995D01*
X151178764Y-109804992D01*
X151185631Y-109804911D01*
X151198672Y-109805565D01*
X151200000Y-109805565D01*
X151200001Y-109805565D01*
X151203427Y-109805178D01*
X151216645Y-109803689D01*
X151225291Y-109803019D01*
X151240638Y-109802369D01*
X151242457Y-109801911D01*
X151258916Y-109798926D01*
X151379255Y-109785368D01*
X151456043Y-109758497D01*
X151472160Y-109754046D01*
X151492065Y-109749965D01*
X151496253Y-109749107D01*
X151512915Y-109743117D01*
X151530822Y-109736681D01*
X151583539Y-109724005D01*
X151606141Y-109721122D01*
X151608188Y-109720837D01*
X151613894Y-109720045D01*
X151617054Y-109719647D01*
X151627898Y-109718426D01*
X151629851Y-109717980D01*
X151639048Y-109716240D01*
X151682156Y-109709764D01*
X151690990Y-109708438D01*
X151690998Y-109708436D01*
X151691002Y-109708436D01*
X151702571Y-109706422D01*
X151714539Y-109704051D01*
X151725840Y-109701542D01*
X151819416Y-109678505D01*
X151825004Y-109677062D01*
X151828289Y-109676173D01*
X151853104Y-109667715D01*
X151865557Y-109664181D01*
X151907182Y-109654682D01*
X152177572Y-109560068D01*
X152435669Y-109435775D01*
X152678227Y-109283366D01*
X152902195Y-109104757D01*
X153104757Y-108902195D01*
X153283366Y-108678227D01*
X153435775Y-108435669D01*
X153560068Y-108177572D01*
X153654682Y-107907182D01*
X153662118Y-107874606D01*
X153706705Y-107679253D01*
X153718426Y-107627898D01*
X153746105Y-107382244D01*
X153750499Y-107343245D01*
X153750500Y-107343232D01*
X153750500Y-89728386D01*
X153753034Y-89692953D01*
X153755500Y-89675800D01*
X153755500Y-88724869D01*
X153755452Y-88721244D01*
X153750833Y-88658161D01*
X153750500Y-88649066D01*
X153750500Y-88191104D01*
X153750537Y-88188077D01*
X153751491Y-88148844D01*
X153751491Y-88148840D01*
X153749334Y-88130732D01*
X153748843Y-88125763D01*
X153747598Y-88109931D01*
X153747597Y-88109926D01*
X153746168Y-88102102D01*
X153745015Y-88094448D01*
X153743274Y-88079831D01*
X153742052Y-88069565D01*
X153732309Y-87984799D01*
X153722512Y-87896613D01*
X153712691Y-87805282D01*
X153703873Y-87720618D01*
X153701574Y-87703219D01*
X153700500Y-87686892D01*
X153700500Y-86182802D01*
X153703313Y-86150775D01*
X153702950Y-86150738D01*
X153712675Y-86057364D01*
X153712679Y-86057330D01*
X153722512Y-85965885D01*
X153732309Y-85877699D01*
X153742055Y-85792904D01*
X153745018Y-85768006D01*
X153746169Y-85760381D01*
X153747594Y-85752580D01*
X153747598Y-85752569D01*
X153748846Y-85736691D01*
X153749335Y-85731758D01*
X153751491Y-85713656D01*
X153751491Y-85713654D01*
X153753402Y-85694509D01*
X153750739Y-85651881D01*
X153750500Y-85644186D01*
X153750500Y-84559306D01*
X153747598Y-84522431D01*
X153701744Y-84364602D01*
X153618081Y-84223135D01*
X153501865Y-84106919D01*
X153360398Y-84023256D01*
X153202569Y-83977402D01*
X153202566Y-83977401D01*
X153202563Y-83977401D01*
X153165704Y-83974500D01*
X153165694Y-83974500D01*
X152984067Y-83974500D01*
X152888779Y-83955546D01*
X152807997Y-83901570D01*
X152754021Y-83820788D01*
X152735067Y-83725500D01*
X152749853Y-83651161D01*
X152747373Y-83650441D01*
X152751742Y-83635400D01*
X152751744Y-83635398D01*
X152797598Y-83477569D01*
X152800500Y-83440694D01*
X152800500Y-82328604D01*
X152800537Y-82325578D01*
X152801491Y-82286341D01*
X152801171Y-82283656D01*
X152800907Y-82281434D01*
X152799332Y-82268201D01*
X152798845Y-82263286D01*
X152797598Y-82247431D01*
X152797595Y-82247421D01*
X152796170Y-82239619D01*
X152795015Y-82231955D01*
X152792052Y-82207066D01*
X152782309Y-82122300D01*
X152772512Y-82034114D01*
X152762679Y-81942669D01*
X152753871Y-81858112D01*
X152751574Y-81840729D01*
X152750500Y-81824401D01*
X152750500Y-81406833D01*
X152754420Y-81362825D01*
X152755586Y-81356327D01*
X152755587Y-81356323D01*
X152759489Y-81244394D01*
X152760264Y-81234216D01*
X152768014Y-81168304D01*
X152768766Y-81162934D01*
X152781759Y-81083134D01*
X152782600Y-81077584D01*
X152783413Y-81071780D01*
X152784127Y-81066237D01*
X152797404Y-80953341D01*
X152798386Y-80943245D01*
X152799221Y-80932408D01*
X152799816Y-80921791D01*
X152804912Y-80775672D01*
X152804995Y-80771286D01*
X152804992Y-80771235D01*
X152804911Y-80764368D01*
X152805565Y-80751341D01*
X152805565Y-80738388D01*
X152805217Y-80729200D01*
X152805082Y-80729205D01*
X152804283Y-80706291D01*
X152799816Y-80578206D01*
X152799221Y-80567589D01*
X152798386Y-80556754D01*
X152797404Y-80546661D01*
X152784130Y-80433768D01*
X152783415Y-80428222D01*
X152782601Y-80422413D01*
X152781760Y-80416854D01*
X152768764Y-80337048D01*
X152768011Y-80331676D01*
X152760263Y-80265785D01*
X152759489Y-80255616D01*
X152755587Y-80143676D01*
X152751977Y-80098482D01*
X152750895Y-80084935D01*
X152750500Y-80075018D01*
X152750500Y-79956833D01*
X152754420Y-79912825D01*
X152755586Y-79906327D01*
X152755587Y-79906323D01*
X152759489Y-79794394D01*
X152760264Y-79784216D01*
X152768014Y-79718304D01*
X152768766Y-79712934D01*
X152781759Y-79633134D01*
X152782600Y-79627584D01*
X152783413Y-79621780D01*
X152784127Y-79616237D01*
X152797404Y-79503341D01*
X152798386Y-79493245D01*
X152799221Y-79482408D01*
X152799816Y-79471791D01*
X152804912Y-79325672D01*
X152804995Y-79321286D01*
X152804992Y-79321235D01*
X152804911Y-79314370D01*
X152805565Y-79301343D01*
X152805565Y-79299999D01*
X152803690Y-79283366D01*
X152803019Y-79274707D01*
X152802369Y-79259361D01*
X152801910Y-79257539D01*
X152798925Y-79241072D01*
X152795166Y-79207702D01*
X152803334Y-79110892D01*
X152847929Y-79024576D01*
X152922161Y-78961896D01*
X153014729Y-78932395D01*
X153042601Y-78930830D01*
X157994531Y-78930830D01*
X157994887Y-78930900D01*
X158097739Y-78930899D01*
X158097739Y-78930900D01*
X158268211Y-78930898D01*
X158607288Y-78895255D01*
X158940782Y-78824365D01*
X159265038Y-78719003D01*
X159265049Y-78718998D01*
X159265052Y-78718997D01*
X159311382Y-78698368D01*
X159576505Y-78580324D01*
X159871770Y-78409848D01*
X160147597Y-78209441D01*
X160400966Y-77981301D01*
X160629099Y-77727927D01*
X160829497Y-77452093D01*
X160999965Y-77156824D01*
X161138635Y-76845353D01*
X161243988Y-76521094D01*
X161314870Y-76187598D01*
X161350503Y-75848520D01*
X161350500Y-75678048D01*
X161350500Y-75639198D01*
X161350500Y-60650000D01*
X163144592Y-60650000D01*
X163164202Y-60936689D01*
X163164203Y-60936692D01*
X163166814Y-60949258D01*
X163222666Y-61218032D01*
X163270748Y-61353321D01*
X163318897Y-61488800D01*
X163318898Y-61488802D01*
X163416843Y-61677826D01*
X163451099Y-61743936D01*
X163616811Y-61978698D01*
X163812947Y-62188708D01*
X164035853Y-62370055D01*
X164281375Y-62519361D01*
X164544942Y-62633844D01*
X164821642Y-62711371D01*
X164821646Y-62711371D01*
X164821648Y-62711372D01*
X164901429Y-62722337D01*
X165106322Y-62750500D01*
X165106330Y-62750500D01*
X165393670Y-62750500D01*
X165393678Y-62750500D01*
X165678358Y-62711371D01*
X165955058Y-62633844D01*
X166218625Y-62519361D01*
X166464147Y-62370055D01*
X166687053Y-62188708D01*
X166883189Y-61978698D01*
X167048901Y-61743936D01*
X167181104Y-61488797D01*
X167277334Y-61218032D01*
X167335798Y-60936686D01*
X167355408Y-60650000D01*
X167335798Y-60363314D01*
X167277334Y-60081968D01*
X167181104Y-59811203D01*
X167048901Y-59556064D01*
X166883189Y-59321302D01*
X166687053Y-59111292D01*
X166466447Y-58931816D01*
X166464146Y-58929944D01*
X166218626Y-58780639D01*
X165955057Y-58666155D01*
X165678351Y-58588627D01*
X165393681Y-58549500D01*
X165393678Y-58549500D01*
X165106322Y-58549500D01*
X165106318Y-58549500D01*
X164821648Y-58588627D01*
X164544942Y-58666155D01*
X164281373Y-58780639D01*
X164035853Y-58929944D01*
X163812949Y-59111290D01*
X163616810Y-59321303D01*
X163616809Y-59321304D01*
X163451098Y-59556065D01*
X163318898Y-59811197D01*
X163318897Y-59811199D01*
X163222666Y-60081968D01*
X163164203Y-60363307D01*
X163164202Y-60363310D01*
X163144592Y-60650000D01*
X161350500Y-60650000D01*
X161350500Y-57156291D01*
X161350500Y-57156290D01*
X161350500Y-57056767D01*
X161348549Y-57039453D01*
X161328565Y-56862092D01*
X161318426Y-56772102D01*
X161299461Y-56689008D01*
X161254685Y-56492828D01*
X161254684Y-56492827D01*
X161254682Y-56492818D01*
X161160068Y-56222428D01*
X161035775Y-55964331D01*
X160883366Y-55721773D01*
X160704757Y-55497805D01*
X160502195Y-55295243D01*
X160278227Y-55116634D01*
X160035669Y-54964225D01*
X159777572Y-54839932D01*
X159507182Y-54745318D01*
X159507177Y-54745317D01*
X159507172Y-54745315D01*
X159507171Y-54745314D01*
X159227901Y-54681574D01*
X158943245Y-54649500D01*
X158943233Y-54649500D01*
X158887721Y-54649500D01*
X158499647Y-54649500D01*
X158404359Y-54630546D01*
X158323577Y-54576570D01*
X158269601Y-54495788D01*
X158250647Y-54400500D01*
X158250647Y-52199989D01*
X158250646Y-52199988D01*
X158244221Y-52119649D01*
X158244220Y-52119642D01*
X158244220Y-52119639D01*
X158201358Y-51982248D01*
X158167733Y-51931810D01*
X158121526Y-51862498D01*
X158121521Y-51862493D01*
X158011188Y-51770089D01*
X157879283Y-51712509D01*
X157736503Y-51694423D01*
X157736500Y-51694424D01*
X157594416Y-51717295D01*
X157594409Y-51717298D01*
X157464519Y-51779275D01*
X157133120Y-52000208D01*
X157043322Y-52037293D01*
X156946167Y-52037192D01*
X156856880Y-52000208D01*
X156829937Y-51982246D01*
X156525482Y-51779276D01*
X156525475Y-51779272D01*
X156525475Y-51779271D01*
X156455058Y-51740049D01*
X156455051Y-51740046D01*
X156316961Y-51699500D01*
X156173039Y-51699500D01*
X156034950Y-51740045D01*
X156034945Y-51740047D01*
X155913871Y-51817857D01*
X155819622Y-51926627D01*
X155759836Y-52057539D01*
X155759835Y-52057542D01*
X155759835Y-52057543D01*
X155741538Y-52184808D01*
X155739353Y-52200003D01*
X155739353Y-52400500D01*
X155720399Y-52495788D01*
X155666423Y-52576570D01*
X155585641Y-52630546D01*
X155490353Y-52649500D01*
X155084887Y-52649500D01*
X155075126Y-52649116D01*
X154993399Y-52642684D01*
X154891557Y-52634669D01*
X154852966Y-52628557D01*
X154688219Y-52589005D01*
X154651058Y-52576931D01*
X154494520Y-52512090D01*
X154459707Y-52494351D01*
X154315252Y-52405829D01*
X154283641Y-52382863D01*
X154159475Y-52276815D01*
X154099327Y-52200517D01*
X154072956Y-52107010D01*
X154084375Y-52010529D01*
X154095806Y-51981626D01*
X154178809Y-51804912D01*
X154191338Y-51772679D01*
X154197335Y-51753452D01*
X154202590Y-51736600D01*
X154202597Y-51736578D01*
X154210628Y-51702860D01*
X154219825Y-51647708D01*
X154222366Y-51635990D01*
X154248070Y-51540068D01*
X154258996Y-51415168D01*
X154259843Y-51407931D01*
X154260030Y-51406651D01*
X154260055Y-51406505D01*
X154262631Y-51385852D01*
X154263652Y-51373568D01*
X154263604Y-51369484D01*
X154264068Y-51357197D01*
X154267323Y-51320000D01*
X154248070Y-51099932D01*
X154190894Y-50886550D01*
X154176055Y-50854729D01*
X154152964Y-50760364D01*
X154167743Y-50664339D01*
X154218143Y-50581280D01*
X154296493Y-50523830D01*
X154390863Y-50500737D01*
X154401727Y-50500500D01*
X163434108Y-50500500D01*
X163480401Y-50500500D01*
X163519338Y-50503563D01*
X163523925Y-50504289D01*
X163536692Y-50506311D01*
X163627841Y-50539931D01*
X163699188Y-50605876D01*
X163739868Y-50694104D01*
X163743686Y-50713294D01*
X163746434Y-50730644D01*
X163749500Y-50769597D01*
X163749500Y-50868087D01*
X163749501Y-50868103D01*
X163786220Y-51099934D01*
X163786447Y-51101368D01*
X163817914Y-51198213D01*
X163857484Y-51319999D01*
X163859432Y-51325992D01*
X163901182Y-51407931D01*
X163966659Y-51536437D01*
X164105478Y-51727504D01*
X164105480Y-51727506D01*
X164105483Y-51727510D01*
X164272490Y-51894517D01*
X164272493Y-51894519D01*
X164272495Y-51894521D01*
X164463562Y-52033340D01*
X164463564Y-52033341D01*
X164463567Y-52033343D01*
X164674008Y-52140568D01*
X164898632Y-52213553D01*
X165131908Y-52250500D01*
X165131912Y-52250500D01*
X165368088Y-52250500D01*
X165368092Y-52250500D01*
X165601368Y-52213553D01*
X165825992Y-52140568D01*
X166036433Y-52033343D01*
X166227510Y-51894517D01*
X166394517Y-51727510D01*
X166533343Y-51536433D01*
X166640568Y-51325992D01*
X166713553Y-51101368D01*
X166750500Y-50868092D01*
X166750500Y-50769596D01*
X166753563Y-50730658D01*
X166754930Y-50722026D01*
X166756312Y-50713302D01*
X166789933Y-50622156D01*
X166855877Y-50550810D01*
X166944106Y-50510130D01*
X166963302Y-50506312D01*
X166969747Y-50505291D01*
X166980665Y-50503563D01*
X167019599Y-50500500D01*
X167065892Y-50500500D01*
X176934108Y-50500500D01*
X176996233Y-50500500D01*
X177003751Y-50500727D01*
X177159204Y-50510130D01*
X177293761Y-50518269D01*
X177308676Y-50520079D01*
X177590765Y-50571774D01*
X177605352Y-50575369D01*
X177879149Y-50660688D01*
X177893197Y-50666015D01*
X178154704Y-50783710D01*
X178168018Y-50790697D01*
X178209611Y-50815841D01*
X178413427Y-50939053D01*
X178425811Y-50947601D01*
X178651538Y-51124446D01*
X178662802Y-51134425D01*
X178865574Y-51337197D01*
X178875553Y-51348461D01*
X179052398Y-51574188D01*
X179060946Y-51586572D01*
X179171887Y-51770089D01*
X179207499Y-51828999D01*
X179209298Y-51831974D01*
X179216291Y-51845299D01*
X179333981Y-52106795D01*
X179339314Y-52120859D01*
X179424626Y-52394631D01*
X179428227Y-52409242D01*
X179433012Y-52435353D01*
X179479918Y-52691309D01*
X179481730Y-52706238D01*
X179499273Y-52996248D01*
X179499500Y-53003767D01*
X179499500Y-53635774D01*
X179480546Y-53731062D01*
X179426570Y-53811844D01*
X179345788Y-53865820D01*
X179250500Y-53884774D01*
X179155212Y-53865820D01*
X179088788Y-53825115D01*
X178943661Y-53701165D01*
X178943652Y-53701158D01*
X178728864Y-53569537D01*
X178728858Y-53569533D01*
X178496116Y-53473129D01*
X178496108Y-53473126D01*
X178251145Y-53414316D01*
X178000005Y-53394551D01*
X177999995Y-53394551D01*
X177748854Y-53414316D01*
X177503891Y-53473126D01*
X177503883Y-53473129D01*
X177271141Y-53569533D01*
X177271135Y-53569537D01*
X177056347Y-53701158D01*
X177056345Y-53701160D01*
X176864779Y-53864773D01*
X176864773Y-53864779D01*
X176701160Y-54056345D01*
X176701158Y-54056347D01*
X176569537Y-54271135D01*
X176569533Y-54271141D01*
X176473129Y-54503883D01*
X176473126Y-54503891D01*
X176414316Y-54748854D01*
X176394551Y-54999994D01*
X176394551Y-55000005D01*
X176414316Y-55251145D01*
X176473126Y-55496108D01*
X176473129Y-55496116D01*
X176569533Y-55728858D01*
X176569537Y-55728864D01*
X176701158Y-55943652D01*
X176701160Y-55943654D01*
X176701163Y-55943657D01*
X176701164Y-55943659D01*
X176864776Y-56135224D01*
X177056341Y-56298836D01*
X177056345Y-56298839D01*
X177056347Y-56298841D01*
X177220609Y-56399500D01*
X177271141Y-56430466D01*
X177503889Y-56526873D01*
X177748852Y-56585683D01*
X177820608Y-56591330D01*
X177999995Y-56605449D01*
X178000000Y-56605449D01*
X178000005Y-56605449D01*
X178156967Y-56593095D01*
X178251148Y-56585683D01*
X178496111Y-56526873D01*
X178728859Y-56430466D01*
X178850974Y-56355633D01*
X178943652Y-56298841D01*
X178943654Y-56298839D01*
X178943653Y-56298839D01*
X178943659Y-56298836D01*
X179088790Y-56174882D01*
X179173554Y-56127412D01*
X179270036Y-56115993D01*
X179363543Y-56142364D01*
X179439841Y-56202512D01*
X179487313Y-56287279D01*
X179499500Y-56364225D01*
X179499500Y-119135774D01*
X179480546Y-119231062D01*
X179426570Y-119311844D01*
X179345788Y-119365820D01*
X179250500Y-119384774D01*
X179155212Y-119365820D01*
X179088788Y-119325115D01*
X178943661Y-119201165D01*
X178943652Y-119201158D01*
X178728864Y-119069537D01*
X178728858Y-119069533D01*
X178496116Y-118973129D01*
X178496108Y-118973126D01*
X178251145Y-118914316D01*
X178000005Y-118894551D01*
X177999995Y-118894551D01*
X177748854Y-118914316D01*
X177503891Y-118973126D01*
X177503883Y-118973129D01*
X177271141Y-119069533D01*
X177271135Y-119069537D01*
X177056347Y-119201158D01*
X177056345Y-119201160D01*
X176864779Y-119364773D01*
X176864773Y-119364779D01*
X176701160Y-119556345D01*
X176701158Y-119556347D01*
X176569537Y-119771135D01*
X176569533Y-119771141D01*
X176473129Y-120003883D01*
X176473126Y-120003891D01*
X176414316Y-120248854D01*
X176394551Y-120499994D01*
X176394551Y-120500005D01*
X176414316Y-120751145D01*
X176473126Y-120996108D01*
X176473129Y-120996116D01*
X176569533Y-121228858D01*
X176569537Y-121228864D01*
X176701158Y-121443652D01*
X176701160Y-121443654D01*
X176701163Y-121443657D01*
X176701164Y-121443659D01*
X176864776Y-121635224D01*
X177056341Y-121798836D01*
X177056345Y-121798839D01*
X177056347Y-121798841D01*
X177200258Y-121887029D01*
X177271141Y-121930466D01*
X177503889Y-122026873D01*
X177748852Y-122085683D01*
X177820608Y-122091330D01*
X177999995Y-122105449D01*
X178000000Y-122105449D01*
X178000005Y-122105449D01*
X178156967Y-122093095D01*
X178251148Y-122085683D01*
X178496111Y-122026873D01*
X178728859Y-121930466D01*
X178883852Y-121835486D01*
X178943652Y-121798841D01*
X178943654Y-121798839D01*
X178943653Y-121798839D01*
X178943659Y-121798836D01*
X179088790Y-121674882D01*
X179173554Y-121627412D01*
X179270036Y-121615993D01*
X179363543Y-121642364D01*
X179439841Y-121702512D01*
X179487313Y-121787279D01*
X179499500Y-121864225D01*
X179499500Y-121996232D01*
X179499273Y-122003751D01*
X179481730Y-122293761D01*
X179479917Y-122308699D01*
X179428227Y-122590757D01*
X179424625Y-122605368D01*
X179382861Y-122739398D01*
X179339317Y-122879134D01*
X179333981Y-122893204D01*
X179216291Y-123154700D01*
X179209298Y-123168025D01*
X179060946Y-123413427D01*
X179052398Y-123425811D01*
X178875553Y-123651538D01*
X178865574Y-123662802D01*
X178662802Y-123865574D01*
X178651538Y-123875553D01*
X178425811Y-124052398D01*
X178413427Y-124060946D01*
X178168025Y-124209298D01*
X178154700Y-124216291D01*
X177893204Y-124333981D01*
X177879135Y-124339316D01*
X177755468Y-124377853D01*
X177605368Y-124424626D01*
X177590757Y-124428227D01*
X177461853Y-124451850D01*
X177308692Y-124479917D01*
X177293761Y-124481730D01*
X177003752Y-124499273D01*
X176996233Y-124499500D01*
X167019599Y-124499500D01*
X166980651Y-124496435D01*
X166963299Y-124493687D01*
X166872148Y-124460061D01*
X166800804Y-124394114D01*
X166760128Y-124305884D01*
X166756313Y-124286702D01*
X166753563Y-124269338D01*
X166750500Y-124230401D01*
X166750500Y-124134583D01*
X166750499Y-124134582D01*
X166750500Y-124131908D01*
X166713553Y-123898632D01*
X166640568Y-123674008D01*
X166533343Y-123463567D01*
X166533341Y-123463564D01*
X166533340Y-123463562D01*
X166394521Y-123272495D01*
X166394519Y-123272493D01*
X166394517Y-123272490D01*
X166227510Y-123105483D01*
X166227506Y-123105480D01*
X166227504Y-123105478D01*
X166036437Y-122966659D01*
X166022747Y-122959683D01*
X165825992Y-122859432D01*
X165825989Y-122859431D01*
X165825987Y-122859430D01*
X165701079Y-122818845D01*
X165601368Y-122786447D01*
X165601366Y-122786446D01*
X165601364Y-122786446D01*
X165368103Y-122749501D01*
X165368094Y-122749500D01*
X165368092Y-122749500D01*
X165131908Y-122749500D01*
X165131905Y-122749500D01*
X165131896Y-122749501D01*
X164898635Y-122786446D01*
X164674012Y-122859430D01*
X164463562Y-122966659D01*
X164272495Y-123105478D01*
X164105478Y-123272495D01*
X163966659Y-123463562D01*
X163859430Y-123674012D01*
X163786446Y-123898635D01*
X163749501Y-124131896D01*
X163749500Y-124131912D01*
X163749500Y-124230401D01*
X163746435Y-124269351D01*
X163743687Y-124286702D01*
X163710060Y-124377853D01*
X163644112Y-124449196D01*
X163555882Y-124489872D01*
X163536702Y-124493687D01*
X163519351Y-124496435D01*
X163480401Y-124499500D01*
X128003767Y-124499500D01*
X127996248Y-124499273D01*
X127706238Y-124481730D01*
X127691309Y-124479918D01*
X127505215Y-124445815D01*
X127409242Y-124428227D01*
X127394635Y-124424627D01*
X127120859Y-124339314D01*
X127106795Y-124333981D01*
X126845299Y-124216291D01*
X126831974Y-124209298D01*
X126586572Y-124060946D01*
X126574188Y-124052398D01*
X126348461Y-123875553D01*
X126337197Y-123865574D01*
X126134425Y-123662802D01*
X126124446Y-123651538D01*
X125947601Y-123425811D01*
X125939053Y-123413427D01*
X125802647Y-123187786D01*
X125790697Y-123168018D01*
X125783708Y-123154700D01*
X125781818Y-123150500D01*
X125756825Y-123094968D01*
X129999500Y-123094968D01*
X130014630Y-123229245D01*
X130014631Y-123229251D01*
X130014632Y-123229255D01*
X130074211Y-123399522D01*
X130074212Y-123399523D01*
X130074214Y-123399529D01*
X130170180Y-123552257D01*
X130170182Y-123552259D01*
X130170184Y-123552262D01*
X130297738Y-123679816D01*
X130297740Y-123679817D01*
X130297742Y-123679819D01*
X130450470Y-123775785D01*
X130450473Y-123775786D01*
X130450478Y-123775789D01*
X130620745Y-123835368D01*
X130620754Y-123835369D01*
X130755031Y-123850499D01*
X130755046Y-123850500D01*
X131444954Y-123850500D01*
X131444968Y-123850499D01*
X131555079Y-123838091D01*
X131579255Y-123835368D01*
X131749522Y-123775789D01*
X131749527Y-123775785D01*
X131749529Y-123775785D01*
X131902257Y-123679819D01*
X131902256Y-123679819D01*
X131902262Y-123679816D01*
X132029816Y-123552262D01*
X132069348Y-123489348D01*
X132091507Y-123454082D01*
X132158252Y-123383483D01*
X132246933Y-123343801D01*
X132344050Y-123341076D01*
X132434817Y-123375724D01*
X132478406Y-123410484D01*
X132497738Y-123429816D01*
X132497740Y-123429817D01*
X132497742Y-123429819D01*
X132650470Y-123525785D01*
X132650473Y-123525786D01*
X132650478Y-123525789D01*
X132820745Y-123585368D01*
X132820754Y-123585369D01*
X132955031Y-123600499D01*
X132955046Y-123600500D01*
X133644954Y-123600500D01*
X133644968Y-123600499D01*
X133755079Y-123588091D01*
X133779255Y-123585368D01*
X133949522Y-123525789D01*
X133949527Y-123525785D01*
X133949529Y-123525785D01*
X134102260Y-123429817D01*
X134102259Y-123429817D01*
X134102262Y-123429816D01*
X134212727Y-123319350D01*
X134293505Y-123265376D01*
X134388793Y-123246422D01*
X134484081Y-123265376D01*
X134556544Y-123311409D01*
X134633957Y-123381980D01*
X134662282Y-123399518D01*
X134807363Y-123489348D01*
X134997544Y-123563024D01*
X135117075Y-123585368D01*
X135198022Y-123600500D01*
X135198024Y-123600500D01*
X135401977Y-123600500D01*
X135435389Y-123594254D01*
X135602456Y-123563024D01*
X135792637Y-123489348D01*
X135966041Y-123381981D01*
X136043455Y-123311409D01*
X136125272Y-123236824D01*
X136126233Y-123237879D01*
X136194182Y-123187786D01*
X136288492Y-123164448D01*
X136384555Y-123178978D01*
X136467744Y-123229163D01*
X136482387Y-123243806D01*
X136633957Y-123381980D01*
X136662282Y-123399518D01*
X136807363Y-123489348D01*
X136997544Y-123563024D01*
X137117075Y-123585368D01*
X137198022Y-123600500D01*
X137198024Y-123600500D01*
X137401977Y-123600500D01*
X137435389Y-123594254D01*
X137602456Y-123563024D01*
X137792637Y-123489348D01*
X137966041Y-123381981D01*
X138068293Y-123288765D01*
X138151479Y-123238579D01*
X138247541Y-123224046D01*
X138341852Y-123247380D01*
X138420055Y-123305029D01*
X138470243Y-123388217D01*
X138471069Y-123390542D01*
X138474210Y-123399518D01*
X138474214Y-123399529D01*
X138570180Y-123552257D01*
X138570182Y-123552259D01*
X138570184Y-123552262D01*
X138697738Y-123679816D01*
X138697740Y-123679817D01*
X138697742Y-123679819D01*
X138850470Y-123775785D01*
X138850473Y-123775786D01*
X138850478Y-123775789D01*
X139020745Y-123835368D01*
X139020754Y-123835369D01*
X139155031Y-123850499D01*
X139155046Y-123850500D01*
X139844954Y-123850500D01*
X139844968Y-123850499D01*
X139955079Y-123838091D01*
X139979255Y-123835368D01*
X140149522Y-123775789D01*
X140149527Y-123775785D01*
X140149529Y-123775785D01*
X140302257Y-123679819D01*
X140302256Y-123679819D01*
X140302262Y-123679816D01*
X140429816Y-123552262D01*
X140506752Y-123429819D01*
X140525785Y-123399529D01*
X140525785Y-123399527D01*
X140525789Y-123399522D01*
X140585368Y-123229255D01*
X140592994Y-123161576D01*
X140600499Y-123094968D01*
X140600500Y-123094953D01*
X140600500Y-122830780D01*
X140619454Y-122735492D01*
X140673430Y-122654710D01*
X140754212Y-122600734D01*
X140849500Y-122581780D01*
X140944788Y-122600734D01*
X141025570Y-122654710D01*
X141076566Y-122728594D01*
X141081522Y-122739608D01*
X141150806Y-122854215D01*
X141169528Y-122885185D01*
X141289815Y-123005472D01*
X141351873Y-123042987D01*
X141435391Y-123093477D01*
X141435393Y-123093477D01*
X141435394Y-123093478D01*
X141597804Y-123144086D01*
X141597808Y-123144086D01*
X141597811Y-123144087D01*
X141668369Y-123150499D01*
X141668377Y-123150499D01*
X141668384Y-123150500D01*
X141668390Y-123150500D01*
X142181610Y-123150500D01*
X142181616Y-123150500D01*
X142181623Y-123150499D01*
X142181630Y-123150499D01*
X142252188Y-123144087D01*
X142252189Y-123144086D01*
X142252196Y-123144086D01*
X142414606Y-123093478D01*
X142415409Y-123092993D01*
X142455056Y-123069025D01*
X142475456Y-123056693D01*
X143081025Y-123056693D01*
X143085559Y-123092993D01*
X143085596Y-123093015D01*
X143085601Y-123093017D01*
X143247896Y-123143591D01*
X143247894Y-123143591D01*
X143318408Y-123149998D01*
X143318432Y-123149999D01*
X143831568Y-123149999D01*
X143902108Y-123143589D01*
X144064398Y-123093017D01*
X144064405Y-123093014D01*
X144064439Y-123092993D01*
X143574999Y-122603553D01*
X143179318Y-122999234D01*
X143098537Y-123053210D01*
X143081025Y-123056693D01*
X142475456Y-123056693D01*
X142560185Y-123005472D01*
X142657467Y-122908189D01*
X142738245Y-122854215D01*
X142759581Y-122849970D01*
X142754249Y-122823164D01*
X142765517Y-122749108D01*
X142766797Y-122744999D01*
X142813233Y-122659660D01*
X142828460Y-122642985D01*
X143221448Y-122249999D01*
X143928553Y-122249999D01*
X144417993Y-122739439D01*
X144418014Y-122739405D01*
X144418017Y-122739398D01*
X144468591Y-122577104D01*
X144474998Y-122506591D01*
X144474999Y-122506567D01*
X144474999Y-121993431D01*
X144468589Y-121922890D01*
X144468589Y-121922889D01*
X144418018Y-121760603D01*
X144418015Y-121760596D01*
X144417993Y-121760559D01*
X144417992Y-121760559D01*
X143928553Y-122249999D01*
X143221448Y-122249999D01*
X143575001Y-121896447D01*
X144064439Y-121407006D01*
X144064439Y-121407005D01*
X144064401Y-121406983D01*
X143902103Y-121356408D01*
X143902105Y-121356408D01*
X143831591Y-121350001D01*
X143831567Y-121350000D01*
X143318431Y-121350000D01*
X143247894Y-121356409D01*
X143085602Y-121406981D01*
X143085598Y-121406983D01*
X143032295Y-121439206D01*
X142940943Y-121472282D01*
X142843888Y-121467880D01*
X142755905Y-121426672D01*
X142690389Y-121354932D01*
X142657313Y-121263580D01*
X142661715Y-121166525D01*
X142679562Y-121117203D01*
X142711066Y-121052435D01*
X145099500Y-121052435D01*
X145114470Y-121209212D01*
X145172541Y-121406983D01*
X145173684Y-121410875D01*
X145192688Y-121447738D01*
X145269988Y-121597681D01*
X145399905Y-121762883D01*
X145399909Y-121762887D01*
X145558740Y-121900516D01*
X145558741Y-121900516D01*
X145558744Y-121900519D01*
X145740756Y-122005604D01*
X145939367Y-122074344D01*
X146147398Y-122104254D01*
X146357330Y-122094254D01*
X146561576Y-122044704D01*
X146752753Y-121957396D01*
X146923952Y-121835486D01*
X147068986Y-121683378D01*
X147182613Y-121506572D01*
X147260725Y-121311457D01*
X147300500Y-121105085D01*
X147300500Y-121052435D01*
X152199500Y-121052435D01*
X152214470Y-121209212D01*
X152272541Y-121406983D01*
X152273684Y-121410875D01*
X152292688Y-121447738D01*
X152369988Y-121597681D01*
X152499905Y-121762883D01*
X152499909Y-121762887D01*
X152658740Y-121900516D01*
X152658741Y-121900516D01*
X152658744Y-121900519D01*
X152840756Y-122005604D01*
X153039367Y-122074344D01*
X153247398Y-122104254D01*
X153457330Y-122094254D01*
X153661576Y-122044704D01*
X153852753Y-121957396D01*
X154023952Y-121835486D01*
X154168986Y-121683378D01*
X154282613Y-121506572D01*
X154360725Y-121311457D01*
X154400500Y-121105085D01*
X154400500Y-120447575D01*
X154397079Y-120411744D01*
X154385529Y-120290787D01*
X154373224Y-120248880D01*
X154326316Y-120089125D01*
X154230011Y-119902318D01*
X154169744Y-119825683D01*
X154100094Y-119737116D01*
X154100090Y-119737112D01*
X153941259Y-119599483D01*
X153866535Y-119556341D01*
X153759244Y-119494396D01*
X153759237Y-119494393D01*
X153560637Y-119425657D01*
X153560632Y-119425655D01*
X153352603Y-119395746D01*
X153352602Y-119395746D01*
X153340935Y-119396301D01*
X153142674Y-119405745D01*
X152938424Y-119455295D01*
X152747248Y-119542603D01*
X152747242Y-119542606D01*
X152576052Y-119664510D01*
X152576041Y-119664520D01*
X152431018Y-119816616D01*
X152431011Y-119816625D01*
X152317392Y-119993418D01*
X152317387Y-119993427D01*
X152239274Y-120188544D01*
X152199500Y-120394908D01*
X152199500Y-121052435D01*
X147300500Y-121052435D01*
X147300500Y-120447575D01*
X147297079Y-120411744D01*
X147285529Y-120290787D01*
X147273224Y-120248880D01*
X147226316Y-120089125D01*
X147130011Y-119902318D01*
X147069744Y-119825683D01*
X147000094Y-119737116D01*
X147000090Y-119737112D01*
X146841259Y-119599483D01*
X146766535Y-119556341D01*
X146659244Y-119494396D01*
X146659237Y-119494393D01*
X146460637Y-119425657D01*
X146460632Y-119425655D01*
X146252603Y-119395746D01*
X146252602Y-119395746D01*
X146240935Y-119396301D01*
X146042674Y-119405745D01*
X145838424Y-119455295D01*
X145647248Y-119542603D01*
X145647242Y-119542606D01*
X145476052Y-119664510D01*
X145476041Y-119664520D01*
X145331018Y-119816616D01*
X145331011Y-119816625D01*
X145217392Y-119993418D01*
X145217387Y-119993427D01*
X145139274Y-120188544D01*
X145099500Y-120394908D01*
X145099500Y-121052435D01*
X142711066Y-121052435D01*
X142745298Y-120982060D01*
X142747675Y-120976988D01*
X142751949Y-120968799D01*
X142752172Y-120968294D01*
X142752179Y-120968284D01*
X142756999Y-120953448D01*
X142758673Y-120948639D01*
X142774096Y-120907157D01*
X142774096Y-120907152D01*
X142777353Y-120894430D01*
X142777863Y-120894560D01*
X142782292Y-120875604D01*
X142810674Y-120788256D01*
X142830460Y-120600000D01*
X142810674Y-120411744D01*
X142752179Y-120231716D01*
X142752177Y-120231712D01*
X142751734Y-120230717D01*
X142749104Y-120225764D01*
X142670345Y-120063842D01*
X142664960Y-120053416D01*
X142664778Y-120053063D01*
X142659623Y-120043644D01*
X142658640Y-120041847D01*
X142658627Y-120041824D01*
X142652437Y-120031141D01*
X142594821Y-119937083D01*
X142561213Y-119845934D01*
X142558854Y-119825677D01*
X142554895Y-119772982D01*
X142554894Y-119772975D01*
X142554892Y-119772945D01*
X142551251Y-119739926D01*
X142550500Y-119726270D01*
X142550500Y-104614136D01*
X142554432Y-104573814D01*
X142554309Y-104573799D01*
X142554899Y-104569020D01*
X142555191Y-104566033D01*
X142555310Y-104565425D01*
X142555400Y-104564970D01*
X142556588Y-104541957D01*
X142580427Y-104447778D01*
X142583589Y-104441374D01*
X142600081Y-104409180D01*
X142602544Y-104404241D01*
X142605100Y-104398970D01*
X142607520Y-104393833D01*
X142648438Y-104304397D01*
X142650784Y-104299529D01*
X142650789Y-104299522D01*
X142650791Y-104299513D01*
X142652180Y-104296633D01*
X142653568Y-104293185D01*
X142658357Y-104282720D01*
X142660017Y-104278945D01*
X142681879Y-104219326D01*
X142681879Y-104219325D01*
X142685031Y-104206911D01*
X142685747Y-104207092D01*
X142691937Y-104181926D01*
X142710368Y-104129255D01*
X142710368Y-104129252D01*
X142711040Y-104127333D01*
X142760402Y-104043652D01*
X142838030Y-103985232D01*
X142932106Y-103960965D01*
X143028307Y-103974546D01*
X143111988Y-104023908D01*
X143122100Y-104033468D01*
X144004867Y-104916234D01*
X144033206Y-104950116D01*
X144036969Y-104955527D01*
X144036976Y-104955535D01*
X144036981Y-104955542D01*
X144073128Y-104994302D01*
X144113364Y-105037447D01*
X144120030Y-105045210D01*
X144161094Y-105097218D01*
X144164418Y-105101626D01*
X144203192Y-105155480D01*
X144212884Y-105168941D01*
X144217881Y-105175603D01*
X144221710Y-105180579D01*
X144292381Y-105270084D01*
X144298850Y-105277947D01*
X144298867Y-105277967D01*
X144298868Y-105277968D01*
X144305893Y-105286164D01*
X144305903Y-105286175D01*
X144305922Y-105286197D01*
X144312982Y-105294094D01*
X144341822Y-105325018D01*
X144412870Y-105401202D01*
X144416021Y-105404468D01*
X144416035Y-105404482D01*
X144454103Y-105439420D01*
X144470650Y-105454607D01*
X144484540Y-105466619D01*
X144497738Y-105479817D01*
X144650470Y-105575785D01*
X144650473Y-105575786D01*
X144650478Y-105575789D01*
X144820745Y-105635368D01*
X144820754Y-105635369D01*
X144999999Y-105655565D01*
X145000000Y-105655565D01*
X145011624Y-105655565D01*
X145020798Y-105655217D01*
X145020794Y-105655082D01*
X145029685Y-105654771D01*
X145029687Y-105654772D01*
X145171792Y-105649816D01*
X145182409Y-105649221D01*
X145193244Y-105648386D01*
X145203337Y-105647404D01*
X145316229Y-105634130D01*
X145321775Y-105633415D01*
X145327583Y-105632602D01*
X145333139Y-105631760D01*
X145333182Y-105631752D01*
X145333215Y-105631748D01*
X145412901Y-105618773D01*
X145418325Y-105618012D01*
X145484215Y-105610264D01*
X145494409Y-105609489D01*
X145528565Y-105608297D01*
X145606327Y-105605586D01*
X145651518Y-105601976D01*
X145651518Y-105601975D01*
X145665038Y-105600896D01*
X145674957Y-105600500D01*
X147210513Y-105600500D01*
X147247261Y-105603227D01*
X147342618Y-105617455D01*
X147358156Y-105620798D01*
X147440326Y-105644047D01*
X147454323Y-105648925D01*
X147545146Y-105686768D01*
X147557301Y-105692624D01*
X147644732Y-105740745D01*
X147686182Y-105771881D01*
X147686807Y-105771099D01*
X147697738Y-105779817D01*
X147850470Y-105875785D01*
X147850473Y-105875786D01*
X147850478Y-105875789D01*
X148020745Y-105935368D01*
X148020754Y-105935369D01*
X148155031Y-105950499D01*
X148155046Y-105950500D01*
X148844954Y-105950500D01*
X148844968Y-105950499D01*
X148955079Y-105938091D01*
X148979255Y-105935368D01*
X149149522Y-105875789D01*
X149149527Y-105875785D01*
X149149529Y-105875785D01*
X149302257Y-105779819D01*
X149302256Y-105779819D01*
X149302262Y-105779816D01*
X149429816Y-105652262D01*
X149477867Y-105575789D01*
X149525785Y-105499529D01*
X149525785Y-105499527D01*
X149525789Y-105499522D01*
X149585368Y-105329255D01*
X149589332Y-105294073D01*
X149600499Y-105194968D01*
X149600500Y-105194953D01*
X149600500Y-104505046D01*
X149600499Y-104505031D01*
X149585369Y-104370754D01*
X149585368Y-104370745D01*
X149525789Y-104200478D01*
X149525786Y-104200473D01*
X149525785Y-104200470D01*
X149429819Y-104047742D01*
X149429817Y-104047740D01*
X149429816Y-104047738D01*
X149302262Y-103920184D01*
X149302259Y-103920182D01*
X149302257Y-103920180D01*
X149149529Y-103824214D01*
X149149524Y-103824212D01*
X149149522Y-103824211D01*
X148979255Y-103764632D01*
X148979251Y-103764631D01*
X148979245Y-103764630D01*
X148844968Y-103749500D01*
X148844954Y-103749500D01*
X148155046Y-103749500D01*
X148155031Y-103749500D01*
X148020746Y-103764631D01*
X148020745Y-103764631D01*
X147942163Y-103792128D01*
X147933143Y-103794905D01*
X147919460Y-103798556D01*
X147919440Y-103798564D01*
X147915514Y-103800495D01*
X147901681Y-103806292D01*
X147850479Y-103824210D01*
X147697733Y-103920187D01*
X147686813Y-103928896D01*
X147686189Y-103928114D01*
X147644742Y-103959246D01*
X147557302Y-104007372D01*
X147545146Y-104013228D01*
X147454319Y-104051073D01*
X147440319Y-104055951D01*
X147358154Y-104079200D01*
X147342616Y-104082543D01*
X147247252Y-104096773D01*
X147210504Y-104099500D01*
X145656835Y-104099500D01*
X145612834Y-104095581D01*
X145606335Y-104094414D01*
X145606322Y-104094412D01*
X145494400Y-104090508D01*
X145484198Y-104089732D01*
X145453338Y-104086103D01*
X145418331Y-104081987D01*
X145412899Y-104081226D01*
X145399769Y-104079088D01*
X145382277Y-104076239D01*
X145291275Y-104042216D01*
X145276813Y-104032552D01*
X145251640Y-104014429D01*
X145247233Y-104011105D01*
X145195206Y-103970027D01*
X145187446Y-103963365D01*
X145105541Y-103886981D01*
X145093202Y-103876466D01*
X145060670Y-103848744D01*
X145053382Y-103842015D01*
X144232607Y-103021239D01*
X144228850Y-103017315D01*
X144221499Y-103009293D01*
X144016993Y-102786113D01*
X144010018Y-102777802D01*
X143964032Y-102717871D01*
X143820770Y-102531167D01*
X143814537Y-102522266D01*
X143647515Y-102260095D01*
X143642082Y-102250684D01*
X143546227Y-102066551D01*
X143498538Y-101974941D01*
X143493953Y-101965109D01*
X143374988Y-101677902D01*
X143371278Y-101667710D01*
X143277796Y-101371229D01*
X143274984Y-101360734D01*
X143207701Y-101057240D01*
X143205814Y-101046539D01*
X143165235Y-100738334D01*
X143164289Y-100727519D01*
X143152481Y-100457086D01*
X143150619Y-100414437D01*
X143150500Y-100409005D01*
X143150500Y-98475253D01*
X143154688Y-98437412D01*
X143153494Y-98437233D01*
X143154813Y-98428446D01*
X143154815Y-98428438D01*
X143164220Y-98307606D01*
X143171840Y-98262910D01*
X143183571Y-98218826D01*
X143187155Y-98207551D01*
X143223100Y-98110739D01*
X143227041Y-98099290D01*
X143230861Y-98087265D01*
X143234224Y-98075738D01*
X143275592Y-97920281D01*
X143280504Y-97897727D01*
X143284734Y-97872899D01*
X143287565Y-97850047D01*
X143303368Y-97647033D01*
X143303930Y-97637473D01*
X143304156Y-97631809D01*
X143303952Y-97625542D01*
X143304567Y-97608489D01*
X143305460Y-97600000D01*
X143304069Y-97586773D01*
X143303483Y-97557095D01*
X143303052Y-97557098D01*
X143302995Y-97548207D01*
X143302996Y-97548193D01*
X143287565Y-97349951D01*
X143284738Y-97327123D01*
X143284738Y-97327119D01*
X143284726Y-97327047D01*
X143280504Y-97302271D01*
X143275592Y-97279718D01*
X143234224Y-97124259D01*
X143230861Y-97112732D01*
X143227041Y-97100707D01*
X143223099Y-97089257D01*
X143187158Y-96992454D01*
X143183572Y-96981169D01*
X143171840Y-96937081D01*
X143164221Y-96892393D01*
X143154815Y-96771559D01*
X143151279Y-96740071D01*
X143150500Y-96726164D01*
X143150500Y-84730796D01*
X143154420Y-84686788D01*
X143155586Y-84680290D01*
X143155587Y-84680286D01*
X143159489Y-84568361D01*
X143160265Y-84558169D01*
X143168016Y-84492256D01*
X143168763Y-84486924D01*
X143181761Y-84407101D01*
X143182602Y-84401546D01*
X143183415Y-84395738D01*
X143184130Y-84390192D01*
X143197404Y-84277300D01*
X143198386Y-84267207D01*
X143199221Y-84256372D01*
X143199816Y-84245755D01*
X143204912Y-84099635D01*
X143204995Y-84095249D01*
X143204992Y-84095198D01*
X143204911Y-84088331D01*
X143205565Y-84075304D01*
X143205565Y-84062351D01*
X143205217Y-84053163D01*
X143205082Y-84053168D01*
X143204772Y-84044275D01*
X143199816Y-83902169D01*
X143199221Y-83891552D01*
X143198386Y-83880717D01*
X143197404Y-83870624D01*
X143184130Y-83757731D01*
X143183415Y-83752185D01*
X143182602Y-83746377D01*
X143181760Y-83740821D01*
X143181756Y-83740801D01*
X143181746Y-83740730D01*
X143168773Y-83661057D01*
X143168011Y-83655623D01*
X143160263Y-83589739D01*
X143159489Y-83579563D01*
X143155587Y-83467639D01*
X143155087Y-83461384D01*
X143150895Y-83408898D01*
X143150500Y-83398981D01*
X143150500Y-82737139D01*
X143154418Y-82693142D01*
X143154580Y-82692237D01*
X143155587Y-82686630D01*
X143159487Y-82574707D01*
X143160263Y-82564519D01*
X143164503Y-82528450D01*
X143168009Y-82498623D01*
X143168773Y-82493182D01*
X143181749Y-82413467D01*
X143181796Y-82413158D01*
X143182593Y-82407892D01*
X143183407Y-82402086D01*
X143184122Y-82396533D01*
X143197391Y-82283661D01*
X143198369Y-82273616D01*
X143199206Y-82262784D01*
X143199211Y-82262698D01*
X143199801Y-82252170D01*
X143199967Y-82247431D01*
X143204899Y-82105987D01*
X143204982Y-82101603D01*
X143204979Y-82101552D01*
X143204898Y-82094685D01*
X143205552Y-82081658D01*
X143205552Y-82080316D01*
X143203677Y-82063683D01*
X143203006Y-82055024D01*
X143202356Y-82039678D01*
X143201899Y-82037861D01*
X143198912Y-82021393D01*
X143185355Y-81901063D01*
X143182553Y-81893055D01*
X143125776Y-81730795D01*
X143125773Y-81730790D01*
X143125772Y-81730787D01*
X143029806Y-81578059D01*
X143029804Y-81578057D01*
X143029803Y-81578055D01*
X142902249Y-81450501D01*
X142902246Y-81450499D01*
X142902244Y-81450497D01*
X142749516Y-81354531D01*
X142749511Y-81354529D01*
X142749509Y-81354528D01*
X142579242Y-81294949D01*
X142579238Y-81294948D01*
X142579232Y-81294947D01*
X142399991Y-81274752D01*
X142399983Y-81274752D01*
X142220741Y-81294947D01*
X142220733Y-81294948D01*
X142220732Y-81294949D01*
X142050465Y-81354528D01*
X142050463Y-81354528D01*
X142050463Y-81354529D01*
X142050457Y-81354531D01*
X141897729Y-81450497D01*
X141770167Y-81578059D01*
X141674201Y-81730787D01*
X141674198Y-81730793D01*
X141674198Y-81730795D01*
X141618051Y-81891256D01*
X141614619Y-81901063D01*
X141614617Y-81901071D01*
X141594422Y-82080312D01*
X141594422Y-82091845D01*
X141594773Y-82101127D01*
X141594904Y-82101123D01*
X141596353Y-82142648D01*
X141580733Y-82238539D01*
X141529607Y-82321153D01*
X141450757Y-82377914D01*
X141356187Y-82400180D01*
X141260296Y-82384560D01*
X141177682Y-82333434D01*
X141120921Y-82254584D01*
X141102744Y-82197085D01*
X141096262Y-82162413D01*
X141095846Y-82160185D01*
X140992086Y-81795504D01*
X140970107Y-81738769D01*
X140855123Y-81441963D01*
X140855122Y-81441961D01*
X140855119Y-81441953D01*
X140686115Y-81102547D01*
X140686112Y-81102542D01*
X140686109Y-81102536D01*
X140486523Y-80780193D01*
X140486518Y-80780186D01*
X140464735Y-80751341D01*
X140258024Y-80477611D01*
X140002588Y-80197412D01*
X139722389Y-79941976D01*
X139712694Y-79934655D01*
X139419813Y-79713481D01*
X139419806Y-79713476D01*
X139097463Y-79513890D01*
X139012848Y-79471757D01*
X138758047Y-79344881D01*
X138758045Y-79344880D01*
X138758036Y-79344876D01*
X138404508Y-79207918D01*
X138404501Y-79207916D01*
X138404496Y-79207914D01*
X138039815Y-79104154D01*
X138039813Y-79104153D01*
X138039811Y-79104153D01*
X137667119Y-79034484D01*
X137667112Y-79034483D01*
X137441499Y-79013577D01*
X137382236Y-79000666D01*
X137279259Y-78964633D01*
X137279249Y-78964630D01*
X137100006Y-78944435D01*
X137088476Y-78944435D01*
X137079195Y-78944785D01*
X137079200Y-78944917D01*
X136928223Y-78950183D01*
X136917686Y-78950771D01*
X136906937Y-78951596D01*
X136906881Y-78951601D01*
X136896791Y-78952580D01*
X136896718Y-78952587D01*
X136896708Y-78952589D01*
X136896689Y-78952591D01*
X136896682Y-78952592D01*
X136782015Y-78966075D01*
X136774002Y-78967164D01*
X136767406Y-78968149D01*
X136687115Y-78981222D01*
X136681646Y-78981989D01*
X136615798Y-78989732D01*
X136605596Y-78990508D01*
X136529551Y-78993161D01*
X136493673Y-78994413D01*
X136490877Y-78994636D01*
X136434957Y-78999104D01*
X136425038Y-78999500D01*
X136406835Y-78999500D01*
X136362834Y-78995581D01*
X136356335Y-78994414D01*
X136356322Y-78994412D01*
X136244400Y-78990508D01*
X136234198Y-78989732D01*
X136194620Y-78985078D01*
X136168337Y-78981987D01*
X136162881Y-78981223D01*
X136153755Y-78979737D01*
X136082797Y-78968182D01*
X136076734Y-78967271D01*
X136068478Y-78966134D01*
X135953199Y-78952577D01*
X135942876Y-78951579D01*
X135942872Y-78951578D01*
X135942865Y-78951578D01*
X135939746Y-78951340D01*
X135932027Y-78950753D01*
X135921772Y-78950184D01*
X135921697Y-78950180D01*
X135800751Y-78945961D01*
X135774837Y-78945058D01*
X135769721Y-78944977D01*
X135769717Y-78944977D01*
X135769644Y-78944976D01*
X135764266Y-78945049D01*
X135751786Y-78944435D01*
X135749993Y-78944435D01*
X135733707Y-78946269D01*
X135725247Y-78946931D01*
X135709365Y-78947629D01*
X135709342Y-78947632D01*
X135707500Y-78948096D01*
X135691070Y-78951073D01*
X135570763Y-78964630D01*
X135570745Y-78964632D01*
X135400478Y-79024211D01*
X135400476Y-79024211D01*
X135400476Y-79024212D01*
X135400470Y-79024214D01*
X135247742Y-79120180D01*
X135120180Y-79247742D01*
X135024214Y-79400470D01*
X135024211Y-79400476D01*
X135024211Y-79400478D01*
X134984527Y-79513890D01*
X134964632Y-79570746D01*
X134964630Y-79570754D01*
X134944435Y-79749996D01*
X134944435Y-79750003D01*
X134964630Y-79929245D01*
X134964631Y-79929251D01*
X134964632Y-79929255D01*
X135024211Y-80099522D01*
X135024212Y-80099523D01*
X135024214Y-80099529D01*
X135120180Y-80252257D01*
X135120182Y-80252259D01*
X135120184Y-80252262D01*
X135247738Y-80379816D01*
X135247740Y-80379817D01*
X135247742Y-80379819D01*
X135400470Y-80475785D01*
X135400473Y-80475786D01*
X135400478Y-80475789D01*
X135570745Y-80535368D01*
X135570754Y-80535369D01*
X135749999Y-80555565D01*
X135750000Y-80555565D01*
X135761624Y-80555565D01*
X135770798Y-80555217D01*
X135770794Y-80555082D01*
X135779685Y-80554771D01*
X135779687Y-80554772D01*
X135921792Y-80549816D01*
X135932409Y-80549221D01*
X135943244Y-80548386D01*
X135953337Y-80547404D01*
X136066229Y-80534130D01*
X136071775Y-80533415D01*
X136077583Y-80532602D01*
X136083139Y-80531760D01*
X136083182Y-80531752D01*
X136083215Y-80531748D01*
X136162901Y-80518773D01*
X136168325Y-80518012D01*
X136234215Y-80510264D01*
X136244409Y-80509489D01*
X136278565Y-80508297D01*
X136356327Y-80505586D01*
X136401518Y-80501976D01*
X136401518Y-80501975D01*
X136415038Y-80500896D01*
X136424957Y-80500500D01*
X136443172Y-80500500D01*
X136487178Y-80504419D01*
X136493673Y-80505586D01*
X136511413Y-80506204D01*
X136605586Y-80509489D01*
X136615777Y-80510263D01*
X136681686Y-80518014D01*
X136687067Y-80518768D01*
X136766859Y-80531761D01*
X136766869Y-80531762D01*
X136766915Y-80531770D01*
X136772340Y-80532591D01*
X136772357Y-80532593D01*
X136772414Y-80532602D01*
X136778222Y-80533415D01*
X136783768Y-80534130D01*
X136896661Y-80547404D01*
X136906754Y-80548386D01*
X136917589Y-80549221D01*
X136928206Y-80549816D01*
X137074327Y-80554912D01*
X137074356Y-80554912D01*
X137074369Y-80554913D01*
X137077161Y-80554965D01*
X137078713Y-80554995D01*
X137078764Y-80554992D01*
X137085631Y-80554911D01*
X137098672Y-80555565D01*
X137100000Y-80555565D01*
X137100003Y-80555565D01*
X137116630Y-80553691D01*
X137125304Y-80553019D01*
X137145899Y-80552146D01*
X137157622Y-80552201D01*
X137158607Y-80552253D01*
X137216286Y-80546995D01*
X137241278Y-80543452D01*
X137268334Y-80538228D01*
X137292814Y-80532222D01*
X137305506Y-80528427D01*
X137402231Y-80519296D01*
X137418525Y-80521513D01*
X137671560Y-80564505D01*
X137685166Y-80567611D01*
X137905088Y-80630970D01*
X137951833Y-80644437D01*
X137965017Y-80649049D01*
X138221418Y-80755254D01*
X138234001Y-80761314D01*
X138476894Y-80895556D01*
X138488725Y-80902990D01*
X138715052Y-81063578D01*
X138725976Y-81072290D01*
X138932906Y-81257213D01*
X138942786Y-81267093D01*
X139127709Y-81474023D01*
X139136421Y-81484947D01*
X139297009Y-81711274D01*
X139304443Y-81723105D01*
X139438685Y-81965998D01*
X139444748Y-81978587D01*
X139550948Y-82234978D01*
X139555562Y-82248166D01*
X139632386Y-82514828D01*
X139635496Y-82528450D01*
X139681983Y-82802052D01*
X139683546Y-82815927D01*
X139699304Y-83096505D01*
X139699500Y-83103488D01*
X139699500Y-104904584D01*
X139699498Y-104904624D01*
X139699499Y-104985419D01*
X139699182Y-104994302D01*
X139683881Y-105208297D01*
X139678826Y-105243462D01*
X139658929Y-105334935D01*
X139644514Y-105401207D01*
X139636067Y-105440039D01*
X139626057Y-105474129D01*
X139555757Y-105662617D01*
X139540998Y-105694935D01*
X139499569Y-105770807D01*
X139437267Y-105845356D01*
X139351179Y-105890389D01*
X139254411Y-105899048D01*
X139161695Y-105870017D01*
X139087146Y-105807715D01*
X139042113Y-105721627D01*
X139034070Y-105683305D01*
X139033420Y-105678261D01*
X139033415Y-105678222D01*
X139032602Y-105672414D01*
X139031760Y-105666858D01*
X139031757Y-105666839D01*
X139031746Y-105666767D01*
X139018773Y-105587094D01*
X139018009Y-105581646D01*
X139010263Y-105515776D01*
X139009489Y-105505596D01*
X139005587Y-105393676D01*
X139001977Y-105348482D01*
X139000895Y-105334935D01*
X139000500Y-105325018D01*
X139000500Y-100588733D01*
X139000487Y-100588303D01*
X139000489Y-100457081D01*
X138969315Y-100100734D01*
X138907202Y-99748460D01*
X138814623Y-99402940D01*
X138692281Y-99066803D01*
X138541108Y-98742609D01*
X138380429Y-98464303D01*
X138362258Y-98432829D01*
X138362250Y-98432816D01*
X138157082Y-98139805D01*
X137927153Y-97865787D01*
X137873621Y-97812254D01*
X137873588Y-97812205D01*
X137674220Y-97612835D01*
X137400201Y-97382906D01*
X137107190Y-97177738D01*
X137107177Y-97177730D01*
X136797392Y-96998877D01*
X136473207Y-96847710D01*
X136473201Y-96847707D01*
X136473197Y-96847705D01*
X136473185Y-96847700D01*
X136137061Y-96725364D01*
X136137055Y-96725362D01*
X135791550Y-96632787D01*
X135791547Y-96632786D01*
X135791542Y-96632785D01*
X135791534Y-96632783D01*
X135791522Y-96632781D01*
X135439284Y-96570674D01*
X135439271Y-96570672D01*
X135296727Y-96558202D01*
X135082918Y-96539498D01*
X135082912Y-96539498D01*
X134904061Y-96539500D01*
X134096674Y-96539500D01*
X134058208Y-96535361D01*
X134058076Y-96536281D01*
X134049271Y-96535013D01*
X133818180Y-96518445D01*
X133766287Y-96509129D01*
X133698736Y-96489433D01*
X133650635Y-96469759D01*
X133550209Y-96415832D01*
X133545262Y-96413028D01*
X133344343Y-96293006D01*
X133344313Y-96292989D01*
X133344303Y-96292983D01*
X133334455Y-96287395D01*
X133334443Y-96287388D01*
X133324071Y-96281806D01*
X133322343Y-96280925D01*
X133314052Y-96276699D01*
X133019112Y-96134507D01*
X133012761Y-96131553D01*
X133011505Y-96130990D01*
X133008978Y-96129857D01*
X133008964Y-96129852D01*
X132967500Y-96114520D01*
X132958062Y-96110582D01*
X132933453Y-96099107D01*
X132933450Y-96099106D01*
X132720068Y-96041930D01*
X132500000Y-96022677D01*
X132279932Y-96041930D01*
X132222757Y-96057250D01*
X132066551Y-96099105D01*
X131866336Y-96192467D01*
X131866331Y-96192470D01*
X131685389Y-96319166D01*
X131685383Y-96319171D01*
X131529171Y-96475383D01*
X131529166Y-96475389D01*
X131402470Y-96656331D01*
X131402467Y-96656336D01*
X131309105Y-96856551D01*
X131293419Y-96915093D01*
X131251930Y-97069932D01*
X131232677Y-97290000D01*
X131251930Y-97510068D01*
X131282570Y-97624418D01*
X131288627Y-97647024D01*
X131309106Y-97723450D01*
X131402466Y-97923662D01*
X131529174Y-98104620D01*
X131685380Y-98260826D01*
X131866338Y-98387534D01*
X132066550Y-98480894D01*
X132279932Y-98538070D01*
X132500000Y-98557323D01*
X132720068Y-98538070D01*
X132933450Y-98480894D01*
X132984972Y-98456867D01*
X133000024Y-98451006D01*
X133022269Y-98443969D01*
X133314143Y-98303254D01*
X133324325Y-98298058D01*
X133334713Y-98292458D01*
X133344387Y-98286964D01*
X133545278Y-98166958D01*
X133550140Y-98164202D01*
X133650646Y-98110231D01*
X133698735Y-98090562D01*
X133766292Y-98070865D01*
X133818172Y-98061551D01*
X134049281Y-98044984D01*
X134084283Y-98041215D01*
X134097617Y-98040500D01*
X134825191Y-98040500D01*
X134825196Y-98040501D01*
X134900590Y-98040500D01*
X134907563Y-98040695D01*
X135187711Y-98056426D01*
X135201558Y-98057986D01*
X135474732Y-98104398D01*
X135488318Y-98107499D01*
X135754585Y-98184208D01*
X135767744Y-98188812D01*
X136023745Y-98294850D01*
X136036308Y-98300900D01*
X136278812Y-98434927D01*
X136290631Y-98442353D01*
X136311101Y-98456877D01*
X136516597Y-98602684D01*
X136527522Y-98611396D01*
X136734022Y-98795936D01*
X136743902Y-98805816D01*
X136928592Y-99012485D01*
X136937304Y-99023409D01*
X137097630Y-99249368D01*
X137105063Y-99261199D01*
X137239085Y-99503693D01*
X137245140Y-99516266D01*
X137351171Y-99772249D01*
X137355782Y-99785427D01*
X137432483Y-100051668D01*
X137435592Y-100065290D01*
X137481998Y-100338431D01*
X137483561Y-100352305D01*
X137486887Y-100411526D01*
X137499303Y-100632660D01*
X137499499Y-100639640D01*
X137499499Y-100722317D01*
X137499500Y-100722334D01*
X137499500Y-105343164D01*
X137495581Y-105387165D01*
X137494414Y-105393663D01*
X137494412Y-105393676D01*
X137490508Y-105505596D01*
X137489732Y-105515799D01*
X137481989Y-105581646D01*
X137481222Y-105587115D01*
X137468147Y-105667417D01*
X137467452Y-105672072D01*
X137467165Y-105673998D01*
X137466079Y-105681990D01*
X137466078Y-105681999D01*
X137452600Y-105796607D01*
X137451633Y-105806529D01*
X137451630Y-105806564D01*
X137450791Y-105817384D01*
X137450187Y-105828125D01*
X137448015Y-105890389D01*
X137445056Y-105975203D01*
X137444975Y-105980320D01*
X137445048Y-105985778D01*
X137444435Y-105998200D01*
X137444435Y-105999999D01*
X137446269Y-106016279D01*
X137446931Y-106024750D01*
X137447629Y-106040639D01*
X137447629Y-106040640D01*
X137448091Y-106042474D01*
X137451073Y-106058924D01*
X137464630Y-106179246D01*
X137464632Y-106179256D01*
X137521073Y-106340554D01*
X137534654Y-106436755D01*
X137510387Y-106530830D01*
X137451966Y-106608458D01*
X137368285Y-106657820D01*
X137312075Y-106670429D01*
X137185393Y-106683744D01*
X136864946Y-106751857D01*
X136553385Y-106853089D01*
X136553384Y-106853090D01*
X136254099Y-106986341D01*
X135970393Y-107150139D01*
X135970386Y-107150143D01*
X135705369Y-107342689D01*
X135705360Y-107342696D01*
X135461909Y-107561901D01*
X135461901Y-107561909D01*
X135242696Y-107805360D01*
X135242689Y-107805369D01*
X135050143Y-108070386D01*
X135050139Y-108070393D01*
X134886341Y-108354099D01*
X134753090Y-108653384D01*
X134753089Y-108653385D01*
X134651857Y-108964946D01*
X134651855Y-108964951D01*
X134651856Y-108964951D01*
X134583744Y-109285393D01*
X134549500Y-109611199D01*
X134549500Y-109611203D01*
X134549500Y-109611204D01*
X134549500Y-111096573D01*
X134530546Y-111191861D01*
X134528887Y-111195769D01*
X134525077Y-111204533D01*
X134469700Y-111284357D01*
X134427449Y-111317170D01*
X134281346Y-111407286D01*
X134157286Y-111531346D01*
X134065184Y-111680668D01*
X134010002Y-111847197D01*
X134010001Y-111847204D01*
X133999500Y-111949988D01*
X133999500Y-112550006D01*
X134010001Y-112652800D01*
X134051057Y-112776696D01*
X134065186Y-112819334D01*
X134157288Y-112968656D01*
X134281344Y-113092712D01*
X134430666Y-113184814D01*
X134430669Y-113184815D01*
X134430667Y-113184815D01*
X134594310Y-113239040D01*
X134597203Y-113239999D01*
X134699991Y-113250500D01*
X135900008Y-113250499D01*
X136002797Y-113239999D01*
X136169334Y-113184814D01*
X136318656Y-113092712D01*
X136442712Y-112968656D01*
X136534814Y-112819334D01*
X136589999Y-112652797D01*
X136600500Y-112550009D01*
X136600499Y-111949992D01*
X136589999Y-111847203D01*
X136534814Y-111680666D01*
X136442712Y-111531344D01*
X136318656Y-111407288D01*
X136318653Y-111407286D01*
X136318652Y-111407285D01*
X136172547Y-111317167D01*
X136101396Y-111251012D01*
X136074911Y-111204510D01*
X136071145Y-111195847D01*
X136050538Y-111100903D01*
X136050500Y-111096576D01*
X136050500Y-109779452D01*
X136050817Y-109770568D01*
X136054147Y-109724004D01*
X136065764Y-109561567D01*
X136070818Y-109526415D01*
X136112521Y-109334713D01*
X136122523Y-109300649D01*
X136191085Y-109116827D01*
X136205828Y-109084544D01*
X136299856Y-108912345D01*
X136319049Y-108882481D01*
X136436616Y-108725430D01*
X136459868Y-108698595D01*
X136598595Y-108559868D01*
X136625430Y-108536616D01*
X136782481Y-108419049D01*
X136812345Y-108399856D01*
X136984544Y-108305828D01*
X137016827Y-108291085D01*
X137200649Y-108222523D01*
X137234713Y-108212521D01*
X137426415Y-108170818D01*
X137461567Y-108165764D01*
X137619424Y-108154474D01*
X137670570Y-108150817D01*
X137679454Y-108150500D01*
X137753881Y-108150500D01*
X138039833Y-108150500D01*
X138039841Y-108150500D01*
X138205480Y-108150503D01*
X138534954Y-108115879D01*
X138725378Y-108075405D01*
X138822522Y-108074135D01*
X138912760Y-108110138D01*
X138982352Y-108177932D01*
X139020702Y-108267198D01*
X139021973Y-108364344D01*
X138985970Y-108454582D01*
X138918176Y-108524174D01*
X138892861Y-108539443D01*
X138833602Y-108570544D01*
X138833597Y-108570547D01*
X138609542Y-108725201D01*
X138609536Y-108725206D01*
X138405761Y-108905735D01*
X138405735Y-108905761D01*
X138225206Y-109109536D01*
X138225201Y-109109542D01*
X138070547Y-109333597D01*
X138070540Y-109333608D01*
X137960220Y-109543810D01*
X137945921Y-109571055D01*
X137944018Y-109574680D01*
X137944017Y-109574682D01*
X137847474Y-109829244D01*
X137782317Y-110093598D01*
X137780905Y-110105228D01*
X137749500Y-110363870D01*
X137749500Y-110363877D01*
X137749500Y-110713949D01*
X137737046Y-110791712D01*
X137707756Y-110880810D01*
X137706340Y-110884876D01*
X137649293Y-111040099D01*
X137647357Y-111045038D01*
X137593567Y-111174133D01*
X137590840Y-111180214D01*
X137542123Y-111281499D01*
X137538146Y-111289087D01*
X137488641Y-111376126D01*
X137488598Y-111376204D01*
X137485760Y-111381517D01*
X137481374Y-111389075D01*
X137474215Y-111400468D01*
X137474210Y-111400479D01*
X137414632Y-111570743D01*
X137414630Y-111570754D01*
X137399500Y-111705031D01*
X137399500Y-112394968D01*
X137414630Y-112529245D01*
X137414631Y-112529251D01*
X137414632Y-112529255D01*
X137474211Y-112699522D01*
X137474212Y-112699523D01*
X137474214Y-112699529D01*
X137570180Y-112852257D01*
X137570182Y-112852259D01*
X137570184Y-112852262D01*
X137697738Y-112979816D01*
X137697740Y-112979817D01*
X137697742Y-112979819D01*
X137850470Y-113075785D01*
X137850473Y-113075786D01*
X137850478Y-113075789D01*
X138020745Y-113135368D01*
X138020754Y-113135369D01*
X138155031Y-113150499D01*
X138155046Y-113150500D01*
X138844954Y-113150500D01*
X138844968Y-113150499D01*
X138955079Y-113138091D01*
X138979255Y-113135368D01*
X139149522Y-113075789D01*
X139149527Y-113075785D01*
X139149529Y-113075785D01*
X139302257Y-112979819D01*
X139302256Y-112979819D01*
X139302262Y-112979816D01*
X139429816Y-112852262D01*
X139477322Y-112776657D01*
X139525785Y-112699529D01*
X139525785Y-112699527D01*
X139525789Y-112699522D01*
X139585368Y-112529255D01*
X139590846Y-112480639D01*
X139600499Y-112394968D01*
X139600500Y-112394953D01*
X139600500Y-111705046D01*
X139600499Y-111705031D01*
X139585369Y-111570754D01*
X139585368Y-111570745D01*
X139525789Y-111400478D01*
X139517932Y-111387974D01*
X139512997Y-111379008D01*
X139461856Y-111289097D01*
X139457877Y-111281505D01*
X139409151Y-111180201D01*
X139406424Y-111174120D01*
X139393515Y-111143139D01*
X139352622Y-111044996D01*
X139350716Y-111040133D01*
X139293641Y-110884833D01*
X139292239Y-110880802D01*
X139262953Y-110791714D01*
X139250500Y-110713955D01*
X139250500Y-110506119D01*
X139251100Y-110493909D01*
X139262497Y-110378186D01*
X139272018Y-110330315D01*
X139300433Y-110236645D01*
X139319110Y-110191555D01*
X139365255Y-110105224D01*
X139392369Y-110064646D01*
X139425384Y-110024416D01*
X139454468Y-109988976D01*
X139488976Y-109954468D01*
X139564645Y-109892369D01*
X139605224Y-109865255D01*
X139686335Y-109821900D01*
X139779305Y-109793698D01*
X139837173Y-109794758D01*
X139851060Y-109796641D01*
X139851081Y-109796643D01*
X139851099Y-109796646D01*
X139858003Y-109797404D01*
X139864450Y-109798112D01*
X139864453Y-109798112D01*
X139864469Y-109798114D01*
X139877315Y-109799194D01*
X139877342Y-109799195D01*
X139877382Y-109799198D01*
X139885175Y-109799653D01*
X139961627Y-109804119D01*
X139968534Y-109804428D01*
X139972635Y-109804555D01*
X139972665Y-109804553D01*
X139983393Y-109804523D01*
X139997713Y-109805307D01*
X140000000Y-109805565D01*
X140021693Y-109803120D01*
X140031082Y-109802421D01*
X140040764Y-109802068D01*
X140040767Y-109802067D01*
X140040773Y-109802067D01*
X140041230Y-109802002D01*
X140056968Y-109799146D01*
X140179255Y-109785368D01*
X140349522Y-109725789D01*
X140349527Y-109725785D01*
X140349529Y-109725785D01*
X140514102Y-109622377D01*
X140515697Y-109624916D01*
X140581291Y-109591021D01*
X140678101Y-109582845D01*
X140770671Y-109612338D01*
X140786190Y-109622707D01*
X140786398Y-109622377D01*
X140950970Y-109725785D01*
X140950974Y-109725786D01*
X140950978Y-109725789D01*
X141121245Y-109785368D01*
X141121248Y-109785368D01*
X141132739Y-109789389D01*
X141216420Y-109838751D01*
X141274841Y-109916378D01*
X141299108Y-110010454D01*
X141299500Y-110024416D01*
X141299500Y-119725870D01*
X141295332Y-119763980D01*
X141296405Y-119764139D01*
X141295108Y-119772932D01*
X141295107Y-119772943D01*
X141295107Y-119772944D01*
X141291825Y-119816625D01*
X141291144Y-119825683D01*
X141265102Y-119919282D01*
X141255176Y-119937083D01*
X141197550Y-120031158D01*
X141191354Y-120041852D01*
X141191331Y-120041892D01*
X141185202Y-120053096D01*
X141185037Y-120053416D01*
X141179641Y-120063866D01*
X141158600Y-120107124D01*
X141104664Y-120218015D01*
X141102297Y-120223063D01*
X141098058Y-120231184D01*
X141097817Y-120231726D01*
X141093036Y-120246435D01*
X141091334Y-120251325D01*
X141075903Y-120292840D01*
X141072651Y-120305551D01*
X141072143Y-120305421D01*
X141067707Y-120324392D01*
X141039326Y-120411741D01*
X141039325Y-120411744D01*
X141019540Y-120600000D01*
X141039326Y-120788256D01*
X141039326Y-120788258D01*
X141097821Y-120968284D01*
X141098263Y-120969278D01*
X141100894Y-120974232D01*
X141179646Y-121136143D01*
X141185228Y-121146950D01*
X141185237Y-121146968D01*
X141191349Y-121158137D01*
X141191367Y-121158168D01*
X141191373Y-121158179D01*
X141197564Y-121168863D01*
X141236210Y-121231953D01*
X141269821Y-121323107D01*
X141265990Y-121420186D01*
X141252735Y-121460131D01*
X141238385Y-121493603D01*
X141235479Y-121499891D01*
X141205185Y-121560937D01*
X141178152Y-121603806D01*
X141169528Y-121614813D01*
X141138567Y-121666025D01*
X141136678Y-121669051D01*
X141107864Y-121713763D01*
X141102252Y-121724711D01*
X141101543Y-121724347D01*
X141093532Y-121740525D01*
X141081522Y-121760392D01*
X141068652Y-121801695D01*
X141022206Y-121887029D01*
X140946641Y-121948094D01*
X140853459Y-121975592D01*
X140756846Y-121965339D01*
X140671512Y-121918893D01*
X140610447Y-121843328D01*
X140588170Y-121783024D01*
X140585368Y-121770746D01*
X140585368Y-121770745D01*
X140525789Y-121600478D01*
X140525786Y-121600473D01*
X140525785Y-121600470D01*
X140429819Y-121447742D01*
X140429817Y-121447740D01*
X140429816Y-121447738D01*
X140302262Y-121320184D01*
X140302259Y-121320182D01*
X140302257Y-121320180D01*
X140149529Y-121224214D01*
X140149524Y-121224212D01*
X140149522Y-121224211D01*
X139979255Y-121164632D01*
X139979251Y-121164631D01*
X139979245Y-121164630D01*
X139844968Y-121149500D01*
X139844954Y-121149500D01*
X139155046Y-121149500D01*
X139155031Y-121149500D01*
X139020754Y-121164630D01*
X139020746Y-121164631D01*
X139020745Y-121164632D01*
X138850478Y-121224211D01*
X138850476Y-121224211D01*
X138850476Y-121224212D01*
X138850470Y-121224214D01*
X138697742Y-121320180D01*
X138570181Y-121447741D01*
X138521156Y-121525763D01*
X138454410Y-121596361D01*
X138365728Y-121636043D01*
X138268611Y-121638766D01*
X138177845Y-121604118D01*
X138107247Y-121537372D01*
X138067565Y-121448690D01*
X138061655Y-121406137D01*
X138055400Y-121285022D01*
X138053097Y-121260127D01*
X138051030Y-121237779D01*
X138050500Y-121226305D01*
X138050500Y-120127402D01*
X138050501Y-120127398D01*
X138050500Y-120053414D01*
X138050884Y-120043644D01*
X138059268Y-119937090D01*
X138064941Y-119864992D01*
X138071050Y-119826415D01*
X138109451Y-119666455D01*
X138121521Y-119629307D01*
X138184474Y-119477323D01*
X138202210Y-119442517D01*
X138288156Y-119302266D01*
X138311120Y-119270658D01*
X138427295Y-119134631D01*
X138433922Y-119127461D01*
X138527925Y-119033459D01*
X138702394Y-118820867D01*
X138855184Y-118592199D01*
X138984825Y-118349654D01*
X139090068Y-118095571D01*
X139169899Y-117832395D01*
X139223549Y-117562662D01*
X139250502Y-117288969D01*
X139250500Y-117151460D01*
X139250500Y-117113590D01*
X139250500Y-116786045D01*
X139262953Y-116708285D01*
X139292249Y-116619168D01*
X139293664Y-116615100D01*
X139350722Y-116459847D01*
X139352622Y-116455000D01*
X139406434Y-116325850D01*
X139409149Y-116319800D01*
X139457886Y-116218475D01*
X139461865Y-116210883D01*
X139477821Y-116182831D01*
X139511362Y-116123864D01*
X139514210Y-116118528D01*
X139518596Y-116110967D01*
X139525789Y-116099522D01*
X139585368Y-115929255D01*
X139597753Y-115819334D01*
X139600499Y-115794968D01*
X139600500Y-115794953D01*
X139600500Y-115105046D01*
X139600499Y-115105031D01*
X139585369Y-114970754D01*
X139585368Y-114970745D01*
X139525789Y-114800478D01*
X139525786Y-114800473D01*
X139525785Y-114800470D01*
X139429819Y-114647742D01*
X139429817Y-114647740D01*
X139429816Y-114647738D01*
X139302262Y-114520184D01*
X139302259Y-114520182D01*
X139302257Y-114520180D01*
X139149529Y-114424214D01*
X139149524Y-114424212D01*
X139149522Y-114424211D01*
X138979255Y-114364632D01*
X138979251Y-114364631D01*
X138979245Y-114364630D01*
X138844968Y-114349500D01*
X138844954Y-114349500D01*
X138155046Y-114349500D01*
X138155031Y-114349500D01*
X138020754Y-114364630D01*
X138020746Y-114364631D01*
X138020745Y-114364632D01*
X137850478Y-114424211D01*
X137850476Y-114424211D01*
X137850476Y-114424212D01*
X137850470Y-114424214D01*
X137697742Y-114520180D01*
X137570180Y-114647742D01*
X137474214Y-114800470D01*
X137474211Y-114800476D01*
X137474211Y-114800478D01*
X137421894Y-114949993D01*
X137414632Y-114970746D01*
X137414630Y-114970754D01*
X137399500Y-115105031D01*
X137399500Y-115794968D01*
X137414630Y-115929245D01*
X137414632Y-115929256D01*
X137474211Y-116099522D01*
X137482048Y-116111996D01*
X137487036Y-116121052D01*
X137538151Y-116210918D01*
X137542129Y-116218508D01*
X137590850Y-116319804D01*
X137593571Y-116325872D01*
X137647346Y-116454930D01*
X137649281Y-116459868D01*
X137706345Y-116615136D01*
X137707749Y-116619168D01*
X137737045Y-116708283D01*
X137749500Y-116786045D01*
X137749500Y-117065940D01*
X137749499Y-117065962D01*
X137749499Y-117146586D01*
X137749115Y-117156355D01*
X137735059Y-117335000D01*
X137728947Y-117373593D01*
X137690550Y-117533536D01*
X137678475Y-117570698D01*
X137615528Y-117722667D01*
X137597790Y-117757482D01*
X137511842Y-117897737D01*
X137488876Y-117929347D01*
X137372699Y-118065373D01*
X137366061Y-118072554D01*
X137272072Y-118166544D01*
X137272061Y-118166556D01*
X137097612Y-118379122D01*
X137097607Y-118379129D01*
X136944815Y-118607802D01*
X136944804Y-118607819D01*
X136815180Y-118850335D01*
X136815170Y-118850355D01*
X136709937Y-119104414D01*
X136709935Y-119104418D01*
X136630100Y-119367606D01*
X136630097Y-119367619D01*
X136576451Y-119637333D01*
X136549498Y-119911025D01*
X136549498Y-119911032D01*
X136549500Y-120019269D01*
X136549500Y-121231372D01*
X136530546Y-121326660D01*
X136476570Y-121407442D01*
X136395788Y-121461418D01*
X136300500Y-121480372D01*
X136205212Y-121461418D01*
X136124430Y-121407442D01*
X136070454Y-121326660D01*
X136052559Y-121254308D01*
X136051030Y-121237779D01*
X136050500Y-121226305D01*
X136050500Y-116403417D01*
X136069454Y-116308129D01*
X136071145Y-116304145D01*
X136074910Y-116295485D01*
X136130280Y-116215658D01*
X136172534Y-116182839D01*
X136318656Y-116092712D01*
X136442712Y-115968656D01*
X136534814Y-115819334D01*
X136589999Y-115652797D01*
X136600500Y-115550009D01*
X136600499Y-114949992D01*
X136589999Y-114847203D01*
X136534814Y-114680666D01*
X136442712Y-114531344D01*
X136318656Y-114407288D01*
X136169334Y-114315186D01*
X136169332Y-114315185D01*
X136169330Y-114315184D01*
X136169332Y-114315184D01*
X136002802Y-114260002D01*
X136002798Y-114260001D01*
X136002797Y-114260001D01*
X135900009Y-114249500D01*
X135900005Y-114249500D01*
X134699993Y-114249500D01*
X134597199Y-114260001D01*
X134430667Y-114315185D01*
X134281346Y-114407286D01*
X134157286Y-114531346D01*
X134065184Y-114680668D01*
X134010002Y-114847197D01*
X134010001Y-114847204D01*
X133999500Y-114949988D01*
X133999500Y-115550006D01*
X134010001Y-115652800D01*
X134065185Y-115819331D01*
X134065186Y-115819334D01*
X134157288Y-115968656D01*
X134281344Y-116092712D01*
X134427451Y-116182831D01*
X134498601Y-116248986D01*
X134525075Y-116295459D01*
X134528846Y-116304132D01*
X134549462Y-116399070D01*
X134549500Y-116403424D01*
X134549500Y-121235846D01*
X134545567Y-121276178D01*
X134545690Y-121276194D01*
X134545102Y-121280950D01*
X134544810Y-121283945D01*
X134544599Y-121285012D01*
X134544597Y-121285028D01*
X134537744Y-121417705D01*
X134513900Y-121511888D01*
X134455828Y-121589777D01*
X134372369Y-121639515D01*
X134276230Y-121653527D01*
X134182047Y-121629683D01*
X134113009Y-121580931D01*
X134102262Y-121570184D01*
X134102259Y-121570182D01*
X134102257Y-121570180D01*
X133949529Y-121474214D01*
X133949524Y-121474212D01*
X133949522Y-121474211D01*
X133779255Y-121414632D01*
X133779251Y-121414631D01*
X133779245Y-121414630D01*
X133644968Y-121399500D01*
X133644954Y-121399500D01*
X132955046Y-121399500D01*
X132955031Y-121399500D01*
X132820754Y-121414630D01*
X132820746Y-121414631D01*
X132820745Y-121414632D01*
X132650478Y-121474211D01*
X132650476Y-121474211D01*
X132650476Y-121474212D01*
X132650470Y-121474214D01*
X132497741Y-121570181D01*
X132478408Y-121589514D01*
X132397625Y-121643489D01*
X132302337Y-121662441D01*
X132207049Y-121643485D01*
X132126268Y-121589508D01*
X132091507Y-121545918D01*
X132030414Y-121448690D01*
X132029816Y-121447738D01*
X131902262Y-121320184D01*
X131902259Y-121320182D01*
X131902257Y-121320180D01*
X131749529Y-121224214D01*
X131749524Y-121224212D01*
X131749522Y-121224211D01*
X131579255Y-121164632D01*
X131579251Y-121164631D01*
X131579245Y-121164630D01*
X131444968Y-121149500D01*
X131444954Y-121149500D01*
X130755046Y-121149500D01*
X130755031Y-121149500D01*
X130620754Y-121164630D01*
X130620746Y-121164631D01*
X130620745Y-121164632D01*
X130450478Y-121224211D01*
X130450476Y-121224211D01*
X130450476Y-121224212D01*
X130450470Y-121224214D01*
X130297742Y-121320180D01*
X130170180Y-121447742D01*
X130074214Y-121600470D01*
X130074211Y-121600476D01*
X130074211Y-121600478D01*
X130018184Y-121760596D01*
X130014632Y-121770746D01*
X130014630Y-121770754D01*
X129999500Y-121905031D01*
X129999500Y-123094968D01*
X125756825Y-123094968D01*
X125666015Y-122893197D01*
X125660688Y-122879149D01*
X125575369Y-122605352D01*
X125571774Y-122590765D01*
X125520079Y-122308676D01*
X125518269Y-122293760D01*
X125500727Y-122003750D01*
X125500500Y-121996232D01*
X125500500Y-121864225D01*
X125519454Y-121768937D01*
X125573430Y-121688155D01*
X125654212Y-121634179D01*
X125749500Y-121615225D01*
X125844788Y-121634179D01*
X125911209Y-121674881D01*
X126056341Y-121798836D01*
X126056345Y-121798839D01*
X126056347Y-121798841D01*
X126200258Y-121887029D01*
X126271141Y-121930466D01*
X126503889Y-122026873D01*
X126748852Y-122085683D01*
X126820608Y-122091330D01*
X126999995Y-122105449D01*
X127000000Y-122105449D01*
X127000005Y-122105449D01*
X127156967Y-122093095D01*
X127251148Y-122085683D01*
X127496111Y-122026873D01*
X127728859Y-121930466D01*
X127883852Y-121835486D01*
X127943652Y-121798841D01*
X127943654Y-121798839D01*
X127943653Y-121798839D01*
X127943659Y-121798836D01*
X128135224Y-121635224D01*
X128298836Y-121443659D01*
X128298839Y-121443653D01*
X128298841Y-121443652D01*
X128371965Y-121324323D01*
X128430466Y-121228859D01*
X128526873Y-120996111D01*
X128585683Y-120751148D01*
X128605449Y-120500000D01*
X128585683Y-120248852D01*
X128526873Y-120003889D01*
X128430466Y-119771141D01*
X128366318Y-119666461D01*
X128298841Y-119556347D01*
X128298839Y-119556345D01*
X128287103Y-119542604D01*
X128135224Y-119364776D01*
X127943659Y-119201164D01*
X127943657Y-119201163D01*
X127943654Y-119201160D01*
X127943652Y-119201158D01*
X127728864Y-119069537D01*
X127728858Y-119069533D01*
X127496116Y-118973129D01*
X127496108Y-118973126D01*
X127251145Y-118914316D01*
X127000005Y-118894551D01*
X126999995Y-118894551D01*
X126748854Y-118914316D01*
X126503891Y-118973126D01*
X126503883Y-118973129D01*
X126271141Y-119069533D01*
X126271135Y-119069537D01*
X126056347Y-119201158D01*
X126056338Y-119201165D01*
X125911212Y-119325115D01*
X125826445Y-119372587D01*
X125729963Y-119384006D01*
X125636456Y-119357634D01*
X125560159Y-119297486D01*
X125512687Y-119212719D01*
X125500500Y-119135774D01*
X125500500Y-105040000D01*
X131232677Y-105040000D01*
X131251930Y-105260068D01*
X131270466Y-105329245D01*
X131309105Y-105473448D01*
X131312075Y-105479817D01*
X131402466Y-105673662D01*
X131529174Y-105854620D01*
X131685380Y-106010826D01*
X131866338Y-106137534D01*
X132066550Y-106230894D01*
X132279932Y-106288070D01*
X132500000Y-106307323D01*
X132720068Y-106288070D01*
X132933450Y-106230894D01*
X133133662Y-106137534D01*
X133314620Y-106010826D01*
X133470826Y-105854620D01*
X133597534Y-105673662D01*
X133690894Y-105473450D01*
X133748070Y-105260068D01*
X133767323Y-105040000D01*
X133748070Y-104819932D01*
X133690894Y-104606550D01*
X133597534Y-104406339D01*
X133597532Y-104406336D01*
X133597529Y-104406331D01*
X133470833Y-104225389D01*
X133470828Y-104225383D01*
X133470826Y-104225380D01*
X133314620Y-104069174D01*
X133133662Y-103942466D01*
X132933450Y-103849106D01*
X132933448Y-103849105D01*
X132834418Y-103822570D01*
X132720068Y-103791930D01*
X132500000Y-103772677D01*
X132279932Y-103791930D01*
X132235588Y-103803812D01*
X132066551Y-103849105D01*
X131866336Y-103942467D01*
X131866331Y-103942470D01*
X131685389Y-104069166D01*
X131685383Y-104069171D01*
X131529171Y-104225383D01*
X131529166Y-104225389D01*
X131402470Y-104406331D01*
X131402467Y-104406336D01*
X131309105Y-104606551D01*
X131307073Y-104614136D01*
X131251930Y-104819932D01*
X131232677Y-105040000D01*
X125500500Y-105040000D01*
X125500500Y-102500000D01*
X128692677Y-102500000D01*
X128711930Y-102720068D01*
X128730613Y-102789793D01*
X128755668Y-102883301D01*
X128769106Y-102933450D01*
X128862466Y-103133662D01*
X128989174Y-103314620D01*
X129145380Y-103470826D01*
X129326338Y-103597534D01*
X129526550Y-103690894D01*
X129739932Y-103748070D01*
X129960000Y-103767323D01*
X130180068Y-103748070D01*
X130393450Y-103690894D01*
X130593662Y-103597534D01*
X130774620Y-103470826D01*
X130930826Y-103314620D01*
X131057534Y-103133662D01*
X131150894Y-102933450D01*
X131208070Y-102720068D01*
X131227323Y-102500000D01*
X133772677Y-102500000D01*
X133791930Y-102720068D01*
X133810613Y-102789793D01*
X133835668Y-102883301D01*
X133849106Y-102933450D01*
X133942466Y-103133662D01*
X134069174Y-103314620D01*
X134225380Y-103470826D01*
X134406338Y-103597534D01*
X134606550Y-103690894D01*
X134819932Y-103748070D01*
X135040000Y-103767323D01*
X135260068Y-103748070D01*
X135473450Y-103690894D01*
X135673662Y-103597534D01*
X135854620Y-103470826D01*
X136010826Y-103314620D01*
X136137534Y-103133662D01*
X136230894Y-102933450D01*
X136288070Y-102720068D01*
X136307323Y-102500000D01*
X136288070Y-102279932D01*
X136230894Y-102066550D01*
X136137534Y-101866339D01*
X136137532Y-101866336D01*
X136137529Y-101866331D01*
X136010833Y-101685389D01*
X136010828Y-101685383D01*
X136010826Y-101685380D01*
X135854620Y-101529174D01*
X135673662Y-101402466D01*
X135473450Y-101309106D01*
X135473448Y-101309105D01*
X135374418Y-101282570D01*
X135260068Y-101251930D01*
X135040000Y-101232677D01*
X134819932Y-101251930D01*
X134762757Y-101267250D01*
X134606551Y-101309105D01*
X134406336Y-101402467D01*
X134406331Y-101402470D01*
X134225389Y-101529166D01*
X134225383Y-101529171D01*
X134069171Y-101685383D01*
X134069166Y-101685389D01*
X133942470Y-101866331D01*
X133942467Y-101866336D01*
X133849105Y-102066551D01*
X133810962Y-102208904D01*
X133791930Y-102279932D01*
X133772677Y-102500000D01*
X131227323Y-102500000D01*
X131208070Y-102279932D01*
X131150894Y-102066550D01*
X131057534Y-101866339D01*
X131057532Y-101866336D01*
X131057529Y-101866331D01*
X130930833Y-101685389D01*
X130930828Y-101685383D01*
X130930826Y-101685380D01*
X130774620Y-101529174D01*
X130593662Y-101402466D01*
X130393450Y-101309106D01*
X130393448Y-101309105D01*
X130294417Y-101282570D01*
X130180068Y-101251930D01*
X129960000Y-101232677D01*
X129959999Y-101232677D01*
X129886644Y-101239094D01*
X129739932Y-101251930D01*
X129682757Y-101267250D01*
X129526551Y-101309105D01*
X129326336Y-101402467D01*
X129326331Y-101402470D01*
X129145389Y-101529166D01*
X129145383Y-101529171D01*
X128989171Y-101685383D01*
X128989166Y-101685389D01*
X128862470Y-101866331D01*
X128862467Y-101866336D01*
X128769105Y-102066551D01*
X128730962Y-102208904D01*
X128711930Y-102279932D01*
X128692677Y-102500000D01*
X125500500Y-102500000D01*
X125500500Y-94750000D01*
X128692677Y-94750000D01*
X128711930Y-94970068D01*
X128769106Y-95183450D01*
X128862466Y-95383662D01*
X128989174Y-95564620D01*
X129145380Y-95720826D01*
X129326338Y-95847534D01*
X129526550Y-95940894D01*
X129739932Y-95998070D01*
X129960000Y-96017323D01*
X130180068Y-95998070D01*
X130393450Y-95940894D01*
X130593662Y-95847534D01*
X130774620Y-95720826D01*
X130930826Y-95564620D01*
X131057534Y-95383662D01*
X131150894Y-95183450D01*
X131208070Y-94970068D01*
X131227323Y-94750000D01*
X133772677Y-94750000D01*
X133791930Y-94970068D01*
X133849106Y-95183450D01*
X133942466Y-95383662D01*
X134069174Y-95564620D01*
X134225380Y-95720826D01*
X134406338Y-95847534D01*
X134606550Y-95940894D01*
X134819932Y-95998070D01*
X135040000Y-96017323D01*
X135260068Y-95998070D01*
X135473450Y-95940894D01*
X135673662Y-95847534D01*
X135854620Y-95720826D01*
X136010826Y-95564620D01*
X136137534Y-95383662D01*
X136230894Y-95183450D01*
X136288070Y-94970068D01*
X136307323Y-94750000D01*
X136288070Y-94529932D01*
X136230894Y-94316550D01*
X136137534Y-94116339D01*
X136137532Y-94116336D01*
X136137529Y-94116331D01*
X136010833Y-93935389D01*
X136010828Y-93935383D01*
X136010826Y-93935380D01*
X135854620Y-93779174D01*
X135673662Y-93652466D01*
X135473450Y-93559106D01*
X135473448Y-93559105D01*
X135374418Y-93532570D01*
X135260068Y-93501930D01*
X135040000Y-93482677D01*
X134819932Y-93501930D01*
X134762757Y-93517250D01*
X134606551Y-93559105D01*
X134406336Y-93652467D01*
X134406331Y-93652470D01*
X134225389Y-93779166D01*
X134225383Y-93779171D01*
X134069171Y-93935383D01*
X134069166Y-93935389D01*
X133942470Y-94116331D01*
X133942467Y-94116336D01*
X133849105Y-94316551D01*
X133807250Y-94472756D01*
X133791930Y-94529932D01*
X133772677Y-94750000D01*
X131227323Y-94750000D01*
X131208070Y-94529932D01*
X131150894Y-94316550D01*
X131057534Y-94116339D01*
X131057532Y-94116336D01*
X131057529Y-94116331D01*
X130930833Y-93935389D01*
X130930828Y-93935383D01*
X130930826Y-93935380D01*
X130774620Y-93779174D01*
X130593662Y-93652466D01*
X130393450Y-93559106D01*
X130393448Y-93559105D01*
X130294418Y-93532570D01*
X130180068Y-93501930D01*
X129960000Y-93482677D01*
X129959999Y-93482677D01*
X129886644Y-93489094D01*
X129739932Y-93501930D01*
X129682757Y-93517250D01*
X129526551Y-93559105D01*
X129326336Y-93652467D01*
X129326331Y-93652470D01*
X129145389Y-93779166D01*
X129145383Y-93779171D01*
X128989171Y-93935383D01*
X128989166Y-93935389D01*
X128862470Y-94116331D01*
X128862467Y-94116336D01*
X128769105Y-94316551D01*
X128727250Y-94472756D01*
X128711930Y-94529932D01*
X128692677Y-94750000D01*
X125500500Y-94750000D01*
X125500500Y-81381547D01*
X125519454Y-81286259D01*
X125573430Y-81205477D01*
X125654212Y-81151501D01*
X125749500Y-81132547D01*
X125844788Y-81151501D01*
X125925570Y-81205477D01*
X125979546Y-81286259D01*
X125992255Y-81326133D01*
X126002700Y-81371893D01*
X126021727Y-81455253D01*
X126117720Y-81729578D01*
X126117724Y-81729588D01*
X126171248Y-81840729D01*
X126243834Y-81991452D01*
X126398470Y-82237552D01*
X126579688Y-82464791D01*
X126785209Y-82670312D01*
X127012448Y-82851530D01*
X127258548Y-83006166D01*
X127433125Y-83090239D01*
X127520411Y-83132275D01*
X127520421Y-83132279D01*
X127740378Y-83209247D01*
X127794753Y-83228274D01*
X128078115Y-83292952D01*
X128225155Y-83309521D01*
X128267252Y-83318933D01*
X128267376Y-83318463D01*
X128275970Y-83320715D01*
X128275974Y-83320715D01*
X128275975Y-83320716D01*
X128389912Y-83342019D01*
X128427704Y-83352216D01*
X128432756Y-83354017D01*
X128516151Y-83403849D01*
X128574132Y-83481806D01*
X128597866Y-83576017D01*
X128583741Y-83672140D01*
X128564824Y-83713070D01*
X128519856Y-83790957D01*
X128519850Y-83790970D01*
X128451145Y-83989481D01*
X128451143Y-83989490D01*
X128449631Y-83999999D01*
X128449632Y-84000000D01*
X129520440Y-84000000D01*
X129481722Y-84042059D01*
X129431449Y-84156670D01*
X129421114Y-84281395D01*
X129451837Y-84402719D01*
X129515394Y-84500000D01*
X128453742Y-84500000D01*
X128480769Y-84611411D01*
X128480770Y-84611414D01*
X128568034Y-84802496D01*
X128568035Y-84802497D01*
X128592985Y-84837535D01*
X128632817Y-84926149D01*
X128635706Y-85023261D01*
X128605795Y-85106466D01*
X128499397Y-85290753D01*
X128499393Y-85290762D01*
X128430657Y-85489362D01*
X128430655Y-85489367D01*
X128400746Y-85697396D01*
X128410745Y-85907325D01*
X128460295Y-86111575D01*
X128547603Y-86302751D01*
X128547606Y-86302757D01*
X128669510Y-86473947D01*
X128669514Y-86473952D01*
X128669518Y-86473955D01*
X128669520Y-86473958D01*
X128821616Y-86618981D01*
X128821625Y-86618988D01*
X128998418Y-86732607D01*
X128998422Y-86732609D01*
X128998428Y-86732613D01*
X129193543Y-86810725D01*
X129266943Y-86824871D01*
X129399908Y-86850499D01*
X129399911Y-86850499D01*
X129399915Y-86850500D01*
X129399919Y-86850500D01*
X130107427Y-86850500D01*
X130107435Y-86850499D01*
X130264212Y-86835529D01*
X130264214Y-86835528D01*
X130264218Y-86835528D01*
X130465875Y-86776316D01*
X130652682Y-86680011D01*
X130817886Y-86550092D01*
X130955519Y-86391256D01*
X131060604Y-86209244D01*
X131129344Y-86010633D01*
X131159254Y-85802602D01*
X131149254Y-85592670D01*
X131099704Y-85388424D01*
X131012396Y-85197247D01*
X131012394Y-85197244D01*
X131012393Y-85197242D01*
X130986972Y-85161543D01*
X130947139Y-85072929D01*
X130944249Y-84975817D01*
X130974161Y-84892609D01*
X131080144Y-84709040D01*
X131080149Y-84709029D01*
X131148854Y-84510518D01*
X131148856Y-84510509D01*
X131150368Y-84500000D01*
X130079560Y-84500000D01*
X130118278Y-84457941D01*
X130168551Y-84343330D01*
X130178886Y-84218605D01*
X130148163Y-84097281D01*
X130084606Y-84000000D01*
X131146258Y-84000000D01*
X131146258Y-83999999D01*
X131119230Y-83888588D01*
X131119229Y-83888585D01*
X131031965Y-83697504D01*
X130984925Y-83631446D01*
X130945092Y-83542833D01*
X130942201Y-83445721D01*
X130972113Y-83362514D01*
X131060604Y-83209244D01*
X131129344Y-83010633D01*
X131159254Y-82802602D01*
X131149254Y-82592670D01*
X131099704Y-82388424D01*
X131012396Y-82197247D01*
X130987289Y-82161989D01*
X130947457Y-82073377D01*
X130944566Y-81976266D01*
X130974479Y-81893055D01*
X130975514Y-81891260D01*
X130975519Y-81891256D01*
X131080604Y-81709244D01*
X131149344Y-81510633D01*
X131179254Y-81302602D01*
X131169254Y-81092670D01*
X131119704Y-80888424D01*
X131032396Y-80697247D01*
X130985199Y-80630968D01*
X130945367Y-80542356D01*
X130942476Y-80445244D01*
X130972388Y-80362037D01*
X131060604Y-80209244D01*
X131129344Y-80010633D01*
X131159254Y-79802602D01*
X131149254Y-79592670D01*
X131116879Y-79459222D01*
X131099705Y-79388426D01*
X131069043Y-79321286D01*
X131026658Y-79228478D01*
X131004317Y-79133932D01*
X131019857Y-79038028D01*
X131042320Y-78992573D01*
X131100789Y-78899522D01*
X131160368Y-78729255D01*
X131169352Y-78649522D01*
X131175499Y-78594968D01*
X131175500Y-78594953D01*
X131175500Y-77940061D01*
X131176163Y-77927227D01*
X131177296Y-77916286D01*
X131177793Y-77911489D01*
X131174413Y-77826186D01*
X131170724Y-77713096D01*
X131169114Y-77655046D01*
X131166994Y-77578604D01*
X131163839Y-77447738D01*
X131163245Y-77423110D01*
X131161609Y-77346406D01*
X131166336Y-77292524D01*
X131169264Y-77277807D01*
X131220264Y-77021396D01*
X131250503Y-76714318D01*
X131250500Y-76560036D01*
X131250500Y-76543146D01*
X131250500Y-74180000D01*
X137732677Y-74180000D01*
X137751930Y-74400068D01*
X137809106Y-74613450D01*
X137902466Y-74813662D01*
X138029174Y-74994620D01*
X138185380Y-75150826D01*
X138366338Y-75277534D01*
X138566550Y-75370894D01*
X138779932Y-75428070D01*
X139000000Y-75447323D01*
X139220068Y-75428070D01*
X139433450Y-75370894D01*
X139633662Y-75277534D01*
X139814620Y-75150826D01*
X139970826Y-74994620D01*
X140097534Y-74813662D01*
X140190894Y-74613450D01*
X140248070Y-74400068D01*
X140251947Y-74355744D01*
X140279134Y-74262473D01*
X140339945Y-74186703D01*
X140354351Y-74178799D01*
X140309255Y-74142605D01*
X140262525Y-74057427D01*
X140251947Y-74004252D01*
X140248070Y-73959932D01*
X140190894Y-73746550D01*
X140097534Y-73546339D01*
X140097532Y-73546336D01*
X140097529Y-73546331D01*
X139970833Y-73365389D01*
X139970828Y-73365383D01*
X139970826Y-73365380D01*
X139814620Y-73209174D01*
X139633662Y-73082466D01*
X139455894Y-72999571D01*
X139433448Y-72989105D01*
X139334418Y-72962570D01*
X139220068Y-72931930D01*
X139000000Y-72912677D01*
X138779932Y-72931930D01*
X138722757Y-72947250D01*
X138566551Y-72989105D01*
X138366336Y-73082467D01*
X138366331Y-73082470D01*
X138185389Y-73209166D01*
X138185383Y-73209171D01*
X138029171Y-73365383D01*
X138029166Y-73365389D01*
X137902470Y-73546331D01*
X137902467Y-73546336D01*
X137809105Y-73746551D01*
X137783224Y-73843141D01*
X137751930Y-73959932D01*
X137732677Y-74180000D01*
X131250500Y-74180000D01*
X131250500Y-67308168D01*
X131251566Y-67291902D01*
X131260162Y-67226607D01*
X131261537Y-67216158D01*
X131278359Y-67153377D01*
X131298178Y-67105531D01*
X131330673Y-67049249D01*
X131362203Y-67008158D01*
X131408158Y-66962203D01*
X131449251Y-66930671D01*
X131505531Y-66898178D01*
X131553377Y-66878359D01*
X131616160Y-66861537D01*
X131662051Y-66855495D01*
X131691904Y-66851566D01*
X131708170Y-66850500D01*
X135030074Y-66850500D01*
X135030081Y-66850500D01*
X135288347Y-66819141D01*
X135540950Y-66756880D01*
X135784206Y-66664625D01*
X136014569Y-66543722D01*
X136203250Y-66413484D01*
X136228671Y-66395937D01*
X136228671Y-66395936D01*
X136228678Y-66395932D01*
X136423413Y-66223413D01*
X136595932Y-66028678D01*
X136743722Y-65814569D01*
X136864625Y-65584206D01*
X136956880Y-65340950D01*
X137019141Y-65088347D01*
X137050500Y-64830081D01*
X137050500Y-64700000D01*
X137050500Y-64621119D01*
X137050500Y-61705021D01*
X137056370Y-61651273D01*
X137060137Y-61634232D01*
X137085001Y-61521764D01*
X137124796Y-61355846D01*
X137125430Y-61353321D01*
X137158061Y-61228812D01*
X137164169Y-61205506D01*
X137164984Y-61202549D01*
X137202566Y-61072455D01*
X137203660Y-61068870D01*
X137207893Y-61055718D01*
X137242149Y-60949265D01*
X137244876Y-60940792D01*
X137244878Y-60940783D01*
X137244888Y-60940754D01*
X137244895Y-60940724D01*
X137245717Y-60937951D01*
X137245784Y-60937970D01*
X137245788Y-60937959D01*
X137245995Y-60938025D01*
X137255900Y-60909539D01*
X137259540Y-60901057D01*
X137259541Y-60901054D01*
X137300500Y-60701741D01*
X137300500Y-59749265D01*
X137300500Y-59749258D01*
X137285074Y-59597566D01*
X137285075Y-59597566D01*
X137272054Y-59556064D01*
X137224159Y-59403412D01*
X137224157Y-59403408D01*
X137224156Y-59403405D01*
X137125408Y-59225495D01*
X136992869Y-59071107D01*
X136927783Y-59020727D01*
X136831958Y-58946552D01*
X136831954Y-58946550D01*
X136831953Y-58946549D01*
X136649275Y-58856941D01*
X136649271Y-58856940D01*
X136452286Y-58805937D01*
X136452277Y-58805936D01*
X136249072Y-58795630D01*
X136249052Y-58795631D01*
X136047934Y-58826442D01*
X136047929Y-58826444D01*
X135857113Y-58897114D01*
X135684427Y-59004748D01*
X135536947Y-59144939D01*
X135420704Y-59311951D01*
X135340460Y-59498942D01*
X135299500Y-59698259D01*
X135299500Y-59746383D01*
X135280546Y-59841671D01*
X135226570Y-59922453D01*
X135145788Y-59976429D01*
X135061582Y-59993178D01*
X135061674Y-59994992D01*
X135049052Y-59995631D01*
X134847934Y-60026442D01*
X134847929Y-60026444D01*
X134657113Y-60097114D01*
X134484427Y-60204748D01*
X134336947Y-60344939D01*
X134220704Y-60511951D01*
X134140460Y-60698942D01*
X134099500Y-60898259D01*
X134099500Y-61850734D01*
X134099501Y-61850760D01*
X134114925Y-62002433D01*
X134114924Y-62002433D01*
X134175843Y-62196594D01*
X134274591Y-62374504D01*
X134407130Y-62528892D01*
X134407134Y-62528895D01*
X134568042Y-62653448D01*
X134568045Y-62653449D01*
X134568046Y-62653450D01*
X134750724Y-62743058D01*
X134750725Y-62743058D01*
X134750729Y-62743060D01*
X134947715Y-62794063D01*
X135030100Y-62798241D01*
X135150927Y-62804369D01*
X135150931Y-62804368D01*
X135150936Y-62804369D01*
X135150941Y-62804368D01*
X135150945Y-62804368D01*
X135262793Y-62787233D01*
X135359852Y-62791538D01*
X135447876Y-62832659D01*
X135513463Y-62904335D01*
X135546628Y-62995654D01*
X135549500Y-63033361D01*
X135549500Y-64693005D01*
X135548717Y-64706942D01*
X135541298Y-64772791D01*
X135536357Y-64816645D01*
X135523949Y-64871006D01*
X135494442Y-64955330D01*
X135470252Y-65005562D01*
X135422730Y-65081195D01*
X135387964Y-65124792D01*
X135324792Y-65187964D01*
X135281195Y-65222730D01*
X135205562Y-65270252D01*
X135155330Y-65294442D01*
X135071006Y-65323949D01*
X135016645Y-65336357D01*
X134906958Y-65348716D01*
X134893007Y-65349500D01*
X131708169Y-65349500D01*
X131691904Y-65348434D01*
X131635063Y-65340951D01*
X131616158Y-65338462D01*
X131553370Y-65321637D01*
X131505538Y-65301824D01*
X131449249Y-65269326D01*
X131426034Y-65251513D01*
X131408163Y-65237800D01*
X131362199Y-65191836D01*
X131330673Y-65150750D01*
X131298177Y-65094465D01*
X131278360Y-65046624D01*
X131261537Y-64983838D01*
X131251566Y-64908097D01*
X131250500Y-64891830D01*
X131250500Y-64556291D01*
X131250500Y-63815455D01*
X131250499Y-63038575D01*
X131269453Y-62943293D01*
X131323429Y-62862512D01*
X131404211Y-62808535D01*
X131499499Y-62789581D01*
X131537211Y-62792453D01*
X131547708Y-62794061D01*
X131547715Y-62794063D01*
X131547721Y-62794063D01*
X131547726Y-62794064D01*
X131750927Y-62804369D01*
X131750931Y-62804368D01*
X131750936Y-62804369D01*
X131750940Y-62804368D01*
X131750947Y-62804368D01*
X131952065Y-62773557D01*
X131952065Y-62773556D01*
X131952071Y-62773556D01*
X132142887Y-62702886D01*
X132315571Y-62595252D01*
X132463053Y-62455059D01*
X132579295Y-62288049D01*
X132659540Y-62101058D01*
X132700500Y-61901741D01*
X132700500Y-60949258D01*
X132685074Y-60797566D01*
X132685075Y-60797566D01*
X132685074Y-60797562D01*
X132624159Y-60603412D01*
X132624157Y-60603408D01*
X132624156Y-60603405D01*
X132525408Y-60425495D01*
X132392869Y-60271107D01*
X132307140Y-60204748D01*
X132231958Y-60146552D01*
X132231954Y-60146550D01*
X132231953Y-60146549D01*
X132049275Y-60056941D01*
X132049271Y-60056940D01*
X131852286Y-60005937D01*
X131852277Y-60005936D01*
X131736887Y-60000084D01*
X131642681Y-59976328D01*
X131564737Y-59918330D01*
X131514922Y-59834918D01*
X131501217Y-59755536D01*
X131500819Y-59755557D01*
X131500651Y-59752260D01*
X131500499Y-59751380D01*
X131500500Y-59749258D01*
X131485074Y-59597566D01*
X131485075Y-59597566D01*
X131472054Y-59556064D01*
X131424159Y-59403412D01*
X131424157Y-59403408D01*
X131424156Y-59403405D01*
X131325408Y-59225495D01*
X131192869Y-59071107D01*
X131127783Y-59020727D01*
X131031958Y-58946552D01*
X131031954Y-58946550D01*
X131031953Y-58946549D01*
X130849275Y-58856941D01*
X130849271Y-58856940D01*
X130652286Y-58805937D01*
X130652277Y-58805936D01*
X130449072Y-58795630D01*
X130449059Y-58795631D01*
X130362205Y-58808937D01*
X130265145Y-58804630D01*
X130177122Y-58763509D01*
X130111536Y-58691832D01*
X130095757Y-58648386D01*
X131845823Y-58648386D01*
X131850720Y-58680350D01*
X131875097Y-58839474D01*
X131875097Y-58839476D01*
X131875098Y-58839477D01*
X131875098Y-58839479D01*
X131914755Y-58946552D01*
X131942236Y-59020753D01*
X132044491Y-59184807D01*
X132177677Y-59324919D01*
X132336342Y-59435353D01*
X132513988Y-59511587D01*
X132703344Y-59550500D01*
X132848199Y-59550500D01*
X132848206Y-59550500D01*
X132992321Y-59535845D01*
X132992323Y-59535844D01*
X132992325Y-59535844D01*
X133069636Y-59511587D01*
X133176768Y-59477974D01*
X133253557Y-59435353D01*
X133275181Y-59423351D01*
X133367694Y-59393680D01*
X133464520Y-59401670D01*
X133524730Y-59430262D01*
X133525305Y-59429227D01*
X133536340Y-59435352D01*
X133536341Y-59435352D01*
X133536342Y-59435353D01*
X133713988Y-59511587D01*
X133903344Y-59550500D01*
X134048199Y-59550500D01*
X134048206Y-59550500D01*
X134192321Y-59535845D01*
X134192323Y-59535844D01*
X134192325Y-59535844D01*
X134269636Y-59511587D01*
X134376768Y-59477974D01*
X134545791Y-59384159D01*
X134545790Y-59384159D01*
X134545793Y-59384158D01*
X134629903Y-59311951D01*
X134692468Y-59258240D01*
X134810796Y-59105373D01*
X134895930Y-58931816D01*
X134944385Y-58744674D01*
X134954176Y-58551610D01*
X134924903Y-58360526D01*
X134857764Y-58179247D01*
X134755509Y-58015193D01*
X134622323Y-57875081D01*
X134463658Y-57764647D01*
X134286012Y-57688413D01*
X134286010Y-57688412D01*
X134286009Y-57688412D01*
X134096656Y-57649500D01*
X133951794Y-57649500D01*
X133951789Y-57649500D01*
X133951775Y-57649501D01*
X133807683Y-57664154D01*
X133807674Y-57664155D01*
X133623231Y-57722026D01*
X133524817Y-57776650D01*
X133432304Y-57806321D01*
X133335478Y-57798330D01*
X133275270Y-57769735D01*
X133274695Y-57770773D01*
X133263659Y-57764647D01*
X133157264Y-57718989D01*
X133086012Y-57688413D01*
X133086010Y-57688412D01*
X133086009Y-57688412D01*
X132896656Y-57649500D01*
X132751794Y-57649500D01*
X132751789Y-57649500D01*
X132751775Y-57649501D01*
X132607683Y-57664154D01*
X132607674Y-57664155D01*
X132423230Y-57722026D01*
X132423228Y-57722027D01*
X132254206Y-57815841D01*
X132107534Y-57941757D01*
X131989205Y-58094624D01*
X131904068Y-58268189D01*
X131904068Y-58268190D01*
X131855615Y-58455326D01*
X131855614Y-58455333D01*
X131845823Y-58648386D01*
X130095757Y-58648386D01*
X130078371Y-58600513D01*
X130075500Y-58562808D01*
X130075500Y-58223430D01*
X130075500Y-57825452D01*
X130094453Y-57730170D01*
X130148429Y-57649389D01*
X130172085Y-57628555D01*
X130249999Y-57568245D01*
X130250000Y-56199000D01*
X130268954Y-56103712D01*
X130300000Y-56057248D01*
X130300000Y-56622532D01*
X130315173Y-56689008D01*
X130372095Y-56760387D01*
X130454351Y-56800000D01*
X130545649Y-56800000D01*
X130627905Y-56760387D01*
X130684827Y-56689008D01*
X130700000Y-56622532D01*
X130700000Y-56450000D01*
X130750000Y-56450000D01*
X130750000Y-57573365D01*
X130751945Y-57573068D01*
X130942664Y-57502434D01*
X131115259Y-57394856D01*
X131262670Y-57254732D01*
X131378856Y-57087803D01*
X131459060Y-56900903D01*
X131499999Y-56701694D01*
X131500000Y-56701686D01*
X131500000Y-56650706D01*
X135300000Y-56650706D01*
X135300001Y-56650731D01*
X135315417Y-56802327D01*
X135315419Y-56802337D01*
X135376302Y-56996386D01*
X135376303Y-56996388D01*
X135475002Y-57174211D01*
X135607482Y-57328533D01*
X135768302Y-57453016D01*
X135768312Y-57453023D01*
X135950898Y-57542585D01*
X136050000Y-57568244D01*
X136050000Y-56450001D01*
X136049999Y-56450000D01*
X135300001Y-56450000D01*
X135300000Y-56450001D01*
X135300000Y-56650706D01*
X131500000Y-56650706D01*
X131500000Y-56450001D01*
X131499999Y-56450000D01*
X130750000Y-56450000D01*
X130700000Y-56450000D01*
X130700000Y-55950000D01*
X131499999Y-55950000D01*
X131499999Y-55949999D01*
X131500000Y-55749293D01*
X131499998Y-55749268D01*
X131484582Y-55597672D01*
X131484580Y-55597662D01*
X131423697Y-55403613D01*
X131423696Y-55403611D01*
X131324997Y-55225788D01*
X131192517Y-55071466D01*
X131031697Y-54946983D01*
X131031687Y-54946976D01*
X130986053Y-54924592D01*
X130908850Y-54865611D01*
X130860095Y-54781575D01*
X130847210Y-54685278D01*
X130872158Y-54591381D01*
X130931139Y-54514178D01*
X130964000Y-54489726D01*
X130978292Y-54480818D01*
X131115571Y-54395252D01*
X131263053Y-54255059D01*
X131379295Y-54088049D01*
X131431165Y-53967177D01*
X131482934Y-53890292D01*
X131524072Y-53848692D01*
X131533792Y-53839852D01*
X131543753Y-53831708D01*
X131629524Y-53786080D01*
X131701337Y-53775500D01*
X135098662Y-53775500D01*
X135193950Y-53794454D01*
X135256240Y-53831705D01*
X135258273Y-53833366D01*
X135266192Y-53839840D01*
X135275914Y-53848684D01*
X135311851Y-53885024D01*
X135365377Y-53966105D01*
X135372377Y-53985548D01*
X135375841Y-53996588D01*
X135375843Y-53996594D01*
X135474591Y-54174504D01*
X135607130Y-54328892D01*
X135607134Y-54328895D01*
X135768042Y-54453448D01*
X135813977Y-54475980D01*
X135891176Y-54534958D01*
X135939932Y-54618993D01*
X135952818Y-54715290D01*
X135927872Y-54809188D01*
X135868891Y-54886391D01*
X135836029Y-54910844D01*
X135684742Y-55005141D01*
X135684741Y-55005142D01*
X135537329Y-55145267D01*
X135421143Y-55312196D01*
X135340939Y-55499096D01*
X135300000Y-55698305D01*
X135300000Y-55949999D01*
X135300001Y-55950000D01*
X136100000Y-55950000D01*
X136100000Y-56622532D01*
X136115173Y-56689008D01*
X136172095Y-56760387D01*
X136254351Y-56800000D01*
X136345649Y-56800000D01*
X136427905Y-56760387D01*
X136484827Y-56689008D01*
X136500000Y-56622532D01*
X136500000Y-56450000D01*
X136550000Y-56450000D01*
X136550000Y-57573365D01*
X136551945Y-57573068D01*
X136742664Y-57502434D01*
X136915259Y-57394856D01*
X137062670Y-57254732D01*
X137178856Y-57087803D01*
X137259060Y-56900903D01*
X137299999Y-56701694D01*
X137300000Y-56701686D01*
X137300000Y-56450001D01*
X137299999Y-56450000D01*
X136550000Y-56450000D01*
X136500000Y-56450000D01*
X136500000Y-55950000D01*
X137299999Y-55950000D01*
X137300000Y-55949998D01*
X137300000Y-55749293D01*
X137299998Y-55749268D01*
X137284582Y-55597672D01*
X137284580Y-55597662D01*
X137223697Y-55403613D01*
X137223696Y-55403611D01*
X137124997Y-55225788D01*
X136992517Y-55071466D01*
X136831697Y-54946983D01*
X136831687Y-54946976D01*
X136786053Y-54924592D01*
X136708850Y-54865611D01*
X136660095Y-54781575D01*
X136647210Y-54685278D01*
X136672158Y-54591381D01*
X136731139Y-54514178D01*
X136764000Y-54489726D01*
X136778292Y-54480818D01*
X136915571Y-54395252D01*
X137063053Y-54255059D01*
X137179295Y-54088049D01*
X137259540Y-53901058D01*
X137300500Y-53701741D01*
X137300500Y-52749258D01*
X137285074Y-52597566D01*
X137285075Y-52597566D01*
X137281536Y-52586287D01*
X137224159Y-52403412D01*
X137224157Y-52403408D01*
X137224156Y-52403405D01*
X137125408Y-52225495D01*
X136992869Y-52071107D01*
X136949054Y-52037192D01*
X136831958Y-51946552D01*
X136831954Y-51946550D01*
X136831953Y-51946549D01*
X136649275Y-51856941D01*
X136649271Y-51856940D01*
X136452286Y-51805937D01*
X136452277Y-51805936D01*
X136249072Y-51795630D01*
X136249052Y-51795631D01*
X136047934Y-51826442D01*
X136047929Y-51826444D01*
X135857113Y-51897114D01*
X135684427Y-52004748D01*
X135536947Y-52144939D01*
X135420704Y-52311952D01*
X135420704Y-52311953D01*
X135368837Y-52432813D01*
X135317068Y-52509699D01*
X135275941Y-52551287D01*
X135266224Y-52560129D01*
X135256288Y-52568254D01*
X135170525Y-52613904D01*
X135098659Y-52624500D01*
X134916583Y-52624500D01*
X134821295Y-52605546D01*
X134740513Y-52551570D01*
X134686537Y-52470788D01*
X134667583Y-52375500D01*
X134686537Y-52280212D01*
X134719680Y-52223085D01*
X134740573Y-52196094D01*
X134810796Y-52105373D01*
X134895930Y-51931816D01*
X134944385Y-51744674D01*
X134954176Y-51551610D01*
X134924903Y-51360526D01*
X134857764Y-51179247D01*
X134755509Y-51015193D01*
X134755508Y-51015191D01*
X134685703Y-50941757D01*
X134666020Y-50921051D01*
X134614109Y-50838931D01*
X134597575Y-50743193D01*
X134618936Y-50648416D01*
X134674942Y-50569027D01*
X134757064Y-50517114D01*
X134846495Y-50500500D01*
X137598273Y-50500500D01*
X137693561Y-50519454D01*
G37*
%TD.AperFunction*%
%TD*%
%TA.AperFunction,Conductor*%
%TO.N,/Bat+*%
G36*
X137349982Y-79749982D02*
G01*
X137358253Y-79753412D01*
X137361677Y-79761686D01*
X137361613Y-79762892D01*
X137351000Y-79863871D01*
X137336773Y-79999240D01*
X137332500Y-80007110D01*
X137325013Y-80009716D01*
X137276981Y-80009207D01*
X137235776Y-80018571D01*
X137235773Y-80018572D01*
X137200575Y-80032175D01*
X137200141Y-80032323D01*
X137160119Y-80044286D01*
X137157830Y-80044728D01*
X137112719Y-80048840D01*
X137104169Y-80046178D01*
X137100005Y-80038250D01*
X137099957Y-80037242D01*
X137099044Y-79761636D01*
X137102443Y-79753354D01*
X137110704Y-79749900D01*
X137349982Y-79749982D01*
G37*
%TD.AperFunction*%
%TA.AperFunction,Conductor*%
G36*
X137383123Y-79530324D02*
G01*
X137385218Y-79538320D01*
X137372466Y-79659648D01*
X137368193Y-79667518D01*
X137359607Y-79670061D01*
X137351737Y-79665788D01*
X137349430Y-79661058D01*
X137341449Y-79626501D01*
X137341155Y-79623482D01*
X137343593Y-79549698D01*
X137347292Y-79541542D01*
X137348502Y-79540552D01*
X137366812Y-79527555D01*
X137375539Y-79525562D01*
X137383123Y-79530324D01*
G37*
%TD.AperFunction*%
%TD*%
%TA.AperFunction,Conductor*%
%TO.N,/Bat+*%
G36*
X135762013Y-79450418D02*
G01*
X135898873Y-79455192D01*
X135899333Y-79455227D01*
X136004450Y-79467588D01*
X136004646Y-79467615D01*
X136095449Y-79482400D01*
X136200900Y-79494800D01*
X136338708Y-79499606D01*
X136346856Y-79503319D01*
X136350000Y-79511299D01*
X136350000Y-79988700D01*
X136346573Y-79996973D01*
X136338708Y-80000393D01*
X136200904Y-80005199D01*
X136095453Y-80017599D01*
X136095445Y-80017600D01*
X136004676Y-80032379D01*
X136004419Y-80032415D01*
X135899339Y-80044771D01*
X135898859Y-80044808D01*
X135762067Y-80049579D01*
X135753679Y-80046443D01*
X135749966Y-80038294D01*
X135749959Y-80037972D01*
X135749000Y-79750000D01*
X135749959Y-79462072D01*
X135753413Y-79453812D01*
X135761698Y-79450413D01*
X135762013Y-79450418D01*
G37*
%TD.AperFunction*%
%TD*%
%TA.AperFunction,Conductor*%
%TO.N,/Bat+*%
G36*
X137096320Y-79453556D02*
G01*
X137100033Y-79461705D01*
X137100040Y-79462074D01*
X137101000Y-79750039D01*
X137100040Y-80037925D01*
X137096586Y-80046187D01*
X137088301Y-80049586D01*
X137087932Y-80049579D01*
X136951139Y-80044808D01*
X136950659Y-80044771D01*
X136845578Y-80032415D01*
X136845321Y-80032379D01*
X136754552Y-80017600D01*
X136754544Y-80017599D01*
X136649094Y-80005199D01*
X136511292Y-80000393D01*
X136503143Y-79996680D01*
X136500000Y-79988700D01*
X136500000Y-79511299D01*
X136503427Y-79503026D01*
X136511291Y-79499606D01*
X136649099Y-79494800D01*
X136754549Y-79482400D01*
X136845357Y-79467614D01*
X136845541Y-79467589D01*
X136950667Y-79455227D01*
X136951123Y-79455192D01*
X137087934Y-79450420D01*
X137096320Y-79453556D01*
G37*
%TD.AperFunction*%
%TD*%
%TA.AperFunction,Conductor*%
%TO.N,/Bat+*%
G36*
X135550238Y-111253427D02*
G01*
X135552885Y-111257500D01*
X135599999Y-111380000D01*
X135650001Y-111495005D01*
X135699995Y-111594991D01*
X135700002Y-111595004D01*
X135723532Y-111635004D01*
X135750000Y-111679999D01*
X135750004Y-111680004D01*
X135750005Y-111680006D01*
X135794245Y-111741943D01*
X135796265Y-111750667D01*
X135793005Y-111757008D01*
X135308281Y-112242702D01*
X135300012Y-112246137D01*
X135291735Y-112242718D01*
X135291719Y-112242702D01*
X134806994Y-111757008D01*
X134803575Y-111748731D01*
X134805753Y-111741945D01*
X134849999Y-111679999D01*
X134899999Y-111594999D01*
X134950000Y-111495000D01*
X135000000Y-111380000D01*
X135047115Y-111257499D01*
X135053283Y-111251008D01*
X135058035Y-111250000D01*
X135541965Y-111250000D01*
X135550238Y-111253427D01*
G37*
%TD.AperFunction*%
%TD*%
%TA.AperFunction,Conductor*%
%TO.N,/Charging*%
G36*
X138496974Y-105403427D02*
G01*
X138500394Y-105411292D01*
X138505199Y-105549094D01*
X138517599Y-105654544D01*
X138517600Y-105654552D01*
X138532379Y-105745321D01*
X138532415Y-105745578D01*
X138544771Y-105850659D01*
X138544808Y-105851139D01*
X138549579Y-105987932D01*
X138546443Y-105996320D01*
X138538294Y-106000033D01*
X138537925Y-106000040D01*
X138250000Y-106000999D01*
X137962074Y-106000040D01*
X137953812Y-105996586D01*
X137950413Y-105988301D01*
X137950418Y-105987987D01*
X137955192Y-105851123D01*
X137955228Y-105850659D01*
X137967589Y-105745541D01*
X137967614Y-105745357D01*
X137982400Y-105654549D01*
X137994800Y-105549099D01*
X137999606Y-105411291D01*
X138003319Y-105403144D01*
X138011299Y-105400000D01*
X138488701Y-105400000D01*
X138496974Y-105403427D01*
G37*
%TD.AperFunction*%
%TD*%
%TA.AperFunction,Conductor*%
%TO.N,/Charging*%
G36*
X132802152Y-96591109D02*
G01*
X132802743Y-96591374D01*
X133089468Y-96729605D01*
X133089927Y-96729852D01*
X133298375Y-96854372D01*
X133481238Y-96952567D01*
X133701908Y-97016909D01*
X134013136Y-97039221D01*
X134021143Y-97043231D01*
X134023999Y-97050891D01*
X134023999Y-97529108D01*
X134020572Y-97537381D01*
X134013136Y-97540778D01*
X133701908Y-97563089D01*
X133481241Y-97627429D01*
X133298376Y-97725626D01*
X133298375Y-97725626D01*
X133089928Y-97850144D01*
X133089468Y-97850392D01*
X132802743Y-97988625D01*
X132793803Y-97989131D01*
X132787123Y-97983167D01*
X132786858Y-97982576D01*
X132731871Y-97850280D01*
X132500865Y-97294489D01*
X132500855Y-97285536D01*
X132500866Y-97285510D01*
X132598382Y-97050891D01*
X132786859Y-96597421D01*
X132793198Y-96591098D01*
X132802152Y-96591109D01*
G37*
%TD.AperFunction*%
%TD*%
%TA.AperFunction,Conductor*%
%TO.N,/Charging*%
G36*
X148506839Y-108253927D02*
G01*
X149068078Y-108658259D01*
X149072788Y-108665875D01*
X149071023Y-108674168D01*
X149001730Y-108779845D01*
X148926309Y-108915862D01*
X148926285Y-108915908D01*
X148850878Y-109072892D01*
X148850861Y-109072929D01*
X148775433Y-109250955D01*
X148775424Y-109250980D01*
X148703245Y-109441439D01*
X148702863Y-109442446D01*
X148696726Y-109448968D01*
X148691922Y-109450000D01*
X148208887Y-109450000D01*
X148200614Y-109446573D01*
X148197616Y-109441439D01*
X148181266Y-109382734D01*
X148144567Y-109250960D01*
X148089134Y-109072921D01*
X148033701Y-108915883D01*
X147978268Y-108779844D01*
X147927093Y-108673641D01*
X147926590Y-108664701D01*
X147930793Y-108659072D01*
X148493161Y-108253926D01*
X148501877Y-108251871D01*
X148506839Y-108253927D01*
G37*
%TD.AperFunction*%
%TD*%
%TA.AperFunction,Conductor*%
%TO.N,/Charging*%
G36*
X148699208Y-112153427D02*
G01*
X148702264Y-112158777D01*
X148736557Y-112291716D01*
X148736584Y-112291816D01*
X148773150Y-112421563D01*
X148809722Y-112539335D01*
X148846297Y-112645113D01*
X148846318Y-112645169D01*
X148881617Y-112735677D01*
X148882179Y-112742277D01*
X148461462Y-114795073D01*
X148456444Y-114802490D01*
X148447651Y-114804186D01*
X148440234Y-114799168D01*
X148438538Y-114795073D01*
X148017820Y-112742277D01*
X148018382Y-112735677D01*
X148053680Y-112645169D01*
X148053701Y-112645116D01*
X148090276Y-112539337D01*
X148126850Y-112421558D01*
X148163425Y-112291779D01*
X148163432Y-112291749D01*
X148163442Y-112291716D01*
X148197736Y-112158777D01*
X148203121Y-112151623D01*
X148209065Y-112150000D01*
X148690935Y-112150000D01*
X148699208Y-112153427D01*
G37*
%TD.AperFunction*%
%TD*%
%TA.AperFunction,Conductor*%
%TO.N,/Charging*%
G36*
X146512035Y-107200409D02*
G01*
X146649872Y-107205100D01*
X146650388Y-107205141D01*
X146755777Y-107218520D01*
X146756204Y-107218592D01*
X146824861Y-107232887D01*
X146846900Y-107237476D01*
X146846901Y-107237476D01*
X146846920Y-107237480D01*
X146952312Y-107259073D01*
X146952317Y-107259074D01*
X146952327Y-107259076D01*
X147058295Y-107274286D01*
X147090297Y-107278880D01*
X147098000Y-107283447D01*
X147100261Y-107291771D01*
X147046799Y-107766206D01*
X147042468Y-107774044D01*
X147034360Y-107776568D01*
X146910843Y-107767964D01*
X146910841Y-107767964D01*
X146910840Y-107767964D01*
X146898392Y-107768502D01*
X146814943Y-107772113D01*
X146814938Y-107772113D01*
X146731855Y-107783219D01*
X146635752Y-107794681D01*
X146635287Y-107794718D01*
X146512115Y-107799526D01*
X146503715Y-107796425D01*
X146499968Y-107788291D01*
X146499960Y-107787922D01*
X146499007Y-107499889D01*
X146499960Y-107212063D01*
X146503414Y-107203803D01*
X146511699Y-107200403D01*
X146512035Y-107200409D01*
G37*
%TD.AperFunction*%
%TD*%
%TA.AperFunction,Conductor*%
%TO.N,/Charging*%
G36*
X147561045Y-107390687D02*
G01*
X147773353Y-107480661D01*
X147997130Y-107554496D01*
X147997136Y-107554497D01*
X147997141Y-107554499D01*
X148220906Y-107607330D01*
X148444661Y-107639162D01*
X148444666Y-107639162D01*
X148444684Y-107639165D01*
X148653820Y-107649291D01*
X148661916Y-107653113D01*
X148664938Y-107661542D01*
X148664521Y-107664121D01*
X148502226Y-108245729D01*
X148496805Y-108252717D01*
X147918719Y-108586346D01*
X147909841Y-108587514D01*
X147902738Y-108582061D01*
X147902640Y-108581889D01*
X147803617Y-108403389D01*
X147789023Y-108380007D01*
X147698822Y-108235486D01*
X147698820Y-108235483D01*
X147594025Y-108088578D01*
X147489229Y-107962672D01*
X147389624Y-107862963D01*
X147386202Y-107854690D01*
X147386858Y-107850836D01*
X147545456Y-107397600D01*
X147551421Y-107390926D01*
X147560361Y-107390424D01*
X147561045Y-107390687D01*
G37*
%TD.AperFunction*%
%TD*%
%TA.AperFunction,Conductor*%
%TO.N,+5V*%
G36*
X142646974Y-83477390D02*
G01*
X142650394Y-83485255D01*
X142655199Y-83623057D01*
X142667599Y-83728507D01*
X142667600Y-83728515D01*
X142682379Y-83819284D01*
X142682415Y-83819541D01*
X142694771Y-83924622D01*
X142694808Y-83925102D01*
X142699579Y-84061895D01*
X142696443Y-84070283D01*
X142688294Y-84073996D01*
X142687925Y-84074003D01*
X142400000Y-84074962D01*
X142112074Y-84074003D01*
X142103812Y-84070549D01*
X142100413Y-84062264D01*
X142100418Y-84061950D01*
X142105192Y-83925086D01*
X142105228Y-83924622D01*
X142117589Y-83819504D01*
X142117614Y-83819320D01*
X142132400Y-83728512D01*
X142144800Y-83623062D01*
X142149606Y-83485254D01*
X142153319Y-83477107D01*
X142161299Y-83473963D01*
X142638701Y-83473963D01*
X142646974Y-83477390D01*
G37*
%TD.AperFunction*%
%TD*%
%TA.AperFunction,Conductor*%
%TO.N,+5V*%
G36*
X142401260Y-82079321D02*
G01*
X142687913Y-82080276D01*
X142696174Y-82083730D01*
X142699573Y-82092015D01*
X142699566Y-82092384D01*
X142694796Y-82229175D01*
X142694759Y-82229654D01*
X142682406Y-82334734D01*
X142682370Y-82334991D01*
X142667595Y-82425760D01*
X142667594Y-82425769D01*
X142655197Y-82531220D01*
X142650394Y-82669022D01*
X142646681Y-82677170D01*
X142638701Y-82680314D01*
X142161299Y-82680314D01*
X142153026Y-82676887D01*
X142149606Y-82669022D01*
X142144798Y-82531219D01*
X142144798Y-82531215D01*
X142144798Y-82531214D01*
X142132395Y-82425765D01*
X142117606Y-82334962D01*
X142117579Y-82334766D01*
X142105216Y-82229653D01*
X142105180Y-82229186D01*
X142100407Y-82092381D01*
X142103543Y-82083996D01*
X142111692Y-82080283D01*
X142112012Y-82080276D01*
X142399986Y-82079317D01*
X142401260Y-82079321D01*
G37*
%TD.AperFunction*%
%TD*%
%TA.AperFunction,Conductor*%
%TO.N,+5V*%
G36*
X142687926Y-84073922D02*
G01*
X142696187Y-84077376D01*
X142699586Y-84085661D01*
X142699579Y-84086030D01*
X142694808Y-84222822D01*
X142694771Y-84223302D01*
X142682415Y-84328382D01*
X142682379Y-84328639D01*
X142667600Y-84419408D01*
X142667599Y-84419416D01*
X142655199Y-84524867D01*
X142650394Y-84662671D01*
X142646681Y-84670819D01*
X142638701Y-84673963D01*
X142161299Y-84673963D01*
X142153026Y-84670536D01*
X142149606Y-84662671D01*
X142144800Y-84524867D01*
X142132400Y-84419416D01*
X142132399Y-84419408D01*
X142117615Y-84328609D01*
X142117588Y-84328413D01*
X142105227Y-84223296D01*
X142105192Y-84222836D01*
X142100420Y-84086027D01*
X142103556Y-84077642D01*
X142111705Y-84073929D01*
X142112025Y-84073922D01*
X142400000Y-84072963D01*
X142687926Y-84073922D01*
G37*
%TD.AperFunction*%
%TD*%
%TA.AperFunction,Conductor*%
%TO.N,+5V*%
G36*
X142647448Y-96803427D02*
G01*
X142650840Y-96810792D01*
X142665600Y-97000407D01*
X142665601Y-97000409D01*
X142702803Y-97140213D01*
X142702803Y-97140214D01*
X142747099Y-97259523D01*
X142747268Y-97260055D01*
X142784125Y-97398559D01*
X142784483Y-97400660D01*
X142799021Y-97587423D01*
X142796246Y-97595937D01*
X142788264Y-97599996D01*
X142787385Y-97600031D01*
X142400000Y-97600999D01*
X142012614Y-97600031D01*
X142004349Y-97596583D01*
X142000943Y-97588302D01*
X142000976Y-97587449D01*
X142015517Y-97400650D01*
X142015872Y-97398568D01*
X142052731Y-97260055D01*
X142052892Y-97259546D01*
X142097200Y-97140203D01*
X142134400Y-97000407D01*
X142149159Y-96810792D01*
X142153219Y-96802810D01*
X142160825Y-96800000D01*
X142639175Y-96800000D01*
X142647448Y-96803427D01*
G37*
%TD.AperFunction*%
%TD*%
%TA.AperFunction,Conductor*%
%TO.N,+5V*%
G36*
X152287926Y-80749959D02*
G01*
X152296187Y-80753413D01*
X152299586Y-80761698D01*
X152299579Y-80762067D01*
X152294808Y-80898858D01*
X152294771Y-80899338D01*
X152282413Y-81004422D01*
X152282377Y-81004679D01*
X152267600Y-81095444D01*
X152267599Y-81095453D01*
X152255199Y-81200904D01*
X152250394Y-81338708D01*
X152246681Y-81346856D01*
X152238701Y-81350000D01*
X151761299Y-81350000D01*
X151753026Y-81346573D01*
X151749606Y-81338708D01*
X151744800Y-81200904D01*
X151732399Y-81095453D01*
X151732398Y-81095445D01*
X151732398Y-81095444D01*
X151717615Y-81004646D01*
X151717588Y-81004450D01*
X151705227Y-80899333D01*
X151705192Y-80898873D01*
X151700420Y-80762064D01*
X151703556Y-80753679D01*
X151711705Y-80749966D01*
X151712025Y-80749959D01*
X152000000Y-80749000D01*
X152287926Y-80749959D01*
G37*
%TD.AperFunction*%
%TD*%
%TA.AperFunction,Conductor*%
%TO.N,+5V*%
G36*
X152247728Y-81903427D02*
G01*
X152251092Y-81910488D01*
X152259998Y-81995981D01*
X152270002Y-82089020D01*
X152279996Y-82178978D01*
X152289996Y-82265977D01*
X152299536Y-82346103D01*
X152298020Y-82353388D01*
X152010102Y-82846208D01*
X152002970Y-82851623D01*
X151994098Y-82850408D01*
X151989898Y-82846208D01*
X151701979Y-82353388D01*
X151700463Y-82346105D01*
X151710000Y-82266000D01*
X151720000Y-82179000D01*
X151720003Y-82178978D01*
X151729997Y-82089020D01*
X151740001Y-81995981D01*
X151748907Y-81910488D01*
X151753173Y-81902614D01*
X151760544Y-81900000D01*
X152239455Y-81900000D01*
X152247728Y-81903427D01*
G37*
%TD.AperFunction*%
%TD*%
%TA.AperFunction,Conductor*%
%TO.N,+5V*%
G36*
X142787386Y-97599968D02*
G01*
X142795650Y-97603416D01*
X142799056Y-97611697D01*
X142799021Y-97612576D01*
X142784483Y-97799338D01*
X142784125Y-97801439D01*
X142747268Y-97939942D01*
X142747099Y-97940474D01*
X142702803Y-98059783D01*
X142702803Y-98059784D01*
X142665601Y-98199589D01*
X142665600Y-98199591D01*
X142650840Y-98389208D01*
X142646781Y-98397190D01*
X142639175Y-98400000D01*
X142160825Y-98400000D01*
X142152552Y-98396573D01*
X142149160Y-98389208D01*
X142148226Y-98377213D01*
X142134400Y-98199592D01*
X142097200Y-98059795D01*
X142052894Y-97940456D01*
X142052731Y-97939942D01*
X142037138Y-97881348D01*
X142015872Y-97801432D01*
X142015517Y-97799346D01*
X142000978Y-97612573D01*
X142003753Y-97604062D01*
X142011735Y-97600003D01*
X142012601Y-97599968D01*
X142400000Y-97599000D01*
X142787386Y-97599968D01*
G37*
%TD.AperFunction*%
%TD*%
%TA.AperFunction,Conductor*%
%TO.N,+5V*%
G36*
X145012013Y-104550418D02*
G01*
X145148873Y-104555192D01*
X145149333Y-104555227D01*
X145254450Y-104567588D01*
X145254646Y-104567615D01*
X145345449Y-104582400D01*
X145450900Y-104594800D01*
X145588708Y-104599606D01*
X145596856Y-104603319D01*
X145600000Y-104611299D01*
X145600000Y-105088700D01*
X145596573Y-105096973D01*
X145588708Y-105100393D01*
X145450904Y-105105199D01*
X145345453Y-105117599D01*
X145345445Y-105117600D01*
X145254676Y-105132379D01*
X145254419Y-105132415D01*
X145149339Y-105144771D01*
X145148859Y-105144808D01*
X145012067Y-105149579D01*
X145003679Y-105146443D01*
X144999966Y-105138294D01*
X144999959Y-105137972D01*
X144999000Y-104850000D01*
X144999959Y-104562072D01*
X145003413Y-104553812D01*
X145011698Y-104550413D01*
X145012013Y-104550418D01*
G37*
%TD.AperFunction*%
%TD*%
%TA.AperFunction,Conductor*%
%TO.N,+5V*%
G36*
X148091869Y-104282101D02*
G01*
X148496072Y-104843161D01*
X148498128Y-104851877D01*
X148496072Y-104856839D01*
X148091869Y-105417898D01*
X148084253Y-105422608D01*
X148075770Y-105420716D01*
X147928158Y-105319733D01*
X147928157Y-105319732D01*
X147928155Y-105319731D01*
X147859548Y-105281970D01*
X147771115Y-105233297D01*
X147661188Y-105187494D01*
X147614078Y-105167865D01*
X147614076Y-105167864D01*
X147457041Y-105123432D01*
X147309973Y-105101488D01*
X147302297Y-105096878D01*
X147300000Y-105089916D01*
X147300000Y-104610083D01*
X147303427Y-104601810D01*
X147309970Y-104598512D01*
X147457039Y-104576567D01*
X147614078Y-104532134D01*
X147771116Y-104466701D01*
X147928155Y-104380268D01*
X148075771Y-104279282D01*
X148084533Y-104277441D01*
X148091869Y-104282101D01*
G37*
%TD.AperFunction*%
%TD*%
%TA.AperFunction,Conductor*%
%TO.N,+5V*%
G36*
X144760776Y-104256666D02*
G01*
X144861615Y-104350708D01*
X144861625Y-104350717D01*
X144944938Y-104416498D01*
X144944951Y-104416508D01*
X144988842Y-104448108D01*
X145019583Y-104470241D01*
X145019791Y-104470397D01*
X145102837Y-104535967D01*
X145103201Y-104536279D01*
X145203301Y-104629633D01*
X145207014Y-104637780D01*
X145203878Y-104646168D01*
X145203622Y-104646434D01*
X145000734Y-104850679D01*
X144796434Y-105053622D01*
X144788149Y-105057021D01*
X144779887Y-105053567D01*
X144779670Y-105053342D01*
X144686279Y-104953201D01*
X144685967Y-104952837D01*
X144620397Y-104869791D01*
X144620241Y-104869583D01*
X144598108Y-104838842D01*
X144566508Y-104794951D01*
X144500711Y-104711618D01*
X144406665Y-104610775D01*
X144403529Y-104602388D01*
X144406948Y-104594524D01*
X144744524Y-104256948D01*
X144752796Y-104253522D01*
X144760776Y-104256666D01*
G37*
%TD.AperFunction*%
%TD*%
%TA.AperFunction,Conductor*%
%TO.N,+5V*%
G36*
X136307194Y-60208799D02*
G01*
X136309225Y-60210830D01*
X136548519Y-60517674D01*
X136758131Y-60786458D01*
X136760517Y-60795088D01*
X136760043Y-60797236D01*
X136719556Y-60923055D01*
X136719531Y-60923140D01*
X136677174Y-61069761D01*
X136634769Y-61231563D01*
X136592390Y-61408256D01*
X136552028Y-61590826D01*
X136546896Y-61598164D01*
X136540604Y-61600000D01*
X136059396Y-61600000D01*
X136051123Y-61596573D01*
X136047972Y-61590826D01*
X136036322Y-61538132D01*
X136007611Y-61408268D01*
X135965223Y-61231536D01*
X135922836Y-61069805D01*
X135922830Y-61069787D01*
X135922824Y-61069761D01*
X135880468Y-60923140D01*
X135880442Y-60923055D01*
X135839956Y-60797234D01*
X135840684Y-60788311D01*
X135841860Y-60786468D01*
X136290775Y-60210828D01*
X136298563Y-60206413D01*
X136307194Y-60208799D01*
G37*
%TD.AperFunction*%
%TD*%
%TA.AperFunction,Conductor*%
%TO.N,+5V*%
G36*
X152246974Y-80153427D02*
G01*
X152250394Y-80161292D01*
X152255199Y-80299094D01*
X152267598Y-80404544D01*
X152267599Y-80404552D01*
X152282379Y-80495321D01*
X152282415Y-80495578D01*
X152294771Y-80600659D01*
X152294808Y-80601139D01*
X152299579Y-80737932D01*
X152296443Y-80746320D01*
X152288294Y-80750033D01*
X152287925Y-80750040D01*
X152000000Y-80750999D01*
X151712074Y-80750040D01*
X151703812Y-80746586D01*
X151700413Y-80738301D01*
X151700418Y-80737987D01*
X151705192Y-80601123D01*
X151705228Y-80600660D01*
X151705228Y-80600659D01*
X151717588Y-80495541D01*
X151717613Y-80495358D01*
X151732400Y-80404549D01*
X151744800Y-80299099D01*
X151749606Y-80161291D01*
X151753319Y-80153144D01*
X151761299Y-80150000D01*
X152238701Y-80150000D01*
X152246974Y-80153427D01*
G37*
%TD.AperFunction*%
%TD*%
%TA.AperFunction,Conductor*%
%TO.N,+5V*%
G36*
X152287926Y-79299959D02*
G01*
X152296187Y-79303413D01*
X152299586Y-79311698D01*
X152299579Y-79312067D01*
X152294808Y-79448858D01*
X152294771Y-79449338D01*
X152282413Y-79554422D01*
X152282377Y-79554679D01*
X152267600Y-79645444D01*
X152267599Y-79645453D01*
X152255199Y-79750904D01*
X152250394Y-79888708D01*
X152246681Y-79896856D01*
X152238701Y-79900000D01*
X151761299Y-79900000D01*
X151753026Y-79896573D01*
X151749606Y-79888708D01*
X151744800Y-79750904D01*
X151732399Y-79645453D01*
X151732398Y-79645445D01*
X151732398Y-79645444D01*
X151717615Y-79554646D01*
X151717588Y-79554450D01*
X151705227Y-79449333D01*
X151705192Y-79448873D01*
X151700420Y-79312064D01*
X151703556Y-79303679D01*
X151711705Y-79299966D01*
X151712025Y-79299959D01*
X152000000Y-79299000D01*
X152287926Y-79299959D01*
G37*
%TD.AperFunction*%
%TD*%
%TA.AperFunction,Conductor*%
%TO.N,+5V*%
G36*
X130507195Y-60208799D02*
G01*
X130509224Y-60210828D01*
X130958131Y-60786458D01*
X130960517Y-60795088D01*
X130960043Y-60797236D01*
X130919556Y-60923055D01*
X130919531Y-60923140D01*
X130877174Y-61069761D01*
X130834769Y-61231563D01*
X130792390Y-61408256D01*
X130752028Y-61590826D01*
X130746896Y-61598164D01*
X130740604Y-61600000D01*
X130259396Y-61600000D01*
X130251123Y-61596573D01*
X130247972Y-61590826D01*
X130236322Y-61538132D01*
X130207611Y-61408268D01*
X130165223Y-61231536D01*
X130122836Y-61069805D01*
X130122830Y-61069787D01*
X130122824Y-61069761D01*
X130080468Y-60923140D01*
X130080442Y-60923055D01*
X130039956Y-60797234D01*
X130040684Y-60788311D01*
X130041860Y-60786468D01*
X130490774Y-60210829D01*
X130498564Y-60206413D01*
X130507195Y-60208799D01*
G37*
%TD.AperFunction*%
%TD*%
%TA.AperFunction,Conductor*%
%TO.N,+5V*%
G36*
X130177726Y-77129488D02*
G01*
X130645609Y-77254850D01*
X130652713Y-77260301D01*
X130654278Y-77265902D01*
X130657877Y-77434696D01*
X130657878Y-77434696D01*
X130657878Y-77434712D01*
X130661666Y-77591804D01*
X130665454Y-77728400D01*
X130669242Y-77844498D01*
X130671607Y-77904209D01*
X130672689Y-77931501D01*
X130669592Y-77939903D01*
X130664922Y-77942986D01*
X129808943Y-78247689D01*
X129799999Y-78247236D01*
X129794876Y-78242498D01*
X129460889Y-77661332D01*
X129459739Y-77652453D01*
X129465204Y-77645360D01*
X129466350Y-77644783D01*
X129597727Y-77587544D01*
X129741077Y-77504088D01*
X129884426Y-77399631D01*
X130027776Y-77274175D01*
X130166345Y-77132604D01*
X130174579Y-77129091D01*
X130177726Y-77129488D01*
G37*
%TD.AperFunction*%
%TD*%
%TA.AperFunction,Conductor*%
%TO.N,Net-(D3-A)*%
G36*
X142283111Y-120748303D02*
G01*
X142289429Y-120754650D01*
X142289408Y-120763604D01*
X142289130Y-120764220D01*
X142218425Y-120909581D01*
X142218153Y-120910078D01*
X142151311Y-121019196D01*
X142097969Y-121114905D01*
X142097967Y-121114910D01*
X142062729Y-121230596D01*
X142062728Y-121230602D01*
X142050813Y-121389177D01*
X142046776Y-121397170D01*
X142039146Y-121400000D01*
X141810854Y-121400000D01*
X141802581Y-121396573D01*
X141799187Y-121389177D01*
X141787270Y-121230602D01*
X141787269Y-121230596D01*
X141752031Y-121114910D01*
X141752029Y-121114905D01*
X141698686Y-121019196D01*
X141631844Y-120910078D01*
X141631572Y-120909581D01*
X141629032Y-120904360D01*
X141560868Y-120764218D01*
X141560332Y-120755281D01*
X141566272Y-120748581D01*
X141566874Y-120748308D01*
X141920500Y-120600875D01*
X141929449Y-120600855D01*
X142283111Y-120748303D01*
G37*
%TD.AperFunction*%
%TD*%
%TA.AperFunction,Conductor*%
%TO.N,Net-(D3-A)*%
G36*
X142050182Y-121453427D02*
G01*
X142052855Y-121457568D01*
X142101955Y-121587692D01*
X142153910Y-121708885D01*
X142153918Y-121708903D01*
X142205859Y-121813567D01*
X142205865Y-121813577D01*
X142257820Y-121901770D01*
X142302895Y-121963968D01*
X142304975Y-121972678D01*
X142300287Y-121980306D01*
X142300270Y-121980318D01*
X142300265Y-121980323D01*
X141931844Y-122246063D01*
X141923130Y-122248124D01*
X141918156Y-122246063D01*
X141739336Y-122117081D01*
X141549733Y-121980322D01*
X141545028Y-121972704D01*
X141547089Y-121963990D01*
X141547089Y-121963989D01*
X141592179Y-121901770D01*
X141644134Y-121813577D01*
X141696089Y-121708885D01*
X141748044Y-121587692D01*
X141797143Y-121457569D01*
X141803271Y-121451039D01*
X141808091Y-121450000D01*
X142041909Y-121450000D01*
X142050182Y-121453427D01*
G37*
%TD.AperFunction*%
%TD*%
%TA.AperFunction,Conductor*%
%TO.N,Net-(D3-A)*%
G36*
X142191002Y-104060141D02*
G01*
X142197314Y-104066493D01*
X142197287Y-104075448D01*
X142197130Y-104075805D01*
X142149028Y-104180941D01*
X142148915Y-104181174D01*
X142106574Y-104263832D01*
X142075541Y-104337020D01*
X142056483Y-104424464D01*
X142056482Y-104424468D01*
X142050573Y-104538903D01*
X142046724Y-104546989D01*
X142038889Y-104550000D01*
X141811111Y-104550000D01*
X141802838Y-104546573D01*
X141799427Y-104538904D01*
X141793516Y-104424467D01*
X141793515Y-104424464D01*
X141793515Y-104424458D01*
X141774459Y-104337025D01*
X141743429Y-104263844D01*
X141701074Y-104181157D01*
X141700969Y-104180941D01*
X141652867Y-104075803D01*
X141652542Y-104066856D01*
X141658639Y-104060298D01*
X141658945Y-104060163D01*
X141920490Y-103950883D01*
X141929444Y-103950857D01*
X142191002Y-104060141D01*
G37*
%TD.AperFunction*%
%TD*%
%TA.AperFunction,Conductor*%
%TO.N,Net-(D3-A)*%
G36*
X142047419Y-119803427D02*
G01*
X142050813Y-119810823D01*
X142062728Y-119969396D01*
X142062729Y-119969402D01*
X142097967Y-120085088D01*
X142097969Y-120085093D01*
X142097970Y-120085094D01*
X142151301Y-120180784D01*
X142151305Y-120180790D01*
X142218156Y-120289924D01*
X142218428Y-120290421D01*
X142289130Y-120435779D01*
X142289667Y-120444718D01*
X142283727Y-120451418D01*
X142283111Y-120451696D01*
X141929502Y-120599123D01*
X141920548Y-120599144D01*
X141920498Y-120599123D01*
X141566888Y-120451696D01*
X141560570Y-120445349D01*
X141560591Y-120436395D01*
X141560859Y-120435801D01*
X141631572Y-120290416D01*
X141631839Y-120289928D01*
X141698697Y-120180784D01*
X141752029Y-120085094D01*
X141787270Y-119969398D01*
X141799186Y-119810823D01*
X141803224Y-119802830D01*
X141810854Y-119800000D01*
X142039146Y-119800000D01*
X142047419Y-119803427D01*
G37*
%TD.AperFunction*%
%TD*%
%TA.AperFunction,Conductor*%
%TO.N,Net-(SW1-B)*%
G36*
X135308264Y-115257280D02*
G01*
X135793005Y-115742991D01*
X135796424Y-115751268D01*
X135794245Y-115758056D01*
X135750005Y-115819992D01*
X135750004Y-115819994D01*
X135700002Y-115904994D01*
X135699995Y-115905007D01*
X135650001Y-116004993D01*
X135599999Y-116119998D01*
X135552885Y-116242500D01*
X135546717Y-116248992D01*
X135541965Y-116250000D01*
X135058035Y-116250000D01*
X135049762Y-116246573D01*
X135047115Y-116242500D01*
X135000000Y-116119999D01*
X134950000Y-116004999D01*
X134899999Y-115905000D01*
X134899996Y-115904994D01*
X134886760Y-115882493D01*
X134849999Y-115820000D01*
X134805753Y-115758055D01*
X134803734Y-115749332D01*
X134806992Y-115742993D01*
X135291719Y-115257296D01*
X135299988Y-115253862D01*
X135308264Y-115257280D01*
G37*
%TD.AperFunction*%
%TD*%
%TA.AperFunction,Conductor*%
%TO.N,Net-(SW1-B)*%
G36*
X135547162Y-121303427D02*
G01*
X135550573Y-121311096D01*
X135562967Y-121551072D01*
X135562968Y-121551078D01*
X135601081Y-121725950D01*
X135663145Y-121872321D01*
X135747893Y-122037766D01*
X135748006Y-122038000D01*
X135849287Y-122259373D01*
X135849613Y-122268322D01*
X135843516Y-122274880D01*
X135843142Y-122275043D01*
X135304494Y-122499130D01*
X135295539Y-122499144D01*
X135295506Y-122499130D01*
X134756857Y-122275043D01*
X134750535Y-122268702D01*
X134750549Y-122259747D01*
X134750712Y-122259373D01*
X134851992Y-122038000D01*
X134852089Y-122037798D01*
X134936859Y-121872310D01*
X134998919Y-121725947D01*
X135037030Y-121551082D01*
X135049426Y-121311096D01*
X135053276Y-121303011D01*
X135061111Y-121300000D01*
X135538889Y-121300000D01*
X135547162Y-121303427D01*
G37*
%TD.AperFunction*%
%TD*%
%TA.AperFunction,Conductor*%
%TO.N,/data*%
G36*
X129283102Y-82204130D02*
G01*
X129532941Y-82478118D01*
X129773798Y-82742256D01*
X129776841Y-82750678D01*
X129773796Y-82758025D01*
X129283068Y-83295911D01*
X129274961Y-83299713D01*
X129266771Y-83296874D01*
X129091882Y-83145614D01*
X129091880Y-83145612D01*
X128988965Y-83074044D01*
X128908375Y-83018001D01*
X128908372Y-83017999D01*
X128908370Y-83017998D01*
X128724865Y-82921486D01*
X128541363Y-82856077D01*
X128368881Y-82823827D01*
X128361378Y-82818938D01*
X128359450Y-82810662D01*
X128378016Y-82681536D01*
X128382586Y-82673837D01*
X128387377Y-82671716D01*
X128510677Y-82647918D01*
X128558435Y-82638701D01*
X128558436Y-82638700D01*
X128558439Y-82638700D01*
X128737677Y-82573641D01*
X128916914Y-82478116D01*
X129096152Y-82352127D01*
X129266766Y-82203199D01*
X129275251Y-82200341D01*
X129283102Y-82204130D01*
G37*
%TD.AperFunction*%
%TD*%
%TA.AperFunction,Conductor*%
%TO.N,/data*%
G36*
X130987576Y-52709112D02*
G01*
X130988467Y-52710071D01*
X131084078Y-52825280D01*
X131084087Y-52825289D01*
X131188065Y-52930434D01*
X131188075Y-52930442D01*
X131292042Y-53015434D01*
X131365627Y-53061331D01*
X131396021Y-53080289D01*
X131492921Y-53121956D01*
X131499167Y-53128372D01*
X131499999Y-53132704D01*
X131499999Y-53267295D01*
X131496572Y-53275568D01*
X131492921Y-53278043D01*
X131396022Y-53319709D01*
X131396015Y-53319713D01*
X131292043Y-53384564D01*
X131292042Y-53384564D01*
X131188075Y-53469556D01*
X131188054Y-53469575D01*
X131084087Y-53574709D01*
X131084078Y-53574718D01*
X130988467Y-53689928D01*
X130980547Y-53694106D01*
X130971992Y-53691459D01*
X130971033Y-53690568D01*
X130970417Y-53689928D01*
X130614186Y-53319709D01*
X130506805Y-53208111D01*
X130503538Y-53199774D01*
X130506803Y-53191889D01*
X130971035Y-52709430D01*
X130979239Y-52705845D01*
X130987576Y-52709112D01*
G37*
%TD.AperFunction*%
%TD*%
%TA.AperFunction,Conductor*%
%TO.N,/data*%
G36*
X135828007Y-52708540D02*
G01*
X135828962Y-52709428D01*
X135940438Y-52825280D01*
X136293194Y-53191888D01*
X136296461Y-53200225D01*
X136293194Y-53208112D01*
X135828966Y-53690568D01*
X135820760Y-53694154D01*
X135812423Y-53690887D01*
X135811532Y-53689928D01*
X135715920Y-53574718D01*
X135715911Y-53574709D01*
X135611944Y-53469575D01*
X135611942Y-53469574D01*
X135611934Y-53469565D01*
X135611923Y-53469556D01*
X135507956Y-53384564D01*
X135403983Y-53319713D01*
X135403976Y-53319709D01*
X135307078Y-53278043D01*
X135300832Y-53271627D01*
X135300000Y-53267295D01*
X135300000Y-53132704D01*
X135303427Y-53124431D01*
X135307076Y-53121957D01*
X135403978Y-53080289D01*
X135507956Y-53015434D01*
X135611934Y-52930434D01*
X135715912Y-52825289D01*
X135715916Y-52825283D01*
X135715920Y-52825280D01*
X135750336Y-52783808D01*
X135811533Y-52710070D01*
X135819452Y-52705893D01*
X135828007Y-52708540D01*
G37*
%TD.AperFunction*%
%TD*%
%TA.AperFunction,Conductor*%
%TO.N,/data*%
G36*
X130012594Y-53046925D02*
G01*
X130469522Y-53189457D01*
X130492069Y-53196491D01*
X130498946Y-53202226D01*
X130500283Y-53207859D01*
X130485350Y-54084196D01*
X130481783Y-54092410D01*
X130473453Y-54095695D01*
X130472363Y-54095626D01*
X130365132Y-54083740D01*
X130365129Y-54083740D01*
X130365128Y-54083740D01*
X130245125Y-54088777D01*
X130245123Y-54088777D01*
X130245118Y-54088778D01*
X130125128Y-54112151D01*
X130125116Y-54112154D01*
X130005126Y-54153864D01*
X130005121Y-54153866D01*
X129890252Y-54211350D01*
X129881320Y-54211988D01*
X129879940Y-54211428D01*
X129758920Y-54153148D01*
X129752953Y-54146471D01*
X129752771Y-54139310D01*
X129799976Y-53978670D01*
X129849982Y-53783002D01*
X129899988Y-53561833D01*
X129949994Y-53315165D01*
X129997614Y-53055980D01*
X130002478Y-53048465D01*
X130011234Y-53046590D01*
X130012594Y-53046925D01*
G37*
%TD.AperFunction*%
%TD*%
%TA.AperFunction,Conductor*%
%TO.N,/B+*%
G36*
X145249803Y-76803427D02*
G01*
X145252645Y-76808046D01*
X145315436Y-76999052D01*
X145380865Y-77177079D01*
X145446296Y-77334112D01*
X145511736Y-77470165D01*
X145571968Y-77576060D01*
X145573080Y-77584946D01*
X145568637Y-77591338D01*
X145006839Y-77996072D01*
X144998123Y-77998128D01*
X144993161Y-77996072D01*
X144431362Y-77591337D01*
X144426652Y-77583721D01*
X144428030Y-77576062D01*
X144488268Y-77470155D01*
X144553701Y-77334116D01*
X144619134Y-77177078D01*
X144684567Y-76999039D01*
X144747354Y-76808046D01*
X144753194Y-76801257D01*
X144758470Y-76800000D01*
X145241530Y-76800000D01*
X145249803Y-76803427D01*
G37*
%TD.AperFunction*%
%TD*%
%TA.AperFunction,Conductor*%
%TO.N,/B-*%
G36*
X147079221Y-76911085D02*
G01*
X147079365Y-76911176D01*
X147481766Y-77169783D01*
X147486874Y-77177139D01*
X147486244Y-77184118D01*
X147415055Y-77355342D01*
X147415054Y-77355345D01*
X147431534Y-77496828D01*
X147431535Y-77496832D01*
X147496445Y-77630590D01*
X147496521Y-77630753D01*
X147566322Y-77786596D01*
X147567204Y-77789577D01*
X147597898Y-77986517D01*
X147595786Y-77995219D01*
X147588140Y-77999879D01*
X147586354Y-78000019D01*
X147004327Y-78000834D01*
X146996049Y-77997419D01*
X146996024Y-77997394D01*
X146985182Y-77986517D01*
X146785911Y-77786596D01*
X146583802Y-77583828D01*
X146580389Y-77575549D01*
X146583634Y-77567481D01*
X146718549Y-77426498D01*
X146811875Y-77313233D01*
X146883158Y-77207488D01*
X146959843Y-77080813D01*
X147063107Y-76914837D01*
X147070386Y-76909624D01*
X147079221Y-76911085D01*
G37*
%TD.AperFunction*%
%TD*%
%TA.AperFunction,Conductor*%
%TO.N,/OUT+*%
G36*
X154196320Y-77103556D02*
G01*
X154200033Y-77111705D01*
X154200040Y-77112074D01*
X154201000Y-77400039D01*
X154200040Y-77687925D01*
X154196586Y-77696187D01*
X154188301Y-77699586D01*
X154187932Y-77699579D01*
X154051139Y-77694808D01*
X154050659Y-77694771D01*
X153945578Y-77682415D01*
X153945321Y-77682379D01*
X153854552Y-77667600D01*
X153854544Y-77667599D01*
X153749094Y-77655199D01*
X153611292Y-77650393D01*
X153603143Y-77646680D01*
X153600000Y-77638700D01*
X153600000Y-77161299D01*
X153603427Y-77153026D01*
X153611291Y-77149606D01*
X153749099Y-77144800D01*
X153854549Y-77132399D01*
X153945357Y-77117614D01*
X153945541Y-77117589D01*
X154050667Y-77105227D01*
X154051123Y-77105192D01*
X154187934Y-77100420D01*
X154196320Y-77103556D01*
G37*
%TD.AperFunction*%
%TD*%
%TA.AperFunction,Conductor*%
%TO.N,/OUT+*%
G36*
X151562013Y-77100418D02*
G01*
X151698873Y-77105192D01*
X151699333Y-77105227D01*
X151804450Y-77117587D01*
X151804646Y-77117614D01*
X151895449Y-77132400D01*
X152000900Y-77144800D01*
X152138708Y-77149606D01*
X152146856Y-77153319D01*
X152150000Y-77161299D01*
X152150000Y-77638700D01*
X152146573Y-77646973D01*
X152138708Y-77650393D01*
X152000904Y-77655199D01*
X151895453Y-77667598D01*
X151895445Y-77667599D01*
X151804676Y-77682379D01*
X151804419Y-77682415D01*
X151699339Y-77694771D01*
X151698859Y-77694808D01*
X151562067Y-77699579D01*
X151553679Y-77696443D01*
X151549966Y-77688294D01*
X151549959Y-77687972D01*
X151549000Y-77400000D01*
X151549959Y-77112072D01*
X151553413Y-77103812D01*
X151561698Y-77100413D01*
X151562013Y-77100418D01*
G37*
%TD.AperFunction*%
%TD*%
%TA.AperFunction,Conductor*%
%TO.N,/OUT+*%
G36*
X151702371Y-90702913D02*
G01*
X151704768Y-90704752D01*
X151992685Y-90991713D01*
X151996126Y-90999981D01*
X151992713Y-91008259D01*
X151992685Y-91008287D01*
X151704768Y-91295247D01*
X151696490Y-91298660D01*
X151693494Y-91298265D01*
X151640020Y-91284004D01*
X151640013Y-91284002D01*
X151640000Y-91283999D01*
X151607573Y-91276973D01*
X151579997Y-91270998D01*
X151519983Y-91260997D01*
X151519975Y-91260996D01*
X151460016Y-91254001D01*
X151460003Y-91254000D01*
X151410922Y-91250728D01*
X151402895Y-91246758D01*
X151400000Y-91239054D01*
X151400000Y-90760945D01*
X151403427Y-90752672D01*
X151410920Y-90749271D01*
X151460000Y-90745999D01*
X151496918Y-90741691D01*
X151519974Y-90739002D01*
X151519982Y-90739001D01*
X151519982Y-90739000D01*
X151519999Y-90738999D01*
X151580000Y-90729000D01*
X151640000Y-90716000D01*
X151693496Y-90701734D01*
X151702371Y-90702913D01*
G37*
%TD.AperFunction*%
%TD*%
%TA.AperFunction,Conductor*%
%TO.N,/OUT+*%
G36*
X151433675Y-77127022D02*
G01*
X151439483Y-77133093D01*
X151550046Y-77397536D01*
X151550951Y-77402086D01*
X151550039Y-77687609D01*
X151546586Y-77695872D01*
X151538302Y-77699272D01*
X151537632Y-77699251D01*
X151458632Y-77694466D01*
X151457995Y-77694392D01*
X151392360Y-77683121D01*
X151335531Y-77673995D01*
X151335516Y-77673994D01*
X151271337Y-77675066D01*
X151271325Y-77675067D01*
X151193864Y-77691991D01*
X151185050Y-77690409D01*
X151180141Y-77683857D01*
X151045793Y-77226306D01*
X151046750Y-77217403D01*
X151053723Y-77211784D01*
X151054206Y-77211653D01*
X151139383Y-77190680D01*
X151139879Y-77190582D01*
X151210567Y-77179962D01*
X151272146Y-77172107D01*
X151341358Y-77156562D01*
X151424733Y-77126596D01*
X151433675Y-77127022D01*
G37*
%TD.AperFunction*%
%TD*%
%TA.AperFunction,Conductor*%
%TO.N,/IN+*%
G36*
X151297729Y-84178427D02*
G01*
X151301093Y-84185488D01*
X151309998Y-84270980D01*
X151320002Y-84364019D01*
X151329996Y-84453977D01*
X151339996Y-84540976D01*
X151349536Y-84621102D01*
X151348020Y-84628387D01*
X151060101Y-85121208D01*
X151052969Y-85126623D01*
X151044097Y-85125408D01*
X151039898Y-85121209D01*
X150751978Y-84628387D01*
X150750463Y-84621105D01*
X150760000Y-84541000D01*
X150770000Y-84454000D01*
X150770003Y-84453978D01*
X150779997Y-84364020D01*
X150790001Y-84270981D01*
X150798907Y-84185488D01*
X150803173Y-84177614D01*
X150810544Y-84175000D01*
X151289456Y-84175000D01*
X151297729Y-84178427D01*
G37*
%TD.AperFunction*%
%TD*%
%TA.AperFunction,Conductor*%
%TO.N,/IN+*%
G36*
X151055902Y-85149591D02*
G01*
X151060102Y-85153791D01*
X151348020Y-85646611D01*
X151349536Y-85653896D01*
X151339996Y-85734023D01*
X151329996Y-85821022D01*
X151320001Y-85910979D01*
X151320002Y-85910980D01*
X151309998Y-86004019D01*
X151301092Y-86089512D01*
X151296826Y-86097386D01*
X151289455Y-86100000D01*
X150810544Y-86100000D01*
X150802271Y-86096573D01*
X150798907Y-86089512D01*
X150790001Y-86004019D01*
X150779997Y-85910980D01*
X150779997Y-85910979D01*
X150770003Y-85821022D01*
X150760003Y-85734023D01*
X150757671Y-85714436D01*
X150750463Y-85653893D01*
X150751978Y-85646613D01*
X151039898Y-85153790D01*
X151047030Y-85148376D01*
X151055902Y-85149591D01*
G37*
%TD.AperFunction*%
%TD*%
%TA.AperFunction,Conductor*%
%TO.N,/IN+*%
G36*
X151297729Y-87765927D02*
G01*
X151301093Y-87772988D01*
X151309998Y-87858480D01*
X151320002Y-87951519D01*
X151329996Y-88041477D01*
X151339996Y-88128476D01*
X151349536Y-88208602D01*
X151348020Y-88215887D01*
X151060101Y-88708708D01*
X151052969Y-88714123D01*
X151044097Y-88712908D01*
X151039898Y-88708709D01*
X150751978Y-88215887D01*
X150750463Y-88208605D01*
X150760000Y-88128500D01*
X150770000Y-88041500D01*
X150770003Y-88041478D01*
X150779997Y-87951520D01*
X150790001Y-87858481D01*
X150798907Y-87772988D01*
X150803173Y-87765114D01*
X150810544Y-87762500D01*
X151289456Y-87762500D01*
X151297729Y-87765927D01*
G37*
%TD.AperFunction*%
%TD*%
%TA.AperFunction,Conductor*%
%TO.N,Net-(JP1-C)*%
G36*
X150247382Y-72659427D02*
G01*
X150250779Y-72666863D01*
X150273089Y-72978090D01*
X150337429Y-73198756D01*
X150435626Y-73381622D01*
X150435626Y-73381623D01*
X150560144Y-73590069D01*
X150560392Y-73590529D01*
X150698625Y-73877256D01*
X150699131Y-73886196D01*
X150693167Y-73892876D01*
X150692576Y-73893141D01*
X150004490Y-74179133D01*
X149995536Y-74179144D01*
X149995510Y-74179133D01*
X149307423Y-73893141D01*
X149301098Y-73886801D01*
X149301109Y-73877847D01*
X149301374Y-73877256D01*
X149439611Y-73590517D01*
X149439847Y-73590079D01*
X149564372Y-73381624D01*
X149662567Y-73198760D01*
X149726909Y-72978091D01*
X149749221Y-72666862D01*
X149753231Y-72658856D01*
X149760891Y-72656000D01*
X150239109Y-72656000D01*
X150247382Y-72659427D01*
G37*
%TD.AperFunction*%
%TD*%
%TA.AperFunction,Conductor*%
%TO.N,Net-(JP1-C)*%
G36*
X150247382Y-72659427D02*
G01*
X150250779Y-72666863D01*
X150273089Y-72978090D01*
X150337429Y-73198756D01*
X150435626Y-73381622D01*
X150435626Y-73381623D01*
X150560144Y-73590069D01*
X150560392Y-73590529D01*
X150698625Y-73877256D01*
X150699131Y-73886196D01*
X150693167Y-73892876D01*
X150692576Y-73893141D01*
X150004490Y-74179133D01*
X149995536Y-74179144D01*
X149995510Y-74179133D01*
X149307423Y-73893141D01*
X149301098Y-73886801D01*
X149301109Y-73877847D01*
X149301374Y-73877256D01*
X149439611Y-73590517D01*
X149439847Y-73590079D01*
X149564372Y-73381624D01*
X149662567Y-73198760D01*
X149726909Y-72978091D01*
X149749221Y-72666862D01*
X149753231Y-72658856D01*
X149760891Y-72656000D01*
X150239109Y-72656000D01*
X150247382Y-72659427D01*
G37*
%TD.AperFunction*%
%TD*%
%TA.AperFunction,Conductor*%
%TO.N,Net-(JP2-C)*%
G36*
X153748202Y-51319985D02*
G01*
X153756471Y-51323420D01*
X153759889Y-51331697D01*
X153759730Y-51333610D01*
X153714866Y-51602606D01*
X153713915Y-51605655D01*
X153614038Y-51818295D01*
X153613969Y-51818437D01*
X153522598Y-52000062D01*
X153502776Y-52186821D01*
X153612635Y-52407548D01*
X153613254Y-52416481D01*
X153609284Y-52422043D01*
X153229508Y-52713456D01*
X153220858Y-52715774D01*
X153213126Y-52711325D01*
X153046063Y-52494986D01*
X152918990Y-52337363D01*
X152878843Y-52291975D01*
X152803104Y-52206348D01*
X152724277Y-52124656D01*
X152662481Y-52060613D01*
X152602081Y-52000062D01*
X152469427Y-51867077D01*
X152466010Y-51858799D01*
X152469425Y-51850552D01*
X152995958Y-51322649D01*
X153004225Y-51319212D01*
X153748202Y-51319985D01*
G37*
%TD.AperFunction*%
%TD*%
%TA.AperFunction,Conductor*%
%TO.N,Net-(JP2-C)*%
G36*
X153748202Y-51319985D02*
G01*
X153756471Y-51323420D01*
X153759889Y-51331697D01*
X153759730Y-51333610D01*
X153714866Y-51602606D01*
X153713915Y-51605655D01*
X153614038Y-51818295D01*
X153613969Y-51818437D01*
X153522598Y-52000062D01*
X153502776Y-52186821D01*
X153612635Y-52407548D01*
X153613254Y-52416481D01*
X153609284Y-52422043D01*
X153229508Y-52713456D01*
X153220858Y-52715774D01*
X153213126Y-52711325D01*
X153046063Y-52494986D01*
X152918990Y-52337363D01*
X152878843Y-52291975D01*
X152803104Y-52206348D01*
X152724277Y-52124656D01*
X152662481Y-52060613D01*
X152602081Y-52000062D01*
X152469427Y-51867077D01*
X152466010Y-51858799D01*
X152469425Y-51850552D01*
X152995958Y-51322649D01*
X153004225Y-51319212D01*
X153748202Y-51319985D01*
G37*
%TD.AperFunction*%
%TD*%
%TA.AperFunction,Conductor*%
%TO.N,Net-(JP3-C)*%
G36*
X142247382Y-72659427D02*
G01*
X142250779Y-72666863D01*
X142273089Y-72978090D01*
X142337429Y-73198756D01*
X142435626Y-73381622D01*
X142435626Y-73381623D01*
X142560144Y-73590069D01*
X142560392Y-73590529D01*
X142698625Y-73877256D01*
X142699131Y-73886196D01*
X142693167Y-73892876D01*
X142692576Y-73893141D01*
X142004490Y-74179133D01*
X141995536Y-74179144D01*
X141995510Y-74179133D01*
X141307423Y-73893141D01*
X141301098Y-73886801D01*
X141301109Y-73877847D01*
X141301374Y-73877256D01*
X141439611Y-73590517D01*
X141439847Y-73590079D01*
X141564372Y-73381624D01*
X141662567Y-73198760D01*
X141726909Y-72978091D01*
X141749221Y-72666862D01*
X141753231Y-72658856D01*
X141760891Y-72656000D01*
X142239109Y-72656000D01*
X142247382Y-72659427D01*
G37*
%TD.AperFunction*%
%TD*%
%TA.AperFunction,Conductor*%
%TO.N,Net-(JP3-C)*%
G36*
X142247382Y-72659427D02*
G01*
X142250779Y-72666863D01*
X142273089Y-72978090D01*
X142337429Y-73198756D01*
X142435626Y-73381622D01*
X142435626Y-73381623D01*
X142560144Y-73590069D01*
X142560392Y-73590529D01*
X142698625Y-73877256D01*
X142699131Y-73886196D01*
X142693167Y-73892876D01*
X142692576Y-73893141D01*
X142004490Y-74179133D01*
X141995536Y-74179144D01*
X141995510Y-74179133D01*
X141307423Y-73893141D01*
X141301098Y-73886801D01*
X141301109Y-73877847D01*
X141301374Y-73877256D01*
X141439611Y-73590517D01*
X141439847Y-73590079D01*
X141564372Y-73381624D01*
X141662567Y-73198760D01*
X141726909Y-72978091D01*
X141749221Y-72666862D01*
X141753231Y-72658856D01*
X141760891Y-72656000D01*
X142239109Y-72656000D01*
X142247382Y-72659427D01*
G37*
%TD.AperFunction*%
%TD*%
%TA.AperFunction,Conductor*%
%TO.N,Net-(JP6-C)*%
G36*
X153008957Y-74187566D02*
G01*
X153008968Y-74187577D01*
X153529990Y-74709967D01*
X153533406Y-74718244D01*
X153529968Y-74726513D01*
X153529407Y-74727038D01*
X153414029Y-74827903D01*
X153412570Y-74828990D01*
X153312380Y-74892184D01*
X153311984Y-74892413D01*
X153219440Y-74941117D01*
X153219423Y-74941127D01*
X153119189Y-75005829D01*
X153119188Y-75005830D01*
X153003676Y-75109997D01*
X152995238Y-75112992D01*
X152987700Y-75109712D01*
X152642629Y-74775447D01*
X152639071Y-74767229D01*
X152640342Y-74761738D01*
X152648756Y-74745208D01*
X152620725Y-74741891D01*
X152620723Y-74741891D01*
X152569363Y-74745599D01*
X152568635Y-74745606D01*
X152512623Y-74742677D01*
X152508140Y-74741526D01*
X152478186Y-74727038D01*
X152476001Y-74725981D01*
X152470046Y-74719293D01*
X152470563Y-74710353D01*
X152472819Y-74707180D01*
X152992411Y-74187565D01*
X153000684Y-74184139D01*
X153008957Y-74187566D01*
G37*
%TD.AperFunction*%
%TD*%
%TA.AperFunction,Conductor*%
%TO.N,Net-(JP6-C)*%
G36*
X153008957Y-74187566D02*
G01*
X153008968Y-74187577D01*
X153529990Y-74709967D01*
X153533406Y-74718244D01*
X153529968Y-74726513D01*
X153529407Y-74727038D01*
X153414029Y-74827903D01*
X153412570Y-74828990D01*
X153312380Y-74892184D01*
X153311984Y-74892413D01*
X153219440Y-74941117D01*
X153219423Y-74941127D01*
X153119189Y-75005829D01*
X153119188Y-75005830D01*
X153003676Y-75109997D01*
X152995238Y-75112992D01*
X152987700Y-75109712D01*
X152642629Y-74775447D01*
X152639071Y-74767229D01*
X152640342Y-74761738D01*
X152648756Y-74745208D01*
X152620725Y-74741891D01*
X152620723Y-74741891D01*
X152569363Y-74745599D01*
X152568635Y-74745606D01*
X152512623Y-74742677D01*
X152508140Y-74741526D01*
X152478186Y-74727038D01*
X152476001Y-74725981D01*
X152470046Y-74719293D01*
X152470563Y-74710353D01*
X152472819Y-74707180D01*
X152992411Y-74187565D01*
X153000684Y-74184139D01*
X153008957Y-74187566D01*
G37*
%TD.AperFunction*%
%TD*%
%TA.AperFunction,Conductor*%
%TO.N,Net-(D1-K)*%
G36*
X138506838Y-115453926D02*
G01*
X139068638Y-115858662D01*
X139073347Y-115866277D01*
X139071968Y-115873939D01*
X139011736Y-115979833D01*
X138946296Y-116115886D01*
X138880865Y-116272919D01*
X138815436Y-116450946D01*
X138752645Y-116641954D01*
X138746806Y-116648743D01*
X138741530Y-116650000D01*
X138258470Y-116650000D01*
X138250197Y-116646573D01*
X138247355Y-116641954D01*
X138184562Y-116450946D01*
X138119133Y-116272919D01*
X138053702Y-116115886D01*
X138053701Y-116115883D01*
X137988268Y-115979844D01*
X137928030Y-115873938D01*
X137926919Y-115865054D01*
X137931361Y-115858663D01*
X138493161Y-115453926D01*
X138501877Y-115451871D01*
X138506838Y-115453926D01*
G37*
%TD.AperFunction*%
%TD*%
%TA.AperFunction,Conductor*%
%TO.N,Net-(D1-K)*%
G36*
X137547162Y-121303427D02*
G01*
X137550573Y-121311096D01*
X137562967Y-121551072D01*
X137562968Y-121551078D01*
X137601081Y-121725950D01*
X137663145Y-121872321D01*
X137747893Y-122037766D01*
X137748006Y-122038000D01*
X137849287Y-122259373D01*
X137849613Y-122268322D01*
X137843516Y-122274880D01*
X137843142Y-122275043D01*
X137304494Y-122499130D01*
X137295539Y-122499144D01*
X137295506Y-122499130D01*
X136756857Y-122275043D01*
X136750535Y-122268702D01*
X136750549Y-122259747D01*
X136750712Y-122259373D01*
X136851992Y-122038000D01*
X136852089Y-122037798D01*
X136936859Y-121872310D01*
X136998919Y-121725947D01*
X137037030Y-121551082D01*
X137049426Y-121311096D01*
X137053276Y-121303011D01*
X137061111Y-121300000D01*
X137538889Y-121300000D01*
X137547162Y-121303427D01*
G37*
%TD.AperFunction*%
%TD*%
%TA.AperFunction,Conductor*%
%TO.N,Net-(D1-A)*%
G36*
X152955902Y-85149591D02*
G01*
X152960102Y-85153791D01*
X153248020Y-85646611D01*
X153249536Y-85653896D01*
X153239996Y-85734023D01*
X153229996Y-85821022D01*
X153220001Y-85910979D01*
X153220002Y-85910980D01*
X153209998Y-86004019D01*
X153201092Y-86089512D01*
X153196826Y-86097386D01*
X153189455Y-86100000D01*
X152710544Y-86100000D01*
X152702271Y-86096573D01*
X152698907Y-86089512D01*
X152690001Y-86004019D01*
X152679997Y-85910980D01*
X152679997Y-85910979D01*
X152670003Y-85821022D01*
X152660003Y-85734023D01*
X152657671Y-85714436D01*
X152650463Y-85653893D01*
X152651978Y-85646613D01*
X152939898Y-85153790D01*
X152947030Y-85148376D01*
X152955902Y-85149591D01*
G37*
%TD.AperFunction*%
%TD*%
%TA.AperFunction,Conductor*%
%TO.N,Net-(D1-A)*%
G36*
X153197729Y-87765927D02*
G01*
X153201093Y-87772988D01*
X153209998Y-87858480D01*
X153220002Y-87951519D01*
X153229996Y-88041477D01*
X153239996Y-88128476D01*
X153249536Y-88208602D01*
X153248020Y-88215887D01*
X152960101Y-88708708D01*
X152952969Y-88714123D01*
X152944097Y-88712908D01*
X152939898Y-88708709D01*
X152651978Y-88215887D01*
X152650463Y-88208605D01*
X152660000Y-88128500D01*
X152670000Y-88041500D01*
X152670003Y-88041478D01*
X152679997Y-87951520D01*
X152690001Y-87858481D01*
X152698907Y-87772988D01*
X152703173Y-87765114D01*
X152710544Y-87762500D01*
X153189456Y-87762500D01*
X153197729Y-87765927D01*
G37*
%TD.AperFunction*%
%TD*%
%TA.AperFunction,Conductor*%
%TO.N,Net-(D1-A)*%
G36*
X138749803Y-110853427D02*
G01*
X138752645Y-110858046D01*
X138815436Y-111049052D01*
X138880865Y-111227079D01*
X138946296Y-111384112D01*
X139011736Y-111520165D01*
X139071968Y-111626060D01*
X139073080Y-111634946D01*
X139068637Y-111641338D01*
X138506839Y-112046072D01*
X138498123Y-112048128D01*
X138493161Y-112046072D01*
X137931362Y-111641337D01*
X137926652Y-111633721D01*
X137928030Y-111626062D01*
X137988268Y-111520155D01*
X138053701Y-111384116D01*
X138119134Y-111227078D01*
X138184567Y-111049039D01*
X138247354Y-110858046D01*
X138253194Y-110851257D01*
X138258470Y-110850000D01*
X138741530Y-110850000D01*
X138749803Y-110853427D01*
G37*
%TD.AperFunction*%
%TD*%
%TA.AperFunction,Conductor*%
%TO.N,Net-(D1-A)*%
G36*
X151196320Y-108703556D02*
G01*
X151200033Y-108711705D01*
X151200040Y-108712074D01*
X151201000Y-109000039D01*
X151200040Y-109287925D01*
X151196586Y-109296187D01*
X151188301Y-109299586D01*
X151187932Y-109299579D01*
X151051139Y-109294808D01*
X151050659Y-109294771D01*
X150945578Y-109282415D01*
X150945321Y-109282379D01*
X150854552Y-109267600D01*
X150854544Y-109267599D01*
X150749094Y-109255199D01*
X150611292Y-109250393D01*
X150603143Y-109246680D01*
X150600000Y-109238700D01*
X150600000Y-108761299D01*
X150603427Y-108753026D01*
X150611291Y-108749606D01*
X150749099Y-108744800D01*
X150854549Y-108732400D01*
X150945357Y-108717614D01*
X150945541Y-108717589D01*
X151050667Y-108705227D01*
X151051123Y-108705192D01*
X151187934Y-108700420D01*
X151196320Y-108703556D01*
G37*
%TD.AperFunction*%
%TD*%
%TA.AperFunction,Conductor*%
%TO.N,Net-(D1-A)*%
G36*
X150212013Y-108700418D02*
G01*
X150348873Y-108705192D01*
X150349333Y-108705227D01*
X150454450Y-108717588D01*
X150454646Y-108717615D01*
X150545449Y-108732400D01*
X150650900Y-108744800D01*
X150788708Y-108749606D01*
X150796856Y-108753319D01*
X150800000Y-108761299D01*
X150800000Y-109238700D01*
X150796573Y-109246973D01*
X150788708Y-109250393D01*
X150650904Y-109255199D01*
X150545453Y-109267599D01*
X150545445Y-109267600D01*
X150454676Y-109282379D01*
X150454419Y-109282415D01*
X150349339Y-109294771D01*
X150348859Y-109294808D01*
X150212067Y-109299579D01*
X150203679Y-109296443D01*
X150199966Y-109288294D01*
X150199959Y-109287972D01*
X150199000Y-109000000D01*
X150199959Y-108712072D01*
X150203413Y-108703812D01*
X150211698Y-108700413D01*
X150212013Y-108700418D01*
G37*
%TD.AperFunction*%
%TD*%
%TA.AperFunction,Conductor*%
%TO.N,Net-(D1-A)*%
G36*
X153246356Y-88719740D02*
G01*
X153249996Y-88727922D01*
X153250000Y-88728225D01*
X153250000Y-88916474D01*
X153249999Y-89113730D01*
X153250000Y-89307987D01*
X153250000Y-89675800D01*
X153246573Y-89684073D01*
X153238300Y-89687500D01*
X152759821Y-89687500D01*
X152751548Y-89684073D01*
X152748298Y-89677828D01*
X152736151Y-89608796D01*
X152722280Y-89532974D01*
X152722280Y-89532973D01*
X152708441Y-89460320D01*
X152694566Y-89390484D01*
X152681491Y-89327501D01*
X152682272Y-89320335D01*
X152946986Y-88730712D01*
X152953501Y-88724569D01*
X152957356Y-88723809D01*
X153237997Y-88716529D01*
X153246356Y-88719740D01*
G37*
%TD.AperFunction*%
%TD*%
%TA.AperFunction,Conductor*%
%TO.N,Net-(D1-A)*%
G36*
X151212340Y-108700747D02*
G01*
X151279827Y-108704833D01*
X151291366Y-108705532D01*
X151292000Y-108705605D01*
X151357660Y-108716881D01*
X151392959Y-108722549D01*
X151414467Y-108726003D01*
X151414470Y-108726003D01*
X151414475Y-108726004D01*
X151414480Y-108726003D01*
X151414482Y-108726004D01*
X151442560Y-108725535D01*
X151478670Y-108724932D01*
X151556135Y-108708008D01*
X151564949Y-108709590D01*
X151569858Y-108716142D01*
X151704206Y-109173693D01*
X151703249Y-109182596D01*
X151696276Y-109188215D01*
X151695777Y-109188350D01*
X151610624Y-109209313D01*
X151610094Y-109209418D01*
X151539508Y-109220024D01*
X151539379Y-109220042D01*
X151477852Y-109227892D01*
X151408641Y-109243437D01*
X151408627Y-109243441D01*
X151325268Y-109273403D01*
X151316324Y-109272977D01*
X151310516Y-109266906D01*
X151199952Y-109002461D01*
X151199048Y-108997915D01*
X151199960Y-108712388D01*
X151203413Y-108704127D01*
X151211697Y-108700727D01*
X151212340Y-108700747D01*
G37*
%TD.AperFunction*%
%TD*%
%TA.AperFunction,Conductor*%
%TO.N,Net-(D1-A)*%
G36*
X139883635Y-108727057D02*
G01*
X139889511Y-108733160D01*
X140000037Y-108997506D01*
X140000943Y-109002056D01*
X140000039Y-109287635D01*
X139996586Y-109295897D01*
X139988302Y-109299298D01*
X139987657Y-109299278D01*
X139913232Y-109294930D01*
X139912640Y-109294865D01*
X139850184Y-109284781D01*
X139850132Y-109284773D01*
X139850106Y-109284769D01*
X139796012Y-109277235D01*
X139796011Y-109277235D01*
X139792653Y-109277386D01*
X139735219Y-109279985D01*
X139735214Y-109279986D01*
X139662824Y-109298049D01*
X139653967Y-109296727D01*
X139648865Y-109290314D01*
X139501486Y-108836730D01*
X139502188Y-108827803D01*
X139508997Y-108821988D01*
X139509414Y-108821860D01*
X139593199Y-108798171D01*
X139593665Y-108798060D01*
X139663051Y-108784494D01*
X139663191Y-108784468D01*
X139669943Y-108783316D01*
X139723717Y-108774148D01*
X139792105Y-108756979D01*
X139874689Y-108726689D01*
X139883635Y-108727057D01*
G37*
%TD.AperFunction*%
%TD*%
%TA.AperFunction,Conductor*%
%TO.N,Net-(JP5-C)*%
G36*
X139692576Y-51606858D02*
G01*
X139698901Y-51613198D01*
X139698890Y-51622152D01*
X139698625Y-51622743D01*
X139560392Y-51909468D01*
X139560144Y-51909928D01*
X139435626Y-52118375D01*
X139435626Y-52118376D01*
X139337429Y-52301241D01*
X139273089Y-52521908D01*
X139250779Y-52833137D01*
X139246769Y-52841144D01*
X139239109Y-52844000D01*
X138760891Y-52844000D01*
X138752618Y-52840573D01*
X138749221Y-52833137D01*
X138726909Y-52521908D01*
X138662568Y-52301241D01*
X138662567Y-52301240D01*
X138662567Y-52301238D01*
X138564372Y-52118375D01*
X138439852Y-51909927D01*
X138439605Y-51909468D01*
X138301374Y-51622743D01*
X138300868Y-51613802D01*
X138306832Y-51607123D01*
X138307396Y-51606869D01*
X138995510Y-51320865D01*
X139004463Y-51320855D01*
X139692576Y-51606858D01*
G37*
%TD.AperFunction*%
%TD*%
%TA.AperFunction,Conductor*%
%TO.N,Net-(JP5-C)*%
G36*
X139692576Y-51606858D02*
G01*
X139698901Y-51613198D01*
X139698890Y-51622152D01*
X139698625Y-51622743D01*
X139560392Y-51909468D01*
X139560144Y-51909928D01*
X139435626Y-52118375D01*
X139435626Y-52118376D01*
X139337429Y-52301241D01*
X139273089Y-52521908D01*
X139250779Y-52833137D01*
X139246769Y-52841144D01*
X139239109Y-52844000D01*
X138760891Y-52844000D01*
X138752618Y-52840573D01*
X138749221Y-52833137D01*
X138726909Y-52521908D01*
X138662568Y-52301241D01*
X138662567Y-52301240D01*
X138662567Y-52301238D01*
X138564372Y-52118375D01*
X138439852Y-51909927D01*
X138439605Y-51909468D01*
X138301374Y-51622743D01*
X138300868Y-51613802D01*
X138306832Y-51607123D01*
X138307396Y-51606869D01*
X138995510Y-51320865D01*
X139004463Y-51320855D01*
X139692576Y-51606858D01*
G37*
%TD.AperFunction*%
%TD*%
M02*
