%TF.GenerationSoftware,KiCad,Pcbnew,7.0.5*%
%TF.CreationDate,2023-11-25T23:01:16+09:00*%
%TF.ProjectId,Ultramarine-2_SwitchCover,556c7472-616d-4617-9269-6e652d325f53,rev?*%
%TF.SameCoordinates,Original*%
%TF.FileFunction,Profile,NP*%
%FSLAX46Y46*%
G04 Gerber Fmt 4.6, Leading zero omitted, Abs format (unit mm)*
G04 Created by KiCad (PCBNEW 7.0.5) date 2023-11-25 23:01:16*
%MOMM*%
%LPD*%
G01*
G04 APERTURE LIST*
%TA.AperFunction,Profile*%
%ADD10C,0.200000*%
%TD*%
%TA.AperFunction,Profile*%
%ADD11C,0.100000*%
%TD*%
%TA.AperFunction,Profile*%
%ADD12C,0.050000*%
%TD*%
G04 APERTURE END LIST*
D10*
X88000000Y-88147100D02*
G75*
G03*
X86000000Y-90147091I0J-2000000D01*
G01*
X86000000Y-90147091D02*
X86000000Y-124258330D01*
X105000000Y-88147091D02*
X88000000Y-88147091D01*
D11*
X100800000Y-108300000D02*
X100800000Y-94700000D01*
D10*
X105000000Y-88147107D02*
G75*
G03*
X106000000Y-84100195I0J2147007D01*
G01*
X215078181Y-45844634D02*
X210094542Y-44030738D01*
X221000000Y-139000000D02*
X221000000Y-54301868D01*
X218000000Y-142000000D02*
G75*
G03*
X221000000Y-139000000I0J3000000D01*
G01*
X131107472Y-38000006D02*
G75*
G03*
X107528419Y-40819610I-72J-99999594D01*
G01*
X109696152Y-160000000D02*
X129270527Y-148698730D01*
D11*
X100300000Y-94200000D02*
X88700000Y-94200000D01*
D10*
X154270527Y-141999991D02*
G75*
G03*
X129270527Y-148698730I73J-50000209D01*
G01*
D11*
X100300000Y-108800000D02*
G75*
G03*
X100800000Y-108300000I0J500000D01*
G01*
D10*
X106000000Y-42763218D02*
X106000000Y-84100000D01*
D11*
X88700000Y-94200000D02*
G75*
G03*
X88200000Y-94700000I0J-500000D01*
G01*
D10*
X154270527Y-142000000D02*
X218000000Y-142000000D01*
X101499999Y-157803849D02*
G75*
G03*
X109696152Y-159999999I5196151J2999999D01*
G01*
X175892528Y-38000000D02*
X131107472Y-38000000D01*
X86000009Y-124258330D02*
G75*
G03*
X89349366Y-136758330I24999791J-70D01*
G01*
D11*
X88200000Y-94700000D02*
X88200000Y-108300000D01*
X88700000Y-108800000D02*
X100300000Y-108800000D01*
D10*
X210094545Y-44030730D02*
G75*
G03*
X175892528Y-38000000I-34202045J-93969570D01*
G01*
X221000002Y-54301868D02*
G75*
G03*
X215078181Y-45844634I-8999902J68D01*
G01*
D11*
X100800000Y-94700000D02*
G75*
G03*
X100300000Y-94200000I-500000J0D01*
G01*
X88200000Y-108300000D02*
G75*
G03*
X88700000Y-108800000I500000J0D01*
G01*
D10*
X89349365Y-136758330D02*
X101500000Y-157803848D01*
X107528415Y-40819593D02*
G75*
G03*
X106000000Y-42763218I471585J-1943607D01*
G01*
D12*
%TO.C,REF\u002A\u002A*%
X167000000Y-58700000D02*
X167000000Y-45300000D01*
X167300000Y-45000000D02*
X180700000Y-45000000D01*
X180700000Y-59000000D02*
X167300000Y-59000000D01*
X181000000Y-45300000D02*
X181000000Y-58700000D01*
X167300000Y-45000000D02*
G75*
G03*
X167000000Y-45300000I0J-300000D01*
G01*
X167000000Y-58700000D02*
G75*
G03*
X167300000Y-59000000I300000J0D01*
G01*
X181000000Y-45300000D02*
G75*
G03*
X180700000Y-45000000I-300000J0D01*
G01*
X180700000Y-59000000D02*
G75*
G03*
X181000000Y-58700000I0J300000D01*
G01*
X205000000Y-63700000D02*
X205000000Y-50300000D01*
X205300000Y-50000000D02*
X218700000Y-50000000D01*
X218700000Y-64000000D02*
X205300000Y-64000000D01*
X219000000Y-50300000D02*
X219000000Y-63700000D01*
X205300000Y-50000000D02*
G75*
G03*
X205000000Y-50300000I0J-300000D01*
G01*
X205000000Y-63700000D02*
G75*
G03*
X205300000Y-64000000I300000J0D01*
G01*
X219000000Y-50300000D02*
G75*
G03*
X218700000Y-50000000I-300000J0D01*
G01*
X218700000Y-64000000D02*
G75*
G03*
X219000000Y-63700000I0J300000D01*
G01*
X205000000Y-120700000D02*
X205000000Y-107300000D01*
X205300000Y-107000000D02*
X218700000Y-107000000D01*
X218700000Y-121000000D02*
X205300000Y-121000000D01*
X219000000Y-107300000D02*
X219000000Y-120700000D01*
X205300000Y-107000000D02*
G75*
G03*
X205000000Y-107300000I0J-300000D01*
G01*
X205000000Y-120700000D02*
G75*
G03*
X205300000Y-121000000I300000J0D01*
G01*
X219000000Y-107300000D02*
G75*
G03*
X218700000Y-107000000I-300000J0D01*
G01*
X218700000Y-121000000D02*
G75*
G03*
X219000000Y-120700000I0J300000D01*
G01*
X129000000Y-77200000D02*
X129000000Y-63800000D01*
X129300000Y-63500000D02*
X142700000Y-63500000D01*
X142700000Y-77500000D02*
X129300000Y-77500000D01*
X143000000Y-63800000D02*
X143000000Y-77200000D01*
X129300000Y-63500000D02*
G75*
G03*
X129000000Y-63800000I0J-300000D01*
G01*
X129000000Y-77200000D02*
G75*
G03*
X129300000Y-77500000I300000J0D01*
G01*
X143000000Y-63800000D02*
G75*
G03*
X142700000Y-63500000I-300000J0D01*
G01*
X142700000Y-77500000D02*
G75*
G03*
X143000000Y-77200000I0J300000D01*
G01*
X205000000Y-101700000D02*
X205000000Y-88300000D01*
X205300000Y-88000000D02*
X218700000Y-88000000D01*
X218700000Y-102000000D02*
X205300000Y-102000000D01*
X219000000Y-88300000D02*
X219000000Y-101700000D01*
X205300000Y-88000000D02*
G75*
G03*
X205000000Y-88300000I0J-300000D01*
G01*
X205000000Y-101700000D02*
G75*
G03*
X205300000Y-102000000I300000J0D01*
G01*
X219000000Y-88300000D02*
G75*
G03*
X218700000Y-88000000I-300000J0D01*
G01*
X218700000Y-102000000D02*
G75*
G03*
X219000000Y-101700000I0J300000D01*
G01*
X186000000Y-139700000D02*
X186000000Y-126300000D01*
X186300000Y-126000000D02*
X199700000Y-126000000D01*
X199700000Y-140000000D02*
X186300000Y-140000000D01*
X200000000Y-126300000D02*
X200000000Y-139700000D01*
X186300000Y-126000000D02*
G75*
G03*
X186000000Y-126300000I0J-300000D01*
G01*
X186000000Y-139700000D02*
G75*
G03*
X186300000Y-140000000I300000J0D01*
G01*
X200000000Y-126300000D02*
G75*
G03*
X199700000Y-126000000I-300000J0D01*
G01*
X199700000Y-140000000D02*
G75*
G03*
X200000000Y-139700000I0J300000D01*
G01*
X205000000Y-82700000D02*
X205000000Y-69300000D01*
X205300000Y-69000000D02*
X218700000Y-69000000D01*
X218700000Y-83000000D02*
X205300000Y-83000000D01*
X219000000Y-69300000D02*
X219000000Y-82700000D01*
X205300000Y-69000000D02*
G75*
G03*
X205000000Y-69300000I0J-300000D01*
G01*
X205000000Y-82700000D02*
G75*
G03*
X205300000Y-83000000I300000J0D01*
G01*
X219000000Y-69300000D02*
G75*
G03*
X218700000Y-69000000I-300000J0D01*
G01*
X218700000Y-83000000D02*
G75*
G03*
X219000000Y-82700000I0J300000D01*
G01*
X129000000Y-115200000D02*
X129000000Y-101800000D01*
X129300000Y-101500000D02*
X142700000Y-101500000D01*
X142700000Y-115500000D02*
X129300000Y-115500000D01*
X143000000Y-101800000D02*
X143000000Y-115200000D01*
X129300000Y-101500000D02*
G75*
G03*
X129000000Y-101800000I0J-300000D01*
G01*
X129000000Y-115200000D02*
G75*
G03*
X129300000Y-115500000I300000J0D01*
G01*
X143000000Y-101800000D02*
G75*
G03*
X142700000Y-101500000I-300000J0D01*
G01*
X142700000Y-115500000D02*
G75*
G03*
X143000000Y-115200000I0J300000D01*
G01*
X186000000Y-120700000D02*
X186000000Y-107300000D01*
X186300000Y-107000000D02*
X199700000Y-107000000D01*
X199700000Y-121000000D02*
X186300000Y-121000000D01*
X200000000Y-107300000D02*
X200000000Y-120700000D01*
X186300000Y-107000000D02*
G75*
G03*
X186000000Y-107300000I0J-300000D01*
G01*
X186000000Y-120700000D02*
G75*
G03*
X186300000Y-121000000I300000J0D01*
G01*
X200000000Y-107300000D02*
G75*
G03*
X199700000Y-107000000I-300000J0D01*
G01*
X199700000Y-121000000D02*
G75*
G03*
X200000000Y-120700000I0J300000D01*
G01*
X167000000Y-115700000D02*
X167000000Y-102300000D01*
X167300000Y-102000000D02*
X180700000Y-102000000D01*
X180700000Y-116000000D02*
X167300000Y-116000000D01*
X181000000Y-102300000D02*
X181000000Y-115700000D01*
X167300000Y-102000000D02*
G75*
G03*
X167000000Y-102300000I0J-300000D01*
G01*
X167000000Y-115700000D02*
G75*
G03*
X167300000Y-116000000I300000J0D01*
G01*
X181000000Y-102300000D02*
G75*
G03*
X180700000Y-102000000I-300000J0D01*
G01*
X180700000Y-116000000D02*
G75*
G03*
X181000000Y-115700000I0J300000D01*
G01*
X139073822Y-140383370D02*
X132373822Y-128778630D01*
X132483630Y-128368822D02*
X144088370Y-121668822D01*
X151088370Y-133793178D02*
X139483630Y-140493178D01*
X144498178Y-121778630D02*
X151198178Y-133383370D01*
X132483630Y-128368822D02*
G75*
G03*
X132373822Y-128778630I150000J-259808D01*
G01*
X139073822Y-140383370D02*
G75*
G03*
X139483630Y-140493178I259808J150000D01*
G01*
X144498178Y-121778630D02*
G75*
G03*
X144088370Y-121668822I-259808J-150000D01*
G01*
X151088370Y-133793178D02*
G75*
G03*
X151198178Y-133383370I-150000J259808D01*
G01*
X148000000Y-110700000D02*
X148000000Y-97300000D01*
X148300000Y-97000000D02*
X161700000Y-97000000D01*
X161700000Y-111000000D02*
X148300000Y-111000000D01*
X162000000Y-97300000D02*
X162000000Y-110700000D01*
X148300000Y-97000000D02*
G75*
G03*
X148000000Y-97300000I0J-300000D01*
G01*
X148000000Y-110700000D02*
G75*
G03*
X148300000Y-111000000I300000J0D01*
G01*
X162000000Y-97300000D02*
G75*
G03*
X161700000Y-97000000I-300000J0D01*
G01*
X161700000Y-111000000D02*
G75*
G03*
X162000000Y-110700000I0J300000D01*
G01*
X110000000Y-118700000D02*
X110000000Y-105300000D01*
X110300000Y-105000000D02*
X123700000Y-105000000D01*
X123700000Y-119000000D02*
X110300000Y-119000000D01*
X124000000Y-105300000D02*
X124000000Y-118700000D01*
X110300000Y-105000000D02*
G75*
G03*
X110000000Y-105300000I0J-300000D01*
G01*
X110000000Y-118700000D02*
G75*
G03*
X110300000Y-119000000I300000J0D01*
G01*
X124000000Y-105300000D02*
G75*
G03*
X123700000Y-105000000I-300000J0D01*
G01*
X123700000Y-119000000D02*
G75*
G03*
X124000000Y-118700000I0J300000D01*
G01*
X122618822Y-149883370D02*
X115918822Y-138278630D01*
X116028630Y-137868822D02*
X127633370Y-131168822D01*
X134633370Y-143293178D02*
X123028630Y-149993178D01*
X128043178Y-131278630D02*
X134743178Y-142883370D01*
X116028630Y-137868822D02*
G75*
G03*
X115918822Y-138278630I150000J-259808D01*
G01*
X122618822Y-149883370D02*
G75*
G03*
X123028630Y-149993178I259808J150000D01*
G01*
X128043178Y-131278630D02*
G75*
G03*
X127633370Y-131168822I-259808J-150000D01*
G01*
X134633370Y-143293178D02*
G75*
G03*
X134743178Y-142883370I-150000J259808D01*
G01*
D10*
X112350205Y-155697009D02*
X110444949Y-156797009D01*
X110035142Y-156687201D02*
X109747642Y-156189237D01*
X109747642Y-156189237D02*
X107210187Y-157654237D01*
X112172513Y-154789237D02*
X112460013Y-155287201D01*
X117342684Y-151804237D02*
X112172513Y-154789237D01*
X106800380Y-157544429D02*
X103775380Y-152304975D01*
X116689992Y-150073740D02*
X117452492Y-151394429D01*
X117469415Y-149623740D02*
X116689992Y-150073740D01*
X116379222Y-147135472D02*
X117579222Y-149213933D01*
X115189992Y-147475664D02*
X115969415Y-147025664D01*
X114427492Y-146154975D02*
X115189992Y-147475664D01*
X103885187Y-151895168D02*
X104318200Y-151645168D01*
X104318200Y-151645168D02*
X103530700Y-150281178D01*
X113584672Y-146295168D02*
X114017684Y-146045168D01*
X103530700Y-150281178D02*
X101824630Y-151266178D01*
X112797172Y-144931178D02*
X113584672Y-146295168D01*
X113429370Y-144566178D02*
X112797172Y-144931178D01*
X101414822Y-151156370D02*
X94714822Y-139551630D01*
X106839178Y-132551630D02*
X113539178Y-144156370D01*
X94824630Y-139141822D02*
X96530700Y-138156822D01*
X96530700Y-138156822D02*
X95743200Y-136792832D01*
X105797172Y-132806822D02*
X106429370Y-132441822D01*
X95743200Y-136792832D02*
X95310187Y-137042832D01*
X105009672Y-131442832D02*
X105797172Y-132806822D01*
X105442684Y-131192832D02*
X105009672Y-131442832D01*
X94900380Y-136933025D02*
X91875380Y-131693571D01*
X104789992Y-129462336D02*
X105552492Y-130783025D01*
X105569415Y-129012336D02*
X104789992Y-129462336D01*
X104479222Y-126524067D02*
X105679222Y-128602528D01*
X103289992Y-126864260D02*
X104069415Y-126414260D01*
X102527492Y-125543571D02*
X103289992Y-126864260D01*
X91985187Y-131283763D02*
X94522642Y-129818763D01*
X94522642Y-129818763D02*
X94235142Y-129320799D01*
X96947513Y-128418763D02*
X102117684Y-125433763D01*
X96660013Y-127920799D02*
X96947513Y-128418763D01*
X94344949Y-128910991D02*
X96250205Y-127810991D01*
X110035142Y-156687201D02*
G75*
G03*
X110444949Y-156797009I259807J150000D01*
G01*
X112350205Y-155697009D02*
G75*
G03*
X112460013Y-155287201I-150000J259808D01*
G01*
X106800380Y-157544429D02*
G75*
G03*
X107210187Y-157654237I259807J150000D01*
G01*
X117342684Y-151804237D02*
G75*
G03*
X117452492Y-151394429I-150000J259808D01*
G01*
X117469415Y-149623740D02*
G75*
G03*
X117579222Y-149213933I-150000J259807D01*
G01*
X116379222Y-147135472D02*
G75*
G03*
X115969415Y-147025664I-259807J-150000D01*
G01*
X103885187Y-151895168D02*
G75*
G03*
X103775380Y-152304975I150000J-259807D01*
G01*
X114427491Y-146154976D02*
G75*
G03*
X114017684Y-146045168I-259807J-149999D01*
G01*
X101414822Y-151156370D02*
G75*
G03*
X101824630Y-151266178I259808J150000D01*
G01*
X113429370Y-144566178D02*
G75*
G03*
X113539178Y-144156370I-150000J259808D01*
G01*
X94824630Y-139141822D02*
G75*
G03*
X94714822Y-139551630I150000J-259808D01*
G01*
X106839178Y-132551630D02*
G75*
G03*
X106429370Y-132441822I-259808J-150000D01*
G01*
X94900380Y-136933025D02*
G75*
G03*
X95310187Y-137042832I259807J150000D01*
G01*
X105442684Y-131192832D02*
G75*
G03*
X105552492Y-130783025I-150000J259807D01*
G01*
X105569414Y-129012335D02*
G75*
G03*
X105679222Y-128602528I-149999J259807D01*
G01*
X104479222Y-126524067D02*
G75*
G03*
X104069415Y-126414260I-259807J-150000D01*
G01*
X91985188Y-131283764D02*
G75*
G03*
X91875380Y-131693571I149999J-259807D01*
G01*
X102527492Y-125543571D02*
G75*
G03*
X102117684Y-125433763I-259808J-150000D01*
G01*
X94344950Y-128910992D02*
G75*
G03*
X94235142Y-129320799I149999J-259807D01*
G01*
X96660013Y-127920799D02*
G75*
G03*
X96250205Y-127810991I-259808J-150000D01*
G01*
D12*
X167000000Y-134700000D02*
X167000000Y-121300000D01*
X167300000Y-121000000D02*
X180700000Y-121000000D01*
X180700000Y-135000000D02*
X167300000Y-135000000D01*
X181000000Y-121300000D02*
X181000000Y-134700000D01*
X167300000Y-121000000D02*
G75*
G03*
X167000000Y-121300000I0J-300000D01*
G01*
X167000000Y-134700000D02*
G75*
G03*
X167300000Y-135000000I300000J0D01*
G01*
X181000000Y-121300000D02*
G75*
G03*
X180700000Y-121000000I-300000J0D01*
G01*
X180700000Y-135000000D02*
G75*
G03*
X181000000Y-134700000I0J300000D01*
G01*
X110000000Y-99700000D02*
X110000000Y-86300000D01*
X110300000Y-86000000D02*
X123700000Y-86000000D01*
X123700000Y-100000000D02*
X110300000Y-100000000D01*
X124000000Y-86300000D02*
X124000000Y-99700000D01*
X110300000Y-86000000D02*
G75*
G03*
X110000000Y-86300000I0J-300000D01*
G01*
X110000000Y-99700000D02*
G75*
G03*
X110300000Y-100000000I300000J0D01*
G01*
X124000000Y-86300000D02*
G75*
G03*
X123700000Y-86000000I-300000J0D01*
G01*
X123700000Y-100000000D02*
G75*
G03*
X124000000Y-99700000I0J300000D01*
G01*
X167000000Y-96700000D02*
X167000000Y-83300000D01*
X167300000Y-83000000D02*
X180700000Y-83000000D01*
X180700000Y-97000000D02*
X167300000Y-97000000D01*
X181000000Y-83300000D02*
X181000000Y-96700000D01*
X167300000Y-83000000D02*
G75*
G03*
X167000000Y-83300000I0J-300000D01*
G01*
X167000000Y-96700000D02*
G75*
G03*
X167300000Y-97000000I300000J0D01*
G01*
X181000000Y-83300000D02*
G75*
G03*
X180700000Y-83000000I-300000J0D01*
G01*
X180700000Y-97000000D02*
G75*
G03*
X181000000Y-96700000I0J300000D01*
G01*
X167000000Y-77700000D02*
X167000000Y-64300000D01*
X167300000Y-64000000D02*
X180700000Y-64000000D01*
X180700000Y-78000000D02*
X167300000Y-78000000D01*
X181000000Y-64300000D02*
X181000000Y-77700000D01*
X167300000Y-64000000D02*
G75*
G03*
X167000000Y-64300000I0J-300000D01*
G01*
X167000000Y-77700000D02*
G75*
G03*
X167300000Y-78000000I300000J0D01*
G01*
X181000000Y-64300000D02*
G75*
G03*
X180700000Y-64000000I-300000J0D01*
G01*
X180700000Y-78000000D02*
G75*
G03*
X181000000Y-77700000I0J300000D01*
G01*
X129000000Y-58200000D02*
X129000000Y-44800000D01*
X129300000Y-44500000D02*
X142700000Y-44500000D01*
X142700000Y-58500000D02*
X129300000Y-58500000D01*
X143000000Y-44800000D02*
X143000000Y-58200000D01*
X129300000Y-44500000D02*
G75*
G03*
X129000000Y-44800000I0J-300000D01*
G01*
X129000000Y-58200000D02*
G75*
G03*
X129300000Y-58500000I300000J0D01*
G01*
X143000000Y-44800000D02*
G75*
G03*
X142700000Y-44500000I-300000J0D01*
G01*
X142700000Y-58500000D02*
G75*
G03*
X143000000Y-58200000I0J300000D01*
G01*
X129000000Y-96200000D02*
X129000000Y-82800000D01*
X129300000Y-82500000D02*
X142700000Y-82500000D01*
X142700000Y-96500000D02*
X129300000Y-96500000D01*
X143000000Y-82800000D02*
X143000000Y-96200000D01*
X129300000Y-82500000D02*
G75*
G03*
X129000000Y-82800000I0J-300000D01*
G01*
X129000000Y-96200000D02*
G75*
G03*
X129300000Y-96500000I300000J0D01*
G01*
X143000000Y-82800000D02*
G75*
G03*
X142700000Y-82500000I-300000J0D01*
G01*
X142700000Y-96500000D02*
G75*
G03*
X143000000Y-96200000I0J300000D01*
G01*
X205000000Y-139700000D02*
X205000000Y-126300000D01*
X205300000Y-126000000D02*
X218700000Y-126000000D01*
X218700000Y-140000000D02*
X205300000Y-140000000D01*
X219000000Y-126300000D02*
X219000000Y-139700000D01*
X205300000Y-126000000D02*
G75*
G03*
X205000000Y-126300000I0J-300000D01*
G01*
X205000000Y-139700000D02*
G75*
G03*
X205300000Y-140000000I300000J0D01*
G01*
X219000000Y-126300000D02*
G75*
G03*
X218700000Y-126000000I-300000J0D01*
G01*
X218700000Y-140000000D02*
G75*
G03*
X219000000Y-139700000I0J300000D01*
G01*
X200000000Y-63700000D02*
X200000000Y-50300000D01*
X199700000Y-50000000D02*
X186300000Y-50000000D01*
X186300000Y-64000000D02*
X199700000Y-64000000D01*
X186000000Y-50300000D02*
X186000000Y-63700000D01*
X199700000Y-64000000D02*
G75*
G03*
X200000000Y-63700000I0J300000D01*
G01*
X200000000Y-50300000D02*
G75*
G03*
X199700000Y-50000000I-300000J0D01*
G01*
X186000000Y-63700000D02*
G75*
G03*
X186300000Y-64000000I300000J0D01*
G01*
X186300000Y-50000000D02*
G75*
G03*
X186000000Y-50300000I0J-300000D01*
G01*
X200000000Y-101700000D02*
X200000000Y-88300000D01*
X199700000Y-88000000D02*
X186300000Y-88000000D01*
X186300000Y-102000000D02*
X199700000Y-102000000D01*
X186000000Y-88300000D02*
X186000000Y-101700000D01*
X199700000Y-102000000D02*
G75*
G03*
X200000000Y-101700000I0J300000D01*
G01*
X200000000Y-88300000D02*
G75*
G03*
X199700000Y-88000000I-300000J0D01*
G01*
X186000000Y-101700000D02*
G75*
G03*
X186300000Y-102000000I300000J0D01*
G01*
X186300000Y-88000000D02*
G75*
G03*
X186000000Y-88300000I0J-300000D01*
G01*
X124000000Y-61700000D02*
X124000000Y-48300000D01*
X123700000Y-48000000D02*
X110300000Y-48000000D01*
X110300000Y-62000000D02*
X123700000Y-62000000D01*
X110000000Y-48300000D02*
X110000000Y-61700000D01*
X123700000Y-62000000D02*
G75*
G03*
X124000000Y-61700000I0J300000D01*
G01*
X124000000Y-48300000D02*
G75*
G03*
X123700000Y-48000000I-300000J0D01*
G01*
X110000000Y-61700000D02*
G75*
G03*
X110300000Y-62000000I300000J0D01*
G01*
X110300000Y-48000000D02*
G75*
G03*
X110000000Y-48300000I0J-300000D01*
G01*
X162000000Y-53700000D02*
X162000000Y-40300000D01*
X161700000Y-40000000D02*
X148300000Y-40000000D01*
X148300000Y-54000000D02*
X161700000Y-54000000D01*
X148000000Y-40300000D02*
X148000000Y-53700000D01*
X161700000Y-54000000D02*
G75*
G03*
X162000000Y-53700000I0J300000D01*
G01*
X162000000Y-40300000D02*
G75*
G03*
X161700000Y-40000000I-300000J0D01*
G01*
X148000000Y-53700000D02*
G75*
G03*
X148300000Y-54000000I300000J0D01*
G01*
X148300000Y-40000000D02*
G75*
G03*
X148000000Y-40300000I0J-300000D01*
G01*
X200000000Y-82700000D02*
X200000000Y-69300000D01*
X199700000Y-69000000D02*
X186300000Y-69000000D01*
X186300000Y-83000000D02*
X199700000Y-83000000D01*
X186000000Y-69300000D02*
X186000000Y-82700000D01*
X199700000Y-83000000D02*
G75*
G03*
X200000000Y-82700000I0J300000D01*
G01*
X200000000Y-69300000D02*
G75*
G03*
X199700000Y-69000000I-300000J0D01*
G01*
X186000000Y-82700000D02*
G75*
G03*
X186300000Y-83000000I300000J0D01*
G01*
X186300000Y-69000000D02*
G75*
G03*
X186000000Y-69300000I0J-300000D01*
G01*
X162000000Y-91700000D02*
X162000000Y-78300000D01*
X161700000Y-78000000D02*
X148300000Y-78000000D01*
X148300000Y-92000000D02*
X161700000Y-92000000D01*
X148000000Y-78300000D02*
X148000000Y-91700000D01*
X161700000Y-92000000D02*
G75*
G03*
X162000000Y-91700000I0J300000D01*
G01*
X162000000Y-78300000D02*
G75*
G03*
X161700000Y-78000000I-300000J0D01*
G01*
X148000000Y-91700000D02*
G75*
G03*
X148300000Y-92000000I300000J0D01*
G01*
X148300000Y-78000000D02*
G75*
G03*
X148000000Y-78300000I0J-300000D01*
G01*
X162000000Y-72700000D02*
X162000000Y-59300000D01*
X161700000Y-59000000D02*
X148300000Y-59000000D01*
X148300000Y-73000000D02*
X161700000Y-73000000D01*
X148000000Y-59300000D02*
X148000000Y-72700000D01*
X161700000Y-73000000D02*
G75*
G03*
X162000000Y-72700000I0J300000D01*
G01*
X162000000Y-59300000D02*
G75*
G03*
X161700000Y-59000000I-300000J0D01*
G01*
X148000000Y-72700000D02*
G75*
G03*
X148300000Y-73000000I300000J0D01*
G01*
X148300000Y-59000000D02*
G75*
G03*
X148000000Y-59300000I0J-300000D01*
G01*
X124000000Y-80700000D02*
X124000000Y-67300000D01*
X123700000Y-67000000D02*
X110300000Y-67000000D01*
X110300000Y-81000000D02*
X123700000Y-81000000D01*
X110000000Y-67300000D02*
X110000000Y-80700000D01*
X123700000Y-81000000D02*
G75*
G03*
X124000000Y-80700000I0J300000D01*
G01*
X124000000Y-67300000D02*
G75*
G03*
X123700000Y-67000000I-300000J0D01*
G01*
X110000000Y-80700000D02*
G75*
G03*
X110300000Y-81000000I300000J0D01*
G01*
X110300000Y-67000000D02*
G75*
G03*
X110000000Y-67300000I0J-300000D01*
G01*
%TD*%
M02*
