  0
SECTION
  2
HEADER
  9
$ANGBASE
  50
0.0
  9
$ANGDIR
  70
1
  9
$MEASUREMENT
  70
1
  0
ENDSEC
  0
SECTION
  2
TABLES
  0
TABLE
  2
LTYPE
  70
4
  0
LTYPE
  5
40F
  2
CONTINUOUS
  70
0
  3
Solid line
  72
65
  73
0
  40
0.0
  0
LTYPE
  5
410
  2
DASHDOT
 70
0
  3
Dash Dot ____ _ ____ _
 72
65
 73
4
 40
2.0
 49
1.25
 49
-0.25
 49
0.25
 49
-0.25
  0
LTYPE
  5
411
  2
DASHED
 70
0
  3
Dashed __ __ __ __ __
 72
65
 73
2
 40
0.75
 49
0.5
 49
-0.25
  0
LTYPE
  5
43B
  2
DOTTED
 70
0
  3
Dotted .  .  .  .
 72
65
 73
2
 40
0.2
 49
0.0
 49
-0.2
  0
ENDTAB
  0
TABLE
  2
STYLE
  70
4
  0
STYLE
  2
KICAD
  70
0
  40
0
  41
1
  42
1
  50
0
  71
0
  3
isocp.shx
  0
STYLE
  2
KICADB
  70
0
  40
0
  41
1
  42
1
  50
0
  71
0
  3
isocp.shx
  0
STYLE
  2
KICADI
  70
0
  40
0
  41
1
  42
1
  50
15
  71
0
  3
isocp.shx
  0
STYLE
  2
KICADBI
  70
0
  40
0
  41
1
  42
1
  50
15
  71
0
  3
isocp.shx
  0
ENDTAB
  0
TABLE
  2
LAYER
  70
1
  0
LAYER
  2
BLACK
  70
0
  62
7
  6
CONTINUOUS
  0
ENDTAB
  0
ENDSEC
  0
SECTION
  2
ENTITIES
0
LINE
8
BLACK
6
CONTINUOUS
10
102.346
20
-125.159
11
102.346
21
-125.159
0
LINE
8
BLACK
6
CONTINUOUS
10
102.346
20
-125.159
11
102.362
21
-125.171
0
LINE
8
BLACK
6
CONTINUOUS
10
102.362
20
-125.171
11
102.377
21
-125.183
0
LINE
8
BLACK
6
CONTINUOUS
10
102.377
20
-125.183
11
102.377
21
-125.183
0
LINE
8
BLACK
6
CONTINUOUS
10
102.377
20
-125.183
11
102.377
21
-125.183
0
LINE
8
BLACK
6
CONTINUOUS
10
102.377
20
-125.183
11
102.377
21
-125.183
0
LINE
8
BLACK
6
CONTINUOUS
10
102.377
20
-125.183
11
106.513
21
-132.336
0
LINE
8
BLACK
6
CONTINUOUS
10
106.513
20
-132.336
11
106.664
21
-132.249
0
LINE
8
BLACK
6
CONTINUOUS
10
106.664
20
-132.249
11
106.702
21
-132.244
0
LINE
8
BLACK
6
CONTINUOUS
10
106.702
20
-132.244
11
106.732
21
-132.267
0
LINE
8
BLACK
6
CONTINUOUS
10
106.732
20
-132.267
11
113.732
21
-144.391
0
LINE
8
BLACK
6
CONTINUOUS
10
113.732
20
-144.391
11
113.737
21
-144.429
0
LINE
8
BLACK
6
CONTINUOUS
10
113.737
20
-144.429
11
113.714
21
-144.459
0
LINE
8
BLACK
6
CONTINUOUS
10
113.714
20
-144.459
11
113.558
21
-144.549
0
LINE
8
BLACK
6
CONTINUOUS
10
113.558
20
-144.549
11
117.69
21
-151.705
0
LINE
8
BLACK
6
CONTINUOUS
10
117.69
20
-151.705
11
117.69
21
-151.705
0
LINE
8
BLACK
6
CONTINUOUS
10
117.69
20
-151.705
11
117.695
21
-151.743
0
LINE
8
BLACK
6
CONTINUOUS
10
117.695
20
-151.743
11
117.671
21
-151.774
0
LINE
8
BLACK
6
CONTINUOUS
10
117.671
20
-151.774
11
107.019
21
-157.924
0
LINE
8
BLACK
6
CONTINUOUS
10
107.019
20
-157.924
11
107.019
21
-157.924
0
LINE
8
BLACK
6
CONTINUOUS
10
107.019
20
-157.924
11
106.981
21
-157.929
0
LINE
8
BLACK
6
CONTINUOUS
10
106.981
20
-157.929
11
106.951
21
-157.905
0
LINE
8
BLACK
6
CONTINUOUS
10
106.951
20
-157.905
11
102.82
21
-150.749
0
LINE
8
BLACK
6
CONTINUOUS
10
102.82
20
-150.749
11
101.59
21
-151.459
0
LINE
8
BLACK
6
CONTINUOUS
10
101.59
20
-151.459
11
101.552
21
-151.464
0
LINE
8
BLACK
6
CONTINUOUS
10
101.552
20
-151.464
11
101.522
21
-151.441
0
LINE
8
BLACK
6
CONTINUOUS
10
101.522
20
-151.441
11
94.5276
21
-139.327
0
LINE
8
BLACK
6
CONTINUOUS
10
94.5276
20
-139.327
11
94.5172
21
-139.319
0
LINE
8
BLACK
6
CONTINUOUS
10
94.5172
20
-139.319
11
94.5122
21
-139.281
0
LINE
8
BLACK
6
CONTINUOUS
10
94.5122
20
-139.281
11
94.5355
21
-139.251
0
LINE
8
BLACK
6
CONTINUOUS
10
94.5355
20
-139.251
11
95.7696
21
-138.539
0
LINE
8
BLACK
6
CONTINUOUS
10
95.7696
20
-138.539
11
91.6381
21
-131.383
0
LINE
8
BLACK
6
CONTINUOUS
10
91.6381
20
-131.383
11
91.6331
21
-131.345
0
LINE
8
BLACK
6
CONTINUOUS
10
91.6331
20
-131.345
11
91.6564
21
-131.314
0
LINE
8
BLACK
6
CONTINUOUS
10
91.6564
20
-131.314
11
102.308
21
-125.164
0
LINE
8
BLACK
6
CONTINUOUS
10
102.308
20
-125.164
11
102.327
21
-125.162
0
LINE
8
BLACK
6
CONTINUOUS
10
102.327
20
-125.162
11
102.346
21
-125.159
0
LINE
8
BLACK
6
CONTINUOUS
10
102.346
20
-125.159
11
102.346
21
-125.159
0
LINE
8
BLACK
6
CONTINUOUS
10
91.7497
20
-131.376
11
95.8812
21
-138.532
0
LINE
8
BLACK
6
CONTINUOUS
10
95.8812
20
-138.532
11
95.8862
21
-138.57
0
LINE
8
BLACK
6
CONTINUOUS
10
95.8862
20
-138.57
11
95.8769
21
-138.582
0
LINE
8
BLACK
6
CONTINUOUS
10
95.8769
20
-138.582
11
95.8629
21
-138.6
0
LINE
8
BLACK
6
CONTINUOUS
10
95.8629
20
-138.6
11
94.6331
21
-139.31
0
LINE
8
BLACK
6
CONTINUOUS
10
94.6331
20
-139.31
11
101.583
21
-151.348
0
LINE
8
BLACK
6
CONTINUOUS
10
101.583
20
-151.348
11
102.813
21
-150.638
0
LINE
8
BLACK
6
CONTINUOUS
10
102.813
20
-150.638
11
102.851
21
-150.633
0
LINE
8
BLACK
6
CONTINUOUS
10
102.851
20
-150.633
11
102.881
21
-150.656
0
LINE
8
BLACK
6
CONTINUOUS
10
102.881
20
-150.656
11
102.881
21
-150.656
0
LINE
8
BLACK
6
CONTINUOUS
10
102.881
20
-150.656
11
107.013
21
-157.812
0
LINE
8
BLACK
6
CONTINUOUS
10
107.013
20
-157.812
11
117.578
21
-151.712
0
LINE
8
BLACK
6
CONTINUOUS
10
117.578
20
-151.712
11
113.447
21
-144.556
0
LINE
8
BLACK
6
CONTINUOUS
10
113.447
20
-144.556
11
113.442
21
-144.518
0
LINE
8
BLACK
6
CONTINUOUS
10
113.442
20
-144.518
11
113.465
21
-144.488
0
LINE
8
BLACK
6
CONTINUOUS
10
113.465
20
-144.488
11
113.465
21
-144.488
0
LINE
8
BLACK
6
CONTINUOUS
10
113.465
20
-144.488
11
113.621
21
-144.398
0
LINE
8
BLACK
6
CONTINUOUS
10
113.621
20
-144.398
11
106.671
21
-132.36
0
LINE
8
BLACK
6
CONTINUOUS
10
106.671
20
-132.36
11
106.519
21
-132.448
0
LINE
8
BLACK
6
CONTINUOUS
10
106.519
20
-132.448
11
106.5
21
-132.45
0
LINE
8
BLACK
6
CONTINUOUS
10
106.5
20
-132.45
11
106.481
21
-132.453
0
LINE
8
BLACK
6
CONTINUOUS
10
106.481
20
-132.453
11
106.481
21
-132.453
0
LINE
8
BLACK
6
CONTINUOUS
10
106.481
20
-132.453
11
106.481
21
-132.453
0
LINE
8
BLACK
6
CONTINUOUS
10
106.481
20
-132.453
11
106.466
21
-132.441
0
LINE
8
BLACK
6
CONTINUOUS
10
106.466
20
-132.441
11
106.451
21
-132.429
0
LINE
8
BLACK
6
CONTINUOUS
10
106.451
20
-132.429
11
102.315
21
-125.276
0
LINE
8
BLACK
6
CONTINUOUS
10
102.315
20
-125.276
11
91.7497
21
-131.376
0
LINE
8
BLACK
6
CONTINUOUS
10
127.916
20
-131.132
11
128.001
21
-131.187
0
LINE
8
BLACK
6
CONTINUOUS
10
128.001
20
-131.187
11
128.065
21
-131.266
0
LINE
8
BLACK
6
CONTINUOUS
10
128.065
20
-131.266
11
128.065
21
-131.266
0
LINE
8
BLACK
6
CONTINUOUS
10
128.065
20
-131.266
11
134.765
21
-142.871
0
LINE
8
BLACK
6
CONTINUOUS
10
134.765
20
-142.871
11
134.765
21
-142.871
0
LINE
8
BLACK
6
CONTINUOUS
10
134.765
20
-142.871
11
134.801
21
-142.966
0
LINE
8
BLACK
6
CONTINUOUS
10
134.801
20
-142.966
11
134.807
21
-143.067
0
LINE
8
BLACK
6
CONTINUOUS
10
134.807
20
-143.067
11
134.78
21
-143.166
0
LINE
8
BLACK
6
CONTINUOUS
10
134.78
20
-143.166
11
134.725
21
-143.251
0
LINE
8
BLACK
6
CONTINUOUS
10
134.725
20
-143.251
11
134.646
21
-143.315
0
LINE
8
BLACK
6
CONTINUOUS
10
134.646
20
-143.315
11
134.646
21
-143.315
0
LINE
8
BLACK
6
CONTINUOUS
10
134.646
20
-143.315
11
134.646
21
-143.315
0
LINE
8
BLACK
6
CONTINUOUS
10
134.646
20
-143.315
11
123.041
21
-150.015
0
LINE
8
BLACK
6
CONTINUOUS
10
123.041
20
-150.015
11
123.041
21
-150.015
0
LINE
8
BLACK
6
CONTINUOUS
10
123.041
20
-150.015
11
122.946
21
-150.051
0
LINE
8
BLACK
6
CONTINUOUS
10
122.946
20
-150.051
11
122.845
21
-150.057
0
LINE
8
BLACK
6
CONTINUOUS
10
122.845
20
-150.057
11
122.746
21
-150.03
0
LINE
8
BLACK
6
CONTINUOUS
10
122.746
20
-150.03
11
122.661
21
-149.975
0
LINE
8
BLACK
6
CONTINUOUS
10
122.661
20
-149.975
11
122.597
21
-149.896
0
LINE
8
BLACK
6
CONTINUOUS
10
122.597
20
-149.896
11
122.597
21
-149.896
0
LINE
8
BLACK
6
CONTINUOUS
10
122.597
20
-149.896
11
122.597
21
-149.896
0
LINE
8
BLACK
6
CONTINUOUS
10
122.597
20
-149.896
11
115.897
21
-138.291
0
LINE
8
BLACK
6
CONTINUOUS
10
115.897
20
-138.291
11
115.897
21
-138.291
0
LINE
8
BLACK
6
CONTINUOUS
10
115.897
20
-138.291
11
115.861
21
-138.196
0
LINE
8
BLACK
6
CONTINUOUS
10
115.861
20
-138.196
11
115.855
21
-138.095
0
LINE
8
BLACK
6
CONTINUOUS
10
115.855
20
-138.095
11
115.882
21
-137.996
0
LINE
8
BLACK
6
CONTINUOUS
10
115.882
20
-137.996
11
115.937
21
-137.911
0
LINE
8
BLACK
6
CONTINUOUS
10
115.937
20
-137.911
11
116.016
21
-137.847
0
LINE
8
BLACK
6
CONTINUOUS
10
116.016
20
-137.847
11
116.016
21
-137.847
0
LINE
8
BLACK
6
CONTINUOUS
10
116.016
20
-137.847
11
127.621
21
-131.147
0
LINE
8
BLACK
6
CONTINUOUS
10
127.621
20
-131.147
11
127.621
21
-131.147
0
LINE
8
BLACK
6
CONTINUOUS
10
127.621
20
-131.147
11
127.716
21
-131.111
0
LINE
8
BLACK
6
CONTINUOUS
10
127.716
20
-131.111
11
127.817
21
-131.105
0
LINE
8
BLACK
6
CONTINUOUS
10
127.817
20
-131.105
11
127.916
21
-131.132
0
LINE
8
BLACK
6
CONTINUOUS
10
127.684
20
-131.169
11
127.646
21
-131.19
0
LINE
8
BLACK
6
CONTINUOUS
10
127.646
20
-131.19
11
127.646
21
-131.19
0
LINE
8
BLACK
6
CONTINUOUS
10
127.646
20
-131.19
11
127.646
21
-131.19
0
LINE
8
BLACK
6
CONTINUOUS
10
127.646
20
-131.19
11
116.041
21
-137.89
0
LINE
8
BLACK
6
CONTINUOUS
10
116.041
20
-137.89
11
116.041
21
-137.89
0
LINE
8
BLACK
6
CONTINUOUS
10
116.041
20
-137.89
11
116.003
21
-137.912
0
LINE
8
BLACK
6
CONTINUOUS
10
116.003
20
-137.912
11
115.945
21
-137.977
0
LINE
8
BLACK
6
CONTINUOUS
10
115.945
20
-137.977
11
115.91
21
-138.057
0
LINE
8
BLACK
6
CONTINUOUS
10
115.91
20
-138.057
11
115.901
21
-138.143
0
LINE
8
BLACK
6
CONTINUOUS
10
115.901
20
-138.143
11
115.919
21
-138.228
0
LINE
8
BLACK
6
CONTINUOUS
10
115.919
20
-138.228
11
115.94
21
-138.266
0
LINE
8
BLACK
6
CONTINUOUS
10
115.94
20
-138.266
11
115.94
21
-138.266
0
LINE
8
BLACK
6
CONTINUOUS
10
115.94
20
-138.266
11
115.94
21
-138.266
0
LINE
8
BLACK
6
CONTINUOUS
10
115.94
20
-138.266
11
122.64
21
-149.871
0
LINE
8
BLACK
6
CONTINUOUS
10
122.64
20
-149.871
11
122.64
21
-149.871
0
LINE
8
BLACK
6
CONTINUOUS
10
122.64
20
-149.871
11
122.662
21
-149.909
0
LINE
8
BLACK
6
CONTINUOUS
10
122.662
20
-149.909
11
122.727
21
-149.967
0
LINE
8
BLACK
6
CONTINUOUS
10
122.727
20
-149.967
11
122.807
21
-150.002
0
LINE
8
BLACK
6
CONTINUOUS
10
122.807
20
-150.002
11
122.893
21
-150.011
0
LINE
8
BLACK
6
CONTINUOUS
10
122.893
20
-150.011
11
122.978
21
-149.993
0
LINE
8
BLACK
6
CONTINUOUS
10
122.978
20
-149.993
11
123.016
21
-149.972
0
LINE
8
BLACK
6
CONTINUOUS
10
123.016
20
-149.972
11
123.016
21
-149.972
0
LINE
8
BLACK
6
CONTINUOUS
10
123.016
20
-149.972
11
123.016
21
-149.972
0
LINE
8
BLACK
6
CONTINUOUS
10
123.016
20
-149.972
11
134.621
21
-143.272
0
LINE
8
BLACK
6
CONTINUOUS
10
134.621
20
-143.272
11
134.621
21
-143.272
0
LINE
8
BLACK
6
CONTINUOUS
10
134.621
20
-143.272
11
134.659
21
-143.25
0
LINE
8
BLACK
6
CONTINUOUS
10
134.659
20
-143.25
11
134.717
21
-143.185
0
LINE
8
BLACK
6
CONTINUOUS
10
134.717
20
-143.185
11
134.752
21
-143.105
0
LINE
8
BLACK
6
CONTINUOUS
10
134.752
20
-143.105
11
134.761
21
-143.019
0
LINE
8
BLACK
6
CONTINUOUS
10
134.761
20
-143.019
11
134.743
21
-142.934
0
LINE
8
BLACK
6
CONTINUOUS
10
134.743
20
-142.934
11
134.722
21
-142.896
0
LINE
8
BLACK
6
CONTINUOUS
10
134.722
20
-142.896
11
134.722
21
-142.896
0
LINE
8
BLACK
6
CONTINUOUS
10
134.722
20
-142.896
11
128.022
21
-131.291
0
LINE
8
BLACK
6
CONTINUOUS
10
128.022
20
-131.291
11
128.022
21
-131.291
0
LINE
8
BLACK
6
CONTINUOUS
10
128.022
20
-131.291
11
128
21
-131.253
0
LINE
8
BLACK
6
CONTINUOUS
10
128
20
-131.253
11
127.935
21
-131.195
0
LINE
8
BLACK
6
CONTINUOUS
10
127.935
20
-131.195
11
127.855
21
-131.16
0
LINE
8
BLACK
6
CONTINUOUS
10
127.855
20
-131.16
11
127.769
21
-131.151
0
LINE
8
BLACK
6
CONTINUOUS
10
127.769
20
-131.151
11
127.684
21
-131.169
0
LINE
8
BLACK
6
CONTINUOUS
10
144.371
20
-121.632
11
144.456
21
-121.687
0
LINE
8
BLACK
6
CONTINUOUS
10
144.456
20
-121.687
11
144.52
21
-121.766
0
LINE
8
BLACK
6
CONTINUOUS
10
144.52
20
-121.766
11
144.52
21
-121.766
0
LINE
8
BLACK
6
CONTINUOUS
10
144.52
20
-121.766
11
151.22
21
-133.371
0
LINE
8
BLACK
6
CONTINUOUS
10
151.22
20
-133.371
11
151.22
21
-133.371
0
LINE
8
BLACK
6
CONTINUOUS
10
151.22
20
-133.371
11
151.256
21
-133.466
0
LINE
8
BLACK
6
CONTINUOUS
10
151.256
20
-133.466
11
151.262
21
-133.567
0
LINE
8
BLACK
6
CONTINUOUS
10
151.262
20
-133.567
11
151.235
21
-133.666
0
LINE
8
BLACK
6
CONTINUOUS
10
151.235
20
-133.666
11
151.18
21
-133.751
0
LINE
8
BLACK
6
CONTINUOUS
10
151.18
20
-133.751
11
151.101
21
-133.815
0
LINE
8
BLACK
6
CONTINUOUS
10
151.101
20
-133.815
11
151.101
21
-133.815
0
LINE
8
BLACK
6
CONTINUOUS
10
151.101
20
-133.815
11
151.101
21
-133.815
0
LINE
8
BLACK
6
CONTINUOUS
10
151.101
20
-133.815
11
139.496
21
-140.515
0
LINE
8
BLACK
6
CONTINUOUS
10
139.496
20
-140.515
11
139.496
21
-140.515
0
LINE
8
BLACK
6
CONTINUOUS
10
139.496
20
-140.515
11
139.401
21
-140.551
0
LINE
8
BLACK
6
CONTINUOUS
10
139.401
20
-140.551
11
139.3
21
-140.557
0
LINE
8
BLACK
6
CONTINUOUS
10
139.3
20
-140.557
11
139.201
21
-140.53
0
LINE
8
BLACK
6
CONTINUOUS
10
139.201
20
-140.53
11
139.116
21
-140.475
0
LINE
8
BLACK
6
CONTINUOUS
10
139.116
20
-140.475
11
139.052
21
-140.396
0
LINE
8
BLACK
6
CONTINUOUS
10
139.052
20
-140.396
11
139.052
21
-140.396
0
LINE
8
BLACK
6
CONTINUOUS
10
139.052
20
-140.396
11
139.052
21
-140.396
0
LINE
8
BLACK
6
CONTINUOUS
10
139.052
20
-140.396
11
132.352
21
-128.791
0
LINE
8
BLACK
6
CONTINUOUS
10
132.352
20
-128.791
11
132.352
21
-128.791
0
LINE
8
BLACK
6
CONTINUOUS
10
132.352
20
-128.791
11
132.316
21
-128.696
0
LINE
8
BLACK
6
CONTINUOUS
10
132.316
20
-128.696
11
132.31
21
-128.595
0
LINE
8
BLACK
6
CONTINUOUS
10
132.31
20
-128.595
11
132.337
21
-128.496
0
LINE
8
BLACK
6
CONTINUOUS
10
132.337
20
-128.496
11
132.392
21
-128.411
0
LINE
8
BLACK
6
CONTINUOUS
10
132.392
20
-128.411
11
132.471
21
-128.347
0
LINE
8
BLACK
6
CONTINUOUS
10
132.471
20
-128.347
11
132.471
21
-128.347
0
LINE
8
BLACK
6
CONTINUOUS
10
132.471
20
-128.347
11
144.076
21
-121.647
0
LINE
8
BLACK
6
CONTINUOUS
10
144.076
20
-121.647
11
144.076
21
-121.647
0
LINE
8
BLACK
6
CONTINUOUS
10
144.076
20
-121.647
11
144.171
21
-121.611
0
LINE
8
BLACK
6
CONTINUOUS
10
144.171
20
-121.611
11
144.272
21
-121.605
0
LINE
8
BLACK
6
CONTINUOUS
10
144.272
20
-121.605
11
144.371
21
-121.632
0
LINE
8
BLACK
6
CONTINUOUS
10
144.139
20
-121.669
11
144.101
21
-121.69
0
LINE
8
BLACK
6
CONTINUOUS
10
144.101
20
-121.69
11
144.101
21
-121.69
0
LINE
8
BLACK
6
CONTINUOUS
10
144.101
20
-121.69
11
144.101
21
-121.69
0
LINE
8
BLACK
6
CONTINUOUS
10
144.101
20
-121.69
11
132.496
21
-128.39
0
LINE
8
BLACK
6
CONTINUOUS
10
132.496
20
-128.39
11
132.496
21
-128.39
0
LINE
8
BLACK
6
CONTINUOUS
10
132.496
20
-128.39
11
132.458
21
-128.412
0
LINE
8
BLACK
6
CONTINUOUS
10
132.458
20
-128.412
11
132.4
21
-128.477
0
LINE
8
BLACK
6
CONTINUOUS
10
132.4
20
-128.477
11
132.365
21
-128.557
0
LINE
8
BLACK
6
CONTINUOUS
10
132.365
20
-128.557
11
132.356
21
-128.643
0
LINE
8
BLACK
6
CONTINUOUS
10
132.356
20
-128.643
11
132.374
21
-128.728
0
LINE
8
BLACK
6
CONTINUOUS
10
132.374
20
-128.728
11
132.395
21
-128.766
0
LINE
8
BLACK
6
CONTINUOUS
10
132.395
20
-128.766
11
132.395
21
-128.766
0
LINE
8
BLACK
6
CONTINUOUS
10
132.395
20
-128.766
11
132.395
21
-128.766
0
LINE
8
BLACK
6
CONTINUOUS
10
132.395
20
-128.766
11
139.095
21
-140.371
0
LINE
8
BLACK
6
CONTINUOUS
10
139.095
20
-140.371
11
139.095
21
-140.371
0
LINE
8
BLACK
6
CONTINUOUS
10
139.095
20
-140.371
11
139.117
21
-140.409
0
LINE
8
BLACK
6
CONTINUOUS
10
139.117
20
-140.409
11
139.182
21
-140.467
0
LINE
8
BLACK
6
CONTINUOUS
10
139.182
20
-140.467
11
139.262
21
-140.502
0
LINE
8
BLACK
6
CONTINUOUS
10
139.262
20
-140.502
11
139.348
21
-140.511
0
LINE
8
BLACK
6
CONTINUOUS
10
139.348
20
-140.511
11
139.433
21
-140.493
0
LINE
8
BLACK
6
CONTINUOUS
10
139.433
20
-140.493
11
139.471
21
-140.472
0
LINE
8
BLACK
6
CONTINUOUS
10
139.471
20
-140.472
11
139.471
21
-140.472
0
LINE
8
BLACK
6
CONTINUOUS
10
139.471
20
-140.472
11
139.471
21
-140.472
0
LINE
8
BLACK
6
CONTINUOUS
10
139.471
20
-140.472
11
151.076
21
-133.772
0
LINE
8
BLACK
6
CONTINUOUS
10
151.076
20
-133.772
11
151.076
21
-133.772
0
LINE
8
BLACK
6
CONTINUOUS
10
151.076
20
-133.772
11
151.114
21
-133.75
0
LINE
8
BLACK
6
CONTINUOUS
10
151.114
20
-133.75
11
151.172
21
-133.685
0
LINE
8
BLACK
6
CONTINUOUS
10
151.172
20
-133.685
11
151.207
21
-133.605
0
LINE
8
BLACK
6
CONTINUOUS
10
151.207
20
-133.605
11
151.216
21
-133.519
0
LINE
8
BLACK
6
CONTINUOUS
10
151.216
20
-133.519
11
151.198
21
-133.434
0
LINE
8
BLACK
6
CONTINUOUS
10
151.198
20
-133.434
11
151.177
21
-133.396
0
LINE
8
BLACK
6
CONTINUOUS
10
151.177
20
-133.396
11
151.177
21
-133.396
0
LINE
8
BLACK
6
CONTINUOUS
10
151.177
20
-133.396
11
144.477
21
-121.791
0
LINE
8
BLACK
6
CONTINUOUS
10
144.477
20
-121.791
11
144.477
21
-121.791
0
LINE
8
BLACK
6
CONTINUOUS
10
144.477
20
-121.791
11
144.455
21
-121.753
0
LINE
8
BLACK
6
CONTINUOUS
10
144.455
20
-121.753
11
144.39
21
-121.695
0
LINE
8
BLACK
6
CONTINUOUS
10
144.39
20
-121.695
11
144.31
21
-121.66
0
LINE
8
BLACK
6
CONTINUOUS
10
144.31
20
-121.66
11
144.224
21
-121.651
0
LINE
8
BLACK
6
CONTINUOUS
10
144.224
20
-121.651
11
144.139
21
-121.669
0
LINE
8
BLACK
6
CONTINUOUS
10
199.7
20
-125.975
11
199.8
21
-125.991
0
LINE
8
BLACK
6
CONTINUOUS
10
199.8
20
-125.991
11
199.891
21
-126.037
0
LINE
8
BLACK
6
CONTINUOUS
10
199.891
20
-126.037
11
199.963
21
-126.109
0
LINE
8
BLACK
6
CONTINUOUS
10
199.963
20
-126.109
11
200.009
21
-126.2
0
LINE
8
BLACK
6
CONTINUOUS
10
200.009
20
-126.2
11
200.025
21
-126.3
0
LINE
8
BLACK
6
CONTINUOUS
10
200.025
20
-126.3
11
200.025
21
-139.7
0
LINE
8
BLACK
6
CONTINUOUS
10
200.025
20
-139.7
11
200.009
21
-139.8
0
LINE
8
BLACK
6
CONTINUOUS
10
200.009
20
-139.8
11
199.963
21
-139.891
0
LINE
8
BLACK
6
CONTINUOUS
10
199.963
20
-139.891
11
199.891
21
-139.963
0
LINE
8
BLACK
6
CONTINUOUS
10
199.891
20
-139.963
11
199.8
21
-140.009
0
LINE
8
BLACK
6
CONTINUOUS
10
199.8
20
-140.009
11
199.7
21
-140.025
0
LINE
8
BLACK
6
CONTINUOUS
10
199.7
20
-140.025
11
186.3
21
-140.025
0
LINE
8
BLACK
6
CONTINUOUS
10
186.3
20
-140.025
11
186.2
21
-140.009
0
LINE
8
BLACK
6
CONTINUOUS
10
186.2
20
-140.009
11
186.109
21
-139.963
0
LINE
8
BLACK
6
CONTINUOUS
10
186.109
20
-139.963
11
186.037
21
-139.891
0
LINE
8
BLACK
6
CONTINUOUS
10
186.037
20
-139.891
11
185.991
21
-139.8
0
LINE
8
BLACK
6
CONTINUOUS
10
185.991
20
-139.8
11
185.975
21
-139.7
0
LINE
8
BLACK
6
CONTINUOUS
10
185.975
20
-139.7
11
185.975
21
-139.7
0
LINE
8
BLACK
6
CONTINUOUS
10
185.975
20
-139.7
11
185.975
21
-126.3
0
LINE
8
BLACK
6
CONTINUOUS
10
185.975
20
-126.3
11
185.975
21
-126.3
0
LINE
8
BLACK
6
CONTINUOUS
10
185.975
20
-126.3
11
185.991
21
-126.2
0
LINE
8
BLACK
6
CONTINUOUS
10
185.991
20
-126.2
11
186.037
21
-126.109
0
LINE
8
BLACK
6
CONTINUOUS
10
186.037
20
-126.109
11
186.109
21
-126.037
0
LINE
8
BLACK
6
CONTINUOUS
10
186.109
20
-126.037
11
186.2
21
-125.991
0
LINE
8
BLACK
6
CONTINUOUS
10
186.2
20
-125.991
11
186.3
21
-125.975
0
LINE
8
BLACK
6
CONTINUOUS
10
186.3
20
-125.975
11
199.7
21
-125.975
0
LINE
8
BLACK
6
CONTINUOUS
10
186.3
20
-126.025
11
186.256
21
-126.025
0
LINE
8
BLACK
6
CONTINUOUS
10
186.256
20
-126.025
11
186.174
21
-126.052
0
LINE
8
BLACK
6
CONTINUOUS
10
186.174
20
-126.052
11
186.103
21
-126.103
0
LINE
8
BLACK
6
CONTINUOUS
10
186.103
20
-126.103
11
186.052
21
-126.174
0
LINE
8
BLACK
6
CONTINUOUS
10
186.052
20
-126.174
11
186.025
21
-126.256
0
LINE
8
BLACK
6
CONTINUOUS
10
186.025
20
-126.256
11
186.025
21
-126.3
0
LINE
8
BLACK
6
CONTINUOUS
10
186.025
20
-126.3
11
186.025
21
-139.7
0
LINE
8
BLACK
6
CONTINUOUS
10
186.025
20
-139.7
11
186.025
21
-139.744
0
LINE
8
BLACK
6
CONTINUOUS
10
186.025
20
-139.744
11
186.052
21
-139.826
0
LINE
8
BLACK
6
CONTINUOUS
10
186.052
20
-139.826
11
186.103
21
-139.897
0
LINE
8
BLACK
6
CONTINUOUS
10
186.103
20
-139.897
11
186.174
21
-139.948
0
LINE
8
BLACK
6
CONTINUOUS
10
186.174
20
-139.948
11
186.256
21
-139.975
0
LINE
8
BLACK
6
CONTINUOUS
10
186.256
20
-139.975
11
186.3
21
-139.975
0
LINE
8
BLACK
6
CONTINUOUS
10
186.3
20
-139.975
11
199.7
21
-139.975
0
LINE
8
BLACK
6
CONTINUOUS
10
199.7
20
-139.975
11
199.744
21
-139.975
0
LINE
8
BLACK
6
CONTINUOUS
10
199.744
20
-139.975
11
199.826
21
-139.948
0
LINE
8
BLACK
6
CONTINUOUS
10
199.826
20
-139.948
11
199.897
21
-139.897
0
LINE
8
BLACK
6
CONTINUOUS
10
199.897
20
-139.897
11
199.948
21
-139.826
0
LINE
8
BLACK
6
CONTINUOUS
10
199.948
20
-139.826
11
199.975
21
-139.744
0
LINE
8
BLACK
6
CONTINUOUS
10
199.975
20
-139.744
11
199.975
21
-139.7
0
LINE
8
BLACK
6
CONTINUOUS
10
199.975
20
-139.7
11
199.975
21
-139.7
0
LINE
8
BLACK
6
CONTINUOUS
10
199.975
20
-139.7
11
199.975
21
-126.3
0
LINE
8
BLACK
6
CONTINUOUS
10
199.975
20
-126.3
11
199.975
21
-126.256
0
LINE
8
BLACK
6
CONTINUOUS
10
199.975
20
-126.256
11
199.948
21
-126.174
0
LINE
8
BLACK
6
CONTINUOUS
10
199.948
20
-126.174
11
199.897
21
-126.103
0
LINE
8
BLACK
6
CONTINUOUS
10
199.897
20
-126.103
11
199.826
21
-126.052
0
LINE
8
BLACK
6
CONTINUOUS
10
199.826
20
-126.052
11
199.744
21
-126.025
0
LINE
8
BLACK
6
CONTINUOUS
10
199.744
20
-126.025
11
199.7
21
-126.025
0
LINE
8
BLACK
6
CONTINUOUS
10
199.7
20
-126.025
11
186.3
21
-126.025
0
LINE
8
BLACK
6
CONTINUOUS
10
218.7
20
-125.975
11
218.8
21
-125.991
0
LINE
8
BLACK
6
CONTINUOUS
10
218.8
20
-125.991
11
218.891
21
-126.037
0
LINE
8
BLACK
6
CONTINUOUS
10
218.891
20
-126.037
11
218.963
21
-126.109
0
LINE
8
BLACK
6
CONTINUOUS
10
218.963
20
-126.109
11
219.009
21
-126.2
0
LINE
8
BLACK
6
CONTINUOUS
10
219.009
20
-126.2
11
219.025
21
-126.3
0
LINE
8
BLACK
6
CONTINUOUS
10
219.025
20
-126.3
11
219.025
21
-139.7
0
LINE
8
BLACK
6
CONTINUOUS
10
219.025
20
-139.7
11
219.025
21
-139.7
0
LINE
8
BLACK
6
CONTINUOUS
10
219.025
20
-139.7
11
219.009
21
-139.8
0
LINE
8
BLACK
6
CONTINUOUS
10
219.009
20
-139.8
11
218.963
21
-139.891
0
LINE
8
BLACK
6
CONTINUOUS
10
218.963
20
-139.891
11
218.891
21
-139.963
0
LINE
8
BLACK
6
CONTINUOUS
10
218.891
20
-139.963
11
218.8
21
-140.009
0
LINE
8
BLACK
6
CONTINUOUS
10
218.8
20
-140.009
11
218.7
21
-140.025
0
LINE
8
BLACK
6
CONTINUOUS
10
218.7
20
-140.025
11
205.3
21
-140.025
0
LINE
8
BLACK
6
CONTINUOUS
10
205.3
20
-140.025
11
205.2
21
-140.009
0
LINE
8
BLACK
6
CONTINUOUS
10
205.2
20
-140.009
11
205.109
21
-139.963
0
LINE
8
BLACK
6
CONTINUOUS
10
205.109
20
-139.963
11
205.037
21
-139.891
0
LINE
8
BLACK
6
CONTINUOUS
10
205.037
20
-139.891
11
204.991
21
-139.8
0
LINE
8
BLACK
6
CONTINUOUS
10
204.991
20
-139.8
11
204.975
21
-139.7
0
LINE
8
BLACK
6
CONTINUOUS
10
204.975
20
-139.7
11
204.975
21
-139.7
0
LINE
8
BLACK
6
CONTINUOUS
10
204.975
20
-139.7
11
204.975
21
-126.3
0
LINE
8
BLACK
6
CONTINUOUS
10
204.975
20
-126.3
11
204.975
21
-126.3
0
LINE
8
BLACK
6
CONTINUOUS
10
204.975
20
-126.3
11
204.991
21
-126.2
0
LINE
8
BLACK
6
CONTINUOUS
10
204.991
20
-126.2
11
205.037
21
-126.109
0
LINE
8
BLACK
6
CONTINUOUS
10
205.037
20
-126.109
11
205.109
21
-126.037
0
LINE
8
BLACK
6
CONTINUOUS
10
205.109
20
-126.037
11
205.2
21
-125.991
0
LINE
8
BLACK
6
CONTINUOUS
10
205.2
20
-125.991
11
205.3
21
-125.975
0
LINE
8
BLACK
6
CONTINUOUS
10
205.3
20
-125.975
11
218.7
21
-125.975
0
LINE
8
BLACK
6
CONTINUOUS
10
205.3
20
-126.025
11
205.256
21
-126.025
0
LINE
8
BLACK
6
CONTINUOUS
10
205.256
20
-126.025
11
205.174
21
-126.052
0
LINE
8
BLACK
6
CONTINUOUS
10
205.174
20
-126.052
11
205.103
21
-126.103
0
LINE
8
BLACK
6
CONTINUOUS
10
205.103
20
-126.103
11
205.052
21
-126.174
0
LINE
8
BLACK
6
CONTINUOUS
10
205.052
20
-126.174
11
205.025
21
-126.256
0
LINE
8
BLACK
6
CONTINUOUS
10
205.025
20
-126.256
11
205.025
21
-126.3
0
LINE
8
BLACK
6
CONTINUOUS
10
205.025
20
-126.3
11
205.025
21
-139.7
0
LINE
8
BLACK
6
CONTINUOUS
10
205.025
20
-139.7
11
205.025
21
-139.7
0
LINE
8
BLACK
6
CONTINUOUS
10
205.025
20
-139.7
11
205.025
21
-139.744
0
LINE
8
BLACK
6
CONTINUOUS
10
205.025
20
-139.744
11
205.052
21
-139.826
0
LINE
8
BLACK
6
CONTINUOUS
10
205.052
20
-139.826
11
205.103
21
-139.897
0
LINE
8
BLACK
6
CONTINUOUS
10
205.103
20
-139.897
11
205.174
21
-139.948
0
LINE
8
BLACK
6
CONTINUOUS
10
205.174
20
-139.948
11
205.256
21
-139.975
0
LINE
8
BLACK
6
CONTINUOUS
10
205.256
20
-139.975
11
205.3
21
-139.975
0
LINE
8
BLACK
6
CONTINUOUS
10
205.3
20
-139.975
11
218.7
21
-139.975
0
LINE
8
BLACK
6
CONTINUOUS
10
218.7
20
-139.975
11
218.744
21
-139.975
0
LINE
8
BLACK
6
CONTINUOUS
10
218.744
20
-139.975
11
218.826
21
-139.948
0
LINE
8
BLACK
6
CONTINUOUS
10
218.826
20
-139.948
11
218.897
21
-139.897
0
LINE
8
BLACK
6
CONTINUOUS
10
218.897
20
-139.897
11
218.948
21
-139.826
0
LINE
8
BLACK
6
CONTINUOUS
10
218.948
20
-139.826
11
218.975
21
-139.744
0
LINE
8
BLACK
6
CONTINUOUS
10
218.975
20
-139.744
11
218.975
21
-139.7
0
LINE
8
BLACK
6
CONTINUOUS
10
218.975
20
-139.7
11
218.975
21
-139.7
0
LINE
8
BLACK
6
CONTINUOUS
10
218.975
20
-139.7
11
218.975
21
-126.3
0
LINE
8
BLACK
6
CONTINUOUS
10
218.975
20
-126.3
11
218.975
21
-126.256
0
LINE
8
BLACK
6
CONTINUOUS
10
218.975
20
-126.256
11
218.948
21
-126.174
0
LINE
8
BLACK
6
CONTINUOUS
10
218.948
20
-126.174
11
218.897
21
-126.103
0
LINE
8
BLACK
6
CONTINUOUS
10
218.897
20
-126.103
11
218.826
21
-126.052
0
LINE
8
BLACK
6
CONTINUOUS
10
218.826
20
-126.052
11
218.744
21
-126.025
0
LINE
8
BLACK
6
CONTINUOUS
10
218.744
20
-126.025
11
218.7
21
-126.025
0
LINE
8
BLACK
6
CONTINUOUS
10
218.7
20
-126.025
11
205.3
21
-126.025
0
LINE
8
BLACK
6
CONTINUOUS
10
180.7
20
-120.975
11
180.8
21
-120.991
0
LINE
8
BLACK
6
CONTINUOUS
10
180.8
20
-120.991
11
180.891
21
-121.037
0
LINE
8
BLACK
6
CONTINUOUS
10
180.891
20
-121.037
11
180.963
21
-121.109
0
LINE
8
BLACK
6
CONTINUOUS
10
180.963
20
-121.109
11
181.009
21
-121.2
0
LINE
8
BLACK
6
CONTINUOUS
10
181.009
20
-121.2
11
181.025
21
-121.3
0
LINE
8
BLACK
6
CONTINUOUS
10
181.025
20
-121.3
11
181.025
21
-134.7
0
LINE
8
BLACK
6
CONTINUOUS
10
181.025
20
-134.7
11
181.009
21
-134.8
0
LINE
8
BLACK
6
CONTINUOUS
10
181.009
20
-134.8
11
180.963
21
-134.891
0
LINE
8
BLACK
6
CONTINUOUS
10
180.963
20
-134.891
11
180.891
21
-134.963
0
LINE
8
BLACK
6
CONTINUOUS
10
180.891
20
-134.963
11
180.8
21
-135.009
0
LINE
8
BLACK
6
CONTINUOUS
10
180.8
20
-135.009
11
180.7
21
-135.025
0
LINE
8
BLACK
6
CONTINUOUS
10
180.7
20
-135.025
11
167.3
21
-135.025
0
LINE
8
BLACK
6
CONTINUOUS
10
167.3
20
-135.025
11
167.2
21
-135.009
0
LINE
8
BLACK
6
CONTINUOUS
10
167.2
20
-135.009
11
167.109
21
-134.963
0
LINE
8
BLACK
6
CONTINUOUS
10
167.109
20
-134.963
11
167.037
21
-134.891
0
LINE
8
BLACK
6
CONTINUOUS
10
167.037
20
-134.891
11
166.991
21
-134.8
0
LINE
8
BLACK
6
CONTINUOUS
10
166.991
20
-134.8
11
166.975
21
-134.7
0
LINE
8
BLACK
6
CONTINUOUS
10
166.975
20
-134.7
11
166.975
21
-134.7
0
LINE
8
BLACK
6
CONTINUOUS
10
166.975
20
-134.7
11
166.975
21
-121.3
0
LINE
8
BLACK
6
CONTINUOUS
10
166.975
20
-121.3
11
166.991
21
-121.2
0
LINE
8
BLACK
6
CONTINUOUS
10
166.991
20
-121.2
11
167.037
21
-121.109
0
LINE
8
BLACK
6
CONTINUOUS
10
167.037
20
-121.109
11
167.109
21
-121.037
0
LINE
8
BLACK
6
CONTINUOUS
10
167.109
20
-121.037
11
167.2
21
-120.991
0
LINE
8
BLACK
6
CONTINUOUS
10
167.2
20
-120.991
11
167.3
21
-120.975
0
LINE
8
BLACK
6
CONTINUOUS
10
167.3
20
-120.975
11
180.7
21
-120.975
0
LINE
8
BLACK
6
CONTINUOUS
10
167.3
20
-121.025
11
167.256
21
-121.025
0
LINE
8
BLACK
6
CONTINUOUS
10
167.256
20
-121.025
11
167.174
21
-121.052
0
LINE
8
BLACK
6
CONTINUOUS
10
167.174
20
-121.052
11
167.103
21
-121.103
0
LINE
8
BLACK
6
CONTINUOUS
10
167.103
20
-121.103
11
167.052
21
-121.174
0
LINE
8
BLACK
6
CONTINUOUS
10
167.052
20
-121.174
11
167.025
21
-121.256
0
LINE
8
BLACK
6
CONTINUOUS
10
167.025
20
-121.256
11
167.025
21
-121.3
0
LINE
8
BLACK
6
CONTINUOUS
10
167.025
20
-121.3
11
167.025
21
-134.7
0
LINE
8
BLACK
6
CONTINUOUS
10
167.025
20
-134.7
11
167.025
21
-134.744
0
LINE
8
BLACK
6
CONTINUOUS
10
167.025
20
-134.744
11
167.052
21
-134.826
0
LINE
8
BLACK
6
CONTINUOUS
10
167.052
20
-134.826
11
167.103
21
-134.897
0
LINE
8
BLACK
6
CONTINUOUS
10
167.103
20
-134.897
11
167.174
21
-134.948
0
LINE
8
BLACK
6
CONTINUOUS
10
167.174
20
-134.948
11
167.256
21
-134.975
0
LINE
8
BLACK
6
CONTINUOUS
10
167.256
20
-134.975
11
167.3
21
-134.975
0
LINE
8
BLACK
6
CONTINUOUS
10
167.3
20
-134.975
11
180.7
21
-134.975
0
LINE
8
BLACK
6
CONTINUOUS
10
180.7
20
-134.975
11
180.744
21
-134.975
0
LINE
8
BLACK
6
CONTINUOUS
10
180.744
20
-134.975
11
180.826
21
-134.948
0
LINE
8
BLACK
6
CONTINUOUS
10
180.826
20
-134.948
11
180.897
21
-134.897
0
LINE
8
BLACK
6
CONTINUOUS
10
180.897
20
-134.897
11
180.948
21
-134.826
0
LINE
8
BLACK
6
CONTINUOUS
10
180.948
20
-134.826
11
180.975
21
-134.744
0
LINE
8
BLACK
6
CONTINUOUS
10
180.975
20
-134.744
11
180.975
21
-134.7
0
LINE
8
BLACK
6
CONTINUOUS
10
180.975
20
-134.7
11
180.975
21
-134.7
0
LINE
8
BLACK
6
CONTINUOUS
10
180.975
20
-134.7
11
180.975
21
-121.3
0
LINE
8
BLACK
6
CONTINUOUS
10
180.975
20
-121.3
11
180.975
21
-121.256
0
LINE
8
BLACK
6
CONTINUOUS
10
180.975
20
-121.256
11
180.948
21
-121.174
0
LINE
8
BLACK
6
CONTINUOUS
10
180.948
20
-121.174
11
180.897
21
-121.103
0
LINE
8
BLACK
6
CONTINUOUS
10
180.897
20
-121.103
11
180.826
21
-121.052
0
LINE
8
BLACK
6
CONTINUOUS
10
180.826
20
-121.052
11
180.744
21
-121.025
0
LINE
8
BLACK
6
CONTINUOUS
10
180.744
20
-121.025
11
180.7
21
-121.025
0
LINE
8
BLACK
6
CONTINUOUS
10
180.7
20
-121.025
11
167.3
21
-121.025
0
LINE
8
BLACK
6
CONTINUOUS
10
199.7
20
-106.975
11
199.8
21
-106.991
0
LINE
8
BLACK
6
CONTINUOUS
10
199.8
20
-106.991
11
199.891
21
-107.037
0
LINE
8
BLACK
6
CONTINUOUS
10
199.891
20
-107.037
11
199.963
21
-107.109
0
LINE
8
BLACK
6
CONTINUOUS
10
199.963
20
-107.109
11
200.009
21
-107.2
0
LINE
8
BLACK
6
CONTINUOUS
10
200.009
20
-107.2
11
200.025
21
-107.3
0
LINE
8
BLACK
6
CONTINUOUS
10
200.025
20
-107.3
11
200.025
21
-120.7
0
LINE
8
BLACK
6
CONTINUOUS
10
200.025
20
-120.7
11
200.009
21
-120.8
0
LINE
8
BLACK
6
CONTINUOUS
10
200.009
20
-120.8
11
199.963
21
-120.891
0
LINE
8
BLACK
6
CONTINUOUS
10
199.963
20
-120.891
11
199.891
21
-120.963
0
LINE
8
BLACK
6
CONTINUOUS
10
199.891
20
-120.963
11
199.8
21
-121.009
0
LINE
8
BLACK
6
CONTINUOUS
10
199.8
20
-121.009
11
199.7
21
-121.025
0
LINE
8
BLACK
6
CONTINUOUS
10
199.7
20
-121.025
11
186.3
21
-121.025
0
LINE
8
BLACK
6
CONTINUOUS
10
186.3
20
-121.025
11
186.2
21
-121.009
0
LINE
8
BLACK
6
CONTINUOUS
10
186.2
20
-121.009
11
186.109
21
-120.963
0
LINE
8
BLACK
6
CONTINUOUS
10
186.109
20
-120.963
11
186.037
21
-120.891
0
LINE
8
BLACK
6
CONTINUOUS
10
186.037
20
-120.891
11
185.991
21
-120.8
0
LINE
8
BLACK
6
CONTINUOUS
10
185.991
20
-120.8
11
185.975
21
-120.7
0
LINE
8
BLACK
6
CONTINUOUS
10
185.975
20
-120.7
11
185.975
21
-107.3
0
LINE
8
BLACK
6
CONTINUOUS
10
185.975
20
-107.3
11
185.975
21
-107.3
0
LINE
8
BLACK
6
CONTINUOUS
10
185.975
20
-107.3
11
185.991
21
-107.2
0
LINE
8
BLACK
6
CONTINUOUS
10
185.991
20
-107.2
11
186.037
21
-107.109
0
LINE
8
BLACK
6
CONTINUOUS
10
186.037
20
-107.109
11
186.109
21
-107.037
0
LINE
8
BLACK
6
CONTINUOUS
10
186.109
20
-107.037
11
186.2
21
-106.991
0
LINE
8
BLACK
6
CONTINUOUS
10
186.2
20
-106.991
11
186.3
21
-106.975
0
LINE
8
BLACK
6
CONTINUOUS
10
186.3
20
-106.975
11
199.7
21
-106.975
0
LINE
8
BLACK
6
CONTINUOUS
10
186.3
20
-107.025
11
186.256
21
-107.025
0
LINE
8
BLACK
6
CONTINUOUS
10
186.256
20
-107.025
11
186.174
21
-107.052
0
LINE
8
BLACK
6
CONTINUOUS
10
186.174
20
-107.052
11
186.103
21
-107.103
0
LINE
8
BLACK
6
CONTINUOUS
10
186.103
20
-107.103
11
186.052
21
-107.174
0
LINE
8
BLACK
6
CONTINUOUS
10
186.052
20
-107.174
11
186.025
21
-107.256
0
LINE
8
BLACK
6
CONTINUOUS
10
186.025
20
-107.256
11
186.025
21
-107.3
0
LINE
8
BLACK
6
CONTINUOUS
10
186.025
20
-107.3
11
186.025
21
-120.7
0
LINE
8
BLACK
6
CONTINUOUS
10
186.025
20
-120.7
11
186.025
21
-120.744
0
LINE
8
BLACK
6
CONTINUOUS
10
186.025
20
-120.744
11
186.052
21
-120.826
0
LINE
8
BLACK
6
CONTINUOUS
10
186.052
20
-120.826
11
186.103
21
-120.897
0
LINE
8
BLACK
6
CONTINUOUS
10
186.103
20
-120.897
11
186.174
21
-120.948
0
LINE
8
BLACK
6
CONTINUOUS
10
186.174
20
-120.948
11
186.256
21
-120.975
0
LINE
8
BLACK
6
CONTINUOUS
10
186.256
20
-120.975
11
186.3
21
-120.975
0
LINE
8
BLACK
6
CONTINUOUS
10
186.3
20
-120.975
11
199.7
21
-120.975
0
LINE
8
BLACK
6
CONTINUOUS
10
199.7
20
-120.975
11
199.744
21
-120.975
0
LINE
8
BLACK
6
CONTINUOUS
10
199.744
20
-120.975
11
199.826
21
-120.948
0
LINE
8
BLACK
6
CONTINUOUS
10
199.826
20
-120.948
11
199.897
21
-120.897
0
LINE
8
BLACK
6
CONTINUOUS
10
199.897
20
-120.897
11
199.948
21
-120.826
0
LINE
8
BLACK
6
CONTINUOUS
10
199.948
20
-120.826
11
199.975
21
-120.744
0
LINE
8
BLACK
6
CONTINUOUS
10
199.975
20
-120.744
11
199.975
21
-120.7
0
LINE
8
BLACK
6
CONTINUOUS
10
199.975
20
-120.7
11
199.975
21
-107.3
0
LINE
8
BLACK
6
CONTINUOUS
10
199.975
20
-107.3
11
199.975
21
-107.256
0
LINE
8
BLACK
6
CONTINUOUS
10
199.975
20
-107.256
11
199.948
21
-107.174
0
LINE
8
BLACK
6
CONTINUOUS
10
199.948
20
-107.174
11
199.897
21
-107.103
0
LINE
8
BLACK
6
CONTINUOUS
10
199.897
20
-107.103
11
199.826
21
-107.052
0
LINE
8
BLACK
6
CONTINUOUS
10
199.826
20
-107.052
11
199.744
21
-107.025
0
LINE
8
BLACK
6
CONTINUOUS
10
199.744
20
-107.025
11
199.7
21
-107.025
0
LINE
8
BLACK
6
CONTINUOUS
10
199.7
20
-107.025
11
186.3
21
-107.025
0
LINE
8
BLACK
6
CONTINUOUS
10
218.7
20
-106.975
11
218.8
21
-106.991
0
LINE
8
BLACK
6
CONTINUOUS
10
218.8
20
-106.991
11
218.891
21
-107.037
0
LINE
8
BLACK
6
CONTINUOUS
10
218.891
20
-107.037
11
218.963
21
-107.109
0
LINE
8
BLACK
6
CONTINUOUS
10
218.963
20
-107.109
11
219.009
21
-107.2
0
LINE
8
BLACK
6
CONTINUOUS
10
219.009
20
-107.2
11
219.025
21
-107.3
0
LINE
8
BLACK
6
CONTINUOUS
10
219.025
20
-107.3
11
219.025
21
-120.7
0
LINE
8
BLACK
6
CONTINUOUS
10
219.025
20
-120.7
11
219.025
21
-120.7
0
LINE
8
BLACK
6
CONTINUOUS
10
219.025
20
-120.7
11
219.009
21
-120.8
0
LINE
8
BLACK
6
CONTINUOUS
10
219.009
20
-120.8
11
218.963
21
-120.891
0
LINE
8
BLACK
6
CONTINUOUS
10
218.963
20
-120.891
11
218.891
21
-120.963
0
LINE
8
BLACK
6
CONTINUOUS
10
218.891
20
-120.963
11
218.8
21
-121.009
0
LINE
8
BLACK
6
CONTINUOUS
10
218.8
20
-121.009
11
218.7
21
-121.025
0
LINE
8
BLACK
6
CONTINUOUS
10
218.7
20
-121.025
11
205.3
21
-121.025
0
LINE
8
BLACK
6
CONTINUOUS
10
205.3
20
-121.025
11
205.2
21
-121.009
0
LINE
8
BLACK
6
CONTINUOUS
10
205.2
20
-121.009
11
205.109
21
-120.963
0
LINE
8
BLACK
6
CONTINUOUS
10
205.109
20
-120.963
11
205.037
21
-120.891
0
LINE
8
BLACK
6
CONTINUOUS
10
205.037
20
-120.891
11
204.991
21
-120.8
0
LINE
8
BLACK
6
CONTINUOUS
10
204.991
20
-120.8
11
204.975
21
-120.7
0
LINE
8
BLACK
6
CONTINUOUS
10
204.975
20
-120.7
11
204.975
21
-120.7
0
LINE
8
BLACK
6
CONTINUOUS
10
204.975
20
-120.7
11
204.975
21
-107.3
0
LINE
8
BLACK
6
CONTINUOUS
10
204.975
20
-107.3
11
204.975
21
-107.3
0
LINE
8
BLACK
6
CONTINUOUS
10
204.975
20
-107.3
11
204.991
21
-107.2
0
LINE
8
BLACK
6
CONTINUOUS
10
204.991
20
-107.2
11
205.037
21
-107.109
0
LINE
8
BLACK
6
CONTINUOUS
10
205.037
20
-107.109
11
205.109
21
-107.037
0
LINE
8
BLACK
6
CONTINUOUS
10
205.109
20
-107.037
11
205.2
21
-106.991
0
LINE
8
BLACK
6
CONTINUOUS
10
205.2
20
-106.991
11
205.3
21
-106.975
0
LINE
8
BLACK
6
CONTINUOUS
10
205.3
20
-106.975
11
218.7
21
-106.975
0
LINE
8
BLACK
6
CONTINUOUS
10
205.3
20
-107.025
11
205.256
21
-107.025
0
LINE
8
BLACK
6
CONTINUOUS
10
205.256
20
-107.025
11
205.174
21
-107.052
0
LINE
8
BLACK
6
CONTINUOUS
10
205.174
20
-107.052
11
205.103
21
-107.103
0
LINE
8
BLACK
6
CONTINUOUS
10
205.103
20
-107.103
11
205.052
21
-107.174
0
LINE
8
BLACK
6
CONTINUOUS
10
205.052
20
-107.174
11
205.025
21
-107.256
0
LINE
8
BLACK
6
CONTINUOUS
10
205.025
20
-107.256
11
205.025
21
-107.3
0
LINE
8
BLACK
6
CONTINUOUS
10
205.025
20
-107.3
11
205.025
21
-120.7
0
LINE
8
BLACK
6
CONTINUOUS
10
205.025
20
-120.7
11
205.025
21
-120.7
0
LINE
8
BLACK
6
CONTINUOUS
10
205.025
20
-120.7
11
205.025
21
-120.744
0
LINE
8
BLACK
6
CONTINUOUS
10
205.025
20
-120.744
11
205.052
21
-120.826
0
LINE
8
BLACK
6
CONTINUOUS
10
205.052
20
-120.826
11
205.103
21
-120.897
0
LINE
8
BLACK
6
CONTINUOUS
10
205.103
20
-120.897
11
205.174
21
-120.948
0
LINE
8
BLACK
6
CONTINUOUS
10
205.174
20
-120.948
11
205.256
21
-120.975
0
LINE
8
BLACK
6
CONTINUOUS
10
205.256
20
-120.975
11
205.3
21
-120.975
0
LINE
8
BLACK
6
CONTINUOUS
10
205.3
20
-120.975
11
218.7
21
-120.975
0
LINE
8
BLACK
6
CONTINUOUS
10
218.7
20
-120.975
11
218.744
21
-120.975
0
LINE
8
BLACK
6
CONTINUOUS
10
218.744
20
-120.975
11
218.826
21
-120.948
0
LINE
8
BLACK
6
CONTINUOUS
10
218.826
20
-120.948
11
218.897
21
-120.897
0
LINE
8
BLACK
6
CONTINUOUS
10
218.897
20
-120.897
11
218.948
21
-120.826
0
LINE
8
BLACK
6
CONTINUOUS
10
218.948
20
-120.826
11
218.975
21
-120.744
0
LINE
8
BLACK
6
CONTINUOUS
10
218.975
20
-120.744
11
218.975
21
-120.7
0
LINE
8
BLACK
6
CONTINUOUS
10
218.975
20
-120.7
11
218.975
21
-120.7
0
LINE
8
BLACK
6
CONTINUOUS
10
218.975
20
-120.7
11
218.975
21
-107.3
0
LINE
8
BLACK
6
CONTINUOUS
10
218.975
20
-107.3
11
218.975
21
-107.256
0
LINE
8
BLACK
6
CONTINUOUS
10
218.975
20
-107.256
11
218.948
21
-107.174
0
LINE
8
BLACK
6
CONTINUOUS
10
218.948
20
-107.174
11
218.897
21
-107.103
0
LINE
8
BLACK
6
CONTINUOUS
10
218.897
20
-107.103
11
218.826
21
-107.052
0
LINE
8
BLACK
6
CONTINUOUS
10
218.826
20
-107.052
11
218.744
21
-107.025
0
LINE
8
BLACK
6
CONTINUOUS
10
218.744
20
-107.025
11
218.7
21
-107.025
0
LINE
8
BLACK
6
CONTINUOUS
10
218.7
20
-107.025
11
205.3
21
-107.025
0
LINE
8
BLACK
6
CONTINUOUS
10
123.7
20
-104.975
11
123.8
21
-104.991
0
LINE
8
BLACK
6
CONTINUOUS
10
123.8
20
-104.991
11
123.891
21
-105.037
0
LINE
8
BLACK
6
CONTINUOUS
10
123.891
20
-105.037
11
123.963
21
-105.109
0
LINE
8
BLACK
6
CONTINUOUS
10
123.963
20
-105.109
11
124.009
21
-105.2
0
LINE
8
BLACK
6
CONTINUOUS
10
124.009
20
-105.2
11
124.025
21
-105.3
0
LINE
8
BLACK
6
CONTINUOUS
10
124.025
20
-105.3
11
124.025
21
-105.3
0
LINE
8
BLACK
6
CONTINUOUS
10
124.025
20
-105.3
11
124.025
21
-118.7
0
LINE
8
BLACK
6
CONTINUOUS
10
124.025
20
-118.7
11
124.025
21
-118.7
0
LINE
8
BLACK
6
CONTINUOUS
10
124.025
20
-118.7
11
124.009
21
-118.8
0
LINE
8
BLACK
6
CONTINUOUS
10
124.009
20
-118.8
11
123.963
21
-118.891
0
LINE
8
BLACK
6
CONTINUOUS
10
123.963
20
-118.891
11
123.891
21
-118.963
0
LINE
8
BLACK
6
CONTINUOUS
10
123.891
20
-118.963
11
123.8
21
-119.009
0
LINE
8
BLACK
6
CONTINUOUS
10
123.8
20
-119.009
11
123.7
21
-119.025
0
LINE
8
BLACK
6
CONTINUOUS
10
123.7
20
-119.025
11
110.3
21
-119.025
0
LINE
8
BLACK
6
CONTINUOUS
10
110.3
20
-119.025
11
110.2
21
-119.009
0
LINE
8
BLACK
6
CONTINUOUS
10
110.2
20
-119.009
11
110.109
21
-118.963
0
LINE
8
BLACK
6
CONTINUOUS
10
110.109
20
-118.963
11
110.037
21
-118.891
0
LINE
8
BLACK
6
CONTINUOUS
10
110.037
20
-118.891
11
109.991
21
-118.8
0
LINE
8
BLACK
6
CONTINUOUS
10
109.991
20
-118.8
11
109.975
21
-118.7
0
LINE
8
BLACK
6
CONTINUOUS
10
109.975
20
-118.7
11
109.975
21
-105.3
0
LINE
8
BLACK
6
CONTINUOUS
10
109.975
20
-105.3
11
109.991
21
-105.2
0
LINE
8
BLACK
6
CONTINUOUS
10
109.991
20
-105.2
11
110.037
21
-105.109
0
LINE
8
BLACK
6
CONTINUOUS
10
110.037
20
-105.109
11
110.109
21
-105.037
0
LINE
8
BLACK
6
CONTINUOUS
10
110.109
20
-105.037
11
110.2
21
-104.991
0
LINE
8
BLACK
6
CONTINUOUS
10
110.2
20
-104.991
11
110.3
21
-104.975
0
LINE
8
BLACK
6
CONTINUOUS
10
110.3
20
-104.975
11
123.7
21
-104.975
0
LINE
8
BLACK
6
CONTINUOUS
10
110.3
20
-105.025
11
110.256
21
-105.025
0
LINE
8
BLACK
6
CONTINUOUS
10
110.256
20
-105.025
11
110.174
21
-105.052
0
LINE
8
BLACK
6
CONTINUOUS
10
110.174
20
-105.052
11
110.103
21
-105.103
0
LINE
8
BLACK
6
CONTINUOUS
10
110.103
20
-105.103
11
110.052
21
-105.174
0
LINE
8
BLACK
6
CONTINUOUS
10
110.052
20
-105.174
11
110.025
21
-105.256
0
LINE
8
BLACK
6
CONTINUOUS
10
110.025
20
-105.256
11
110.025
21
-105.3
0
LINE
8
BLACK
6
CONTINUOUS
10
110.025
20
-105.3
11
110.025
21
-118.7
0
LINE
8
BLACK
6
CONTINUOUS
10
110.025
20
-118.7
11
110.025
21
-118.7
0
LINE
8
BLACK
6
CONTINUOUS
10
110.025
20
-118.7
11
110.025
21
-118.744
0
LINE
8
BLACK
6
CONTINUOUS
10
110.025
20
-118.744
11
110.052
21
-118.826
0
LINE
8
BLACK
6
CONTINUOUS
10
110.052
20
-118.826
11
110.103
21
-118.897
0
LINE
8
BLACK
6
CONTINUOUS
10
110.103
20
-118.897
11
110.174
21
-118.948
0
LINE
8
BLACK
6
CONTINUOUS
10
110.174
20
-118.948
11
110.256
21
-118.975
0
LINE
8
BLACK
6
CONTINUOUS
10
110.256
20
-118.975
11
110.3
21
-118.975
0
LINE
8
BLACK
6
CONTINUOUS
10
110.3
20
-118.975
11
123.7
21
-118.975
0
LINE
8
BLACK
6
CONTINUOUS
10
123.7
20
-118.975
11
123.744
21
-118.975
0
LINE
8
BLACK
6
CONTINUOUS
10
123.744
20
-118.975
11
123.826
21
-118.948
0
LINE
8
BLACK
6
CONTINUOUS
10
123.826
20
-118.948
11
123.897
21
-118.897
0
LINE
8
BLACK
6
CONTINUOUS
10
123.897
20
-118.897
11
123.948
21
-118.826
0
LINE
8
BLACK
6
CONTINUOUS
10
123.948
20
-118.826
11
123.975
21
-118.744
0
LINE
8
BLACK
6
CONTINUOUS
10
123.975
20
-118.744
11
123.975
21
-118.7
0
LINE
8
BLACK
6
CONTINUOUS
10
123.975
20
-118.7
11
123.975
21
-105.3
0
LINE
8
BLACK
6
CONTINUOUS
10
123.975
20
-105.3
11
123.975
21
-105.256
0
LINE
8
BLACK
6
CONTINUOUS
10
123.975
20
-105.256
11
123.948
21
-105.174
0
LINE
8
BLACK
6
CONTINUOUS
10
123.948
20
-105.174
11
123.897
21
-105.103
0
LINE
8
BLACK
6
CONTINUOUS
10
123.897
20
-105.103
11
123.826
21
-105.052
0
LINE
8
BLACK
6
CONTINUOUS
10
123.826
20
-105.052
11
123.744
21
-105.025
0
LINE
8
BLACK
6
CONTINUOUS
10
123.744
20
-105.025
11
123.7
21
-105.025
0
LINE
8
BLACK
6
CONTINUOUS
10
123.7
20
-105.025
11
110.3
21
-105.025
0
LINE
8
BLACK
6
CONTINUOUS
10
180.7
20
-101.975
11
180.8
21
-101.991
0
LINE
8
BLACK
6
CONTINUOUS
10
180.8
20
-101.991
11
180.891
21
-102.037
0
LINE
8
BLACK
6
CONTINUOUS
10
180.891
20
-102.037
11
180.963
21
-102.109
0
LINE
8
BLACK
6
CONTINUOUS
10
180.963
20
-102.109
11
181.009
21
-102.2
0
LINE
8
BLACK
6
CONTINUOUS
10
181.009
20
-102.2
11
181.025
21
-102.3
0
LINE
8
BLACK
6
CONTINUOUS
10
181.025
20
-102.3
11
181.025
21
-115.7
0
LINE
8
BLACK
6
CONTINUOUS
10
181.025
20
-115.7
11
181.009
21
-115.8
0
LINE
8
BLACK
6
CONTINUOUS
10
181.009
20
-115.8
11
180.963
21
-115.891
0
LINE
8
BLACK
6
CONTINUOUS
10
180.963
20
-115.891
11
180.891
21
-115.963
0
LINE
8
BLACK
6
CONTINUOUS
10
180.891
20
-115.963
11
180.8
21
-116.009
0
LINE
8
BLACK
6
CONTINUOUS
10
180.8
20
-116.009
11
180.7
21
-116.025
0
LINE
8
BLACK
6
CONTINUOUS
10
180.7
20
-116.025
11
167.3
21
-116.025
0
LINE
8
BLACK
6
CONTINUOUS
10
167.3
20
-116.025
11
167.2
21
-116.009
0
LINE
8
BLACK
6
CONTINUOUS
10
167.2
20
-116.009
11
167.109
21
-115.963
0
LINE
8
BLACK
6
CONTINUOUS
10
167.109
20
-115.963
11
167.037
21
-115.891
0
LINE
8
BLACK
6
CONTINUOUS
10
167.037
20
-115.891
11
166.991
21
-115.8
0
LINE
8
BLACK
6
CONTINUOUS
10
166.991
20
-115.8
11
166.975
21
-115.7
0
LINE
8
BLACK
6
CONTINUOUS
10
166.975
20
-115.7
11
166.975
21
-102.3
0
LINE
8
BLACK
6
CONTINUOUS
10
166.975
20
-102.3
11
166.991
21
-102.2
0
LINE
8
BLACK
6
CONTINUOUS
10
166.991
20
-102.2
11
167.037
21
-102.109
0
LINE
8
BLACK
6
CONTINUOUS
10
167.037
20
-102.109
11
167.109
21
-102.037
0
LINE
8
BLACK
6
CONTINUOUS
10
167.109
20
-102.037
11
167.2
21
-101.991
0
LINE
8
BLACK
6
CONTINUOUS
10
167.2
20
-101.991
11
167.3
21
-101.975
0
LINE
8
BLACK
6
CONTINUOUS
10
167.3
20
-101.975
11
180.7
21
-101.975
0
LINE
8
BLACK
6
CONTINUOUS
10
167.3
20
-102.025
11
167.256
21
-102.025
0
LINE
8
BLACK
6
CONTINUOUS
10
167.256
20
-102.025
11
167.174
21
-102.052
0
LINE
8
BLACK
6
CONTINUOUS
10
167.174
20
-102.052
11
167.103
21
-102.103
0
LINE
8
BLACK
6
CONTINUOUS
10
167.103
20
-102.103
11
167.052
21
-102.174
0
LINE
8
BLACK
6
CONTINUOUS
10
167.052
20
-102.174
11
167.025
21
-102.256
0
LINE
8
BLACK
6
CONTINUOUS
10
167.025
20
-102.256
11
167.025
21
-102.3
0
LINE
8
BLACK
6
CONTINUOUS
10
167.025
20
-102.3
11
167.025
21
-115.7
0
LINE
8
BLACK
6
CONTINUOUS
10
167.025
20
-115.7
11
167.025
21
-115.744
0
LINE
8
BLACK
6
CONTINUOUS
10
167.025
20
-115.744
11
167.052
21
-115.826
0
LINE
8
BLACK
6
CONTINUOUS
10
167.052
20
-115.826
11
167.103
21
-115.897
0
LINE
8
BLACK
6
CONTINUOUS
10
167.103
20
-115.897
11
167.174
21
-115.948
0
LINE
8
BLACK
6
CONTINUOUS
10
167.174
20
-115.948
11
167.256
21
-115.975
0
LINE
8
BLACK
6
CONTINUOUS
10
167.256
20
-115.975
11
167.3
21
-115.975
0
LINE
8
BLACK
6
CONTINUOUS
10
167.3
20
-115.975
11
180.7
21
-115.975
0
LINE
8
BLACK
6
CONTINUOUS
10
180.7
20
-115.975
11
180.744
21
-115.975
0
LINE
8
BLACK
6
CONTINUOUS
10
180.744
20
-115.975
11
180.826
21
-115.948
0
LINE
8
BLACK
6
CONTINUOUS
10
180.826
20
-115.948
11
180.897
21
-115.897
0
LINE
8
BLACK
6
CONTINUOUS
10
180.897
20
-115.897
11
180.948
21
-115.826
0
LINE
8
BLACK
6
CONTINUOUS
10
180.948
20
-115.826
11
180.975
21
-115.744
0
LINE
8
BLACK
6
CONTINUOUS
10
180.975
20
-115.744
11
180.975
21
-115.7
0
LINE
8
BLACK
6
CONTINUOUS
10
180.975
20
-115.7
11
180.975
21
-102.3
0
LINE
8
BLACK
6
CONTINUOUS
10
180.975
20
-102.3
11
180.975
21
-102.256
0
LINE
8
BLACK
6
CONTINUOUS
10
180.975
20
-102.256
11
180.948
21
-102.174
0
LINE
8
BLACK
6
CONTINUOUS
10
180.948
20
-102.174
11
180.897
21
-102.103
0
LINE
8
BLACK
6
CONTINUOUS
10
180.897
20
-102.103
11
180.826
21
-102.052
0
LINE
8
BLACK
6
CONTINUOUS
10
180.826
20
-102.052
11
180.744
21
-102.025
0
LINE
8
BLACK
6
CONTINUOUS
10
180.744
20
-102.025
11
180.7
21
-102.025
0
LINE
8
BLACK
6
CONTINUOUS
10
180.7
20
-102.025
11
167.3
21
-102.025
0
LINE
8
BLACK
6
CONTINUOUS
10
142.7
20
-101.475
11
142.8
21
-101.491
0
LINE
8
BLACK
6
CONTINUOUS
10
142.8
20
-101.491
11
142.891
21
-101.537
0
LINE
8
BLACK
6
CONTINUOUS
10
142.891
20
-101.537
11
142.963
21
-101.609
0
LINE
8
BLACK
6
CONTINUOUS
10
142.963
20
-101.609
11
143.009
21
-101.7
0
LINE
8
BLACK
6
CONTINUOUS
10
143.009
20
-101.7
11
143.025
21
-101.8
0
LINE
8
BLACK
6
CONTINUOUS
10
143.025
20
-101.8
11
143.025
21
-115.2
0
LINE
8
BLACK
6
CONTINUOUS
10
143.025
20
-115.2
11
143.009
21
-115.3
0
LINE
8
BLACK
6
CONTINUOUS
10
143.009
20
-115.3
11
142.963
21
-115.391
0
LINE
8
BLACK
6
CONTINUOUS
10
142.963
20
-115.391
11
142.891
21
-115.463
0
LINE
8
BLACK
6
CONTINUOUS
10
142.891
20
-115.463
11
142.8
21
-115.509
0
LINE
8
BLACK
6
CONTINUOUS
10
142.8
20
-115.509
11
142.7
21
-115.525
0
LINE
8
BLACK
6
CONTINUOUS
10
142.7
20
-115.525
11
129.3
21
-115.525
0
LINE
8
BLACK
6
CONTINUOUS
10
129.3
20
-115.525
11
129.2
21
-115.509
0
LINE
8
BLACK
6
CONTINUOUS
10
129.2
20
-115.509
11
129.109
21
-115.463
0
LINE
8
BLACK
6
CONTINUOUS
10
129.109
20
-115.463
11
129.037
21
-115.391
0
LINE
8
BLACK
6
CONTINUOUS
10
129.037
20
-115.391
11
128.991
21
-115.3
0
LINE
8
BLACK
6
CONTINUOUS
10
128.991
20
-115.3
11
128.975
21
-115.2
0
LINE
8
BLACK
6
CONTINUOUS
10
128.975
20
-115.2
11
128.975
21
-101.8
0
LINE
8
BLACK
6
CONTINUOUS
10
128.975
20
-101.8
11
128.991
21
-101.7
0
LINE
8
BLACK
6
CONTINUOUS
10
128.991
20
-101.7
11
129.037
21
-101.609
0
LINE
8
BLACK
6
CONTINUOUS
10
129.037
20
-101.609
11
129.109
21
-101.537
0
LINE
8
BLACK
6
CONTINUOUS
10
129.109
20
-101.537
11
129.2
21
-101.491
0
LINE
8
BLACK
6
CONTINUOUS
10
129.2
20
-101.491
11
129.3
21
-101.475
0
LINE
8
BLACK
6
CONTINUOUS
10
129.3
20
-101.475
11
142.7
21
-101.475
0
LINE
8
BLACK
6
CONTINUOUS
10
129.3
20
-101.525
11
129.256
21
-101.525
0
LINE
8
BLACK
6
CONTINUOUS
10
129.256
20
-101.525
11
129.174
21
-101.552
0
LINE
8
BLACK
6
CONTINUOUS
10
129.174
20
-101.552
11
129.103
21
-101.603
0
LINE
8
BLACK
6
CONTINUOUS
10
129.103
20
-101.603
11
129.052
21
-101.674
0
LINE
8
BLACK
6
CONTINUOUS
10
129.052
20
-101.674
11
129.025
21
-101.756
0
LINE
8
BLACK
6
CONTINUOUS
10
129.025
20
-101.756
11
129.025
21
-101.8
0
LINE
8
BLACK
6
CONTINUOUS
10
129.025
20
-101.8
11
129.025
21
-115.2
0
LINE
8
BLACK
6
CONTINUOUS
10
129.025
20
-115.2
11
129.025
21
-115.2
0
LINE
8
BLACK
6
CONTINUOUS
10
129.025
20
-115.2
11
129.025
21
-115.244
0
LINE
8
BLACK
6
CONTINUOUS
10
129.025
20
-115.244
11
129.052
21
-115.326
0
LINE
8
BLACK
6
CONTINUOUS
10
129.052
20
-115.326
11
129.103
21
-115.397
0
LINE
8
BLACK
6
CONTINUOUS
10
129.103
20
-115.397
11
129.174
21
-115.448
0
LINE
8
BLACK
6
CONTINUOUS
10
129.174
20
-115.448
11
129.256
21
-115.475
0
LINE
8
BLACK
6
CONTINUOUS
10
129.256
20
-115.475
11
129.3
21
-115.475
0
LINE
8
BLACK
6
CONTINUOUS
10
129.3
20
-115.475
11
142.7
21
-115.475
0
LINE
8
BLACK
6
CONTINUOUS
10
142.7
20
-115.475
11
142.744
21
-115.475
0
LINE
8
BLACK
6
CONTINUOUS
10
142.744
20
-115.475
11
142.826
21
-115.448
0
LINE
8
BLACK
6
CONTINUOUS
10
142.826
20
-115.448
11
142.897
21
-115.397
0
LINE
8
BLACK
6
CONTINUOUS
10
142.897
20
-115.397
11
142.948
21
-115.326
0
LINE
8
BLACK
6
CONTINUOUS
10
142.948
20
-115.326
11
142.975
21
-115.244
0
LINE
8
BLACK
6
CONTINUOUS
10
142.975
20
-115.244
11
142.975
21
-115.2
0
LINE
8
BLACK
6
CONTINUOUS
10
142.975
20
-115.2
11
142.975
21
-101.8
0
LINE
8
BLACK
6
CONTINUOUS
10
142.975
20
-101.8
11
142.975
21
-101.756
0
LINE
8
BLACK
6
CONTINUOUS
10
142.975
20
-101.756
11
142.948
21
-101.674
0
LINE
8
BLACK
6
CONTINUOUS
10
142.948
20
-101.674
11
142.897
21
-101.603
0
LINE
8
BLACK
6
CONTINUOUS
10
142.897
20
-101.603
11
142.826
21
-101.552
0
LINE
8
BLACK
6
CONTINUOUS
10
142.826
20
-101.552
11
142.744
21
-101.525
0
LINE
8
BLACK
6
CONTINUOUS
10
142.744
20
-101.525
11
142.7
21
-101.525
0
LINE
8
BLACK
6
CONTINUOUS
10
142.7
20
-101.525
11
129.3
21
-101.525
0
LINE
8
BLACK
6
CONTINUOUS
10
161.7
20
-96.975
11
161.8
21
-96.9909
0
LINE
8
BLACK
6
CONTINUOUS
10
161.8
20
-96.9909
11
161.891
21
-97.0371
0
LINE
8
BLACK
6
CONTINUOUS
10
161.891
20
-97.0371
11
161.963
21
-97.109
0
LINE
8
BLACK
6
CONTINUOUS
10
161.963
20
-97.109
11
162.009
21
-97.1996
0
LINE
8
BLACK
6
CONTINUOUS
10
162.009
20
-97.1996
11
162.025
21
-97.3
0
LINE
8
BLACK
6
CONTINUOUS
10
162.025
20
-97.3
11
162.025
21
-110.7
0
LINE
8
BLACK
6
CONTINUOUS
10
162.025
20
-110.7
11
162.009
21
-110.8
0
LINE
8
BLACK
6
CONTINUOUS
10
162.009
20
-110.8
11
161.963
21
-110.891
0
LINE
8
BLACK
6
CONTINUOUS
10
161.963
20
-110.891
11
161.891
21
-110.963
0
LINE
8
BLACK
6
CONTINUOUS
10
161.891
20
-110.963
11
161.8
21
-111.009
0
LINE
8
BLACK
6
CONTINUOUS
10
161.8
20
-111.009
11
161.7
21
-111.025
0
LINE
8
BLACK
6
CONTINUOUS
10
161.7
20
-111.025
11
148.3
21
-111.025
0
LINE
8
BLACK
6
CONTINUOUS
10
148.3
20
-111.025
11
148.2
21
-111.009
0
LINE
8
BLACK
6
CONTINUOUS
10
148.2
20
-111.009
11
148.109
21
-110.963
0
LINE
8
BLACK
6
CONTINUOUS
10
148.109
20
-110.963
11
148.037
21
-110.891
0
LINE
8
BLACK
6
CONTINUOUS
10
148.037
20
-110.891
11
147.991
21
-110.8
0
LINE
8
BLACK
6
CONTINUOUS
10
147.991
20
-110.8
11
147.975
21
-110.7
0
LINE
8
BLACK
6
CONTINUOUS
10
147.975
20
-110.7
11
147.975
21
-97.3
0
LINE
8
BLACK
6
CONTINUOUS
10
147.975
20
-97.3
11
147.991
21
-97.1996
0
LINE
8
BLACK
6
CONTINUOUS
10
147.991
20
-97.1996
11
148.037
21
-97.109
0
LINE
8
BLACK
6
CONTINUOUS
10
148.037
20
-97.109
11
148.109
21
-97.0371
0
LINE
8
BLACK
6
CONTINUOUS
10
148.109
20
-97.0371
11
148.2
21
-96.9909
0
LINE
8
BLACK
6
CONTINUOUS
10
148.2
20
-96.9909
11
148.3
21
-96.975
0
LINE
8
BLACK
6
CONTINUOUS
10
148.3
20
-96.975
11
161.7
21
-96.975
0
LINE
8
BLACK
6
CONTINUOUS
10
148.3
20
-97.025
11
148.256
21
-97.025
0
LINE
8
BLACK
6
CONTINUOUS
10
148.256
20
-97.025
11
148.174
21
-97.0519
0
LINE
8
BLACK
6
CONTINUOUS
10
148.174
20
-97.0519
11
148.103
21
-97.1031
0
LINE
8
BLACK
6
CONTINUOUS
10
148.103
20
-97.1031
11
148.052
21
-97.1736
0
LINE
8
BLACK
6
CONTINUOUS
10
148.052
20
-97.1736
11
148.025
21
-97.2564
0
LINE
8
BLACK
6
CONTINUOUS
10
148.025
20
-97.2564
11
148.025
21
-97.3
0
LINE
8
BLACK
6
CONTINUOUS
10
148.025
20
-97.3
11
148.025
21
-110.7
0
LINE
8
BLACK
6
CONTINUOUS
10
148.025
20
-110.7
11
148.025
21
-110.744
0
LINE
8
BLACK
6
CONTINUOUS
10
148.025
20
-110.744
11
148.052
21
-110.826
0
LINE
8
BLACK
6
CONTINUOUS
10
148.052
20
-110.826
11
148.103
21
-110.897
0
LINE
8
BLACK
6
CONTINUOUS
10
148.103
20
-110.897
11
148.174
21
-110.948
0
LINE
8
BLACK
6
CONTINUOUS
10
148.174
20
-110.948
11
148.256
21
-110.975
0
LINE
8
BLACK
6
CONTINUOUS
10
148.256
20
-110.975
11
148.3
21
-110.975
0
LINE
8
BLACK
6
CONTINUOUS
10
148.3
20
-110.975
11
161.7
21
-110.975
0
LINE
8
BLACK
6
CONTINUOUS
10
161.7
20
-110.975
11
161.744
21
-110.975
0
LINE
8
BLACK
6
CONTINUOUS
10
161.744
20
-110.975
11
161.826
21
-110.948
0
LINE
8
BLACK
6
CONTINUOUS
10
161.826
20
-110.948
11
161.897
21
-110.897
0
LINE
8
BLACK
6
CONTINUOUS
10
161.897
20
-110.897
11
161.948
21
-110.826
0
LINE
8
BLACK
6
CONTINUOUS
10
161.948
20
-110.826
11
161.975
21
-110.744
0
LINE
8
BLACK
6
CONTINUOUS
10
161.975
20
-110.744
11
161.975
21
-110.7
0
LINE
8
BLACK
6
CONTINUOUS
10
161.975
20
-110.7
11
161.975
21
-97.3
0
LINE
8
BLACK
6
CONTINUOUS
10
161.975
20
-97.3
11
161.975
21
-97.2564
0
LINE
8
BLACK
6
CONTINUOUS
10
161.975
20
-97.2564
11
161.948
21
-97.1736
0
LINE
8
BLACK
6
CONTINUOUS
10
161.948
20
-97.1736
11
161.897
21
-97.1031
0
LINE
8
BLACK
6
CONTINUOUS
10
161.897
20
-97.1031
11
161.826
21
-97.0519
0
LINE
8
BLACK
6
CONTINUOUS
10
161.826
20
-97.0519
11
161.744
21
-97.025
0
LINE
8
BLACK
6
CONTINUOUS
10
161.744
20
-97.025
11
161.7
21
-97.025
0
LINE
8
BLACK
6
CONTINUOUS
10
161.7
20
-97.025
11
148.3
21
-97.025
0
LINE
8
BLACK
6
CONTINUOUS
10
100.3
20
-91.15
11
100.422
21
-91.1638
0
LINE
8
BLACK
6
CONTINUOUS
10
100.422
20
-91.1638
11
100.539
21
-91.2045
0
LINE
8
BLACK
6
CONTINUOUS
10
100.539
20
-91.2045
11
100.643
21
-91.27
0
LINE
8
BLACK
6
CONTINUOUS
10
100.643
20
-91.27
11
100.73
21
-91.3571
0
LINE
8
BLACK
6
CONTINUOUS
10
100.73
20
-91.3571
11
100.796
21
-91.4614
0
LINE
8
BLACK
6
CONTINUOUS
10
100.796
20
-91.4614
11
100.836
21
-91.5776
0
LINE
8
BLACK
6
CONTINUOUS
10
100.836
20
-91.5776
11
100.85
21
-91.7
0
LINE
8
BLACK
6
CONTINUOUS
10
100.85
20
-91.7
11
100.85
21
-91.7
0
LINE
8
BLACK
6
CONTINUOUS
10
100.85
20
-91.7
11
100.85
21
-105.3
0
LINE
8
BLACK
6
CONTINUOUS
10
100.85
20
-105.3
11
100.85
21
-105.3
0
LINE
8
BLACK
6
CONTINUOUS
10
100.85
20
-105.3
11
100.836
21
-105.422
0
LINE
8
BLACK
6
CONTINUOUS
10
100.836
20
-105.422
11
100.796
21
-105.539
0
LINE
8
BLACK
6
CONTINUOUS
10
100.796
20
-105.539
11
100.73
21
-105.643
0
LINE
8
BLACK
6
CONTINUOUS
10
100.73
20
-105.643
11
100.643
21
-105.73
0
LINE
8
BLACK
6
CONTINUOUS
10
100.643
20
-105.73
11
100.539
21
-105.796
0
LINE
8
BLACK
6
CONTINUOUS
10
100.539
20
-105.796
11
100.422
21
-105.836
0
LINE
8
BLACK
6
CONTINUOUS
10
100.422
20
-105.836
11
100.3
21
-105.85
0
LINE
8
BLACK
6
CONTINUOUS
10
100.3
20
-105.85
11
88.7
21
-105.85
0
LINE
8
BLACK
6
CONTINUOUS
10
88.7
20
-105.85
11
88.5776
21
-105.836
0
LINE
8
BLACK
6
CONTINUOUS
10
88.5776
20
-105.836
11
88.4614
21
-105.796
0
LINE
8
BLACK
6
CONTINUOUS
10
88.4614
20
-105.796
11
88.3571
21
-105.73
0
LINE
8
BLACK
6
CONTINUOUS
10
88.3571
20
-105.73
11
88.27
21
-105.643
0
LINE
8
BLACK
6
CONTINUOUS
10
88.27
20
-105.643
11
88.2045
21
-105.539
0
LINE
8
BLACK
6
CONTINUOUS
10
88.2045
20
-105.539
11
88.1638
21
-105.422
0
LINE
8
BLACK
6
CONTINUOUS
10
88.1638
20
-105.422
11
88.15
21
-105.3
0
LINE
8
BLACK
6
CONTINUOUS
10
88.15
20
-105.3
11
88.15
21
-105.3
0
LINE
8
BLACK
6
CONTINUOUS
10
88.15
20
-105.3
11
88.15
21
-91.7
0
LINE
8
BLACK
6
CONTINUOUS
10
88.15
20
-91.7
11
88.15
21
-91.7
0
LINE
8
BLACK
6
CONTINUOUS
10
88.15
20
-91.7
11
88.1638
21
-91.5776
0
LINE
8
BLACK
6
CONTINUOUS
10
88.1638
20
-91.5776
11
88.2045
21
-91.4614
0
LINE
8
BLACK
6
CONTINUOUS
10
88.2045
20
-91.4614
11
88.27
21
-91.3571
0
LINE
8
BLACK
6
CONTINUOUS
10
88.27
20
-91.3571
11
88.3571
21
-91.27
0
LINE
8
BLACK
6
CONTINUOUS
10
88.3571
20
-91.27
11
88.4614
21
-91.2045
0
LINE
8
BLACK
6
CONTINUOUS
10
88.4614
20
-91.2045
11
88.5776
21
-91.1638
0
LINE
8
BLACK
6
CONTINUOUS
10
88.5776
20
-91.1638
11
88.7
21
-91.15
0
LINE
8
BLACK
6
CONTINUOUS
10
88.7
20
-91.15
11
100.3
21
-91.15
0
LINE
8
BLACK
6
CONTINUOUS
10
88.7
20
-91.25
11
88.6408
21
-91.25
0
LINE
8
BLACK
6
CONTINUOUS
10
88.6408
20
-91.25
11
88.5263
21
-91.2807
0
LINE
8
BLACK
6
CONTINUOUS
10
88.5263
20
-91.2807
11
88.4237
21
-91.3399
0
LINE
8
BLACK
6
CONTINUOUS
10
88.4237
20
-91.3399
11
88.3399
21
-91.4237
0
LINE
8
BLACK
6
CONTINUOUS
10
88.3399
20
-91.4237
11
88.2807
21
-91.5263
0
LINE
8
BLACK
6
CONTINUOUS
10
88.2807
20
-91.5263
11
88.25
21
-91.6408
0
LINE
8
BLACK
6
CONTINUOUS
10
88.25
20
-91.6408
11
88.25
21
-91.7
0
LINE
8
BLACK
6
CONTINUOUS
10
88.25
20
-91.7
11
88.25
21
-105.3
0
LINE
8
BLACK
6
CONTINUOUS
10
88.25
20
-105.3
11
88.25
21
-105.359
0
LINE
8
BLACK
6
CONTINUOUS
10
88.25
20
-105.359
11
88.2807
21
-105.474
0
LINE
8
BLACK
6
CONTINUOUS
10
88.2807
20
-105.474
11
88.3399
21
-105.576
0
LINE
8
BLACK
6
CONTINUOUS
10
88.3399
20
-105.576
11
88.4237
21
-105.66
0
LINE
8
BLACK
6
CONTINUOUS
10
88.4237
20
-105.66
11
88.5263
21
-105.719
0
LINE
8
BLACK
6
CONTINUOUS
10
88.5263
20
-105.719
11
88.6408
21
-105.75
0
LINE
8
BLACK
6
CONTINUOUS
10
88.6408
20
-105.75
11
88.7
21
-105.75
0
LINE
8
BLACK
6
CONTINUOUS
10
88.7
20
-105.75
11
100.3
21
-105.75
0
LINE
8
BLACK
6
CONTINUOUS
10
100.3
20
-105.75
11
100.359
21
-105.75
0
LINE
8
BLACK
6
CONTINUOUS
10
100.359
20
-105.75
11
100.474
21
-105.719
0
LINE
8
BLACK
6
CONTINUOUS
10
100.474
20
-105.719
11
100.576
21
-105.66
0
LINE
8
BLACK
6
CONTINUOUS
10
100.576
20
-105.66
11
100.66
21
-105.576
0
LINE
8
BLACK
6
CONTINUOUS
10
100.66
20
-105.576
11
100.719
21
-105.474
0
LINE
8
BLACK
6
CONTINUOUS
10
100.719
20
-105.474
11
100.75
21
-105.359
0
LINE
8
BLACK
6
CONTINUOUS
10
100.75
20
-105.359
11
100.75
21
-105.3
0
LINE
8
BLACK
6
CONTINUOUS
10
100.75
20
-105.3
11
100.75
21
-105.3
0
LINE
8
BLACK
6
CONTINUOUS
10
100.75
20
-105.3
11
100.75
21
-91.7
0
LINE
8
BLACK
6
CONTINUOUS
10
100.75
20
-91.7
11
100.75
21
-91.6408
0
LINE
8
BLACK
6
CONTINUOUS
10
100.75
20
-91.6408
11
100.719
21
-91.5263
0
LINE
8
BLACK
6
CONTINUOUS
10
100.719
20
-91.5263
11
100.66
21
-91.4237
0
LINE
8
BLACK
6
CONTINUOUS
10
100.66
20
-91.4237
11
100.576
21
-91.3399
0
LINE
8
BLACK
6
CONTINUOUS
10
100.576
20
-91.3399
11
100.474
21
-91.2807
0
LINE
8
BLACK
6
CONTINUOUS
10
100.474
20
-91.2807
11
100.359
21
-91.25
0
LINE
8
BLACK
6
CONTINUOUS
10
100.359
20
-91.25
11
100.3
21
-91.25
0
LINE
8
BLACK
6
CONTINUOUS
10
100.3
20
-91.25
11
88.7
21
-91.25
0
LINE
8
BLACK
6
CONTINUOUS
10
199.7
20
-87.975
11
199.8
21
-87.9909
0
LINE
8
BLACK
6
CONTINUOUS
10
199.8
20
-87.9909
11
199.891
21
-88.0371
0
LINE
8
BLACK
6
CONTINUOUS
10
199.891
20
-88.0371
11
199.963
21
-88.109
0
LINE
8
BLACK
6
CONTINUOUS
10
199.963
20
-88.109
11
200.009
21
-88.1996
0
LINE
8
BLACK
6
CONTINUOUS
10
200.009
20
-88.1996
11
200.025
21
-88.3
0
LINE
8
BLACK
6
CONTINUOUS
10
200.025
20
-88.3
11
200.025
21
-101.7
0
LINE
8
BLACK
6
CONTINUOUS
10
200.025
20
-101.7
11
200.009
21
-101.8
0
LINE
8
BLACK
6
CONTINUOUS
10
200.009
20
-101.8
11
199.963
21
-101.891
0
LINE
8
BLACK
6
CONTINUOUS
10
199.963
20
-101.891
11
199.891
21
-101.963
0
LINE
8
BLACK
6
CONTINUOUS
10
199.891
20
-101.963
11
199.8
21
-102.009
0
LINE
8
BLACK
6
CONTINUOUS
10
199.8
20
-102.009
11
199.7
21
-102.025
0
LINE
8
BLACK
6
CONTINUOUS
10
199.7
20
-102.025
11
186.3
21
-102.025
0
LINE
8
BLACK
6
CONTINUOUS
10
186.3
20
-102.025
11
186.2
21
-102.009
0
LINE
8
BLACK
6
CONTINUOUS
10
186.2
20
-102.009
11
186.109
21
-101.963
0
LINE
8
BLACK
6
CONTINUOUS
10
186.109
20
-101.963
11
186.037
21
-101.891
0
LINE
8
BLACK
6
CONTINUOUS
10
186.037
20
-101.891
11
185.991
21
-101.8
0
LINE
8
BLACK
6
CONTINUOUS
10
185.991
20
-101.8
11
185.975
21
-101.7
0
LINE
8
BLACK
6
CONTINUOUS
10
185.975
20
-101.7
11
185.975
21
-101.7
0
LINE
8
BLACK
6
CONTINUOUS
10
185.975
20
-101.7
11
185.975
21
-88.3
0
LINE
8
BLACK
6
CONTINUOUS
10
185.975
20
-88.3
11
185.975
21
-88.3
0
LINE
8
BLACK
6
CONTINUOUS
10
185.975
20
-88.3
11
185.991
21
-88.1996
0
LINE
8
BLACK
6
CONTINUOUS
10
185.991
20
-88.1996
11
186.037
21
-88.109
0
LINE
8
BLACK
6
CONTINUOUS
10
186.037
20
-88.109
11
186.109
21
-88.0371
0
LINE
8
BLACK
6
CONTINUOUS
10
186.109
20
-88.0371
11
186.2
21
-87.9909
0
LINE
8
BLACK
6
CONTINUOUS
10
186.2
20
-87.9909
11
186.3
21
-87.975
0
LINE
8
BLACK
6
CONTINUOUS
10
186.3
20
-87.975
11
199.7
21
-87.975
0
LINE
8
BLACK
6
CONTINUOUS
10
186.3
20
-88.025
11
186.256
21
-88.025
0
LINE
8
BLACK
6
CONTINUOUS
10
186.256
20
-88.025
11
186.174
21
-88.0519
0
LINE
8
BLACK
6
CONTINUOUS
10
186.174
20
-88.0519
11
186.103
21
-88.1031
0
LINE
8
BLACK
6
CONTINUOUS
10
186.103
20
-88.1031
11
186.052
21
-88.1736
0
LINE
8
BLACK
6
CONTINUOUS
10
186.052
20
-88.1736
11
186.025
21
-88.2564
0
LINE
8
BLACK
6
CONTINUOUS
10
186.025
20
-88.2564
11
186.025
21
-88.3
0
LINE
8
BLACK
6
CONTINUOUS
10
186.025
20
-88.3
11
186.025
21
-101.7
0
LINE
8
BLACK
6
CONTINUOUS
10
186.025
20
-101.7
11
186.025
21
-101.744
0
LINE
8
BLACK
6
CONTINUOUS
10
186.025
20
-101.744
11
186.052
21
-101.826
0
LINE
8
BLACK
6
CONTINUOUS
10
186.052
20
-101.826
11
186.103
21
-101.897
0
LINE
8
BLACK
6
CONTINUOUS
10
186.103
20
-101.897
11
186.174
21
-101.948
0
LINE
8
BLACK
6
CONTINUOUS
10
186.174
20
-101.948
11
186.256
21
-101.975
0
LINE
8
BLACK
6
CONTINUOUS
10
186.256
20
-101.975
11
186.3
21
-101.975
0
LINE
8
BLACK
6
CONTINUOUS
10
186.3
20
-101.975
11
199.7
21
-101.975
0
LINE
8
BLACK
6
CONTINUOUS
10
199.7
20
-101.975
11
199.744
21
-101.975
0
LINE
8
BLACK
6
CONTINUOUS
10
199.744
20
-101.975
11
199.826
21
-101.948
0
LINE
8
BLACK
6
CONTINUOUS
10
199.826
20
-101.948
11
199.897
21
-101.897
0
LINE
8
BLACK
6
CONTINUOUS
10
199.897
20
-101.897
11
199.948
21
-101.826
0
LINE
8
BLACK
6
CONTINUOUS
10
199.948
20
-101.826
11
199.975
21
-101.744
0
LINE
8
BLACK
6
CONTINUOUS
10
199.975
20
-101.744
11
199.975
21
-101.7
0
LINE
8
BLACK
6
CONTINUOUS
10
199.975
20
-101.7
11
199.975
21
-101.7
0
LINE
8
BLACK
6
CONTINUOUS
10
199.975
20
-101.7
11
199.975
21
-88.3
0
LINE
8
BLACK
6
CONTINUOUS
10
199.975
20
-88.3
11
199.975
21
-88.2564
0
LINE
8
BLACK
6
CONTINUOUS
10
199.975
20
-88.2564
11
199.948
21
-88.1736
0
LINE
8
BLACK
6
CONTINUOUS
10
199.948
20
-88.1736
11
199.897
21
-88.1031
0
LINE
8
BLACK
6
CONTINUOUS
10
199.897
20
-88.1031
11
199.826
21
-88.0519
0
LINE
8
BLACK
6
CONTINUOUS
10
199.826
20
-88.0519
11
199.744
21
-88.025
0
LINE
8
BLACK
6
CONTINUOUS
10
199.744
20
-88.025
11
199.7
21
-88.025
0
LINE
8
BLACK
6
CONTINUOUS
10
199.7
20
-88.025
11
186.3
21
-88.025
0
LINE
8
BLACK
6
CONTINUOUS
10
218.7
20
-87.975
11
218.8
21
-87.9909
0
LINE
8
BLACK
6
CONTINUOUS
10
218.8
20
-87.9909
11
218.891
21
-88.0371
0
LINE
8
BLACK
6
CONTINUOUS
10
218.891
20
-88.0371
11
218.963
21
-88.109
0
LINE
8
BLACK
6
CONTINUOUS
10
218.963
20
-88.109
11
219.009
21
-88.1996
0
LINE
8
BLACK
6
CONTINUOUS
10
219.009
20
-88.1996
11
219.025
21
-88.3
0
LINE
8
BLACK
6
CONTINUOUS
10
219.025
20
-88.3
11
219.025
21
-101.7
0
LINE
8
BLACK
6
CONTINUOUS
10
219.025
20
-101.7
11
219.025
21
-101.7
0
LINE
8
BLACK
6
CONTINUOUS
10
219.025
20
-101.7
11
219.009
21
-101.8
0
LINE
8
BLACK
6
CONTINUOUS
10
219.009
20
-101.8
11
218.963
21
-101.891
0
LINE
8
BLACK
6
CONTINUOUS
10
218.963
20
-101.891
11
218.891
21
-101.963
0
LINE
8
BLACK
6
CONTINUOUS
10
218.891
20
-101.963
11
218.8
21
-102.009
0
LINE
8
BLACK
6
CONTINUOUS
10
218.8
20
-102.009
11
218.7
21
-102.025
0
LINE
8
BLACK
6
CONTINUOUS
10
218.7
20
-102.025
11
205.3
21
-102.025
0
LINE
8
BLACK
6
CONTINUOUS
10
205.3
20
-102.025
11
205.2
21
-102.009
0
LINE
8
BLACK
6
CONTINUOUS
10
205.2
20
-102.009
11
205.109
21
-101.963
0
LINE
8
BLACK
6
CONTINUOUS
10
205.109
20
-101.963
11
205.037
21
-101.891
0
LINE
8
BLACK
6
CONTINUOUS
10
205.037
20
-101.891
11
204.991
21
-101.8
0
LINE
8
BLACK
6
CONTINUOUS
10
204.991
20
-101.8
11
204.975
21
-101.7
0
LINE
8
BLACK
6
CONTINUOUS
10
204.975
20
-101.7
11
204.975
21
-101.7
0
LINE
8
BLACK
6
CONTINUOUS
10
204.975
20
-101.7
11
204.975
21
-88.3
0
LINE
8
BLACK
6
CONTINUOUS
10
204.975
20
-88.3
11
204.975
21
-88.3
0
LINE
8
BLACK
6
CONTINUOUS
10
204.975
20
-88.3
11
204.991
21
-88.1996
0
LINE
8
BLACK
6
CONTINUOUS
10
204.991
20
-88.1996
11
205.037
21
-88.109
0
LINE
8
BLACK
6
CONTINUOUS
10
205.037
20
-88.109
11
205.109
21
-88.0371
0
LINE
8
BLACK
6
CONTINUOUS
10
205.109
20
-88.0371
11
205.2
21
-87.9909
0
LINE
8
BLACK
6
CONTINUOUS
10
205.2
20
-87.9909
11
205.3
21
-87.975
0
LINE
8
BLACK
6
CONTINUOUS
10
205.3
20
-87.975
11
218.7
21
-87.975
0
LINE
8
BLACK
6
CONTINUOUS
10
205.3
20
-88.025
11
205.256
21
-88.025
0
LINE
8
BLACK
6
CONTINUOUS
10
205.256
20
-88.025
11
205.174
21
-88.0519
0
LINE
8
BLACK
6
CONTINUOUS
10
205.174
20
-88.0519
11
205.103
21
-88.1031
0
LINE
8
BLACK
6
CONTINUOUS
10
205.103
20
-88.1031
11
205.052
21
-88.1736
0
LINE
8
BLACK
6
CONTINUOUS
10
205.052
20
-88.1736
11
205.025
21
-88.2564
0
LINE
8
BLACK
6
CONTINUOUS
10
205.025
20
-88.2564
11
205.025
21
-88.3
0
LINE
8
BLACK
6
CONTINUOUS
10
205.025
20
-88.3
11
205.025
21
-101.7
0
LINE
8
BLACK
6
CONTINUOUS
10
205.025
20
-101.7
11
205.025
21
-101.7
0
LINE
8
BLACK
6
CONTINUOUS
10
205.025
20
-101.7
11
205.025
21
-101.744
0
LINE
8
BLACK
6
CONTINUOUS
10
205.025
20
-101.744
11
205.052
21
-101.826
0
LINE
8
BLACK
6
CONTINUOUS
10
205.052
20
-101.826
11
205.103
21
-101.897
0
LINE
8
BLACK
6
CONTINUOUS
10
205.103
20
-101.897
11
205.174
21
-101.948
0
LINE
8
BLACK
6
CONTINUOUS
10
205.174
20
-101.948
11
205.256
21
-101.975
0
LINE
8
BLACK
6
CONTINUOUS
10
205.256
20
-101.975
11
205.3
21
-101.975
0
LINE
8
BLACK
6
CONTINUOUS
10
205.3
20
-101.975
11
218.7
21
-101.975
0
LINE
8
BLACK
6
CONTINUOUS
10
218.7
20
-101.975
11
218.744
21
-101.975
0
LINE
8
BLACK
6
CONTINUOUS
10
218.744
20
-101.975
11
218.826
21
-101.948
0
LINE
8
BLACK
6
CONTINUOUS
10
218.826
20
-101.948
11
218.897
21
-101.897
0
LINE
8
BLACK
6
CONTINUOUS
10
218.897
20
-101.897
11
218.948
21
-101.826
0
LINE
8
BLACK
6
CONTINUOUS
10
218.948
20
-101.826
11
218.975
21
-101.744
0
LINE
8
BLACK
6
CONTINUOUS
10
218.975
20
-101.744
11
218.975
21
-101.7
0
LINE
8
BLACK
6
CONTINUOUS
10
218.975
20
-101.7
11
218.975
21
-101.7
0
LINE
8
BLACK
6
CONTINUOUS
10
218.975
20
-101.7
11
218.975
21
-88.3
0
LINE
8
BLACK
6
CONTINUOUS
10
218.975
20
-88.3
11
218.975
21
-88.2564
0
LINE
8
BLACK
6
CONTINUOUS
10
218.975
20
-88.2564
11
218.948
21
-88.1736
0
LINE
8
BLACK
6
CONTINUOUS
10
218.948
20
-88.1736
11
218.897
21
-88.1031
0
LINE
8
BLACK
6
CONTINUOUS
10
218.897
20
-88.1031
11
218.826
21
-88.0519
0
LINE
8
BLACK
6
CONTINUOUS
10
218.826
20
-88.0519
11
218.744
21
-88.025
0
LINE
8
BLACK
6
CONTINUOUS
10
218.744
20
-88.025
11
218.7
21
-88.025
0
LINE
8
BLACK
6
CONTINUOUS
10
218.7
20
-88.025
11
205.3
21
-88.025
0
LINE
8
BLACK
6
CONTINUOUS
10
123.7
20
-85.975
11
123.8
21
-85.9909
0
LINE
8
BLACK
6
CONTINUOUS
10
123.8
20
-85.9909
11
123.891
21
-86.0371
0
LINE
8
BLACK
6
CONTINUOUS
10
123.891
20
-86.0371
11
123.963
21
-86.109
0
LINE
8
BLACK
6
CONTINUOUS
10
123.963
20
-86.109
11
124.009
21
-86.1996
0
LINE
8
BLACK
6
CONTINUOUS
10
124.009
20
-86.1996
11
124.025
21
-86.3
0
LINE
8
BLACK
6
CONTINUOUS
10
124.025
20
-86.3
11
124.025
21
-99.7
0
LINE
8
BLACK
6
CONTINUOUS
10
124.025
20
-99.7
11
124.025
21
-99.7
0
LINE
8
BLACK
6
CONTINUOUS
10
124.025
20
-99.7
11
124.009
21
-99.8004
0
LINE
8
BLACK
6
CONTINUOUS
10
124.009
20
-99.8004
11
123.963
21
-99.891
0
LINE
8
BLACK
6
CONTINUOUS
10
123.963
20
-99.891
11
123.891
21
-99.9629
0
LINE
8
BLACK
6
CONTINUOUS
10
123.891
20
-99.9629
11
123.8
21
-100.009
0
LINE
8
BLACK
6
CONTINUOUS
10
123.8
20
-100.009
11
123.7
21
-100.025
0
LINE
8
BLACK
6
CONTINUOUS
10
123.7
20
-100.025
11
110.3
21
-100.025
0
LINE
8
BLACK
6
CONTINUOUS
10
110.3
20
-100.025
11
110.2
21
-100.009
0
LINE
8
BLACK
6
CONTINUOUS
10
110.2
20
-100.009
11
110.109
21
-99.9629
0
LINE
8
BLACK
6
CONTINUOUS
10
110.109
20
-99.9629
11
110.037
21
-99.891
0
LINE
8
BLACK
6
CONTINUOUS
10
110.037
20
-99.891
11
109.991
21
-99.8004
0
LINE
8
BLACK
6
CONTINUOUS
10
109.991
20
-99.8004
11
109.975
21
-99.7
0
LINE
8
BLACK
6
CONTINUOUS
10
109.975
20
-99.7
11
109.975
21
-86.3
0
LINE
8
BLACK
6
CONTINUOUS
10
109.975
20
-86.3
11
109.991
21
-86.1996
0
LINE
8
BLACK
6
CONTINUOUS
10
109.991
20
-86.1996
11
110.037
21
-86.109
0
LINE
8
BLACK
6
CONTINUOUS
10
110.037
20
-86.109
11
110.109
21
-86.0371
0
LINE
8
BLACK
6
CONTINUOUS
10
110.109
20
-86.0371
11
110.2
21
-85.9909
0
LINE
8
BLACK
6
CONTINUOUS
10
110.2
20
-85.9909
11
110.3
21
-85.975
0
LINE
8
BLACK
6
CONTINUOUS
10
110.3
20
-85.975
11
123.7
21
-85.975
0
LINE
8
BLACK
6
CONTINUOUS
10
110.3
20
-86.025
11
110.256
21
-86.025
0
LINE
8
BLACK
6
CONTINUOUS
10
110.256
20
-86.025
11
110.174
21
-86.0519
0
LINE
8
BLACK
6
CONTINUOUS
10
110.174
20
-86.0519
11
110.103
21
-86.1031
0
LINE
8
BLACK
6
CONTINUOUS
10
110.103
20
-86.1031
11
110.052
21
-86.1736
0
LINE
8
BLACK
6
CONTINUOUS
10
110.052
20
-86.1736
11
110.025
21
-86.2564
0
LINE
8
BLACK
6
CONTINUOUS
10
110.025
20
-86.2564
11
110.025
21
-86.3
0
LINE
8
BLACK
6
CONTINUOUS
10
110.025
20
-86.3
11
110.025
21
-99.7
0
LINE
8
BLACK
6
CONTINUOUS
10
110.025
20
-99.7
11
110.025
21
-99.7
0
LINE
8
BLACK
6
CONTINUOUS
10
110.025
20
-99.7
11
110.025
21
-99.7436
0
LINE
8
BLACK
6
CONTINUOUS
10
110.025
20
-99.7436
11
110.052
21
-99.8264
0
LINE
8
BLACK
6
CONTINUOUS
10
110.052
20
-99.8264
11
110.103
21
-99.8969
0
LINE
8
BLACK
6
CONTINUOUS
10
110.103
20
-99.8969
11
110.174
21
-99.9481
0
LINE
8
BLACK
6
CONTINUOUS
10
110.174
20
-99.9481
11
110.256
21
-99.975
0
LINE
8
BLACK
6
CONTINUOUS
10
110.256
20
-99.975
11
110.3
21
-99.975
0
LINE
8
BLACK
6
CONTINUOUS
10
110.3
20
-99.975
11
123.7
21
-99.975
0
LINE
8
BLACK
6
CONTINUOUS
10
123.7
20
-99.975
11
123.744
21
-99.975
0
LINE
8
BLACK
6
CONTINUOUS
10
123.744
20
-99.975
11
123.826
21
-99.9481
0
LINE
8
BLACK
6
CONTINUOUS
10
123.826
20
-99.9481
11
123.897
21
-99.8969
0
LINE
8
BLACK
6
CONTINUOUS
10
123.897
20
-99.8969
11
123.948
21
-99.8264
0
LINE
8
BLACK
6
CONTINUOUS
10
123.948
20
-99.8264
11
123.975
21
-99.7436
0
LINE
8
BLACK
6
CONTINUOUS
10
123.975
20
-99.7436
11
123.975
21
-99.7
0
LINE
8
BLACK
6
CONTINUOUS
10
123.975
20
-99.7
11
123.975
21
-86.3
0
LINE
8
BLACK
6
CONTINUOUS
10
123.975
20
-86.3
11
123.975
21
-86.2564
0
LINE
8
BLACK
6
CONTINUOUS
10
123.975
20
-86.2564
11
123.948
21
-86.1736
0
LINE
8
BLACK
6
CONTINUOUS
10
123.948
20
-86.1736
11
123.897
21
-86.1031
0
LINE
8
BLACK
6
CONTINUOUS
10
123.897
20
-86.1031
11
123.826
21
-86.0519
0
LINE
8
BLACK
6
CONTINUOUS
10
123.826
20
-86.0519
11
123.744
21
-86.025
0
LINE
8
BLACK
6
CONTINUOUS
10
123.744
20
-86.025
11
123.7
21
-86.025
0
LINE
8
BLACK
6
CONTINUOUS
10
123.7
20
-86.025
11
110.3
21
-86.025
0
LINE
8
BLACK
6
CONTINUOUS
10
180.7
20
-82.975
11
180.8
21
-82.9909
0
LINE
8
BLACK
6
CONTINUOUS
10
180.8
20
-82.9909
11
180.891
21
-83.0371
0
LINE
8
BLACK
6
CONTINUOUS
10
180.891
20
-83.0371
11
180.963
21
-83.109
0
LINE
8
BLACK
6
CONTINUOUS
10
180.963
20
-83.109
11
181.009
21
-83.1996
0
LINE
8
BLACK
6
CONTINUOUS
10
181.009
20
-83.1996
11
181.025
21
-83.3
0
LINE
8
BLACK
6
CONTINUOUS
10
181.025
20
-83.3
11
181.025
21
-96.7
0
LINE
8
BLACK
6
CONTINUOUS
10
181.025
20
-96.7
11
181.009
21
-96.8004
0
LINE
8
BLACK
6
CONTINUOUS
10
181.009
20
-96.8004
11
180.963
21
-96.891
0
LINE
8
BLACK
6
CONTINUOUS
10
180.963
20
-96.891
11
180.891
21
-96.9629
0
LINE
8
BLACK
6
CONTINUOUS
10
180.891
20
-96.9629
11
180.8
21
-97.0091
0
LINE
8
BLACK
6
CONTINUOUS
10
180.8
20
-97.0091
11
180.7
21
-97.025
0
LINE
8
BLACK
6
CONTINUOUS
10
180.7
20
-97.025
11
167.3
21
-97.025
0
LINE
8
BLACK
6
CONTINUOUS
10
167.3
20
-97.025
11
167.2
21
-97.0091
0
LINE
8
BLACK
6
CONTINUOUS
10
167.2
20
-97.0091
11
167.109
21
-96.9629
0
LINE
8
BLACK
6
CONTINUOUS
10
167.109
20
-96.9629
11
167.037
21
-96.891
0
LINE
8
BLACK
6
CONTINUOUS
10
167.037
20
-96.891
11
166.991
21
-96.8004
0
LINE
8
BLACK
6
CONTINUOUS
10
166.991
20
-96.8004
11
166.975
21
-96.7
0
LINE
8
BLACK
6
CONTINUOUS
10
166.975
20
-96.7
11
166.975
21
-96.7
0
LINE
8
BLACK
6
CONTINUOUS
10
166.975
20
-96.7
11
166.975
21
-83.3
0
LINE
8
BLACK
6
CONTINUOUS
10
166.975
20
-83.3
11
166.991
21
-83.1996
0
LINE
8
BLACK
6
CONTINUOUS
10
166.991
20
-83.1996
11
167.037
21
-83.109
0
LINE
8
BLACK
6
CONTINUOUS
10
167.037
20
-83.109
11
167.109
21
-83.0371
0
LINE
8
BLACK
6
CONTINUOUS
10
167.109
20
-83.0371
11
167.2
21
-82.9909
0
LINE
8
BLACK
6
CONTINUOUS
10
167.2
20
-82.9909
11
167.3
21
-82.975
0
LINE
8
BLACK
6
CONTINUOUS
10
167.3
20
-82.975
11
180.7
21
-82.975
0
LINE
8
BLACK
6
CONTINUOUS
10
167.3
20
-83.025
11
167.256
21
-83.025
0
LINE
8
BLACK
6
CONTINUOUS
10
167.256
20
-83.025
11
167.174
21
-83.0519
0
LINE
8
BLACK
6
CONTINUOUS
10
167.174
20
-83.0519
11
167.103
21
-83.1031
0
LINE
8
BLACK
6
CONTINUOUS
10
167.103
20
-83.1031
11
167.052
21
-83.1736
0
LINE
8
BLACK
6
CONTINUOUS
10
167.052
20
-83.1736
11
167.025
21
-83.2564
0
LINE
8
BLACK
6
CONTINUOUS
10
167.025
20
-83.2564
11
167.025
21
-83.3
0
LINE
8
BLACK
6
CONTINUOUS
10
167.025
20
-83.3
11
167.025
21
-96.7
0
LINE
8
BLACK
6
CONTINUOUS
10
167.025
20
-96.7
11
167.025
21
-96.7436
0
LINE
8
BLACK
6
CONTINUOUS
10
167.025
20
-96.7436
11
167.052
21
-96.8264
0
LINE
8
BLACK
6
CONTINUOUS
10
167.052
20
-96.8264
11
167.103
21
-96.8969
0
LINE
8
BLACK
6
CONTINUOUS
10
167.103
20
-96.8969
11
167.174
21
-96.9481
0
LINE
8
BLACK
6
CONTINUOUS
10
167.174
20
-96.9481
11
167.256
21
-96.975
0
LINE
8
BLACK
6
CONTINUOUS
10
167.256
20
-96.975
11
167.3
21
-96.975
0
LINE
8
BLACK
6
CONTINUOUS
10
167.3
20
-96.975
11
180.7
21
-96.975
0
LINE
8
BLACK
6
CONTINUOUS
10
180.7
20
-96.975
11
180.744
21
-96.975
0
LINE
8
BLACK
6
CONTINUOUS
10
180.744
20
-96.975
11
180.826
21
-96.9481
0
LINE
8
BLACK
6
CONTINUOUS
10
180.826
20
-96.9481
11
180.897
21
-96.8969
0
LINE
8
BLACK
6
CONTINUOUS
10
180.897
20
-96.8969
11
180.948
21
-96.8264
0
LINE
8
BLACK
6
CONTINUOUS
10
180.948
20
-96.8264
11
180.975
21
-96.7436
0
LINE
8
BLACK
6
CONTINUOUS
10
180.975
20
-96.7436
11
180.975
21
-96.7
0
LINE
8
BLACK
6
CONTINUOUS
10
180.975
20
-96.7
11
180.975
21
-96.7
0
LINE
8
BLACK
6
CONTINUOUS
10
180.975
20
-96.7
11
180.975
21
-83.3
0
LINE
8
BLACK
6
CONTINUOUS
10
180.975
20
-83.3
11
180.975
21
-83.2564
0
LINE
8
BLACK
6
CONTINUOUS
10
180.975
20
-83.2564
11
180.948
21
-83.1736
0
LINE
8
BLACK
6
CONTINUOUS
10
180.948
20
-83.1736
11
180.897
21
-83.1031
0
LINE
8
BLACK
6
CONTINUOUS
10
180.897
20
-83.1031
11
180.826
21
-83.0519
0
LINE
8
BLACK
6
CONTINUOUS
10
180.826
20
-83.0519
11
180.744
21
-83.025
0
LINE
8
BLACK
6
CONTINUOUS
10
180.744
20
-83.025
11
180.7
21
-83.025
0
LINE
8
BLACK
6
CONTINUOUS
10
180.7
20
-83.025
11
167.3
21
-83.025
0
LINE
8
BLACK
6
CONTINUOUS
10
142.7
20
-82.475
11
142.8
21
-82.4909
0
LINE
8
BLACK
6
CONTINUOUS
10
142.8
20
-82.4909
11
142.891
21
-82.5371
0
LINE
8
BLACK
6
CONTINUOUS
10
142.891
20
-82.5371
11
142.963
21
-82.609
0
LINE
8
BLACK
6
CONTINUOUS
10
142.963
20
-82.609
11
143.009
21
-82.6996
0
LINE
8
BLACK
6
CONTINUOUS
10
143.009
20
-82.6996
11
143.025
21
-82.8
0
LINE
8
BLACK
6
CONTINUOUS
10
143.025
20
-82.8
11
143.025
21
-96.2
0
LINE
8
BLACK
6
CONTINUOUS
10
143.025
20
-96.2
11
143.009
21
-96.3004
0
LINE
8
BLACK
6
CONTINUOUS
10
143.009
20
-96.3004
11
142.963
21
-96.391
0
LINE
8
BLACK
6
CONTINUOUS
10
142.963
20
-96.391
11
142.891
21
-96.4629
0
LINE
8
BLACK
6
CONTINUOUS
10
142.891
20
-96.4629
11
142.8
21
-96.5091
0
LINE
8
BLACK
6
CONTINUOUS
10
142.8
20
-96.5091
11
142.7
21
-96.525
0
LINE
8
BLACK
6
CONTINUOUS
10
142.7
20
-96.525
11
129.3
21
-96.525
0
LINE
8
BLACK
6
CONTINUOUS
10
129.3
20
-96.525
11
129.2
21
-96.5091
0
LINE
8
BLACK
6
CONTINUOUS
10
129.2
20
-96.5091
11
129.109
21
-96.4629
0
LINE
8
BLACK
6
CONTINUOUS
10
129.109
20
-96.4629
11
129.037
21
-96.391
0
LINE
8
BLACK
6
CONTINUOUS
10
129.037
20
-96.391
11
128.991
21
-96.3004
0
LINE
8
BLACK
6
CONTINUOUS
10
128.991
20
-96.3004
11
128.975
21
-96.2
0
LINE
8
BLACK
6
CONTINUOUS
10
128.975
20
-96.2
11
128.975
21
-82.8
0
LINE
8
BLACK
6
CONTINUOUS
10
128.975
20
-82.8
11
128.991
21
-82.6996
0
LINE
8
BLACK
6
CONTINUOUS
10
128.991
20
-82.6996
11
129.037
21
-82.609
0
LINE
8
BLACK
6
CONTINUOUS
10
129.037
20
-82.609
11
129.109
21
-82.5371
0
LINE
8
BLACK
6
CONTINUOUS
10
129.109
20
-82.5371
11
129.2
21
-82.4909
0
LINE
8
BLACK
6
CONTINUOUS
10
129.2
20
-82.4909
11
129.3
21
-82.475
0
LINE
8
BLACK
6
CONTINUOUS
10
129.3
20
-82.475
11
142.7
21
-82.475
0
LINE
8
BLACK
6
CONTINUOUS
10
129.3
20
-82.525
11
129.256
21
-82.525
0
LINE
8
BLACK
6
CONTINUOUS
10
129.256
20
-82.525
11
129.174
21
-82.5519
0
LINE
8
BLACK
6
CONTINUOUS
10
129.174
20
-82.5519
11
129.103
21
-82.6031
0
LINE
8
BLACK
6
CONTINUOUS
10
129.103
20
-82.6031
11
129.052
21
-82.6736
0
LINE
8
BLACK
6
CONTINUOUS
10
129.052
20
-82.6736
11
129.025
21
-82.7564
0
LINE
8
BLACK
6
CONTINUOUS
10
129.025
20
-82.7564
11
129.025
21
-82.8
0
LINE
8
BLACK
6
CONTINUOUS
10
129.025
20
-82.8
11
129.025
21
-96.2
0
LINE
8
BLACK
6
CONTINUOUS
10
129.025
20
-96.2
11
129.025
21
-96.2
0
LINE
8
BLACK
6
CONTINUOUS
10
129.025
20
-96.2
11
129.025
21
-96.2436
0
LINE
8
BLACK
6
CONTINUOUS
10
129.025
20
-96.2436
11
129.052
21
-96.3264
0
LINE
8
BLACK
6
CONTINUOUS
10
129.052
20
-96.3264
11
129.103
21
-96.3969
0
LINE
8
BLACK
6
CONTINUOUS
10
129.103
20
-96.3969
11
129.174
21
-96.4481
0
LINE
8
BLACK
6
CONTINUOUS
10
129.174
20
-96.4481
11
129.256
21
-96.475
0
LINE
8
BLACK
6
CONTINUOUS
10
129.256
20
-96.475
11
129.3
21
-96.475
0
LINE
8
BLACK
6
CONTINUOUS
10
129.3
20
-96.475
11
142.7
21
-96.475
0
LINE
8
BLACK
6
CONTINUOUS
10
142.7
20
-96.475
11
142.744
21
-96.475
0
LINE
8
BLACK
6
CONTINUOUS
10
142.744
20
-96.475
11
142.826
21
-96.4481
0
LINE
8
BLACK
6
CONTINUOUS
10
142.826
20
-96.4481
11
142.897
21
-96.3969
0
LINE
8
BLACK
6
CONTINUOUS
10
142.897
20
-96.3969
11
142.948
21
-96.3264
0
LINE
8
BLACK
6
CONTINUOUS
10
142.948
20
-96.3264
11
142.975
21
-96.2436
0
LINE
8
BLACK
6
CONTINUOUS
10
142.975
20
-96.2436
11
142.975
21
-96.2
0
LINE
8
BLACK
6
CONTINUOUS
10
142.975
20
-96.2
11
142.975
21
-82.8
0
LINE
8
BLACK
6
CONTINUOUS
10
142.975
20
-82.8
11
142.975
21
-82.7564
0
LINE
8
BLACK
6
CONTINUOUS
10
142.975
20
-82.7564
11
142.948
21
-82.6736
0
LINE
8
BLACK
6
CONTINUOUS
10
142.948
20
-82.6736
11
142.897
21
-82.6031
0
LINE
8
BLACK
6
CONTINUOUS
10
142.897
20
-82.6031
11
142.826
21
-82.5519
0
LINE
8
BLACK
6
CONTINUOUS
10
142.826
20
-82.5519
11
142.744
21
-82.525
0
LINE
8
BLACK
6
CONTINUOUS
10
142.744
20
-82.525
11
142.7
21
-82.525
0
LINE
8
BLACK
6
CONTINUOUS
10
142.7
20
-82.525
11
129.3
21
-82.525
0
LINE
8
BLACK
6
CONTINUOUS
10
161.7
20
-77.975
11
161.8
21
-77.9909
0
LINE
8
BLACK
6
CONTINUOUS
10
161.8
20
-77.9909
11
161.891
21
-78.0371
0
LINE
8
BLACK
6
CONTINUOUS
10
161.891
20
-78.0371
11
161.963
21
-78.109
0
LINE
8
BLACK
6
CONTINUOUS
10
161.963
20
-78.109
11
162.009
21
-78.1996
0
LINE
8
BLACK
6
CONTINUOUS
10
162.009
20
-78.1996
11
162.025
21
-78.3
0
LINE
8
BLACK
6
CONTINUOUS
10
162.025
20
-78.3
11
162.025
21
-91.7
0
LINE
8
BLACK
6
CONTINUOUS
10
162.025
20
-91.7
11
162.009
21
-91.8004
0
LINE
8
BLACK
6
CONTINUOUS
10
162.009
20
-91.8004
11
161.963
21
-91.891
0
LINE
8
BLACK
6
CONTINUOUS
10
161.963
20
-91.891
11
161.891
21
-91.9629
0
LINE
8
BLACK
6
CONTINUOUS
10
161.891
20
-91.9629
11
161.8
21
-92.0091
0
LINE
8
BLACK
6
CONTINUOUS
10
161.8
20
-92.0091
11
161.7
21
-92.025
0
LINE
8
BLACK
6
CONTINUOUS
10
161.7
20
-92.025
11
148.3
21
-92.025
0
LINE
8
BLACK
6
CONTINUOUS
10
148.3
20
-92.025
11
148.2
21
-92.0091
0
LINE
8
BLACK
6
CONTINUOUS
10
148.2
20
-92.0091
11
148.109
21
-91.9629
0
LINE
8
BLACK
6
CONTINUOUS
10
148.109
20
-91.9629
11
148.037
21
-91.891
0
LINE
8
BLACK
6
CONTINUOUS
10
148.037
20
-91.891
11
147.991
21
-91.8004
0
LINE
8
BLACK
6
CONTINUOUS
10
147.991
20
-91.8004
11
147.975
21
-91.7
0
LINE
8
BLACK
6
CONTINUOUS
10
147.975
20
-91.7
11
147.975
21
-78.3
0
LINE
8
BLACK
6
CONTINUOUS
10
147.975
20
-78.3
11
147.991
21
-78.1996
0
LINE
8
BLACK
6
CONTINUOUS
10
147.991
20
-78.1996
11
148.037
21
-78.109
0
LINE
8
BLACK
6
CONTINUOUS
10
148.037
20
-78.109
11
148.109
21
-78.0371
0
LINE
8
BLACK
6
CONTINUOUS
10
148.109
20
-78.0371
11
148.2
21
-77.9909
0
LINE
8
BLACK
6
CONTINUOUS
10
148.2
20
-77.9909
11
148.3
21
-77.975
0
LINE
8
BLACK
6
CONTINUOUS
10
148.3
20
-77.975
11
161.7
21
-77.975
0
LINE
8
BLACK
6
CONTINUOUS
10
148.3
20
-78.025
11
148.256
21
-78.025
0
LINE
8
BLACK
6
CONTINUOUS
10
148.256
20
-78.025
11
148.174
21
-78.0519
0
LINE
8
BLACK
6
CONTINUOUS
10
148.174
20
-78.0519
11
148.103
21
-78.1031
0
LINE
8
BLACK
6
CONTINUOUS
10
148.103
20
-78.1031
11
148.052
21
-78.1736
0
LINE
8
BLACK
6
CONTINUOUS
10
148.052
20
-78.1736
11
148.025
21
-78.2564
0
LINE
8
BLACK
6
CONTINUOUS
10
148.025
20
-78.2564
11
148.025
21
-78.3
0
LINE
8
BLACK
6
CONTINUOUS
10
148.025
20
-78.3
11
148.025
21
-91.7
0
LINE
8
BLACK
6
CONTINUOUS
10
148.025
20
-91.7
11
148.025
21
-91.7436
0
LINE
8
BLACK
6
CONTINUOUS
10
148.025
20
-91.7436
11
148.052
21
-91.8264
0
LINE
8
BLACK
6
CONTINUOUS
10
148.052
20
-91.8264
11
148.103
21
-91.8969
0
LINE
8
BLACK
6
CONTINUOUS
10
148.103
20
-91.8969
11
148.174
21
-91.9481
0
LINE
8
BLACK
6
CONTINUOUS
10
148.174
20
-91.9481
11
148.256
21
-91.975
0
LINE
8
BLACK
6
CONTINUOUS
10
148.256
20
-91.975
11
148.3
21
-91.975
0
LINE
8
BLACK
6
CONTINUOUS
10
148.3
20
-91.975
11
161.7
21
-91.975
0
LINE
8
BLACK
6
CONTINUOUS
10
161.7
20
-91.975
11
161.744
21
-91.975
0
LINE
8
BLACK
6
CONTINUOUS
10
161.744
20
-91.975
11
161.826
21
-91.9481
0
LINE
8
BLACK
6
CONTINUOUS
10
161.826
20
-91.9481
11
161.897
21
-91.8969
0
LINE
8
BLACK
6
CONTINUOUS
10
161.897
20
-91.8969
11
161.948
21
-91.8264
0
LINE
8
BLACK
6
CONTINUOUS
10
161.948
20
-91.8264
11
161.975
21
-91.7436
0
LINE
8
BLACK
6
CONTINUOUS
10
161.975
20
-91.7436
11
161.975
21
-91.7
0
LINE
8
BLACK
6
CONTINUOUS
10
161.975
20
-91.7
11
161.975
21
-91.7
0
LINE
8
BLACK
6
CONTINUOUS
10
161.975
20
-91.7
11
161.975
21
-78.3
0
LINE
8
BLACK
6
CONTINUOUS
10
161.975
20
-78.3
11
161.975
21
-78.2564
0
LINE
8
BLACK
6
CONTINUOUS
10
161.975
20
-78.2564
11
161.948
21
-78.1736
0
LINE
8
BLACK
6
CONTINUOUS
10
161.948
20
-78.1736
11
161.897
21
-78.1031
0
LINE
8
BLACK
6
CONTINUOUS
10
161.897
20
-78.1031
11
161.826
21
-78.0519
0
LINE
8
BLACK
6
CONTINUOUS
10
161.826
20
-78.0519
11
161.744
21
-78.025
0
LINE
8
BLACK
6
CONTINUOUS
10
161.744
20
-78.025
11
161.7
21
-78.025
0
LINE
8
BLACK
6
CONTINUOUS
10
161.7
20
-78.025
11
148.3
21
-78.025
0
LINE
8
BLACK
6
CONTINUOUS
10
199.7
20
-68.975
11
199.8
21
-68.9909
0
LINE
8
BLACK
6
CONTINUOUS
10
199.8
20
-68.9909
11
199.891
21
-69.0371
0
LINE
8
BLACK
6
CONTINUOUS
10
199.891
20
-69.0371
11
199.963
21
-69.109
0
LINE
8
BLACK
6
CONTINUOUS
10
199.963
20
-69.109
11
200.009
21
-69.1996
0
LINE
8
BLACK
6
CONTINUOUS
10
200.009
20
-69.1996
11
200.025
21
-69.3
0
LINE
8
BLACK
6
CONTINUOUS
10
200.025
20
-69.3
11
200.025
21
-82.7
0
LINE
8
BLACK
6
CONTINUOUS
10
200.025
20
-82.7
11
200.009
21
-82.8004
0
LINE
8
BLACK
6
CONTINUOUS
10
200.009
20
-82.8004
11
199.963
21
-82.891
0
LINE
8
BLACK
6
CONTINUOUS
10
199.963
20
-82.891
11
199.891
21
-82.9629
0
LINE
8
BLACK
6
CONTINUOUS
10
199.891
20
-82.9629
11
199.8
21
-83.0091
0
LINE
8
BLACK
6
CONTINUOUS
10
199.8
20
-83.0091
11
199.7
21
-83.025
0
LINE
8
BLACK
6
CONTINUOUS
10
199.7
20
-83.025
11
186.3
21
-83.025
0
LINE
8
BLACK
6
CONTINUOUS
10
186.3
20
-83.025
11
186.2
21
-83.0091
0
LINE
8
BLACK
6
CONTINUOUS
10
186.2
20
-83.0091
11
186.109
21
-82.9629
0
LINE
8
BLACK
6
CONTINUOUS
10
186.109
20
-82.9629
11
186.037
21
-82.891
0
LINE
8
BLACK
6
CONTINUOUS
10
186.037
20
-82.891
11
185.991
21
-82.8004
0
LINE
8
BLACK
6
CONTINUOUS
10
185.991
20
-82.8004
11
185.975
21
-82.7
0
LINE
8
BLACK
6
CONTINUOUS
10
185.975
20
-82.7
11
185.975
21
-69.3
0
LINE
8
BLACK
6
CONTINUOUS
10
185.975
20
-69.3
11
185.975
21
-69.3
0
LINE
8
BLACK
6
CONTINUOUS
10
185.975
20
-69.3
11
185.991
21
-69.1996
0
LINE
8
BLACK
6
CONTINUOUS
10
185.991
20
-69.1996
11
186.037
21
-69.109
0
LINE
8
BLACK
6
CONTINUOUS
10
186.037
20
-69.109
11
186.109
21
-69.0371
0
LINE
8
BLACK
6
CONTINUOUS
10
186.109
20
-69.0371
11
186.2
21
-68.9909
0
LINE
8
BLACK
6
CONTINUOUS
10
186.2
20
-68.9909
11
186.3
21
-68.975
0
LINE
8
BLACK
6
CONTINUOUS
10
186.3
20
-68.975
11
199.7
21
-68.975
0
LINE
8
BLACK
6
CONTINUOUS
10
186.3
20
-69.025
11
186.256
21
-69.025
0
LINE
8
BLACK
6
CONTINUOUS
10
186.256
20
-69.025
11
186.174
21
-69.0519
0
LINE
8
BLACK
6
CONTINUOUS
10
186.174
20
-69.0519
11
186.103
21
-69.1031
0
LINE
8
BLACK
6
CONTINUOUS
10
186.103
20
-69.1031
11
186.052
21
-69.1736
0
LINE
8
BLACK
6
CONTINUOUS
10
186.052
20
-69.1736
11
186.025
21
-69.2564
0
LINE
8
BLACK
6
CONTINUOUS
10
186.025
20
-69.2564
11
186.025
21
-69.3
0
LINE
8
BLACK
6
CONTINUOUS
10
186.025
20
-69.3
11
186.025
21
-82.7
0
LINE
8
BLACK
6
CONTINUOUS
10
186.025
20
-82.7
11
186.025
21
-82.7436
0
LINE
8
BLACK
6
CONTINUOUS
10
186.025
20
-82.7436
11
186.052
21
-82.8264
0
LINE
8
BLACK
6
CONTINUOUS
10
186.052
20
-82.8264
11
186.103
21
-82.8969
0
LINE
8
BLACK
6
CONTINUOUS
10
186.103
20
-82.8969
11
186.174
21
-82.9481
0
LINE
8
BLACK
6
CONTINUOUS
10
186.174
20
-82.9481
11
186.256
21
-82.975
0
LINE
8
BLACK
6
CONTINUOUS
10
186.256
20
-82.975
11
186.3
21
-82.975
0
LINE
8
BLACK
6
CONTINUOUS
10
186.3
20
-82.975
11
199.7
21
-82.975
0
LINE
8
BLACK
6
CONTINUOUS
10
199.7
20
-82.975
11
199.744
21
-82.975
0
LINE
8
BLACK
6
CONTINUOUS
10
199.744
20
-82.975
11
199.826
21
-82.9481
0
LINE
8
BLACK
6
CONTINUOUS
10
199.826
20
-82.9481
11
199.897
21
-82.8969
0
LINE
8
BLACK
6
CONTINUOUS
10
199.897
20
-82.8969
11
199.948
21
-82.8264
0
LINE
8
BLACK
6
CONTINUOUS
10
199.948
20
-82.8264
11
199.975
21
-82.7436
0
LINE
8
BLACK
6
CONTINUOUS
10
199.975
20
-82.7436
11
199.975
21
-82.7
0
LINE
8
BLACK
6
CONTINUOUS
10
199.975
20
-82.7
11
199.975
21
-69.3
0
LINE
8
BLACK
6
CONTINUOUS
10
199.975
20
-69.3
11
199.975
21
-69.2564
0
LINE
8
BLACK
6
CONTINUOUS
10
199.975
20
-69.2564
11
199.948
21
-69.1736
0
LINE
8
BLACK
6
CONTINUOUS
10
199.948
20
-69.1736
11
199.897
21
-69.1031
0
LINE
8
BLACK
6
CONTINUOUS
10
199.897
20
-69.1031
11
199.826
21
-69.0519
0
LINE
8
BLACK
6
CONTINUOUS
10
199.826
20
-69.0519
11
199.744
21
-69.025
0
LINE
8
BLACK
6
CONTINUOUS
10
199.744
20
-69.025
11
199.7
21
-69.025
0
LINE
8
BLACK
6
CONTINUOUS
10
199.7
20
-69.025
11
186.3
21
-69.025
0
LINE
8
BLACK
6
CONTINUOUS
10
218.7
20
-68.975
11
218.8
21
-68.9909
0
LINE
8
BLACK
6
CONTINUOUS
10
218.8
20
-68.9909
11
218.891
21
-69.0371
0
LINE
8
BLACK
6
CONTINUOUS
10
218.891
20
-69.0371
11
218.963
21
-69.109
0
LINE
8
BLACK
6
CONTINUOUS
10
218.963
20
-69.109
11
219.009
21
-69.1996
0
LINE
8
BLACK
6
CONTINUOUS
10
219.009
20
-69.1996
11
219.025
21
-69.3
0
LINE
8
BLACK
6
CONTINUOUS
10
219.025
20
-69.3
11
219.025
21
-82.7
0
LINE
8
BLACK
6
CONTINUOUS
10
219.025
20
-82.7
11
219.025
21
-82.7
0
LINE
8
BLACK
6
CONTINUOUS
10
219.025
20
-82.7
11
219.009
21
-82.8004
0
LINE
8
BLACK
6
CONTINUOUS
10
219.009
20
-82.8004
11
218.963
21
-82.891
0
LINE
8
BLACK
6
CONTINUOUS
10
218.963
20
-82.891
11
218.891
21
-82.9629
0
LINE
8
BLACK
6
CONTINUOUS
10
218.891
20
-82.9629
11
218.8
21
-83.0091
0
LINE
8
BLACK
6
CONTINUOUS
10
218.8
20
-83.0091
11
218.7
21
-83.025
0
LINE
8
BLACK
6
CONTINUOUS
10
218.7
20
-83.025
11
205.3
21
-83.025
0
LINE
8
BLACK
6
CONTINUOUS
10
205.3
20
-83.025
11
205.2
21
-83.0091
0
LINE
8
BLACK
6
CONTINUOUS
10
205.2
20
-83.0091
11
205.109
21
-82.9629
0
LINE
8
BLACK
6
CONTINUOUS
10
205.109
20
-82.9629
11
205.037
21
-82.891
0
LINE
8
BLACK
6
CONTINUOUS
10
205.037
20
-82.891
11
204.991
21
-82.8004
0
LINE
8
BLACK
6
CONTINUOUS
10
204.991
20
-82.8004
11
204.975
21
-82.7
0
LINE
8
BLACK
6
CONTINUOUS
10
204.975
20
-82.7
11
204.975
21
-82.7
0
LINE
8
BLACK
6
CONTINUOUS
10
204.975
20
-82.7
11
204.975
21
-69.3
0
LINE
8
BLACK
6
CONTINUOUS
10
204.975
20
-69.3
11
204.975
21
-69.3
0
LINE
8
BLACK
6
CONTINUOUS
10
204.975
20
-69.3
11
204.991
21
-69.1996
0
LINE
8
BLACK
6
CONTINUOUS
10
204.991
20
-69.1996
11
205.037
21
-69.109
0
LINE
8
BLACK
6
CONTINUOUS
10
205.037
20
-69.109
11
205.109
21
-69.0371
0
LINE
8
BLACK
6
CONTINUOUS
10
205.109
20
-69.0371
11
205.2
21
-68.9909
0
LINE
8
BLACK
6
CONTINUOUS
10
205.2
20
-68.9909
11
205.3
21
-68.975
0
LINE
8
BLACK
6
CONTINUOUS
10
205.3
20
-68.975
11
218.7
21
-68.975
0
LINE
8
BLACK
6
CONTINUOUS
10
205.3
20
-69.025
11
205.256
21
-69.025
0
LINE
8
BLACK
6
CONTINUOUS
10
205.256
20
-69.025
11
205.174
21
-69.0519
0
LINE
8
BLACK
6
CONTINUOUS
10
205.174
20
-69.0519
11
205.103
21
-69.1031
0
LINE
8
BLACK
6
CONTINUOUS
10
205.103
20
-69.1031
11
205.052
21
-69.1736
0
LINE
8
BLACK
6
CONTINUOUS
10
205.052
20
-69.1736
11
205.025
21
-69.2564
0
LINE
8
BLACK
6
CONTINUOUS
10
205.025
20
-69.2564
11
205.025
21
-69.3
0
LINE
8
BLACK
6
CONTINUOUS
10
205.025
20
-69.3
11
205.025
21
-82.7
0
LINE
8
BLACK
6
CONTINUOUS
10
205.025
20
-82.7
11
205.025
21
-82.7
0
LINE
8
BLACK
6
CONTINUOUS
10
205.025
20
-82.7
11
205.025
21
-82.7436
0
LINE
8
BLACK
6
CONTINUOUS
10
205.025
20
-82.7436
11
205.052
21
-82.8264
0
LINE
8
BLACK
6
CONTINUOUS
10
205.052
20
-82.8264
11
205.103
21
-82.8969
0
LINE
8
BLACK
6
CONTINUOUS
10
205.103
20
-82.8969
11
205.174
21
-82.9481
0
LINE
8
BLACK
6
CONTINUOUS
10
205.174
20
-82.9481
11
205.256
21
-82.975
0
LINE
8
BLACK
6
CONTINUOUS
10
205.256
20
-82.975
11
205.3
21
-82.975
0
LINE
8
BLACK
6
CONTINUOUS
10
205.3
20
-82.975
11
218.7
21
-82.975
0
LINE
8
BLACK
6
CONTINUOUS
10
218.7
20
-82.975
11
218.744
21
-82.975
0
LINE
8
BLACK
6
CONTINUOUS
10
218.744
20
-82.975
11
218.826
21
-82.9481
0
LINE
8
BLACK
6
CONTINUOUS
10
218.826
20
-82.9481
11
218.897
21
-82.8969
0
LINE
8
BLACK
6
CONTINUOUS
10
218.897
20
-82.8969
11
218.948
21
-82.8264
0
LINE
8
BLACK
6
CONTINUOUS
10
218.948
20
-82.8264
11
218.975
21
-82.7436
0
LINE
8
BLACK
6
CONTINUOUS
10
218.975
20
-82.7436
11
218.975
21
-82.7
0
LINE
8
BLACK
6
CONTINUOUS
10
218.975
20
-82.7
11
218.975
21
-82.7
0
LINE
8
BLACK
6
CONTINUOUS
10
218.975
20
-82.7
11
218.975
21
-69.3
0
LINE
8
BLACK
6
CONTINUOUS
10
218.975
20
-69.3
11
218.975
21
-69.2564
0
LINE
8
BLACK
6
CONTINUOUS
10
218.975
20
-69.2564
11
218.948
21
-69.1736
0
LINE
8
BLACK
6
CONTINUOUS
10
218.948
20
-69.1736
11
218.897
21
-69.1031
0
LINE
8
BLACK
6
CONTINUOUS
10
218.897
20
-69.1031
11
218.826
21
-69.0519
0
LINE
8
BLACK
6
CONTINUOUS
10
218.826
20
-69.0519
11
218.744
21
-69.025
0
LINE
8
BLACK
6
CONTINUOUS
10
218.744
20
-69.025
11
218.7
21
-69.025
0
LINE
8
BLACK
6
CONTINUOUS
10
218.7
20
-69.025
11
205.3
21
-69.025
0
LINE
8
BLACK
6
CONTINUOUS
10
123.7
20
-66.975
11
123.8
21
-66.9909
0
LINE
8
BLACK
6
CONTINUOUS
10
123.8
20
-66.9909
11
123.891
21
-67.0371
0
LINE
8
BLACK
6
CONTINUOUS
10
123.891
20
-67.0371
11
123.963
21
-67.109
0
LINE
8
BLACK
6
CONTINUOUS
10
123.963
20
-67.109
11
124.009
21
-67.1996
0
LINE
8
BLACK
6
CONTINUOUS
10
124.009
20
-67.1996
11
124.025
21
-67.3
0
LINE
8
BLACK
6
CONTINUOUS
10
124.025
20
-67.3
11
124.025
21
-80.7
0
LINE
8
BLACK
6
CONTINUOUS
10
124.025
20
-80.7
11
124.025
21
-80.7
0
LINE
8
BLACK
6
CONTINUOUS
10
124.025
20
-80.7
11
124.009
21
-80.8004
0
LINE
8
BLACK
6
CONTINUOUS
10
124.009
20
-80.8004
11
123.963
21
-80.891
0
LINE
8
BLACK
6
CONTINUOUS
10
123.963
20
-80.891
11
123.891
21
-80.9629
0
LINE
8
BLACK
6
CONTINUOUS
10
123.891
20
-80.9629
11
123.8
21
-81.0091
0
LINE
8
BLACK
6
CONTINUOUS
10
123.8
20
-81.0091
11
123.7
21
-81.025
0
LINE
8
BLACK
6
CONTINUOUS
10
123.7
20
-81.025
11
110.3
21
-81.025
0
LINE
8
BLACK
6
CONTINUOUS
10
110.3
20
-81.025
11
110.2
21
-81.0091
0
LINE
8
BLACK
6
CONTINUOUS
10
110.2
20
-81.0091
11
110.109
21
-80.9629
0
LINE
8
BLACK
6
CONTINUOUS
10
110.109
20
-80.9629
11
110.037
21
-80.891
0
LINE
8
BLACK
6
CONTINUOUS
10
110.037
20
-80.891
11
109.991
21
-80.8004
0
LINE
8
BLACK
6
CONTINUOUS
10
109.991
20
-80.8004
11
109.975
21
-80.7
0
LINE
8
BLACK
6
CONTINUOUS
10
109.975
20
-80.7
11
109.975
21
-67.3
0
LINE
8
BLACK
6
CONTINUOUS
10
109.975
20
-67.3
11
109.991
21
-67.1996
0
LINE
8
BLACK
6
CONTINUOUS
10
109.991
20
-67.1996
11
110.037
21
-67.109
0
LINE
8
BLACK
6
CONTINUOUS
10
110.037
20
-67.109
11
110.109
21
-67.0371
0
LINE
8
BLACK
6
CONTINUOUS
10
110.109
20
-67.0371
11
110.2
21
-66.9909
0
LINE
8
BLACK
6
CONTINUOUS
10
110.2
20
-66.9909
11
110.3
21
-66.975
0
LINE
8
BLACK
6
CONTINUOUS
10
110.3
20
-66.975
11
123.7
21
-66.975
0
LINE
8
BLACK
6
CONTINUOUS
10
110.3
20
-67.025
11
110.256
21
-67.025
0
LINE
8
BLACK
6
CONTINUOUS
10
110.256
20
-67.025
11
110.174
21
-67.0519
0
LINE
8
BLACK
6
CONTINUOUS
10
110.174
20
-67.0519
11
110.103
21
-67.1031
0
LINE
8
BLACK
6
CONTINUOUS
10
110.103
20
-67.1031
11
110.052
21
-67.1736
0
LINE
8
BLACK
6
CONTINUOUS
10
110.052
20
-67.1736
11
110.025
21
-67.2564
0
LINE
8
BLACK
6
CONTINUOUS
10
110.025
20
-67.2564
11
110.025
21
-67.3
0
LINE
8
BLACK
6
CONTINUOUS
10
110.025
20
-67.3
11
110.025
21
-80.7
0
LINE
8
BLACK
6
CONTINUOUS
10
110.025
20
-80.7
11
110.025
21
-80.7
0
LINE
8
BLACK
6
CONTINUOUS
10
110.025
20
-80.7
11
110.025
21
-80.7436
0
LINE
8
BLACK
6
CONTINUOUS
10
110.025
20
-80.7436
11
110.052
21
-80.8264
0
LINE
8
BLACK
6
CONTINUOUS
10
110.052
20
-80.8264
11
110.103
21
-80.8969
0
LINE
8
BLACK
6
CONTINUOUS
10
110.103
20
-80.8969
11
110.174
21
-80.9481
0
LINE
8
BLACK
6
CONTINUOUS
10
110.174
20
-80.9481
11
110.256
21
-80.975
0
LINE
8
BLACK
6
CONTINUOUS
10
110.256
20
-80.975
11
110.3
21
-80.975
0
LINE
8
BLACK
6
CONTINUOUS
10
110.3
20
-80.975
11
123.7
21
-80.975
0
LINE
8
BLACK
6
CONTINUOUS
10
123.7
20
-80.975
11
123.744
21
-80.975
0
LINE
8
BLACK
6
CONTINUOUS
10
123.744
20
-80.975
11
123.826
21
-80.9481
0
LINE
8
BLACK
6
CONTINUOUS
10
123.826
20
-80.9481
11
123.897
21
-80.8969
0
LINE
8
BLACK
6
CONTINUOUS
10
123.897
20
-80.8969
11
123.948
21
-80.8264
0
LINE
8
BLACK
6
CONTINUOUS
10
123.948
20
-80.8264
11
123.975
21
-80.7436
0
LINE
8
BLACK
6
CONTINUOUS
10
123.975
20
-80.7436
11
123.975
21
-80.7
0
LINE
8
BLACK
6
CONTINUOUS
10
123.975
20
-80.7
11
123.975
21
-67.3
0
LINE
8
BLACK
6
CONTINUOUS
10
123.975
20
-67.3
11
123.975
21
-67.2564
0
LINE
8
BLACK
6
CONTINUOUS
10
123.975
20
-67.2564
11
123.948
21
-67.1736
0
LINE
8
BLACK
6
CONTINUOUS
10
123.948
20
-67.1736
11
123.897
21
-67.1031
0
LINE
8
BLACK
6
CONTINUOUS
10
123.897
20
-67.1031
11
123.826
21
-67.0519
0
LINE
8
BLACK
6
CONTINUOUS
10
123.826
20
-67.0519
11
123.744
21
-67.025
0
LINE
8
BLACK
6
CONTINUOUS
10
123.744
20
-67.025
11
123.7
21
-67.025
0
LINE
8
BLACK
6
CONTINUOUS
10
123.7
20
-67.025
11
110.3
21
-67.025
0
LINE
8
BLACK
6
CONTINUOUS
10
180.7
20
-63.975
11
180.8
21
-63.9909
0
LINE
8
BLACK
6
CONTINUOUS
10
180.8
20
-63.9909
11
180.891
21
-64.0371
0
LINE
8
BLACK
6
CONTINUOUS
10
180.891
20
-64.0371
11
180.963
21
-64.109
0
LINE
8
BLACK
6
CONTINUOUS
10
180.963
20
-64.109
11
181.009
21
-64.1996
0
LINE
8
BLACK
6
CONTINUOUS
10
181.009
20
-64.1996
11
181.025
21
-64.3
0
LINE
8
BLACK
6
CONTINUOUS
10
181.025
20
-64.3
11
181.025
21
-77.7
0
LINE
8
BLACK
6
CONTINUOUS
10
181.025
20
-77.7
11
181.009
21
-77.8004
0
LINE
8
BLACK
6
CONTINUOUS
10
181.009
20
-77.8004
11
180.963
21
-77.891
0
LINE
8
BLACK
6
CONTINUOUS
10
180.963
20
-77.891
11
180.891
21
-77.9629
0
LINE
8
BLACK
6
CONTINUOUS
10
180.891
20
-77.9629
11
180.8
21
-78.0091
0
LINE
8
BLACK
6
CONTINUOUS
10
180.8
20
-78.0091
11
180.7
21
-78.025
0
LINE
8
BLACK
6
CONTINUOUS
10
180.7
20
-78.025
11
167.3
21
-78.025
0
LINE
8
BLACK
6
CONTINUOUS
10
167.3
20
-78.025
11
167.2
21
-78.0091
0
LINE
8
BLACK
6
CONTINUOUS
10
167.2
20
-78.0091
11
167.109
21
-77.9629
0
LINE
8
BLACK
6
CONTINUOUS
10
167.109
20
-77.9629
11
167.037
21
-77.891
0
LINE
8
BLACK
6
CONTINUOUS
10
167.037
20
-77.891
11
166.991
21
-77.8004
0
LINE
8
BLACK
6
CONTINUOUS
10
166.991
20
-77.8004
11
166.975
21
-77.7
0
LINE
8
BLACK
6
CONTINUOUS
10
166.975
20
-77.7
11
166.975
21
-64.3
0
LINE
8
BLACK
6
CONTINUOUS
10
166.975
20
-64.3
11
166.991
21
-64.1996
0
LINE
8
BLACK
6
CONTINUOUS
10
166.991
20
-64.1996
11
167.037
21
-64.109
0
LINE
8
BLACK
6
CONTINUOUS
10
167.037
20
-64.109
11
167.109
21
-64.0371
0
LINE
8
BLACK
6
CONTINUOUS
10
167.109
20
-64.0371
11
167.2
21
-63.9909
0
LINE
8
BLACK
6
CONTINUOUS
10
167.2
20
-63.9909
11
167.3
21
-63.975
0
LINE
8
BLACK
6
CONTINUOUS
10
167.3
20
-63.975
11
180.7
21
-63.975
0
LINE
8
BLACK
6
CONTINUOUS
10
167.3
20
-64.025
11
167.256
21
-64.025
0
LINE
8
BLACK
6
CONTINUOUS
10
167.256
20
-64.025
11
167.174
21
-64.0519
0
LINE
8
BLACK
6
CONTINUOUS
10
167.174
20
-64.0519
11
167.103
21
-64.1031
0
LINE
8
BLACK
6
CONTINUOUS
10
167.103
20
-64.1031
11
167.052
21
-64.1736
0
LINE
8
BLACK
6
CONTINUOUS
10
167.052
20
-64.1736
11
167.025
21
-64.2564
0
LINE
8
BLACK
6
CONTINUOUS
10
167.025
20
-64.2564
11
167.025
21
-64.3
0
LINE
8
BLACK
6
CONTINUOUS
10
167.025
20
-64.3
11
167.025
21
-77.7
0
LINE
8
BLACK
6
CONTINUOUS
10
167.025
20
-77.7
11
167.025
21
-77.7436
0
LINE
8
BLACK
6
CONTINUOUS
10
167.025
20
-77.7436
11
167.052
21
-77.8264
0
LINE
8
BLACK
6
CONTINUOUS
10
167.052
20
-77.8264
11
167.103
21
-77.8969
0
LINE
8
BLACK
6
CONTINUOUS
10
167.103
20
-77.8969
11
167.174
21
-77.9481
0
LINE
8
BLACK
6
CONTINUOUS
10
167.174
20
-77.9481
11
167.256
21
-77.975
0
LINE
8
BLACK
6
CONTINUOUS
10
167.256
20
-77.975
11
167.3
21
-77.975
0
LINE
8
BLACK
6
CONTINUOUS
10
167.3
20
-77.975
11
180.7
21
-77.975
0
LINE
8
BLACK
6
CONTINUOUS
10
180.7
20
-77.975
11
180.744
21
-77.975
0
LINE
8
BLACK
6
CONTINUOUS
10
180.744
20
-77.975
11
180.826
21
-77.9481
0
LINE
8
BLACK
6
CONTINUOUS
10
180.826
20
-77.9481
11
180.897
21
-77.8969
0
LINE
8
BLACK
6
CONTINUOUS
10
180.897
20
-77.8969
11
180.948
21
-77.8264
0
LINE
8
BLACK
6
CONTINUOUS
10
180.948
20
-77.8264
11
180.975
21
-77.7436
0
LINE
8
BLACK
6
CONTINUOUS
10
180.975
20
-77.7436
11
180.975
21
-77.7
0
LINE
8
BLACK
6
CONTINUOUS
10
180.975
20
-77.7
11
180.975
21
-64.3
0
LINE
8
BLACK
6
CONTINUOUS
10
180.975
20
-64.3
11
180.975
21
-64.2564
0
LINE
8
BLACK
6
CONTINUOUS
10
180.975
20
-64.2564
11
180.948
21
-64.1736
0
LINE
8
BLACK
6
CONTINUOUS
10
180.948
20
-64.1736
11
180.897
21
-64.1031
0
LINE
8
BLACK
6
CONTINUOUS
10
180.897
20
-64.1031
11
180.826
21
-64.0519
0
LINE
8
BLACK
6
CONTINUOUS
10
180.826
20
-64.0519
11
180.744
21
-64.025
0
LINE
8
BLACK
6
CONTINUOUS
10
180.744
20
-64.025
11
180.7
21
-64.025
0
LINE
8
BLACK
6
CONTINUOUS
10
180.7
20
-64.025
11
167.3
21
-64.025
0
LINE
8
BLACK
6
CONTINUOUS
10
142.7
20
-63.475
11
142.8
21
-63.4909
0
LINE
8
BLACK
6
CONTINUOUS
10
142.8
20
-63.4909
11
142.891
21
-63.5371
0
LINE
8
BLACK
6
CONTINUOUS
10
142.891
20
-63.5371
11
142.963
21
-63.609
0
LINE
8
BLACK
6
CONTINUOUS
10
142.963
20
-63.609
11
143.009
21
-63.6996
0
LINE
8
BLACK
6
CONTINUOUS
10
143.009
20
-63.6996
11
143.025
21
-63.8
0
LINE
8
BLACK
6
CONTINUOUS
10
143.025
20
-63.8
11
143.025
21
-77.2
0
LINE
8
BLACK
6
CONTINUOUS
10
143.025
20
-77.2
11
143.009
21
-77.3004
0
LINE
8
BLACK
6
CONTINUOUS
10
143.009
20
-77.3004
11
142.963
21
-77.391
0
LINE
8
BLACK
6
CONTINUOUS
10
142.963
20
-77.391
11
142.891
21
-77.4629
0
LINE
8
BLACK
6
CONTINUOUS
10
142.891
20
-77.4629
11
142.8
21
-77.5091
0
LINE
8
BLACK
6
CONTINUOUS
10
142.8
20
-77.5091
11
142.7
21
-77.525
0
LINE
8
BLACK
6
CONTINUOUS
10
142.7
20
-77.525
11
129.3
21
-77.525
0
LINE
8
BLACK
6
CONTINUOUS
10
129.3
20
-77.525
11
129.2
21
-77.5091
0
LINE
8
BLACK
6
CONTINUOUS
10
129.2
20
-77.5091
11
129.109
21
-77.4629
0
LINE
8
BLACK
6
CONTINUOUS
10
129.109
20
-77.4629
11
129.037
21
-77.391
0
LINE
8
BLACK
6
CONTINUOUS
10
129.037
20
-77.391
11
128.991
21
-77.3004
0
LINE
8
BLACK
6
CONTINUOUS
10
128.991
20
-77.3004
11
128.975
21
-77.2
0
LINE
8
BLACK
6
CONTINUOUS
10
128.975
20
-77.2
11
128.975
21
-63.8
0
LINE
8
BLACK
6
CONTINUOUS
10
128.975
20
-63.8
11
128.991
21
-63.6996
0
LINE
8
BLACK
6
CONTINUOUS
10
128.991
20
-63.6996
11
129.037
21
-63.609
0
LINE
8
BLACK
6
CONTINUOUS
10
129.037
20
-63.609
11
129.109
21
-63.5371
0
LINE
8
BLACK
6
CONTINUOUS
10
129.109
20
-63.5371
11
129.2
21
-63.4909
0
LINE
8
BLACK
6
CONTINUOUS
10
129.2
20
-63.4909
11
129.3
21
-63.475
0
LINE
8
BLACK
6
CONTINUOUS
10
129.3
20
-63.475
11
142.7
21
-63.475
0
LINE
8
BLACK
6
CONTINUOUS
10
129.3
20
-63.525
11
129.256
21
-63.525
0
LINE
8
BLACK
6
CONTINUOUS
10
129.256
20
-63.525
11
129.174
21
-63.5519
0
LINE
8
BLACK
6
CONTINUOUS
10
129.174
20
-63.5519
11
129.103
21
-63.6031
0
LINE
8
BLACK
6
CONTINUOUS
10
129.103
20
-63.6031
11
129.052
21
-63.6736
0
LINE
8
BLACK
6
CONTINUOUS
10
129.052
20
-63.6736
11
129.025
21
-63.7564
0
LINE
8
BLACK
6
CONTINUOUS
10
129.025
20
-63.7564
11
129.025
21
-63.8
0
LINE
8
BLACK
6
CONTINUOUS
10
129.025
20
-63.8
11
129.025
21
-77.2
0
LINE
8
BLACK
6
CONTINUOUS
10
129.025
20
-77.2
11
129.025
21
-77.2
0
LINE
8
BLACK
6
CONTINUOUS
10
129.025
20
-77.2
11
129.025
21
-77.2436
0
LINE
8
BLACK
6
CONTINUOUS
10
129.025
20
-77.2436
11
129.052
21
-77.3264
0
LINE
8
BLACK
6
CONTINUOUS
10
129.052
20
-77.3264
11
129.103
21
-77.3969
0
LINE
8
BLACK
6
CONTINUOUS
10
129.103
20
-77.3969
11
129.174
21
-77.4481
0
LINE
8
BLACK
6
CONTINUOUS
10
129.174
20
-77.4481
11
129.256
21
-77.475
0
LINE
8
BLACK
6
CONTINUOUS
10
129.256
20
-77.475
11
129.3
21
-77.475
0
LINE
8
BLACK
6
CONTINUOUS
10
129.3
20
-77.475
11
142.7
21
-77.475
0
LINE
8
BLACK
6
CONTINUOUS
10
142.7
20
-77.475
11
142.744
21
-77.475
0
LINE
8
BLACK
6
CONTINUOUS
10
142.744
20
-77.475
11
142.826
21
-77.4481
0
LINE
8
BLACK
6
CONTINUOUS
10
142.826
20
-77.4481
11
142.897
21
-77.3969
0
LINE
8
BLACK
6
CONTINUOUS
10
142.897
20
-77.3969
11
142.948
21
-77.3264
0
LINE
8
BLACK
6
CONTINUOUS
10
142.948
20
-77.3264
11
142.975
21
-77.2436
0
LINE
8
BLACK
6
CONTINUOUS
10
142.975
20
-77.2436
11
142.975
21
-77.2
0
LINE
8
BLACK
6
CONTINUOUS
10
142.975
20
-77.2
11
142.975
21
-63.8
0
LINE
8
BLACK
6
CONTINUOUS
10
142.975
20
-63.8
11
142.975
21
-63.7564
0
LINE
8
BLACK
6
CONTINUOUS
10
142.975
20
-63.7564
11
142.948
21
-63.6736
0
LINE
8
BLACK
6
CONTINUOUS
10
142.948
20
-63.6736
11
142.897
21
-63.6031
0
LINE
8
BLACK
6
CONTINUOUS
10
142.897
20
-63.6031
11
142.826
21
-63.5519
0
LINE
8
BLACK
6
CONTINUOUS
10
142.826
20
-63.5519
11
142.744
21
-63.525
0
LINE
8
BLACK
6
CONTINUOUS
10
142.744
20
-63.525
11
142.7
21
-63.525
0
LINE
8
BLACK
6
CONTINUOUS
10
142.7
20
-63.525
11
129.3
21
-63.525
0
LINE
8
BLACK
6
CONTINUOUS
10
161.7
20
-58.975
11
161.8
21
-58.9909
0
LINE
8
BLACK
6
CONTINUOUS
10
161.8
20
-58.9909
11
161.891
21
-59.0371
0
LINE
8
BLACK
6
CONTINUOUS
10
161.891
20
-59.0371
11
161.963
21
-59.109
0
LINE
8
BLACK
6
CONTINUOUS
10
161.963
20
-59.109
11
162.009
21
-59.1996
0
LINE
8
BLACK
6
CONTINUOUS
10
162.009
20
-59.1996
11
162.025
21
-59.3
0
LINE
8
BLACK
6
CONTINUOUS
10
162.025
20
-59.3
11
162.025
21
-72.7
0
LINE
8
BLACK
6
CONTINUOUS
10
162.025
20
-72.7
11
162.009
21
-72.8004
0
LINE
8
BLACK
6
CONTINUOUS
10
162.009
20
-72.8004
11
161.963
21
-72.891
0
LINE
8
BLACK
6
CONTINUOUS
10
161.963
20
-72.891
11
161.891
21
-72.9629
0
LINE
8
BLACK
6
CONTINUOUS
10
161.891
20
-72.9629
11
161.8
21
-73.0091
0
LINE
8
BLACK
6
CONTINUOUS
10
161.8
20
-73.0091
11
161.7
21
-73.025
0
LINE
8
BLACK
6
CONTINUOUS
10
161.7
20
-73.025
11
148.3
21
-73.025
0
LINE
8
BLACK
6
CONTINUOUS
10
148.3
20
-73.025
11
148.2
21
-73.0091
0
LINE
8
BLACK
6
CONTINUOUS
10
148.2
20
-73.0091
11
148.109
21
-72.9629
0
LINE
8
BLACK
6
CONTINUOUS
10
148.109
20
-72.9629
11
148.037
21
-72.891
0
LINE
8
BLACK
6
CONTINUOUS
10
148.037
20
-72.891
11
147.991
21
-72.8004
0
LINE
8
BLACK
6
CONTINUOUS
10
147.991
20
-72.8004
11
147.975
21
-72.7
0
LINE
8
BLACK
6
CONTINUOUS
10
147.975
20
-72.7
11
147.975
21
-59.3
0
LINE
8
BLACK
6
CONTINUOUS
10
147.975
20
-59.3
11
147.991
21
-59.1996
0
LINE
8
BLACK
6
CONTINUOUS
10
147.991
20
-59.1996
11
148.037
21
-59.109
0
LINE
8
BLACK
6
CONTINUOUS
10
148.037
20
-59.109
11
148.109
21
-59.0371
0
LINE
8
BLACK
6
CONTINUOUS
10
148.109
20
-59.0371
11
148.2
21
-58.9909
0
LINE
8
BLACK
6
CONTINUOUS
10
148.2
20
-58.9909
11
148.3
21
-58.975
0
LINE
8
BLACK
6
CONTINUOUS
10
148.3
20
-58.975
11
161.7
21
-58.975
0
LINE
8
BLACK
6
CONTINUOUS
10
148.3
20
-59.025
11
148.256
21
-59.025
0
LINE
8
BLACK
6
CONTINUOUS
10
148.256
20
-59.025
11
148.174
21
-59.0519
0
LINE
8
BLACK
6
CONTINUOUS
10
148.174
20
-59.0519
11
148.103
21
-59.1031
0
LINE
8
BLACK
6
CONTINUOUS
10
148.103
20
-59.1031
11
148.052
21
-59.1736
0
LINE
8
BLACK
6
CONTINUOUS
10
148.052
20
-59.1736
11
148.025
21
-59.2564
0
LINE
8
BLACK
6
CONTINUOUS
10
148.025
20
-59.2564
11
148.025
21
-59.3
0
LINE
8
BLACK
6
CONTINUOUS
10
148.025
20
-59.3
11
148.025
21
-72.7
0
LINE
8
BLACK
6
CONTINUOUS
10
148.025
20
-72.7
11
148.025
21
-72.7436
0
LINE
8
BLACK
6
CONTINUOUS
10
148.025
20
-72.7436
11
148.052
21
-72.8264
0
LINE
8
BLACK
6
CONTINUOUS
10
148.052
20
-72.8264
11
148.103
21
-72.8969
0
LINE
8
BLACK
6
CONTINUOUS
10
148.103
20
-72.8969
11
148.174
21
-72.9481
0
LINE
8
BLACK
6
CONTINUOUS
10
148.174
20
-72.9481
11
148.256
21
-72.975
0
LINE
8
BLACK
6
CONTINUOUS
10
148.256
20
-72.975
11
148.3
21
-72.975
0
LINE
8
BLACK
6
CONTINUOUS
10
148.3
20
-72.975
11
161.7
21
-72.975
0
LINE
8
BLACK
6
CONTINUOUS
10
161.7
20
-72.975
11
161.744
21
-72.975
0
LINE
8
BLACK
6
CONTINUOUS
10
161.744
20
-72.975
11
161.826
21
-72.9481
0
LINE
8
BLACK
6
CONTINUOUS
10
161.826
20
-72.9481
11
161.897
21
-72.8969
0
LINE
8
BLACK
6
CONTINUOUS
10
161.897
20
-72.8969
11
161.948
21
-72.8264
0
LINE
8
BLACK
6
CONTINUOUS
10
161.948
20
-72.8264
11
161.975
21
-72.7436
0
LINE
8
BLACK
6
CONTINUOUS
10
161.975
20
-72.7436
11
161.975
21
-72.7
0
LINE
8
BLACK
6
CONTINUOUS
10
161.975
20
-72.7
11
161.975
21
-59.3
0
LINE
8
BLACK
6
CONTINUOUS
10
161.975
20
-59.3
11
161.975
21
-59.2564
0
LINE
8
BLACK
6
CONTINUOUS
10
161.975
20
-59.2564
11
161.948
21
-59.1736
0
LINE
8
BLACK
6
CONTINUOUS
10
161.948
20
-59.1736
11
161.897
21
-59.1031
0
LINE
8
BLACK
6
CONTINUOUS
10
161.897
20
-59.1031
11
161.826
21
-59.0519
0
LINE
8
BLACK
6
CONTINUOUS
10
161.826
20
-59.0519
11
161.744
21
-59.025
0
LINE
8
BLACK
6
CONTINUOUS
10
161.744
20
-59.025
11
161.7
21
-59.025
0
LINE
8
BLACK
6
CONTINUOUS
10
161.7
20
-59.025
11
148.3
21
-59.025
0
LINE
8
BLACK
6
CONTINUOUS
10
199.7
20
-49.975
11
199.8
21
-49.9909
0
LINE
8
BLACK
6
CONTINUOUS
10
199.8
20
-49.9909
11
199.891
21
-50.0371
0
LINE
8
BLACK
6
CONTINUOUS
10
199.891
20
-50.0371
11
199.963
21
-50.109
0
LINE
8
BLACK
6
CONTINUOUS
10
199.963
20
-50.109
11
200.009
21
-50.1996
0
LINE
8
BLACK
6
CONTINUOUS
10
200.009
20
-50.1996
11
200.025
21
-50.3
0
LINE
8
BLACK
6
CONTINUOUS
10
200.025
20
-50.3
11
200.025
21
-63.7
0
LINE
8
BLACK
6
CONTINUOUS
10
200.025
20
-63.7
11
200.009
21
-63.8004
0
LINE
8
BLACK
6
CONTINUOUS
10
200.009
20
-63.8004
11
199.963
21
-63.891
0
LINE
8
BLACK
6
CONTINUOUS
10
199.963
20
-63.891
11
199.891
21
-63.9629
0
LINE
8
BLACK
6
CONTINUOUS
10
199.891
20
-63.9629
11
199.8
21
-64.0091
0
LINE
8
BLACK
6
CONTINUOUS
10
199.8
20
-64.0091
11
199.7
21
-64.025
0
LINE
8
BLACK
6
CONTINUOUS
10
199.7
20
-64.025
11
186.3
21
-64.025
0
LINE
8
BLACK
6
CONTINUOUS
10
186.3
20
-64.025
11
186.2
21
-64.0091
0
LINE
8
BLACK
6
CONTINUOUS
10
186.2
20
-64.0091
11
186.109
21
-63.9629
0
LINE
8
BLACK
6
CONTINUOUS
10
186.109
20
-63.9629
11
186.037
21
-63.891
0
LINE
8
BLACK
6
CONTINUOUS
10
186.037
20
-63.891
11
185.991
21
-63.8004
0
LINE
8
BLACK
6
CONTINUOUS
10
185.991
20
-63.8004
11
185.975
21
-63.7
0
LINE
8
BLACK
6
CONTINUOUS
10
185.975
20
-63.7
11
185.975
21
-63.7
0
LINE
8
BLACK
6
CONTINUOUS
10
185.975
20
-63.7
11
185.975
21
-50.3
0
LINE
8
BLACK
6
CONTINUOUS
10
185.975
20
-50.3
11
185.991
21
-50.1996
0
LINE
8
BLACK
6
CONTINUOUS
10
185.991
20
-50.1996
11
186.037
21
-50.109
0
LINE
8
BLACK
6
CONTINUOUS
10
186.037
20
-50.109
11
186.109
21
-50.0371
0
LINE
8
BLACK
6
CONTINUOUS
10
186.109
20
-50.0371
11
186.2
21
-49.9909
0
LINE
8
BLACK
6
CONTINUOUS
10
186.2
20
-49.9909
11
186.3
21
-49.975
0
LINE
8
BLACK
6
CONTINUOUS
10
186.3
20
-49.975
11
199.7
21
-49.975
0
LINE
8
BLACK
6
CONTINUOUS
10
186.3
20
-50.025
11
186.256
21
-50.025
0
LINE
8
BLACK
6
CONTINUOUS
10
186.256
20
-50.025
11
186.174
21
-50.0519
0
LINE
8
BLACK
6
CONTINUOUS
10
186.174
20
-50.0519
11
186.103
21
-50.1031
0
LINE
8
BLACK
6
CONTINUOUS
10
186.103
20
-50.1031
11
186.052
21
-50.1736
0
LINE
8
BLACK
6
CONTINUOUS
10
186.052
20
-50.1736
11
186.025
21
-50.2564
0
LINE
8
BLACK
6
CONTINUOUS
10
186.025
20
-50.2564
11
186.025
21
-50.3
0
LINE
8
BLACK
6
CONTINUOUS
10
186.025
20
-50.3
11
186.025
21
-63.7
0
LINE
8
BLACK
6
CONTINUOUS
10
186.025
20
-63.7
11
186.025
21
-63.7436
0
LINE
8
BLACK
6
CONTINUOUS
10
186.025
20
-63.7436
11
186.052
21
-63.8264
0
LINE
8
BLACK
6
CONTINUOUS
10
186.052
20
-63.8264
11
186.103
21
-63.8969
0
LINE
8
BLACK
6
CONTINUOUS
10
186.103
20
-63.8969
11
186.174
21
-63.9481
0
LINE
8
BLACK
6
CONTINUOUS
10
186.174
20
-63.9481
11
186.256
21
-63.975
0
LINE
8
BLACK
6
CONTINUOUS
10
186.256
20
-63.975
11
186.3
21
-63.975
0
LINE
8
BLACK
6
CONTINUOUS
10
186.3
20
-63.975
11
199.7
21
-63.975
0
LINE
8
BLACK
6
CONTINUOUS
10
199.7
20
-63.975
11
199.744
21
-63.975
0
LINE
8
BLACK
6
CONTINUOUS
10
199.744
20
-63.975
11
199.826
21
-63.9481
0
LINE
8
BLACK
6
CONTINUOUS
10
199.826
20
-63.9481
11
199.897
21
-63.8969
0
LINE
8
BLACK
6
CONTINUOUS
10
199.897
20
-63.8969
11
199.948
21
-63.8264
0
LINE
8
BLACK
6
CONTINUOUS
10
199.948
20
-63.8264
11
199.975
21
-63.7436
0
LINE
8
BLACK
6
CONTINUOUS
10
199.975
20
-63.7436
11
199.975
21
-63.7
0
LINE
8
BLACK
6
CONTINUOUS
10
199.975
20
-63.7
11
199.975
21
-63.7
0
LINE
8
BLACK
6
CONTINUOUS
10
199.975
20
-63.7
11
199.975
21
-50.3
0
LINE
8
BLACK
6
CONTINUOUS
10
199.975
20
-50.3
11
199.975
21
-50.2564
0
LINE
8
BLACK
6
CONTINUOUS
10
199.975
20
-50.2564
11
199.948
21
-50.1736
0
LINE
8
BLACK
6
CONTINUOUS
10
199.948
20
-50.1736
11
199.897
21
-50.1031
0
LINE
8
BLACK
6
CONTINUOUS
10
199.897
20
-50.1031
11
199.826
21
-50.0519
0
LINE
8
BLACK
6
CONTINUOUS
10
199.826
20
-50.0519
11
199.744
21
-50.025
0
LINE
8
BLACK
6
CONTINUOUS
10
199.744
20
-50.025
11
199.7
21
-50.025
0
LINE
8
BLACK
6
CONTINUOUS
10
199.7
20
-50.025
11
186.3
21
-50.025
0
LINE
8
BLACK
6
CONTINUOUS
10
218.7
20
-49.975
11
218.8
21
-49.9909
0
LINE
8
BLACK
6
CONTINUOUS
10
218.8
20
-49.9909
11
218.891
21
-50.0371
0
LINE
8
BLACK
6
CONTINUOUS
10
218.891
20
-50.0371
11
218.963
21
-50.109
0
LINE
8
BLACK
6
CONTINUOUS
10
218.963
20
-50.109
11
219.009
21
-50.1996
0
LINE
8
BLACK
6
CONTINUOUS
10
219.009
20
-50.1996
11
219.025
21
-50.3
0
LINE
8
BLACK
6
CONTINUOUS
10
219.025
20
-50.3
11
219.025
21
-63.7
0
LINE
8
BLACK
6
CONTINUOUS
10
219.025
20
-63.7
11
219.025
21
-63.7
0
LINE
8
BLACK
6
CONTINUOUS
10
219.025
20
-63.7
11
219.009
21
-63.8004
0
LINE
8
BLACK
6
CONTINUOUS
10
219.009
20
-63.8004
11
218.963
21
-63.891
0
LINE
8
BLACK
6
CONTINUOUS
10
218.963
20
-63.891
11
218.891
21
-63.9629
0
LINE
8
BLACK
6
CONTINUOUS
10
218.891
20
-63.9629
11
218.8
21
-64.0091
0
LINE
8
BLACK
6
CONTINUOUS
10
218.8
20
-64.0091
11
218.7
21
-64.025
0
LINE
8
BLACK
6
CONTINUOUS
10
218.7
20
-64.025
11
205.3
21
-64.025
0
LINE
8
BLACK
6
CONTINUOUS
10
205.3
20
-64.025
11
205.2
21
-64.0091
0
LINE
8
BLACK
6
CONTINUOUS
10
205.2
20
-64.0091
11
205.109
21
-63.9629
0
LINE
8
BLACK
6
CONTINUOUS
10
205.109
20
-63.9629
11
205.037
21
-63.891
0
LINE
8
BLACK
6
CONTINUOUS
10
205.037
20
-63.891
11
204.991
21
-63.8004
0
LINE
8
BLACK
6
CONTINUOUS
10
204.991
20
-63.8004
11
204.975
21
-63.7
0
LINE
8
BLACK
6
CONTINUOUS
10
204.975
20
-63.7
11
204.975
21
-63.7
0
LINE
8
BLACK
6
CONTINUOUS
10
204.975
20
-63.7
11
204.975
21
-50.3
0
LINE
8
BLACK
6
CONTINUOUS
10
204.975
20
-50.3
11
204.975
21
-50.3
0
LINE
8
BLACK
6
CONTINUOUS
10
204.975
20
-50.3
11
204.991
21
-50.1996
0
LINE
8
BLACK
6
CONTINUOUS
10
204.991
20
-50.1996
11
205.037
21
-50.109
0
LINE
8
BLACK
6
CONTINUOUS
10
205.037
20
-50.109
11
205.109
21
-50.0371
0
LINE
8
BLACK
6
CONTINUOUS
10
205.109
20
-50.0371
11
205.2
21
-49.9909
0
LINE
8
BLACK
6
CONTINUOUS
10
205.2
20
-49.9909
11
205.3
21
-49.975
0
LINE
8
BLACK
6
CONTINUOUS
10
205.3
20
-49.975
11
218.7
21
-49.975
0
LINE
8
BLACK
6
CONTINUOUS
10
205.3
20
-50.025
11
205.256
21
-50.025
0
LINE
8
BLACK
6
CONTINUOUS
10
205.256
20
-50.025
11
205.174
21
-50.0519
0
LINE
8
BLACK
6
CONTINUOUS
10
205.174
20
-50.0519
11
205.103
21
-50.1031
0
LINE
8
BLACK
6
CONTINUOUS
10
205.103
20
-50.1031
11
205.052
21
-50.1736
0
LINE
8
BLACK
6
CONTINUOUS
10
205.052
20
-50.1736
11
205.025
21
-50.2564
0
LINE
8
BLACK
6
CONTINUOUS
10
205.025
20
-50.2564
11
205.025
21
-50.3
0
LINE
8
BLACK
6
CONTINUOUS
10
205.025
20
-50.3
11
205.025
21
-63.7
0
LINE
8
BLACK
6
CONTINUOUS
10
205.025
20
-63.7
11
205.025
21
-63.7
0
LINE
8
BLACK
6
CONTINUOUS
10
205.025
20
-63.7
11
205.025
21
-63.7436
0
LINE
8
BLACK
6
CONTINUOUS
10
205.025
20
-63.7436
11
205.052
21
-63.8264
0
LINE
8
BLACK
6
CONTINUOUS
10
205.052
20
-63.8264
11
205.103
21
-63.8969
0
LINE
8
BLACK
6
CONTINUOUS
10
205.103
20
-63.8969
11
205.174
21
-63.9481
0
LINE
8
BLACK
6
CONTINUOUS
10
205.174
20
-63.9481
11
205.256
21
-63.975
0
LINE
8
BLACK
6
CONTINUOUS
10
205.256
20
-63.975
11
205.3
21
-63.975
0
LINE
8
BLACK
6
CONTINUOUS
10
205.3
20
-63.975
11
218.7
21
-63.975
0
LINE
8
BLACK
6
CONTINUOUS
10
218.7
20
-63.975
11
218.744
21
-63.975
0
LINE
8
BLACK
6
CONTINUOUS
10
218.744
20
-63.975
11
218.826
21
-63.9481
0
LINE
8
BLACK
6
CONTINUOUS
10
218.826
20
-63.9481
11
218.897
21
-63.8969
0
LINE
8
BLACK
6
CONTINUOUS
10
218.897
20
-63.8969
11
218.948
21
-63.8264
0
LINE
8
BLACK
6
CONTINUOUS
10
218.948
20
-63.8264
11
218.975
21
-63.7436
0
LINE
8
BLACK
6
CONTINUOUS
10
218.975
20
-63.7436
11
218.975
21
-63.7
0
LINE
8
BLACK
6
CONTINUOUS
10
218.975
20
-63.7
11
218.975
21
-63.7
0
LINE
8
BLACK
6
CONTINUOUS
10
218.975
20
-63.7
11
218.975
21
-50.3
0
LINE
8
BLACK
6
CONTINUOUS
10
218.975
20
-50.3
11
218.975
21
-50.2564
0
LINE
8
BLACK
6
CONTINUOUS
10
218.975
20
-50.2564
11
218.948
21
-50.1736
0
LINE
8
BLACK
6
CONTINUOUS
10
218.948
20
-50.1736
11
218.897
21
-50.1031
0
LINE
8
BLACK
6
CONTINUOUS
10
218.897
20
-50.1031
11
218.826
21
-50.0519
0
LINE
8
BLACK
6
CONTINUOUS
10
218.826
20
-50.0519
11
218.744
21
-50.025
0
LINE
8
BLACK
6
CONTINUOUS
10
218.744
20
-50.025
11
218.7
21
-50.025
0
LINE
8
BLACK
6
CONTINUOUS
10
218.7
20
-50.025
11
205.3
21
-50.025
0
LINE
8
BLACK
6
CONTINUOUS
10
123.7
20
-47.975
11
123.8
21
-47.9909
0
LINE
8
BLACK
6
CONTINUOUS
10
123.8
20
-47.9909
11
123.891
21
-48.0371
0
LINE
8
BLACK
6
CONTINUOUS
10
123.891
20
-48.0371
11
123.963
21
-48.109
0
LINE
8
BLACK
6
CONTINUOUS
10
123.963
20
-48.109
11
124.009
21
-48.1996
0
LINE
8
BLACK
6
CONTINUOUS
10
124.009
20
-48.1996
11
124.025
21
-48.3
0
LINE
8
BLACK
6
CONTINUOUS
10
124.025
20
-48.3
11
124.025
21
-61.7
0
LINE
8
BLACK
6
CONTINUOUS
10
124.025
20
-61.7
11
124.025
21
-61.7
0
LINE
8
BLACK
6
CONTINUOUS
10
124.025
20
-61.7
11
124.009
21
-61.8004
0
LINE
8
BLACK
6
CONTINUOUS
10
124.009
20
-61.8004
11
123.963
21
-61.891
0
LINE
8
BLACK
6
CONTINUOUS
10
123.963
20
-61.891
11
123.891
21
-61.9629
0
LINE
8
BLACK
6
CONTINUOUS
10
123.891
20
-61.9629
11
123.8
21
-62.0091
0
LINE
8
BLACK
6
CONTINUOUS
10
123.8
20
-62.0091
11
123.7
21
-62.025
0
LINE
8
BLACK
6
CONTINUOUS
10
123.7
20
-62.025
11
110.3
21
-62.025
0
LINE
8
BLACK
6
CONTINUOUS
10
110.3
20
-62.025
11
110.2
21
-62.0091
0
LINE
8
BLACK
6
CONTINUOUS
10
110.2
20
-62.0091
11
110.109
21
-61.9629
0
LINE
8
BLACK
6
CONTINUOUS
10
110.109
20
-61.9629
11
110.037
21
-61.891
0
LINE
8
BLACK
6
CONTINUOUS
10
110.037
20
-61.891
11
109.991
21
-61.8004
0
LINE
8
BLACK
6
CONTINUOUS
10
109.991
20
-61.8004
11
109.975
21
-61.7
0
LINE
8
BLACK
6
CONTINUOUS
10
109.975
20
-61.7
11
109.975
21
-48.3
0
LINE
8
BLACK
6
CONTINUOUS
10
109.975
20
-48.3
11
109.991
21
-48.1996
0
LINE
8
BLACK
6
CONTINUOUS
10
109.991
20
-48.1996
11
110.037
21
-48.109
0
LINE
8
BLACK
6
CONTINUOUS
10
110.037
20
-48.109
11
110.109
21
-48.0371
0
LINE
8
BLACK
6
CONTINUOUS
10
110.109
20
-48.0371
11
110.2
21
-47.9909
0
LINE
8
BLACK
6
CONTINUOUS
10
110.2
20
-47.9909
11
110.3
21
-47.975
0
LINE
8
BLACK
6
CONTINUOUS
10
110.3
20
-47.975
11
123.7
21
-47.975
0
LINE
8
BLACK
6
CONTINUOUS
10
110.3
20
-48.025
11
110.256
21
-48.025
0
LINE
8
BLACK
6
CONTINUOUS
10
110.256
20
-48.025
11
110.174
21
-48.0519
0
LINE
8
BLACK
6
CONTINUOUS
10
110.174
20
-48.0519
11
110.103
21
-48.1031
0
LINE
8
BLACK
6
CONTINUOUS
10
110.103
20
-48.1031
11
110.052
21
-48.1736
0
LINE
8
BLACK
6
CONTINUOUS
10
110.052
20
-48.1736
11
110.025
21
-48.2564
0
LINE
8
BLACK
6
CONTINUOUS
10
110.025
20
-48.2564
11
110.025
21
-48.3
0
LINE
8
BLACK
6
CONTINUOUS
10
110.025
20
-48.3
11
110.025
21
-61.7
0
LINE
8
BLACK
6
CONTINUOUS
10
110.025
20
-61.7
11
110.025
21
-61.7
0
LINE
8
BLACK
6
CONTINUOUS
10
110.025
20
-61.7
11
110.025
21
-61.7436
0
LINE
8
BLACK
6
CONTINUOUS
10
110.025
20
-61.7436
11
110.052
21
-61.8264
0
LINE
8
BLACK
6
CONTINUOUS
10
110.052
20
-61.8264
11
110.103
21
-61.8969
0
LINE
8
BLACK
6
CONTINUOUS
10
110.103
20
-61.8969
11
110.174
21
-61.9481
0
LINE
8
BLACK
6
CONTINUOUS
10
110.174
20
-61.9481
11
110.256
21
-61.975
0
LINE
8
BLACK
6
CONTINUOUS
10
110.256
20
-61.975
11
110.3
21
-61.975
0
LINE
8
BLACK
6
CONTINUOUS
10
110.3
20
-61.975
11
123.7
21
-61.975
0
LINE
8
BLACK
6
CONTINUOUS
10
123.7
20
-61.975
11
123.744
21
-61.975
0
LINE
8
BLACK
6
CONTINUOUS
10
123.744
20
-61.975
11
123.826
21
-61.9481
0
LINE
8
BLACK
6
CONTINUOUS
10
123.826
20
-61.9481
11
123.897
21
-61.8969
0
LINE
8
BLACK
6
CONTINUOUS
10
123.897
20
-61.8969
11
123.948
21
-61.8264
0
LINE
8
BLACK
6
CONTINUOUS
10
123.948
20
-61.8264
11
123.975
21
-61.7436
0
LINE
8
BLACK
6
CONTINUOUS
10
123.975
20
-61.7436
11
123.975
21
-61.7
0
LINE
8
BLACK
6
CONTINUOUS
10
123.975
20
-61.7
11
123.975
21
-48.3
0
LINE
8
BLACK
6
CONTINUOUS
10
123.975
20
-48.3
11
123.975
21
-48.2564
0
LINE
8
BLACK
6
CONTINUOUS
10
123.975
20
-48.2564
11
123.948
21
-48.1736
0
LINE
8
BLACK
6
CONTINUOUS
10
123.948
20
-48.1736
11
123.897
21
-48.1031
0
LINE
8
BLACK
6
CONTINUOUS
10
123.897
20
-48.1031
11
123.826
21
-48.0519
0
LINE
8
BLACK
6
CONTINUOUS
10
123.826
20
-48.0519
11
123.744
21
-48.025
0
LINE
8
BLACK
6
CONTINUOUS
10
123.744
20
-48.025
11
123.7
21
-48.025
0
LINE
8
BLACK
6
CONTINUOUS
10
123.7
20
-48.025
11
110.3
21
-48.025
0
LINE
8
BLACK
6
CONTINUOUS
10
180.7
20
-44.975
11
180.8
21
-44.9909
0
LINE
8
BLACK
6
CONTINUOUS
10
180.8
20
-44.9909
11
180.891
21
-45.0371
0
LINE
8
BLACK
6
CONTINUOUS
10
180.891
20
-45.0371
11
180.963
21
-45.109
0
LINE
8
BLACK
6
CONTINUOUS
10
180.963
20
-45.109
11
181.009
21
-45.1996
0
LINE
8
BLACK
6
CONTINUOUS
10
181.009
20
-45.1996
11
181.025
21
-45.3
0
LINE
8
BLACK
6
CONTINUOUS
10
181.025
20
-45.3
11
181.025
21
-58.7
0
LINE
8
BLACK
6
CONTINUOUS
10
181.025
20
-58.7
11
181.009
21
-58.8004
0
LINE
8
BLACK
6
CONTINUOUS
10
181.009
20
-58.8004
11
180.963
21
-58.891
0
LINE
8
BLACK
6
CONTINUOUS
10
180.963
20
-58.891
11
180.891
21
-58.9629
0
LINE
8
BLACK
6
CONTINUOUS
10
180.891
20
-58.9629
11
180.8
21
-59.0091
0
LINE
8
BLACK
6
CONTINUOUS
10
180.8
20
-59.0091
11
180.7
21
-59.025
0
LINE
8
BLACK
6
CONTINUOUS
10
180.7
20
-59.025
11
167.3
21
-59.025
0
LINE
8
BLACK
6
CONTINUOUS
10
167.3
20
-59.025
11
167.2
21
-59.0091
0
LINE
8
BLACK
6
CONTINUOUS
10
167.2
20
-59.0091
11
167.109
21
-58.9629
0
LINE
8
BLACK
6
CONTINUOUS
10
167.109
20
-58.9629
11
167.037
21
-58.891
0
LINE
8
BLACK
6
CONTINUOUS
10
167.037
20
-58.891
11
166.991
21
-58.8004
0
LINE
8
BLACK
6
CONTINUOUS
10
166.991
20
-58.8004
11
166.975
21
-58.7
0
LINE
8
BLACK
6
CONTINUOUS
10
166.975
20
-58.7
11
166.975
21
-45.3
0
LINE
8
BLACK
6
CONTINUOUS
10
166.975
20
-45.3
11
166.991
21
-45.1996
0
LINE
8
BLACK
6
CONTINUOUS
10
166.991
20
-45.1996
11
167.037
21
-45.109
0
LINE
8
BLACK
6
CONTINUOUS
10
167.037
20
-45.109
11
167.109
21
-45.0371
0
LINE
8
BLACK
6
CONTINUOUS
10
167.109
20
-45.0371
11
167.2
21
-44.9909
0
LINE
8
BLACK
6
CONTINUOUS
10
167.2
20
-44.9909
11
167.3
21
-44.975
0
LINE
8
BLACK
6
CONTINUOUS
10
167.3
20
-44.975
11
180.7
21
-44.975
0
LINE
8
BLACK
6
CONTINUOUS
10
167.3
20
-45.025
11
167.256
21
-45.025
0
LINE
8
BLACK
6
CONTINUOUS
10
167.256
20
-45.025
11
167.174
21
-45.0519
0
LINE
8
BLACK
6
CONTINUOUS
10
167.174
20
-45.0519
11
167.103
21
-45.1031
0
LINE
8
BLACK
6
CONTINUOUS
10
167.103
20
-45.1031
11
167.052
21
-45.1736
0
LINE
8
BLACK
6
CONTINUOUS
10
167.052
20
-45.1736
11
167.025
21
-45.2564
0
LINE
8
BLACK
6
CONTINUOUS
10
167.025
20
-45.2564
11
167.025
21
-45.3
0
LINE
8
BLACK
6
CONTINUOUS
10
167.025
20
-45.3
11
167.025
21
-58.7
0
LINE
8
BLACK
6
CONTINUOUS
10
167.025
20
-58.7
11
167.025
21
-58.7436
0
LINE
8
BLACK
6
CONTINUOUS
10
167.025
20
-58.7436
11
167.052
21
-58.8264
0
LINE
8
BLACK
6
CONTINUOUS
10
167.052
20
-58.8264
11
167.103
21
-58.8969
0
LINE
8
BLACK
6
CONTINUOUS
10
167.103
20
-58.8969
11
167.174
21
-58.9481
0
LINE
8
BLACK
6
CONTINUOUS
10
167.174
20
-58.9481
11
167.256
21
-58.975
0
LINE
8
BLACK
6
CONTINUOUS
10
167.256
20
-58.975
11
167.3
21
-58.975
0
LINE
8
BLACK
6
CONTINUOUS
10
167.3
20
-58.975
11
180.7
21
-58.975
0
LINE
8
BLACK
6
CONTINUOUS
10
180.7
20
-58.975
11
180.744
21
-58.975
0
LINE
8
BLACK
6
CONTINUOUS
10
180.744
20
-58.975
11
180.826
21
-58.9481
0
LINE
8
BLACK
6
CONTINUOUS
10
180.826
20
-58.9481
11
180.897
21
-58.8969
0
LINE
8
BLACK
6
CONTINUOUS
10
180.897
20
-58.8969
11
180.948
21
-58.8264
0
LINE
8
BLACK
6
CONTINUOUS
10
180.948
20
-58.8264
11
180.975
21
-58.7436
0
LINE
8
BLACK
6
CONTINUOUS
10
180.975
20
-58.7436
11
180.975
21
-58.7
0
LINE
8
BLACK
6
CONTINUOUS
10
180.975
20
-58.7
11
180.975
21
-58.7
0
LINE
8
BLACK
6
CONTINUOUS
10
180.975
20
-58.7
11
180.975
21
-45.3
0
LINE
8
BLACK
6
CONTINUOUS
10
180.975
20
-45.3
11
180.975
21
-45.2564
0
LINE
8
BLACK
6
CONTINUOUS
10
180.975
20
-45.2564
11
180.948
21
-45.1736
0
LINE
8
BLACK
6
CONTINUOUS
10
180.948
20
-45.1736
11
180.897
21
-45.1031
0
LINE
8
BLACK
6
CONTINUOUS
10
180.897
20
-45.1031
11
180.826
21
-45.0519
0
LINE
8
BLACK
6
CONTINUOUS
10
180.826
20
-45.0519
11
180.744
21
-45.025
0
LINE
8
BLACK
6
CONTINUOUS
10
180.744
20
-45.025
11
180.7
21
-45.025
0
LINE
8
BLACK
6
CONTINUOUS
10
180.7
20
-45.025
11
167.3
21
-45.025
0
LINE
8
BLACK
6
CONTINUOUS
10
142.7
20
-44.475
11
142.8
21
-44.4909
0
LINE
8
BLACK
6
CONTINUOUS
10
142.8
20
-44.4909
11
142.891
21
-44.5371
0
LINE
8
BLACK
6
CONTINUOUS
10
142.891
20
-44.5371
11
142.963
21
-44.609
0
LINE
8
BLACK
6
CONTINUOUS
10
142.963
20
-44.609
11
143.009
21
-44.6996
0
LINE
8
BLACK
6
CONTINUOUS
10
143.009
20
-44.6996
11
143.025
21
-44.8
0
LINE
8
BLACK
6
CONTINUOUS
10
143.025
20
-44.8
11
143.025
21
-58.2
0
LINE
8
BLACK
6
CONTINUOUS
10
143.025
20
-58.2
11
143.009
21
-58.3004
0
LINE
8
BLACK
6
CONTINUOUS
10
143.009
20
-58.3004
11
142.963
21
-58.391
0
LINE
8
BLACK
6
CONTINUOUS
10
142.963
20
-58.391
11
142.891
21
-58.4629
0
LINE
8
BLACK
6
CONTINUOUS
10
142.891
20
-58.4629
11
142.8
21
-58.5091
0
LINE
8
BLACK
6
CONTINUOUS
10
142.8
20
-58.5091
11
142.7
21
-58.525
0
LINE
8
BLACK
6
CONTINUOUS
10
142.7
20
-58.525
11
129.3
21
-58.525
0
LINE
8
BLACK
6
CONTINUOUS
10
129.3
20
-58.525
11
129.2
21
-58.5091
0
LINE
8
BLACK
6
CONTINUOUS
10
129.2
20
-58.5091
11
129.109
21
-58.4629
0
LINE
8
BLACK
6
CONTINUOUS
10
129.109
20
-58.4629
11
129.037
21
-58.391
0
LINE
8
BLACK
6
CONTINUOUS
10
129.037
20
-58.391
11
128.991
21
-58.3004
0
LINE
8
BLACK
6
CONTINUOUS
10
128.991
20
-58.3004
11
128.975
21
-58.2
0
LINE
8
BLACK
6
CONTINUOUS
10
128.975
20
-58.2
11
128.975
21
-44.8
0
LINE
8
BLACK
6
CONTINUOUS
10
128.975
20
-44.8
11
128.991
21
-44.6996
0
LINE
8
BLACK
6
CONTINUOUS
10
128.991
20
-44.6996
11
129.037
21
-44.609
0
LINE
8
BLACK
6
CONTINUOUS
10
129.037
20
-44.609
11
129.109
21
-44.5371
0
LINE
8
BLACK
6
CONTINUOUS
10
129.109
20
-44.5371
11
129.2
21
-44.4909
0
LINE
8
BLACK
6
CONTINUOUS
10
129.2
20
-44.4909
11
129.3
21
-44.475
0
LINE
8
BLACK
6
CONTINUOUS
10
129.3
20
-44.475
11
142.7
21
-44.475
0
LINE
8
BLACK
6
CONTINUOUS
10
129.3
20
-44.525
11
129.256
21
-44.525
0
LINE
8
BLACK
6
CONTINUOUS
10
129.256
20
-44.525
11
129.174
21
-44.5519
0
LINE
8
BLACK
6
CONTINUOUS
10
129.174
20
-44.5519
11
129.103
21
-44.6031
0
LINE
8
BLACK
6
CONTINUOUS
10
129.103
20
-44.6031
11
129.052
21
-44.6736
0
LINE
8
BLACK
6
CONTINUOUS
10
129.052
20
-44.6736
11
129.025
21
-44.7564
0
LINE
8
BLACK
6
CONTINUOUS
10
129.025
20
-44.7564
11
129.025
21
-44.8
0
LINE
8
BLACK
6
CONTINUOUS
10
129.025
20
-44.8
11
129.025
21
-58.2
0
LINE
8
BLACK
6
CONTINUOUS
10
129.025
20
-58.2
11
129.025
21
-58.2
0
LINE
8
BLACK
6
CONTINUOUS
10
129.025
20
-58.2
11
129.025
21
-58.2436
0
LINE
8
BLACK
6
CONTINUOUS
10
129.025
20
-58.2436
11
129.052
21
-58.3264
0
LINE
8
BLACK
6
CONTINUOUS
10
129.052
20
-58.3264
11
129.103
21
-58.3969
0
LINE
8
BLACK
6
CONTINUOUS
10
129.103
20
-58.3969
11
129.174
21
-58.4481
0
LINE
8
BLACK
6
CONTINUOUS
10
129.174
20
-58.4481
11
129.256
21
-58.475
0
LINE
8
BLACK
6
CONTINUOUS
10
129.256
20
-58.475
11
129.3
21
-58.475
0
LINE
8
BLACK
6
CONTINUOUS
10
129.3
20
-58.475
11
142.7
21
-58.475
0
LINE
8
BLACK
6
CONTINUOUS
10
142.7
20
-58.475
11
142.744
21
-58.475
0
LINE
8
BLACK
6
CONTINUOUS
10
142.744
20
-58.475
11
142.826
21
-58.4481
0
LINE
8
BLACK
6
CONTINUOUS
10
142.826
20
-58.4481
11
142.897
21
-58.3969
0
LINE
8
BLACK
6
CONTINUOUS
10
142.897
20
-58.3969
11
142.948
21
-58.3264
0
LINE
8
BLACK
6
CONTINUOUS
10
142.948
20
-58.3264
11
142.975
21
-58.2436
0
LINE
8
BLACK
6
CONTINUOUS
10
142.975
20
-58.2436
11
142.975
21
-58.2
0
LINE
8
BLACK
6
CONTINUOUS
10
142.975
20
-58.2
11
142.975
21
-44.8
0
LINE
8
BLACK
6
CONTINUOUS
10
142.975
20
-44.8
11
142.975
21
-44.7564
0
LINE
8
BLACK
6
CONTINUOUS
10
142.975
20
-44.7564
11
142.948
21
-44.6736
0
LINE
8
BLACK
6
CONTINUOUS
10
142.948
20
-44.6736
11
142.897
21
-44.6031
0
LINE
8
BLACK
6
CONTINUOUS
10
142.897
20
-44.6031
11
142.826
21
-44.5519
0
LINE
8
BLACK
6
CONTINUOUS
10
142.826
20
-44.5519
11
142.744
21
-44.525
0
LINE
8
BLACK
6
CONTINUOUS
10
142.744
20
-44.525
11
142.7
21
-44.525
0
LINE
8
BLACK
6
CONTINUOUS
10
142.7
20
-44.525
11
129.3
21
-44.525
0
LINE
8
BLACK
6
CONTINUOUS
10
161.7
20
-39.975
11
161.8
21
-39.9909
0
LINE
8
BLACK
6
CONTINUOUS
10
161.8
20
-39.9909
11
161.891
21
-40.0371
0
LINE
8
BLACK
6
CONTINUOUS
10
161.891
20
-40.0371
11
161.963
21
-40.109
0
LINE
8
BLACK
6
CONTINUOUS
10
161.963
20
-40.109
11
162.009
21
-40.1996
0
LINE
8
BLACK
6
CONTINUOUS
10
162.009
20
-40.1996
11
162.025
21
-40.3
0
LINE
8
BLACK
6
CONTINUOUS
10
162.025
20
-40.3
11
162.025
21
-53.7
0
LINE
8
BLACK
6
CONTINUOUS
10
162.025
20
-53.7
11
162.009
21
-53.8004
0
LINE
8
BLACK
6
CONTINUOUS
10
162.009
20
-53.8004
11
161.963
21
-53.891
0
LINE
8
BLACK
6
CONTINUOUS
10
161.963
20
-53.891
11
161.891
21
-53.9629
0
LINE
8
BLACK
6
CONTINUOUS
10
161.891
20
-53.9629
11
161.8
21
-54.0091
0
LINE
8
BLACK
6
CONTINUOUS
10
161.8
20
-54.0091
11
161.7
21
-54.025
0
LINE
8
BLACK
6
CONTINUOUS
10
161.7
20
-54.025
11
148.3
21
-54.025
0
LINE
8
BLACK
6
CONTINUOUS
10
148.3
20
-54.025
11
148.2
21
-54.0091
0
LINE
8
BLACK
6
CONTINUOUS
10
148.2
20
-54.0091
11
148.109
21
-53.9629
0
LINE
8
BLACK
6
CONTINUOUS
10
148.109
20
-53.9629
11
148.037
21
-53.891
0
LINE
8
BLACK
6
CONTINUOUS
10
148.037
20
-53.891
11
147.991
21
-53.8004
0
LINE
8
BLACK
6
CONTINUOUS
10
147.991
20
-53.8004
11
147.975
21
-53.7
0
LINE
8
BLACK
6
CONTINUOUS
10
147.975
20
-53.7
11
147.975
21
-40.3
0
LINE
8
BLACK
6
CONTINUOUS
10
147.975
20
-40.3
11
147.991
21
-40.1996
0
LINE
8
BLACK
6
CONTINUOUS
10
147.991
20
-40.1996
11
148.037
21
-40.109
0
LINE
8
BLACK
6
CONTINUOUS
10
148.037
20
-40.109
11
148.109
21
-40.0371
0
LINE
8
BLACK
6
CONTINUOUS
10
148.109
20
-40.0371
11
148.2
21
-39.9909
0
LINE
8
BLACK
6
CONTINUOUS
10
148.2
20
-39.9909
11
148.3
21
-39.975
0
LINE
8
BLACK
6
CONTINUOUS
10
148.3
20
-39.975
11
161.7
21
-39.975
0
LINE
8
BLACK
6
CONTINUOUS
10
148.3
20
-40.025
11
148.256
21
-40.025
0
LINE
8
BLACK
6
CONTINUOUS
10
148.256
20
-40.025
11
148.174
21
-40.0519
0
LINE
8
BLACK
6
CONTINUOUS
10
148.174
20
-40.0519
11
148.103
21
-40.1031
0
LINE
8
BLACK
6
CONTINUOUS
10
148.103
20
-40.1031
11
148.052
21
-40.1736
0
LINE
8
BLACK
6
CONTINUOUS
10
148.052
20
-40.1736
11
148.025
21
-40.2564
0
LINE
8
BLACK
6
CONTINUOUS
10
148.025
20
-40.2564
11
148.025
21
-40.3
0
LINE
8
BLACK
6
CONTINUOUS
10
148.025
20
-40.3
11
148.025
21
-53.7
0
LINE
8
BLACK
6
CONTINUOUS
10
148.025
20
-53.7
11
148.025
21
-53.7436
0
LINE
8
BLACK
6
CONTINUOUS
10
148.025
20
-53.7436
11
148.052
21
-53.8264
0
LINE
8
BLACK
6
CONTINUOUS
10
148.052
20
-53.8264
11
148.103
21
-53.8969
0
LINE
8
BLACK
6
CONTINUOUS
10
148.103
20
-53.8969
11
148.174
21
-53.9481
0
LINE
8
BLACK
6
CONTINUOUS
10
148.174
20
-53.9481
11
148.256
21
-53.975
0
LINE
8
BLACK
6
CONTINUOUS
10
148.256
20
-53.975
11
148.3
21
-53.975
0
LINE
8
BLACK
6
CONTINUOUS
10
148.3
20
-53.975
11
161.7
21
-53.975
0
LINE
8
BLACK
6
CONTINUOUS
10
161.7
20
-53.975
11
161.744
21
-53.975
0
LINE
8
BLACK
6
CONTINUOUS
10
161.744
20
-53.975
11
161.826
21
-53.9481
0
LINE
8
BLACK
6
CONTINUOUS
10
161.826
20
-53.9481
11
161.897
21
-53.8969
0
LINE
8
BLACK
6
CONTINUOUS
10
161.897
20
-53.8969
11
161.948
21
-53.8264
0
LINE
8
BLACK
6
CONTINUOUS
10
161.948
20
-53.8264
11
161.975
21
-53.7436
0
LINE
8
BLACK
6
CONTINUOUS
10
161.975
20
-53.7436
11
161.975
21
-53.7
0
LINE
8
BLACK
6
CONTINUOUS
10
161.975
20
-53.7
11
161.975
21
-40.3
0
LINE
8
BLACK
6
CONTINUOUS
10
161.975
20
-40.3
11
161.975
21
-40.2564
0
LINE
8
BLACK
6
CONTINUOUS
10
161.975
20
-40.2564
11
161.948
21
-40.1736
0
LINE
8
BLACK
6
CONTINUOUS
10
161.948
20
-40.1736
11
161.897
21
-40.1031
0
LINE
8
BLACK
6
CONTINUOUS
10
161.897
20
-40.1031
11
161.826
21
-40.0519
0
LINE
8
BLACK
6
CONTINUOUS
10
161.826
20
-40.0519
11
161.744
21
-40.025
0
LINE
8
BLACK
6
CONTINUOUS
10
161.744
20
-40.025
11
161.7
21
-40.025
0
LINE
8
BLACK
6
CONTINUOUS
10
161.7
20
-40.025
11
148.3
21
-40.025
0
LINE
8
BLACK
6
CONTINUOUS
10
175.893
20
-37.9
11
177.834
21
-37.9188
0
LINE
8
BLACK
6
CONTINUOUS
10
177.834
20
-37.9188
11
179.774
21
-37.9753
0
LINE
8
BLACK
6
CONTINUOUS
10
179.774
20
-37.9753
11
181.713
21
-38.0694
0
LINE
8
BLACK
6
CONTINUOUS
10
181.713
20
-38.0694
11
183.65
21
-38.201
0
LINE
8
BLACK
6
CONTINUOUS
10
183.65
20
-38.201
11
185.583
21
-38.3702
0
LINE
8
BLACK
6
CONTINUOUS
10
185.583
20
-38.3702
11
187.513
21
-38.5768
0
LINE
8
BLACK
6
CONTINUOUS
10
187.513
20
-38.5768
11
189.439
21
-38.8209
0
LINE
8
BLACK
6
CONTINUOUS
10
189.439
20
-38.8209
11
191.36
21
-39.1022
0
LINE
8
BLACK
6
CONTINUOUS
10
191.36
20
-39.1022
11
193.275
21
-39.4207
0
LINE
8
BLACK
6
CONTINUOUS
10
193.275
20
-39.4207
11
195.183
21
-39.7763
0
LINE
8
BLACK
6
CONTINUOUS
10
195.183
20
-39.7763
11
197.084
21
-40.1689
0
LINE
8
BLACK
6
CONTINUOUS
10
197.084
20
-40.1689
11
198.977
21
-40.5982
0
LINE
8
BLACK
6
CONTINUOUS
10
198.977
20
-40.5982
11
200.862
21
-41.0642
0
LINE
8
BLACK
6
CONTINUOUS
10
200.862
20
-41.0642
11
202.737
21
-41.5666
0
LINE
8
BLACK
6
CONTINUOUS
10
202.737
20
-41.5666
11
204.602
21
-42.1052
0
LINE
8
BLACK
6
CONTINUOUS
10
204.602
20
-42.1052
11
206.456
21
-42.68
0
LINE
8
BLACK
6
CONTINUOUS
10
206.456
20
-42.68
11
208.298
21
-43.2906
0
LINE
8
BLACK
6
CONTINUOUS
10
208.298
20
-43.2906
11
210.129
21
-43.9368
0
LINE
8
BLACK
6
CONTINUOUS
10
210.129
20
-43.9368
11
210.129
21
-43.9368
0
LINE
8
BLACK
6
CONTINUOUS
10
210.129
20
-43.9368
11
215.112
21
-45.7507
0
LINE
8
BLACK
6
CONTINUOUS
10
215.112
20
-45.7507
11
215.112
21
-45.7507
0
LINE
8
BLACK
6
CONTINUOUS
10
215.112
20
-45.7507
11
215.112
21
-45.7507
0
LINE
8
BLACK
6
CONTINUOUS
10
215.112
20
-45.7507
11
215.112
21
-45.7507
0
LINE
8
BLACK
6
CONTINUOUS
10
215.112
20
-45.7507
11
215.655
21
-45.9683
0
LINE
8
BLACK
6
CONTINUOUS
10
215.655
20
-45.9683
11
216.183
21
-46.2204
0
LINE
8
BLACK
6
CONTINUOUS
10
216.183
20
-46.2204
11
216.694
21
-46.5059
0
LINE
8
BLACK
6
CONTINUOUS
10
216.694
20
-46.5059
11
217.185
21
-46.8237
0
LINE
8
BLACK
6
CONTINUOUS
10
217.185
20
-46.8237
11
217.655
21
-47.1723
0
LINE
8
BLACK
6
CONTINUOUS
10
217.655
20
-47.1723
11
218.102
21
-47.5504
0
LINE
8
BLACK
6
CONTINUOUS
10
218.102
20
-47.5504
11
218.523
21
-47.9565
0
LINE
8
BLACK
6
CONTINUOUS
10
218.523
20
-47.9565
11
218.917
21
-48.3887
0
LINE
8
BLACK
6
CONTINUOUS
10
218.917
20
-48.3887
11
219.283
21
-48.8454
0
LINE
8
BLACK
6
CONTINUOUS
10
219.283
20
-48.8454
11
219.618
21
-49.3246
0
LINE
8
BLACK
6
CONTINUOUS
10
219.618
20
-49.3246
11
219.922
21
-49.8244
0
LINE
8
BLACK
6
CONTINUOUS
10
219.922
20
-49.8244
11
220.194
21
-50.3428
0
LINE
8
BLACK
6
CONTINUOUS
10
220.194
20
-50.3428
11
220.431
21
-50.8774
0
LINE
8
BLACK
6
CONTINUOUS
10
220.431
20
-50.8774
11
220.634
21
-51.4263
0
LINE
8
BLACK
6
CONTINUOUS
10
220.634
20
-51.4263
11
220.801
21
-51.987
0
LINE
8
BLACK
6
CONTINUOUS
10
220.801
20
-51.987
11
220.931
21
-52.5573
0
LINE
8
BLACK
6
CONTINUOUS
10
220.931
20
-52.5573
11
221.025
21
-53.1348
0
LINE
8
BLACK
6
CONTINUOUS
10
221.025
20
-53.1348
11
221.081
21
-53.7171
0
LINE
8
BLACK
6
CONTINUOUS
10
221.081
20
-53.7171
11
221.1
21
-54.3019
0
LINE
8
BLACK
6
CONTINUOUS
10
221.1
20
-54.3019
11
221.1
21
-54.3019
0
LINE
8
BLACK
6
CONTINUOUS
10
221.1
20
-54.3019
11
221.1
21
-139
0
LINE
8
BLACK
6
CONTINUOUS
10
221.1
20
-139
11
221.083
21
-139.324
0
LINE
8
BLACK
6
CONTINUOUS
10
221.083
20
-139.324
11
221.032
21
-139.645
0
LINE
8
BLACK
6
CONTINUOUS
10
221.032
20
-139.645
11
220.948
21
-139.958
0
LINE
8
BLACK
6
CONTINUOUS
10
220.948
20
-139.958
11
220.832
21
-140.261
0
LINE
8
BLACK
6
CONTINUOUS
10
220.832
20
-140.261
11
220.685
21
-140.55
0
LINE
8
BLACK
6
CONTINUOUS
10
220.685
20
-140.55
11
220.508
21
-140.822
0
LINE
8
BLACK
6
CONTINUOUS
10
220.508
20
-140.822
11
220.304
21
-141.074
0
LINE
8
BLACK
6
CONTINUOUS
10
220.304
20
-141.074
11
220.074
21
-141.304
0
LINE
8
BLACK
6
CONTINUOUS
10
220.074
20
-141.304
11
219.822
21
-141.508
0
LINE
8
BLACK
6
CONTINUOUS
10
219.822
20
-141.508
11
219.55
21
-141.685
0
LINE
8
BLACK
6
CONTINUOUS
10
219.55
20
-141.685
11
219.261
21
-141.832
0
LINE
8
BLACK
6
CONTINUOUS
10
219.261
20
-141.832
11
218.958
21
-141.948
0
LINE
8
BLACK
6
CONTINUOUS
10
218.958
20
-141.948
11
218.645
21
-142.032
0
LINE
8
BLACK
6
CONTINUOUS
10
218.645
20
-142.032
11
218.324
21
-142.083
0
LINE
8
BLACK
6
CONTINUOUS
10
218.324
20
-142.083
11
218
21
-142.1
0
LINE
8
BLACK
6
CONTINUOUS
10
218
20
-142.1
11
154.271
21
-142.1
0
LINE
8
BLACK
6
CONTINUOUS
10
154.271
20
-142.1
11
154.27
21
-142.1
0
LINE
8
BLACK
6
CONTINUOUS
10
154.27
20
-142.1
11
153.583
21
-142.1
0
LINE
8
BLACK
6
CONTINUOUS
10
153.583
20
-142.1
11
152.208
21
-142.138
0
LINE
8
BLACK
6
CONTINUOUS
10
152.208
20
-142.138
11
150.835
21
-142.214
0
LINE
8
BLACK
6
CONTINUOUS
10
150.835
20
-142.214
11
149.465
21
-142.327
0
LINE
8
BLACK
6
CONTINUOUS
10
149.465
20
-142.327
11
148.098
21
-142.479
0
LINE
8
BLACK
6
CONTINUOUS
10
148.098
20
-142.479
11
146.735
21
-142.667
0
LINE
8
BLACK
6
CONTINUOUS
10
146.735
20
-142.667
11
145.379
21
-142.894
0
LINE
8
BLACK
6
CONTINUOUS
10
145.379
20
-142.894
11
144.029
21
-143.157
0
LINE
8
BLACK
6
CONTINUOUS
10
144.029
20
-143.157
11
142.687
21
-143.458
0
LINE
8
BLACK
6
CONTINUOUS
10
142.687
20
-143.458
11
141.354
21
-143.796
0
LINE
8
BLACK
6
CONTINUOUS
10
141.354
20
-143.796
11
140.031
21
-144.17
0
LINE
8
BLACK
6
CONTINUOUS
10
140.031
20
-144.17
11
138.718
21
-144.58
0
LINE
8
BLACK
6
CONTINUOUS
10
138.718
20
-144.58
11
137.418
21
-145.027
0
LINE
8
BLACK
6
CONTINUOUS
10
137.418
20
-145.027
11
136.13
21
-145.509
0
LINE
8
BLACK
6
CONTINUOUS
10
136.13
20
-145.509
11
134.856
21
-146.027
0
LINE
8
BLACK
6
CONTINUOUS
10
134.856
20
-146.027
11
133.596
21
-146.579
0
LINE
8
BLACK
6
CONTINUOUS
10
133.596
20
-146.579
11
132.353
21
-147.166
0
LINE
8
BLACK
6
CONTINUOUS
10
132.353
20
-147.166
11
131.125
21
-147.787
0
LINE
8
BLACK
6
CONTINUOUS
10
131.125
20
-147.787
11
129.916
21
-148.442
0
LINE
8
BLACK
6
CONTINUOUS
10
129.916
20
-148.442
11
129.321
21
-148.785
0
LINE
8
BLACK
6
CONTINUOUS
10
129.321
20
-148.785
11
109.746
21
-160.087
0
LINE
8
BLACK
6
CONTINUOUS
10
109.746
20
-160.087
11
109.746
21
-160.087
0
LINE
8
BLACK
6
CONTINUOUS
10
109.746
20
-160.087
11
109.322
21
-160.31
0
LINE
8
BLACK
6
CONTINUOUS
10
109.322
20
-160.31
11
108.882
21
-160.499
0
LINE
8
BLACK
6
CONTINUOUS
10
108.882
20
-160.499
11
108.429
21
-160.653
0
LINE
8
BLACK
6
CONTINUOUS
10
108.429
20
-160.653
11
107.964
21
-160.771
0
LINE
8
BLACK
6
CONTINUOUS
10
107.964
20
-160.771
11
107.492
21
-160.852
0
LINE
8
BLACK
6
CONTINUOUS
10
107.492
20
-160.852
11
107.015
21
-160.895
0
LINE
8
BLACK
6
CONTINUOUS
10
107.015
20
-160.895
11
106.536
21
-160.902
0
LINE
8
BLACK
6
CONTINUOUS
10
106.536
20
-160.902
11
106.059
21
-160.87
0
LINE
8
BLACK
6
CONTINUOUS
10
106.059
20
-160.87
11
105.585
21
-160.802
0
LINE
8
BLACK
6
CONTINUOUS
10
105.585
20
-160.802
11
105.117
21
-160.696
0
LINE
8
BLACK
6
CONTINUOUS
10
105.117
20
-160.696
11
104.66
21
-160.554
0
LINE
8
BLACK
6
CONTINUOUS
10
104.66
20
-160.554
11
104.215
21
-160.376
0
LINE
8
BLACK
6
CONTINUOUS
10
104.215
20
-160.376
11
103.785
21
-160.165
0
LINE
8
BLACK
6
CONTINUOUS
10
103.785
20
-160.165
11
103.374
21
-159.92
0
LINE
8
BLACK
6
CONTINUOUS
10
103.374
20
-159.92
11
102.983
21
-159.643
0
LINE
8
BLACK
6
CONTINUOUS
10
102.983
20
-159.643
11
102.614
21
-159.337
0
LINE
8
BLACK
6
CONTINUOUS
10
102.614
20
-159.337
11
102.271
21
-159.003
0
LINE
8
BLACK
6
CONTINUOUS
10
102.271
20
-159.003
11
101.956
21
-158.643
0
LINE
8
BLACK
6
CONTINUOUS
10
101.956
20
-158.643
11
101.669
21
-158.259
0
LINE
8
BLACK
6
CONTINUOUS
10
101.669
20
-158.259
11
101.413
21
-157.854
0
LINE
8
BLACK
6
CONTINUOUS
10
101.413
20
-157.854
11
101.413
21
-157.854
0
LINE
8
BLACK
6
CONTINUOUS
10
101.413
20
-157.854
11
101.413
21
-157.854
0
LINE
8
BLACK
6
CONTINUOUS
10
101.413
20
-157.854
11
89.2628
21
-136.808
0
LINE
8
BLACK
6
CONTINUOUS
10
89.2628
20
-136.808
11
89.2628
21
-136.808
0
LINE
8
BLACK
6
CONTINUOUS
10
89.2628
20
-136.808
11
88.8087
21
-135.987
0
LINE
8
BLACK
6
CONTINUOUS
10
88.8087
20
-135.987
11
88.3857
21
-135.149
0
LINE
8
BLACK
6
CONTINUOUS
10
88.3857
20
-135.149
11
87.9943
21
-134.296
0
LINE
8
BLACK
6
CONTINUOUS
10
87.9943
20
-134.296
11
87.6351
21
-133.428
0
LINE
8
BLACK
6
CONTINUOUS
10
87.6351
20
-133.428
11
87.3085
21
-132.548
0
LINE
8
BLACK
6
CONTINUOUS
10
87.3085
20
-132.548
11
87.0151
21
-131.657
0
LINE
8
BLACK
6
CONTINUOUS
10
87.0151
20
-131.657
11
86.7553
21
-130.755
0
LINE
8
BLACK
6
CONTINUOUS
10
86.7553
20
-130.755
11
86.5293
21
-129.844
0
LINE
8
BLACK
6
CONTINUOUS
10
86.5293
20
-129.844
11
86.3376
21
-128.925
0
LINE
8
BLACK
6
CONTINUOUS
10
86.3376
20
-128.925
11
86.1803
21
-127.999
0
LINE
8
BLACK
6
CONTINUOUS
10
86.1803
20
-127.999
11
86.0578
21
-127.069
0
LINE
8
BLACK
6
CONTINUOUS
10
86.0578
20
-127.069
11
85.9702
21
-126.134
0
LINE
8
BLACK
6
CONTINUOUS
10
85.9702
20
-126.134
11
85.9176
21
-125.197
0
LINE
8
BLACK
6
CONTINUOUS
10
85.9176
20
-125.197
11
85.9
21
-124.258
0
LINE
8
BLACK
6
CONTINUOUS
10
85.9
20
-124.258
11
85.9
21
-124.258
0
LINE
8
BLACK
6
CONTINUOUS
10
85.9
20
-124.258
11
85.9
21
-90.1471
0
LINE
8
BLACK
6
CONTINUOUS
10
85.9
20
-90.1471
11
85.918
21
-89.873
0
LINE
8
BLACK
6
CONTINUOUS
10
85.918
20
-89.873
11
85.9716
21
-89.6036
0
LINE
8
BLACK
6
CONTINUOUS
10
85.9716
20
-89.6036
11
86.0599
21
-89.3435
0
LINE
8
BLACK
6
CONTINUOUS
10
86.0599
20
-89.3435
11
86.1813
21
-89.0971
0
LINE
8
BLACK
6
CONTINUOUS
10
86.1813
20
-89.0971
11
86.334
21
-88.8687
0
LINE
8
BLACK
6
CONTINUOUS
10
86.334
20
-88.8687
11
86.5151
21
-88.6622
0
LINE
8
BLACK
6
CONTINUOUS
10
86.5151
20
-88.6622
11
86.7216
21
-88.4811
0
LINE
8
BLACK
6
CONTINUOUS
10
86.7216
20
-88.4811
11
86.95
21
-88.3284
0
LINE
8
BLACK
6
CONTINUOUS
10
86.95
20
-88.3284
11
87.1964
21
-88.207
0
LINE
8
BLACK
6
CONTINUOUS
10
87.1964
20
-88.207
11
87.4565
21
-88.1187
0
LINE
8
BLACK
6
CONTINUOUS
10
87.4565
20
-88.1187
11
87.7259
21
-88.0651
0
LINE
8
BLACK
6
CONTINUOUS
10
87.7259
20
-88.0651
11
88
21
-88.0471
0
LINE
8
BLACK
6
CONTINUOUS
10
88
20
-88.0471
11
88
21
-88.0471
0
LINE
8
BLACK
6
CONTINUOUS
10
88
20
-88.0471
11
105
21
-88.0471
0
LINE
8
BLACK
6
CONTINUOUS
10
105
20
-88.0471
11
105
21
-88.0471
0
LINE
8
BLACK
6
CONTINUOUS
10
105
20
-88.0471
11
105.136
21
-88.0472
0
LINE
8
BLACK
6
CONTINUOUS
10
105.136
20
-88.0472
11
105.406
21
-88.0111
0
LINE
8
BLACK
6
CONTINUOUS
10
105.406
20
-88.0111
11
105.669
21
-87.9396
0
LINE
8
BLACK
6
CONTINUOUS
10
105.669
20
-87.9396
11
105.92
21
-87.8339
0
LINE
8
BLACK
6
CONTINUOUS
10
105.92
20
-87.8339
11
106.155
21
-87.6958
0
LINE
8
BLACK
6
CONTINUOUS
10
106.155
20
-87.6958
11
106.369
21
-87.5279
0
LINE
8
BLACK
6
CONTINUOUS
10
106.369
20
-87.5279
11
106.56
21
-87.3331
0
LINE
8
BLACK
6
CONTINUOUS
10
106.56
20
-87.3331
11
106.722
21
-87.1148
0
LINE
8
BLACK
6
CONTINUOUS
10
106.722
20
-87.1148
11
106.855
21
-86.8768
0
LINE
8
BLACK
6
CONTINUOUS
10
106.855
20
-86.8768
11
106.955
21
-86.6234
0
LINE
8
BLACK
6
CONTINUOUS
10
106.955
20
-86.6234
11
107.02
21
-86.359
0
LINE
8
BLACK
6
CONTINUOUS
10
107.02
20
-86.359
11
107.05
21
-86.0882
0
LINE
8
BLACK
6
CONTINUOUS
10
107.05
20
-86.0882
11
107.043
21
-85.8159
0
LINE
8
BLACK
6
CONTINUOUS
10
107.043
20
-85.8159
11
107.001
21
-85.5469
0
LINE
8
BLACK
6
CONTINUOUS
10
107.001
20
-85.5469
11
106.923
21
-85.2858
0
LINE
8
BLACK
6
CONTINUOUS
10
106.923
20
-85.2858
11
106.812
21
-85.0374
0
LINE
8
BLACK
6
CONTINUOUS
10
106.812
20
-85.0374
11
106.668
21
-84.8059
0
LINE
8
BLACK
6
CONTINUOUS
10
106.668
20
-84.8059
11
106.495
21
-84.5954
0
LINE
8
BLACK
6
CONTINUOUS
10
106.495
20
-84.5954
11
106.296
21
-84.4097
0
LINE
8
BLACK
6
CONTINUOUS
10
106.296
20
-84.4097
11
106.074
21
-84.2521
0
LINE
8
BLACK
6
CONTINUOUS
10
106.074
20
-84.2521
11
105.953
21
-84.1887
0
LINE
8
BLACK
6
CONTINUOUS
10
105.953
20
-84.1887
11
105.953
21
-84.1887
0
LINE
8
BLACK
6
CONTINUOUS
10
105.953
20
-84.1887
11
105.928
21
-84.1655
0
LINE
8
BLACK
6
CONTINUOUS
10
105.928
20
-84.1655
11
105.919
21
-84.1588
0
LINE
8
BLACK
6
CONTINUOUS
10
105.919
20
-84.1588
11
105.918
21
-84.1562
0
LINE
8
BLACK
6
CONTINUOUS
10
105.918
20
-84.1562
11
105.915
21
-84.1535
0
LINE
8
BLACK
6
CONTINUOUS
10
105.915
20
-84.1535
11
105.9
21
-84.1041
0
LINE
8
BLACK
6
CONTINUOUS
10
105.9
20
-84.1041
11
105.901
21
-84.1018
0
LINE
8
BLACK
6
CONTINUOUS
10
105.901
20
-84.1018
11
105.9
21
-84.1
0
LINE
8
BLACK
6
CONTINUOUS
10
105.9
20
-84.1
11
105.9
21
-42.7632
0
LINE
8
BLACK
6
CONTINUOUS
10
105.9
20
-42.7632
11
105.9
21
-42.7632
0
LINE
8
BLACK
6
CONTINUOUS
10
105.9
20
-42.7632
11
105.915
21
-42.5094
0
LINE
8
BLACK
6
CONTINUOUS
10
105.915
20
-42.5094
11
105.961
21
-42.2593
0
LINE
8
BLACK
6
CONTINUOUS
10
105.961
20
-42.2593
11
106.037
21
-42.0166
0
LINE
8
BLACK
6
CONTINUOUS
10
106.037
20
-42.0166
11
106.142
21
-41.7848
0
LINE
8
BLACK
6
CONTINUOUS
10
106.142
20
-41.7848
11
106.274
21
-41.5674
0
LINE
8
BLACK
6
CONTINUOUS
10
106.274
20
-41.5674
11
106.431
21
-41.3675
0
LINE
8
BLACK
6
CONTINUOUS
10
106.431
20
-41.3675
11
106.611
21
-41.1881
0
LINE
8
BLACK
6
CONTINUOUS
10
106.611
20
-41.1881
11
106.812
21
-41.0318
0
LINE
8
BLACK
6
CONTINUOUS
10
106.812
20
-41.0318
11
107.03
21
-40.9009
0
LINE
8
BLACK
6
CONTINUOUS
10
107.03
20
-40.9009
11
107.262
21
-40.7972
0
LINE
8
BLACK
6
CONTINUOUS
10
107.262
20
-40.7972
11
107.505
21
-40.7224
0
LINE
8
BLACK
6
CONTINUOUS
10
107.505
20
-40.7224
11
107.505
21
-40.7224
0
LINE
8
BLACK
6
CONTINUOUS
10
107.505
20
-40.7224
11
109.29
21
-40.3066
0
LINE
8
BLACK
6
CONTINUOUS
10
109.29
20
-40.3066
11
111.082
21
-39.9235
0
LINE
8
BLACK
6
CONTINUOUS
10
111.082
20
-39.9235
11
112.881
21
-39.5733
0
LINE
8
BLACK
6
CONTINUOUS
10
112.881
20
-39.5733
11
114.686
21
-39.2561
0
LINE
8
BLACK
6
CONTINUOUS
10
114.686
20
-39.2561
11
116.497
21
-38.972
0
LINE
8
BLACK
6
CONTINUOUS
10
116.497
20
-38.972
11
118.313
21
-38.7211
0
LINE
8
BLACK
6
CONTINUOUS
10
118.313
20
-38.7211
11
120.133
21
-38.5035
0
LINE
8
BLACK
6
CONTINUOUS
10
120.133
20
-38.5035
11
121.956
21
-38.3192
0
LINE
8
BLACK
6
CONTINUOUS
10
121.956
20
-38.3192
11
123.783
21
-38.1684
0
LINE
8
BLACK
6
CONTINUOUS
10
123.783
20
-38.1684
11
125.612
21
-38.051
0
LINE
8
BLACK
6
CONTINUOUS
10
125.612
20
-38.051
11
127.443
21
-37.9671
0
LINE
8
BLACK
6
CONTINUOUS
10
127.443
20
-37.9671
11
129.275
21
-37.9168
0
LINE
8
BLACK
6
CONTINUOUS
10
129.275
20
-37.9168
11
131.107
21
-37.9
0
LINE
8
BLACK
6
CONTINUOUS
10
131.107
20
-37.9
11
131.107
21
-37.9
0
LINE
8
BLACK
6
CONTINUOUS
10
131.107
20
-37.9
11
175.893
21
-37.9
0
LINE
8
BLACK
6
CONTINUOUS
10
131.107
20
-38.1
11
131.107
21
-38.1
0
LINE
8
BLACK
6
CONTINUOUS
10
131.107
20
-38.1
11
130.193
21
-38.1
0
LINE
8
BLACK
6
CONTINUOUS
10
130.193
20
-38.1
11
128.364
21
-38.1335
0
LINE
8
BLACK
6
CONTINUOUS
10
128.364
20
-38.1335
11
126.536
21
-38.2005
0
LINE
8
BLACK
6
CONTINUOUS
10
126.536
20
-38.2005
11
124.709
21
-38.3009
0
LINE
8
BLACK
6
CONTINUOUS
10
124.709
20
-38.3009
11
122.885
21
-38.4347
0
LINE
8
BLACK
6
CONTINUOUS
10
122.885
20
-38.4347
11
121.064
21
-38.602
0
LINE
8
BLACK
6
CONTINUOUS
10
121.064
20
-38.602
11
119.245
21
-38.8025
0
LINE
8
BLACK
6
CONTINUOUS
10
119.245
20
-38.8025
11
117.431
21
-39.0363
0
LINE
8
BLACK
6
CONTINUOUS
10
117.431
20
-39.0363
11
115.621
21
-39.3033
0
LINE
8
BLACK
6
CONTINUOUS
10
115.621
20
-39.3033
11
113.817
21
-39.6034
0
LINE
8
BLACK
6
CONTINUOUS
10
113.817
20
-39.6034
11
112.018
21
-39.9365
0
LINE
8
BLACK
6
CONTINUOUS
10
112.018
20
-39.9365
11
110.226
21
-40.3024
0
LINE
8
BLACK
6
CONTINUOUS
10
110.226
20
-40.3024
11
108.441
21
-40.7011
0
LINE
8
BLACK
6
CONTINUOUS
10
108.441
20
-40.7011
11
107.552
21
-40.9168
0
LINE
8
BLACK
6
CONTINUOUS
10
107.552
20
-40.9168
11
107.552
21
-40.9168
0
LINE
8
BLACK
6
CONTINUOUS
10
107.552
20
-40.9168
11
107.429
21
-40.9466
0
LINE
8
BLACK
6
CONTINUOUS
10
107.429
20
-40.9466
11
107.192
21
-41.0387
0
LINE
8
BLACK
6
CONTINUOUS
10
107.192
20
-41.0387
11
106.97
21
-41.1613
0
LINE
8
BLACK
6
CONTINUOUS
10
106.97
20
-41.1613
11
106.767
21
-41.3123
0
LINE
8
BLACK
6
CONTINUOUS
10
106.767
20
-41.3123
11
106.585
21
-41.489
0
LINE
8
BLACK
6
CONTINUOUS
10
106.585
20
-41.489
11
106.428
21
-41.6884
0
LINE
8
BLACK
6
CONTINUOUS
10
106.428
20
-41.6884
11
106.299
21
-41.9068
0
LINE
8
BLACK
6
CONTINUOUS
10
106.299
20
-41.9068
11
106.2
21
-42.1404
0
LINE
8
BLACK
6
CONTINUOUS
10
106.2
20
-42.1404
11
106.134
21
-42.3851
0
LINE
8
BLACK
6
CONTINUOUS
10
106.134
20
-42.3851
11
106.1
21
-42.6364
0
LINE
8
BLACK
6
CONTINUOUS
10
106.1
20
-42.6364
11
106.1
21
-42.7632
0
LINE
8
BLACK
6
CONTINUOUS
10
106.1
20
-42.7632
11
106.1
21
-42.7632
0
LINE
8
BLACK
6
CONTINUOUS
10
106.1
20
-42.7632
11
106.1
21
-84.0443
0
LINE
8
BLACK
6
CONTINUOUS
10
106.1
20
-84.0443
11
106.289
21
-84.1597
0
LINE
8
BLACK
6
CONTINUOUS
10
106.289
20
-84.1597
11
106.511
21
-84.3371
0
LINE
8
BLACK
6
CONTINUOUS
10
106.511
20
-84.3371
11
106.709
21
-84.541
0
LINE
8
BLACK
6
CONTINUOUS
10
106.709
20
-84.541
11
106.879
21
-84.7683
0
LINE
8
BLACK
6
CONTINUOUS
10
106.879
20
-84.7683
11
107.02
21
-85.0153
0
LINE
8
BLACK
6
CONTINUOUS
10
107.02
20
-85.0153
11
107.128
21
-85.2781
0
LINE
8
BLACK
6
CONTINUOUS
10
107.128
20
-85.2781
11
107.202
21
-85.5524
0
LINE
8
BLACK
6
CONTINUOUS
10
107.202
20
-85.5524
11
107.241
21
-85.8338
0
LINE
8
BLACK
6
CONTINUOUS
10
107.241
20
-85.8338
11
107.244
21
-86.1179
0
LINE
8
BLACK
6
CONTINUOUS
10
107.244
20
-86.1179
11
107.211
21
-86.4001
0
LINE
8
BLACK
6
CONTINUOUS
10
107.211
20
-86.4001
11
107.143
21
-86.676
0
LINE
8
BLACK
6
CONTINUOUS
10
107.143
20
-86.676
11
107.041
21
-86.941
0
LINE
8
BLACK
6
CONTINUOUS
10
107.041
20
-86.941
11
106.905
21
-87.191
0
LINE
8
BLACK
6
CONTINUOUS
10
106.905
20
-87.191
11
106.74
21
-87.4219
0
LINE
8
BLACK
6
CONTINUOUS
10
106.74
20
-87.4219
11
106.547
21
-87.6301
0
LINE
8
BLACK
6
CONTINUOUS
10
106.547
20
-87.6301
11
106.329
21
-87.8122
0
LINE
8
BLACK
6
CONTINUOUS
10
106.329
20
-87.8122
11
106.089
21
-87.9654
0
LINE
8
BLACK
6
CONTINUOUS
10
106.089
20
-87.9654
11
105.833
21
-88.0872
0
LINE
8
BLACK
6
CONTINUOUS
10
105.833
20
-88.0872
11
105.563
21
-88.1755
0
LINE
8
BLACK
6
CONTINUOUS
10
105.563
20
-88.1755
11
105.284
21
-88.2291
0
LINE
8
BLACK
6
CONTINUOUS
10
105.284
20
-88.2291
11
105
21
-88.2471
0
LINE
8
BLACK
6
CONTINUOUS
10
105
20
-88.2471
11
105
21
-88.2471
0
LINE
8
BLACK
6
CONTINUOUS
10
105
20
-88.2471
11
88
21
-88.2471
0
LINE
8
BLACK
6
CONTINUOUS
10
88
20
-88.2471
11
88
21
-88.2471
0
LINE
8
BLACK
6
CONTINUOUS
10
88
20
-88.2471
11
87.8755
21
-88.2471
0
LINE
8
BLACK
6
CONTINUOUS
10
87.8755
20
-88.2471
11
87.6285
21
-88.2796
0
LINE
8
BLACK
6
CONTINUOUS
10
87.6285
20
-88.2796
11
87.388
21
-88.3441
0
LINE
8
BLACK
6
CONTINUOUS
10
87.388
20
-88.3441
11
87.1579
21
-88.4394
0
LINE
8
BLACK
6
CONTINUOUS
10
87.1579
20
-88.4394
11
86.9422
21
-88.5639
0
LINE
8
BLACK
6
CONTINUOUS
10
86.9422
20
-88.5639
11
86.7446
21
-88.7155
0
LINE
8
BLACK
6
CONTINUOUS
10
86.7446
20
-88.7155
11
86.5684
21
-88.8917
0
LINE
8
BLACK
6
CONTINUOUS
10
86.5684
20
-88.8917
11
86.4168
21
-89.0892
0
LINE
8
BLACK
6
CONTINUOUS
10
86.4168
20
-89.0892
11
86.2923
21
-89.3049
0
LINE
8
BLACK
6
CONTINUOUS
10
86.2923
20
-89.3049
11
86.197
21
-89.535
0
LINE
8
BLACK
6
CONTINUOUS
10
86.197
20
-89.535
11
86.1325
21
-89.7756
0
LINE
8
BLACK
6
CONTINUOUS
10
86.1325
20
-89.7756
11
86.1
21
-90.0226
0
LINE
8
BLACK
6
CONTINUOUS
10
86.1
20
-90.0226
11
86.1
21
-90.1471
0
LINE
8
BLACK
6
CONTINUOUS
10
86.1
20
-90.1471
11
86.1
21
-90.1471
0
LINE
8
BLACK
6
CONTINUOUS
10
86.1
20
-90.1471
11
86.1
21
-124.258
0
LINE
8
BLACK
6
CONTINUOUS
10
86.1
20
-124.258
11
86.1
21
-124.258
0
LINE
8
BLACK
6
CONTINUOUS
10
86.1
20
-124.258
11
86.1
21
-124.724
0
LINE
8
BLACK
6
CONTINUOUS
10
86.1
20
-124.724
11
86.1348
21
-125.655
0
LINE
8
BLACK
6
CONTINUOUS
10
86.1348
20
-125.655
11
86.2044
21
-126.583
0
LINE
8
BLACK
6
CONTINUOUS
10
86.2044
20
-126.583
11
86.3087
21
-127.509
0
LINE
8
BLACK
6
CONTINUOUS
10
86.3087
20
-127.509
11
86.4475
21
-128.43
0
LINE
8
BLACK
6
CONTINUOUS
10
86.4475
20
-128.43
11
86.6207
21
-129.345
0
LINE
8
BLACK
6
CONTINUOUS
10
86.6207
20
-129.345
11
86.8279
21
-130.253
0
LINE
8
BLACK
6
CONTINUOUS
10
86.8279
20
-130.253
11
87.069
21
-131.153
0
LINE
8
BLACK
6
CONTINUOUS
10
87.069
20
-131.153
11
87.3435
21
-132.043
0
LINE
8
BLACK
6
CONTINUOUS
10
87.3435
20
-132.043
11
87.6511
21
-132.922
0
LINE
8
BLACK
6
CONTINUOUS
10
87.6511
20
-132.922
11
87.9914
21
-133.789
0
LINE
8
BLACK
6
CONTINUOUS
10
87.9914
20
-133.789
11
88.3638
21
-134.642
0
LINE
8
BLACK
6
CONTINUOUS
10
88.3638
20
-134.642
11
88.7679
21
-135.482
0
LINE
8
BLACK
6
CONTINUOUS
10
88.7679
20
-135.482
11
89.2031
21
-136.305
0
LINE
8
BLACK
6
CONTINUOUS
10
89.2031
20
-136.305
11
89.436
21
-136.708
0
LINE
8
BLACK
6
CONTINUOUS
10
89.436
20
-136.708
11
101.587
21
-157.754
0
LINE
8
BLACK
6
CONTINUOUS
10
101.587
20
-157.754
11
101.587
21
-157.754
0
LINE
8
BLACK
6
CONTINUOUS
10
101.587
20
-157.754
11
101.703
21
-157.955
0
LINE
8
BLACK
6
CONTINUOUS
10
101.703
20
-157.955
11
101.965
21
-158.337
0
LINE
8
BLACK
6
CONTINUOUS
10
101.965
20
-158.337
11
102.257
21
-158.697
0
LINE
8
BLACK
6
CONTINUOUS
10
102.257
20
-158.697
11
102.576
21
-159.033
0
LINE
8
BLACK
6
CONTINUOUS
10
102.576
20
-159.033
11
102.921
21
-159.344
0
LINE
8
BLACK
6
CONTINUOUS
10
102.921
20
-159.344
11
103.288
21
-159.626
0
LINE
8
BLACK
6
CONTINUOUS
10
103.288
20
-159.626
11
103.677
21
-159.878
0
LINE
8
BLACK
6
CONTINUOUS
10
103.677
20
-159.878
11
104.085
21
-160.099
0
LINE
8
BLACK
6
CONTINUOUS
10
104.085
20
-160.099
11
104.508
21
-160.288
0
LINE
8
BLACK
6
CONTINUOUS
10
104.508
20
-160.288
11
104.945
21
-160.443
0
LINE
8
BLACK
6
CONTINUOUS
10
104.945
20
-160.443
11
105.393
21
-160.563
0
LINE
8
BLACK
6
CONTINUOUS
10
105.393
20
-160.563
11
105.849
21
-160.647
0
LINE
8
BLACK
6
CONTINUOUS
10
105.849
20
-160.647
11
106.31
21
-160.696
0
LINE
8
BLACK
6
CONTINUOUS
10
106.31
20
-160.696
11
106.773
21
-160.708
0
LINE
8
BLACK
6
CONTINUOUS
10
106.773
20
-160.708
11
107.236
21
-160.684
0
LINE
8
BLACK
6
CONTINUOUS
10
107.236
20
-160.684
11
107.696
21
-160.623
0
LINE
8
BLACK
6
CONTINUOUS
10
107.696
20
-160.623
11
108.15
21
-160.527
0
LINE
8
BLACK
6
CONTINUOUS
10
108.15
20
-160.527
11
108.594
21
-160.395
0
LINE
8
BLACK
6
CONTINUOUS
10
108.594
20
-160.395
11
109.027
21
-160.229
0
LINE
8
BLACK
6
CONTINUOUS
10
109.027
20
-160.229
11
109.445
21
-160.029
0
LINE
8
BLACK
6
CONTINUOUS
10
109.445
20
-160.029
11
109.646
21
-159.913
0
LINE
8
BLACK
6
CONTINUOUS
10
109.646
20
-159.913
11
109.646
21
-159.913
0
LINE
8
BLACK
6
CONTINUOUS
10
109.646
20
-159.913
11
129.221
21
-148.612
0
LINE
8
BLACK
6
CONTINUOUS
10
129.221
20
-148.612
11
129.221
21
-148.612
0
LINE
8
BLACK
6
CONTINUOUS
10
129.221
20
-148.612
11
130.365
21
-147.971
0
LINE
8
BLACK
6
CONTINUOUS
10
130.365
20
-147.971
11
131.526
21
-147.361
0
LINE
8
BLACK
6
CONTINUOUS
10
131.526
20
-147.361
11
132.702
21
-146.78
0
LINE
8
BLACK
6
CONTINUOUS
10
132.702
20
-146.78
11
133.893
21
-146.231
0
LINE
8
BLACK
6
CONTINUOUS
10
133.893
20
-146.231
11
135.098
21
-145.714
0
LINE
8
BLACK
6
CONTINUOUS
10
135.098
20
-145.714
11
136.316
21
-145.228
0
LINE
8
BLACK
6
CONTINUOUS
10
136.316
20
-145.228
11
137.547
21
-144.774
0
LINE
8
BLACK
6
CONTINUOUS
10
137.547
20
-144.774
11
138.789
21
-144.352
0
LINE
8
BLACK
6
CONTINUOUS
10
138.789
20
-144.352
11
140.041
21
-143.963
0
LINE
8
BLACK
6
CONTINUOUS
10
140.041
20
-143.963
11
141.304
21
-143.607
0
LINE
8
BLACK
6
CONTINUOUS
10
141.304
20
-143.607
11
142.575
21
-143.284
0
LINE
8
BLACK
6
CONTINUOUS
10
142.575
20
-143.284
11
143.854
21
-142.995
0
LINE
8
BLACK
6
CONTINUOUS
10
143.854
20
-142.995
11
145.141
21
-142.739
0
LINE
8
BLACK
6
CONTINUOUS
10
145.141
20
-142.739
11
146.433
21
-142.517
0
LINE
8
BLACK
6
CONTINUOUS
10
146.433
20
-142.517
11
147.731
21
-142.329
0
LINE
8
BLACK
6
CONTINUOUS
10
147.731
20
-142.329
11
149.034
21
-142.174
0
LINE
8
BLACK
6
CONTINUOUS
10
149.034
20
-142.174
11
150.34
21
-142.054
0
LINE
8
BLACK
6
CONTINUOUS
10
150.34
20
-142.054
11
151.648
21
-141.969
0
LINE
8
BLACK
6
CONTINUOUS
10
151.648
20
-141.969
11
152.959
21
-141.917
0
LINE
8
BLACK
6
CONTINUOUS
10
152.959
20
-141.917
11
154.271
21
-141.9
0
LINE
8
BLACK
6
CONTINUOUS
10
154.271
20
-141.9
11
154.271
21
-141.9
0
LINE
8
BLACK
6
CONTINUOUS
10
154.271
20
-141.9
11
218
21
-141.9
0
LINE
8
BLACK
6
CONTINUOUS
10
218
20
-141.9
11
218.163
21
-141.9
0
LINE
8
BLACK
6
CONTINUOUS
10
218.163
20
-141.9
11
218.487
21
-141.864
0
LINE
8
BLACK
6
CONTINUOUS
10
218.487
20
-141.864
11
218.804
21
-141.791
0
LINE
8
BLACK
6
CONTINUOUS
10
218.804
20
-141.791
11
219.112
21
-141.683
0
LINE
8
BLACK
6
CONTINUOUS
10
219.112
20
-141.683
11
219.405
21
-141.542
0
LINE
8
BLACK
6
CONTINUOUS
10
219.405
20
-141.542
11
219.681
21
-141.369
0
LINE
8
BLACK
6
CONTINUOUS
10
219.681
20
-141.369
11
219.935
21
-141.166
0
LINE
8
BLACK
6
CONTINUOUS
10
219.935
20
-141.166
11
220.166
21
-140.935
0
LINE
8
BLACK
6
CONTINUOUS
10
220.166
20
-140.935
11
220.369
21
-140.681
0
LINE
8
BLACK
6
CONTINUOUS
10
220.369
20
-140.681
11
220.542
21
-140.405
0
LINE
8
BLACK
6
CONTINUOUS
10
220.542
20
-140.405
11
220.683
21
-140.112
0
LINE
8
BLACK
6
CONTINUOUS
10
220.683
20
-140.112
11
220.791
21
-139.804
0
LINE
8
BLACK
6
CONTINUOUS
10
220.791
20
-139.804
11
220.864
21
-139.487
0
LINE
8
BLACK
6
CONTINUOUS
10
220.864
20
-139.487
11
220.9
21
-139.163
0
LINE
8
BLACK
6
CONTINUOUS
10
220.9
20
-139.163
11
220.9
21
-139
0
LINE
8
BLACK
6
CONTINUOUS
10
220.9
20
-139
11
220.9
21
-139
0
LINE
8
BLACK
6
CONTINUOUS
10
220.9
20
-139
11
220.9
21
-54.3019
0
LINE
8
BLACK
6
CONTINUOUS
10
220.9
20
-54.3019
11
220.9
21
-54.3019
0
LINE
8
BLACK
6
CONTINUOUS
10
220.9
20
-54.3019
11
220.9
21
-54.0156
0
LINE
8
BLACK
6
CONTINUOUS
10
220.9
20
-54.0156
11
220.863
21
-53.4443
0
LINE
8
BLACK
6
CONTINUOUS
10
220.863
20
-53.4443
11
220.79
21
-52.8766
0
LINE
8
BLACK
6
CONTINUOUS
10
220.79
20
-52.8766
11
220.68
21
-52.3147
0
LINE
8
BLACK
6
CONTINUOUS
10
220.68
20
-52.3147
11
220.534
21
-51.7611
0
LINE
8
BLACK
6
CONTINUOUS
10
220.534
20
-51.7611
11
220.354
21
-51.2179
0
LINE
8
BLACK
6
CONTINUOUS
10
220.354
20
-51.2179
11
220.138
21
-50.6875
0
LINE
8
BLACK
6
CONTINUOUS
10
220.138
20
-50.6875
11
219.889
21
-50.1721
0
LINE
8
BLACK
6
CONTINUOUS
10
219.889
20
-50.1721
11
219.607
21
-49.6737
0
LINE
8
BLACK
6
CONTINUOUS
10
219.607
20
-49.6737
11
219.294
21
-49.1944
0
LINE
8
BLACK
6
CONTINUOUS
10
219.294
20
-49.1944
11
218.951
21
-48.7362
0
LINE
8
BLACK
6
CONTINUOUS
10
218.951
20
-48.7362
11
218.579
21
-48.3011
0
LINE
8
BLACK
6
CONTINUOUS
10
218.579
20
-48.3011
11
218.18
21
-47.8908
0
LINE
8
BLACK
6
CONTINUOUS
10
218.18
20
-47.8908
11
217.755
21
-47.5069
0
LINE
8
BLACK
6
CONTINUOUS
10
217.755
20
-47.5069
11
217.307
21
-47.1512
0
LINE
8
BLACK
6
CONTINUOUS
10
217.307
20
-47.1512
11
216.836
21
-46.825
0
LINE
8
BLACK
6
CONTINUOUS
10
216.836
20
-46.825
11
216.346
21
-46.5297
0
LINE
8
BLACK
6
CONTINUOUS
10
216.346
20
-46.5297
11
215.837
21
-46.2665
0
LINE
8
BLACK
6
CONTINUOUS
10
215.837
20
-46.2665
11
215.313
21
-46.0365
0
LINE
8
BLACK
6
CONTINUOUS
10
215.313
20
-46.0365
11
215.044
21
-45.9386
0
LINE
8
BLACK
6
CONTINUOUS
10
215.044
20
-45.9386
11
215.044
21
-45.9386
0
LINE
8
BLACK
6
CONTINUOUS
10
215.044
20
-45.9386
11
210.06
21
-44.1247
0
LINE
8
BLACK
6
CONTINUOUS
10
210.06
20
-44.1247
11
210.06
21
-44.1247
0
LINE
8
BLACK
6
CONTINUOUS
10
210.06
20
-44.1247
11
209.15
21
-43.7934
0
LINE
8
BLACK
6
CONTINUOUS
10
209.15
20
-43.7934
11
207.317
21
-43.1662
0
LINE
8
BLACK
6
CONTINUOUS
10
207.317
20
-43.1662
11
205.472
21
-42.5747
0
LINE
8
BLACK
6
CONTINUOUS
10
205.472
20
-42.5747
11
203.616
21
-42.019
0
LINE
8
BLACK
6
CONTINUOUS
10
203.616
20
-42.019
11
201.75
21
-41.4995
0
LINE
8
BLACK
6
CONTINUOUS
10
201.75
20
-41.4995
11
199.874
21
-41.0162
0
LINE
8
BLACK
6
CONTINUOUS
10
199.874
20
-41.0162
11
197.988
21
-40.5694
0
LINE
8
BLACK
6
CONTINUOUS
10
197.988
20
-40.5694
11
196.095
21
-40.1593
0
LINE
8
BLACK
6
CONTINUOUS
10
196.095
20
-40.1593
11
194.194
21
-39.7859
0
LINE
8
BLACK
6
CONTINUOUS
10
194.194
20
-39.7859
11
192.286
21
-39.4495
0
LINE
8
BLACK
6
CONTINUOUS
10
192.286
20
-39.4495
11
190.372
21
-39.1501
0
LINE
8
BLACK
6
CONTINUOUS
10
190.372
20
-39.1501
11
188.452
21
-38.8879
0
LINE
8
BLACK
6
CONTINUOUS
10
188.452
20
-38.8879
11
186.528
21
-38.663
0
LINE
8
BLACK
6
CONTINUOUS
10
186.528
20
-38.663
11
184.6
21
-38.4755
0
LINE
8
BLACK
6
CONTINUOUS
10
184.6
20
-38.4755
11
182.668
21
-38.3253
0
LINE
8
BLACK
6
CONTINUOUS
10
182.668
20
-38.3253
11
180.734
21
-38.2127
0
LINE
8
BLACK
6
CONTINUOUS
10
180.734
20
-38.2127
11
178.798
21
-38.1376
0
LINE
8
BLACK
6
CONTINUOUS
10
178.798
20
-38.1376
11
176.861
21
-38.1
0
LINE
8
BLACK
6
CONTINUOUS
10
176.861
20
-38.1
11
175.893
21
-38.1
0
LINE
8
BLACK
6
CONTINUOUS
10
175.893
20
-38.1
11
131.107
21
-38.1
  0
ENDSEC
  0
EOF
